<svg width="160" height="160" viewBox="0 0 160 160" fill="none" xmlns="http://www.w3.org/2000/svg">
<rect width="160" height="160" fill="#D9D9D9"/>
<path d="M33.7614 87V72.4545H35.4375V77.8239H35.5795C35.7027 77.6345 35.8731 77.393 36.0909 77.0994C36.3134 76.8011 36.6307 76.536 37.0426 76.304C37.4593 76.0672 38.0227 75.9489 38.733 75.9489C39.6515 75.9489 40.4612 76.1785 41.1619 76.6378C41.8627 77.0971 42.4096 77.7481 42.8026 78.5909C43.1955 79.4337 43.392 80.428 43.392 81.5739C43.392 82.7292 43.1955 83.7306 42.8026 84.5781C42.4096 85.4209 41.8651 86.0743 41.169 86.5384C40.473 86.9976 39.6705 87.2273 38.7614 87.2273C38.0606 87.2273 37.4995 87.1113 37.0781 86.8793C36.6567 86.6425 36.3324 86.375 36.1051 86.0767C35.8778 85.7737 35.7027 85.5227 35.5795 85.3239H35.3807V87H33.7614ZM35.4091 81.5455C35.4091 82.3693 35.5298 83.0961 35.7713 83.7259C36.0128 84.3509 36.3655 84.8409 36.8295 85.196C37.2936 85.5464 37.8617 85.7216 38.5341 85.7216C39.2348 85.7216 39.8196 85.5369 40.2884 85.1676C40.7618 84.7936 41.117 84.2917 41.3537 83.6619C41.5952 83.0275 41.7159 82.322 41.7159 81.5455C41.7159 80.7784 41.5975 80.0871 41.3608 79.4716C41.1288 78.8513 40.776 78.3613 40.3026 78.0014C39.8338 77.6368 39.2443 77.4545 38.5341 77.4545C37.8523 77.4545 37.2794 77.6274 36.8153 77.973C36.3513 78.3139 36.0009 78.7921 35.7642 79.4077C35.5275 80.0185 35.4091 80.7311 35.4091 81.5455ZM50.3878 87.2273C49.4029 87.2273 48.5388 86.9929 47.7955 86.5241C47.0568 86.0554 46.4792 85.3996 46.0625 84.5568C45.6506 83.714 45.4446 82.7292 45.4446 81.6023C45.4446 80.4659 45.6506 79.474 46.0625 78.6264C46.4792 77.7789 47.0568 77.1207 47.7955 76.652C48.5388 76.1832 49.4029 75.9489 50.3878 75.9489C51.3726 75.9489 52.2344 76.1832 52.973 76.652C53.7164 77.1207 54.294 77.7789 54.706 78.6264C55.1226 79.474 55.331 80.4659 55.331 81.6023C55.331 82.7292 55.1226 83.714 54.706 84.5568C54.294 85.3996 53.7164 86.0554 52.973 86.5241C52.2344 86.9929 51.3726 87.2273 50.3878 87.2273ZM50.3878 85.7216C51.1359 85.7216 51.7514 85.5298 52.2344 85.1463C52.7173 84.7628 53.0748 84.2585 53.3068 83.6335C53.5388 83.0085 53.6548 82.3314 53.6548 81.6023C53.6548 80.8731 53.5388 80.1937 53.3068 79.5639C53.0748 78.9342 52.7173 78.4252 52.2344 78.0369C51.7514 77.6487 51.1359 77.4545 50.3878 77.4545C49.6397 77.4545 49.0241 77.6487 48.5412 78.0369C48.0582 78.4252 47.7008 78.9342 47.4688 79.5639C47.2367 80.1937 47.1207 80.8731 47.1207 81.6023C47.1207 82.3314 47.2367 83.0085 47.4688 83.6335C47.7008 84.2585 48.0582 84.7628 48.5412 85.1463C49.0241 85.5298 49.6397 85.7216 50.3878 85.7216ZM62.6339 76.0909V77.5114H56.9805V76.0909H62.6339ZM58.6282 73.4773H60.3043V83.875C60.3043 84.3485 60.373 84.7036 60.5103 84.9403C60.6523 85.1723 60.8323 85.3286 61.0501 85.4091C61.2726 85.4848 61.507 85.5227 61.7532 85.5227C61.9379 85.5227 62.0894 85.5133 62.2077 85.4943C62.3261 85.4706 62.4208 85.4517 62.4918 85.4375L62.8327 86.9432C62.7191 86.9858 62.5605 87.0284 62.3569 87.071C62.1533 87.1184 61.8952 87.142 61.5827 87.142C61.1093 87.142 60.6452 87.0402 60.1907 86.8366C59.7409 86.633 59.3668 86.3229 59.0685 85.9062C58.775 85.4896 58.6282 84.964 58.6282 84.3295V73.4773ZM67.0657 80.4375V87H65.3896V72.4545H67.0657V77.7955H67.2077C67.4634 77.232 67.8469 76.7846 68.3583 76.4531C68.8744 76.117 69.561 75.9489 70.418 75.9489C71.1613 75.9489 71.8124 76.098 72.3711 76.3963C72.9298 76.6899 73.363 77.142 73.6708 77.7528C73.9833 78.3589 74.1396 79.1307 74.1396 80.0682V87H72.4634V80.1818C72.4634 79.3153 72.2385 78.6454 71.7887 78.1719C71.3436 77.6937 70.7257 77.4545 69.935 77.4545C69.3858 77.4545 68.8933 77.5705 68.4577 77.8026C68.0269 78.0346 67.686 78.3731 67.435 78.8182C67.1888 79.2633 67.0657 79.803 67.0657 80.4375ZM84.9332 78.5341L83.4276 78.9602C83.3329 78.7093 83.1932 78.4654 83.0085 78.2287C82.8286 77.9872 82.5824 77.7884 82.2699 77.6321C81.9574 77.4759 81.5573 77.3977 81.0696 77.3977C80.402 77.3977 79.8456 77.5516 79.4006 77.8594C78.9602 78.1624 78.7401 78.5483 78.7401 79.017C78.7401 79.4337 78.8916 79.7628 79.1946 80.0043C79.4976 80.2457 79.9711 80.447 80.6151 80.608L82.2344 81.0057C83.2098 81.2424 83.9366 81.6046 84.4148 82.0923C84.893 82.5753 85.1321 83.1979 85.1321 83.9602C85.1321 84.5852 84.9522 85.1439 84.5923 85.6364C84.2372 86.1288 83.7401 86.517 83.1009 86.8011C82.4616 87.0852 81.7183 87.2273 80.8707 87.2273C79.758 87.2273 78.8371 86.9858 78.108 86.5028C77.3788 86.0199 76.9171 85.3144 76.723 84.3864L78.3139 83.9886C78.4654 84.5758 78.7519 85.0161 79.1733 85.3097C79.5994 85.6032 80.1558 85.75 80.8423 85.75C81.6236 85.75 82.2438 85.5843 82.7031 85.2528C83.1671 84.9167 83.3991 84.5142 83.3991 84.0455C83.3991 83.6667 83.2666 83.3494 83.0014 83.0938C82.7363 82.8333 82.3291 82.6392 81.7798 82.5114L79.9616 82.0852C78.9626 81.8485 78.2287 81.4815 77.7599 80.9844C77.2959 80.4825 77.0639 79.8551 77.0639 79.1023C77.0639 78.4867 77.2367 77.9422 77.5824 77.4688C77.9328 76.9953 78.4086 76.6236 79.0099 76.3537C79.616 76.0838 80.3026 75.9489 81.0696 75.9489C82.1491 75.9489 82.9967 76.1856 83.6122 76.6591C84.2325 77.1326 84.6728 77.7576 84.9332 78.5341ZM87.6552 87V76.0909H89.3313V87H87.6552ZM88.5075 74.2727C88.1808 74.2727 87.899 74.1615 87.6623 73.9389C87.4303 73.7164 87.3143 73.4489 87.3143 73.1364C87.3143 72.8239 87.4303 72.5563 87.6623 72.3338C87.899 72.1113 88.1808 72 88.5075 72C88.8342 72 89.1135 72.1113 89.3455 72.3338C89.5823 72.5563 89.7006 72.8239 89.7006 73.1364C89.7006 73.4489 89.5823 73.7164 89.3455 73.9389C89.1135 74.1615 88.8342 74.2727 88.5075 74.2727ZM96.5206 87.2273C95.6115 87.2273 94.8089 86.9976 94.1129 86.5384C93.4169 86.0743 92.8724 85.4209 92.4794 84.5781C92.0864 83.7306 91.8899 82.7292 91.8899 81.5739C91.8899 80.428 92.0864 79.4337 92.4794 78.5909C92.8724 77.7481 93.4193 77.0971 94.12 76.6378C94.8208 76.1785 95.6304 75.9489 96.549 75.9489C97.2592 75.9489 97.8203 76.0672 98.2322 76.304C98.6489 76.536 98.9661 76.8011 99.1839 77.0994C99.4065 77.393 99.5793 77.6345 99.7024 77.8239H99.8445V72.4545H101.521V87H99.9013V85.3239H99.7024C99.5793 85.5227 99.4041 85.7737 99.1768 86.0767C98.9496 86.375 98.6252 86.6425 98.2038 86.8793C97.7824 87.1113 97.2214 87.2273 96.5206 87.2273ZM96.7479 85.7216C97.4202 85.7216 97.9884 85.5464 98.4524 85.196C98.9164 84.8409 99.2692 84.3509 99.5107 83.7259C99.7521 83.0961 99.8729 82.3693 99.8729 81.5455C99.8729 80.7311 99.7545 80.0185 99.5178 79.4077C99.281 78.7921 98.9306 78.3139 98.4666 77.973C98.0026 77.6274 97.4297 77.4545 96.7479 77.4545C96.0376 77.4545 95.4458 77.6368 94.9723 78.0014C94.5036 78.3613 94.1508 78.8513 93.9141 79.4716C93.6821 80.0871 93.5661 80.7784 93.5661 81.5455C93.5661 82.322 93.6844 83.0275 93.9212 83.6619C94.1626 84.2917 94.5178 84.7936 94.9865 85.1676C95.46 85.5369 96.0471 85.7216 96.7479 85.7216ZM109.397 87.2273C108.346 87.2273 107.439 86.9953 106.677 86.5312C105.919 86.0625 105.335 85.4091 104.923 84.571C104.515 83.7282 104.312 82.7481 104.312 81.6307C104.312 80.5133 104.515 79.5284 104.923 78.6761C105.335 77.8191 105.907 77.1515 106.641 76.6733C107.38 76.1903 108.242 75.9489 109.227 75.9489C109.795 75.9489 110.356 76.0436 110.91 76.233C111.464 76.4223 111.968 76.7301 112.423 77.1562C112.877 77.5777 113.239 78.1364 113.509 78.8324C113.779 79.5284 113.914 80.3854 113.914 81.4034V82.1136H105.505V80.6648H112.21C112.21 80.0492 112.086 79.5 111.84 79.017C111.599 78.5341 111.253 78.1529 110.803 77.8736C110.358 77.5942 109.833 77.4545 109.227 77.4545C108.559 77.4545 107.981 77.6203 107.494 77.9517C107.011 78.2784 106.639 78.7045 106.379 79.2301C106.118 79.7557 105.988 80.3191 105.988 80.9205V81.8864C105.988 82.7102 106.13 83.4086 106.414 83.9815C106.703 84.5497 107.103 84.983 107.614 85.2812C108.126 85.5748 108.72 85.7216 109.397 85.7216C109.837 85.7216 110.235 85.66 110.59 85.5369C110.95 85.4091 111.26 85.2197 111.521 84.9688C111.781 84.7131 111.982 84.3958 112.124 84.017L113.744 84.4716C113.573 85.0208 113.287 85.5038 112.884 85.9205C112.482 86.3324 111.985 86.6544 111.393 86.8864C110.801 87.1136 110.136 87.2273 109.397 87.2273ZM124.191 78.5341L122.685 78.9602C122.591 78.7093 122.451 78.4654 122.266 78.2287C122.086 77.9872 121.84 77.7884 121.528 77.6321C121.215 77.4759 120.815 77.3977 120.327 77.3977C119.66 77.3977 119.103 77.5516 118.658 77.8594C118.218 78.1624 117.998 78.5483 117.998 79.017C117.998 79.4337 118.149 79.7628 118.452 80.0043C118.755 80.2457 119.229 80.447 119.873 80.608L121.492 81.0057C122.468 81.2424 123.194 81.6046 123.673 82.0923C124.151 82.5753 124.39 83.1979 124.39 83.9602C124.39 84.5852 124.21 85.1439 123.85 85.6364C123.495 86.1288 122.998 86.517 122.359 86.8011C121.719 87.0852 120.976 87.2273 120.129 87.2273C119.016 87.2273 118.095 86.9858 117.366 86.5028C116.637 86.0199 116.175 85.3144 115.981 84.3864L117.572 83.9886C117.723 84.5758 118.01 85.0161 118.431 85.3097C118.857 85.6032 119.414 85.75 120.1 85.75C120.881 85.75 121.502 85.5843 121.961 85.2528C122.425 84.9167 122.657 84.5142 122.657 84.0455C122.657 83.6667 122.524 83.3494 122.259 83.0938C121.994 82.8333 121.587 82.6392 121.038 82.5114L119.219 82.0852C118.22 81.8485 117.487 81.4815 117.018 80.9844C116.554 80.4825 116.322 79.8551 116.322 79.1023C116.322 78.4867 116.495 77.9422 116.84 77.4688C117.191 76.9953 117.666 76.6236 118.268 76.3537C118.874 76.0838 119.56 75.9489 120.327 75.9489C121.407 75.9489 122.254 76.1856 122.87 76.6591C123.49 77.1326 123.931 77.7576 124.191 78.5341Z" fill="black"/>
<path d="M33.7614 87H33.2614V87.5H33.7614V87ZM33.7614 72.4545V71.9545H33.2614V72.4545H33.7614ZM35.4375 72.4545H35.9375V71.9545H35.4375V72.4545ZM35.4375 77.8239H34.9375V78.3239H35.4375V77.8239ZM35.5795 77.8239V78.3239H35.8509L35.9988 78.0964L35.5795 77.8239ZM36.0909 77.0994L35.6901 76.8004L35.6894 76.8015L36.0909 77.0994ZM37.0426 76.304L37.288 76.7396L37.2896 76.7387L37.0426 76.304ZM41.1619 76.6378L41.436 76.2196L41.436 76.2196L41.1619 76.6378ZM42.8026 84.5781L43.2557 84.7894L43.2562 84.7885L42.8026 84.5781ZM41.169 86.5384L41.4444 86.9557L41.4464 86.9544L41.169 86.5384ZM37.0781 86.8793L36.8332 87.3152L36.837 87.3173L37.0781 86.8793ZM36.1051 86.0767L35.7051 86.3767L35.7074 86.3797L36.1051 86.0767ZM35.5795 85.3239L36.0047 85.0607L35.8581 84.8239H35.5795V85.3239ZM35.3807 85.3239V84.8239H34.8807V85.3239H35.3807ZM35.3807 87V87.5H35.8807V87H35.3807ZM35.7713 83.7259L35.3045 83.9049L35.3049 83.9061L35.7713 83.7259ZM36.8295 85.196L36.5257 85.5931L36.5282 85.595L36.8295 85.196ZM40.2884 85.1676L40.5978 85.5604L40.5983 85.56L40.2884 85.1676ZM41.3537 83.6619L40.8864 83.4841L40.8857 83.486L41.3537 83.6619ZM41.3608 79.4716L40.8925 79.6468L40.8941 79.6511L41.3608 79.4716ZM40.3026 78.0014L39.9956 78.3961L40 78.3995L40.3026 78.0014ZM36.8153 77.973L37.1114 78.376L37.114 78.374L36.8153 77.973ZM35.7642 79.4077L36.2304 79.5884L36.2309 79.5872L35.7642 79.4077ZM34.2614 87V72.4545H33.2614V87H34.2614ZM33.7614 72.9545H35.4375V71.9545H33.7614V72.9545ZM34.9375 72.4545V77.8239H35.9375V72.4545H34.9375ZM35.4375 78.3239H35.5795V77.3239H35.4375V78.3239ZM35.9988 78.0964C36.1139 77.9192 36.2776 77.687 36.4925 77.3974L35.6894 76.8015C35.4687 77.099 35.2914 77.3497 35.1603 77.5514L35.9988 78.0964ZM36.4917 77.3984C36.6629 77.1689 36.921 76.9463 37.288 76.7396L36.7972 75.8683C36.3404 76.1256 35.964 76.4333 35.6901 76.8004L36.4917 77.3984ZM37.2896 76.7387C37.6032 76.5605 38.0706 76.4489 38.733 76.4489V75.4489C37.9749 75.4489 37.3153 75.574 36.7956 75.8692L37.2896 76.7387ZM38.733 76.4489C39.5639 76.4489 40.2763 76.6552 40.8879 77.056L41.436 76.2196C40.646 75.7018 39.7391 75.4489 38.733 75.4489V76.4489ZM40.8879 77.056C41.5025 77.4588 41.9913 78.0341 42.3494 78.8022L43.2557 78.3796C42.8279 77.4621 42.2229 76.7353 41.436 76.2196L40.8879 77.056ZM42.3494 78.8022C42.7052 79.5653 42.892 80.4845 42.892 81.5739H43.892C43.892 80.3716 43.6859 79.3021 43.2557 78.3796L42.3494 78.8022ZM42.892 81.5739C42.892 82.6733 42.705 83.5998 42.3489 84.3678L43.2562 84.7885C43.6861 83.8613 43.892 82.785 43.892 81.5739H42.892ZM42.3494 84.3668C41.9907 85.1361 41.5031 85.7147 40.8917 86.1223L41.4464 86.9544C42.227 86.434 42.8284 85.7058 43.2557 84.7894L42.3494 84.3668ZM40.8937 86.121C40.2867 86.5215 39.5818 86.7273 38.7614 86.7273V87.7273C39.7592 87.7273 40.6593 87.4737 41.4444 86.9557L40.8937 86.121ZM38.7614 86.7273C38.109 86.7273 37.6407 86.6182 37.3193 86.4413L36.837 87.3173C37.3584 87.6043 38.0122 87.7273 38.7614 87.7273V86.7273ZM37.323 86.4433C36.9446 86.2308 36.6787 86.0045 36.5028 85.7737L35.7074 86.3797C35.9861 86.7455 36.3688 87.0543 36.8332 87.3152L37.323 86.4433ZM36.5051 85.7767C36.282 85.4793 36.1167 85.2416 36.0047 85.0607L35.1544 85.587C35.2886 85.8038 35.4736 86.0681 35.7051 86.3767L36.5051 85.7767ZM35.5795 84.8239H35.3807V85.8239H35.5795V84.8239ZM34.8807 85.3239V87H35.8807V85.3239H34.8807ZM35.3807 86.5H33.7614V87.5H35.3807V86.5ZM34.9091 81.5455C34.9091 82.4174 35.0368 83.2069 35.3045 83.9049L36.2382 83.5468C36.0229 82.9853 35.9091 82.3213 35.9091 81.5455H34.9091ZM35.3049 83.9061C35.5746 84.6041 35.9783 85.1742 36.5257 85.5931L37.1334 84.799C36.7527 84.5076 36.451 84.0976 36.2377 83.5457L35.3049 83.9061ZM36.5282 85.595C37.0922 86.0209 37.7707 86.2216 38.5341 86.2216V85.2216C37.9528 85.2216 37.4949 85.0719 37.1308 84.797L36.5282 85.595ZM38.5341 86.2216C39.3267 86.2216 40.0261 86.0108 40.5978 85.5604L39.9789 84.7749C39.6131 85.0631 39.143 85.2216 38.5341 85.2216V86.2216ZM40.5983 85.56C41.1512 85.1232 41.5567 84.5427 41.8217 83.8379L40.8857 83.486C40.6772 84.0406 40.3725 84.4639 39.9784 84.7753L40.5983 85.56ZM41.821 83.8398C42.087 83.141 42.2159 82.3741 42.2159 81.5455H41.2159C41.2159 82.2698 41.1034 82.914 40.8864 83.4841L41.821 83.8398ZM42.2159 81.5455C42.2159 80.7269 42.0895 79.9734 41.8275 79.2921L40.8941 79.6511C41.1056 80.2008 41.2159 80.8299 41.2159 81.5455H42.2159ZM41.8291 79.2964C41.5679 78.5981 41.1621 78.0267 40.6051 77.6033L40 78.3995C40.3899 78.6958 40.6897 79.1046 40.8925 79.6468L41.8291 79.2964ZM40.6095 77.6067C40.0367 77.1612 39.333 76.9545 38.5341 76.9545V77.9545C39.1557 77.9545 39.6309 78.1124 39.9956 78.3961L40.6095 77.6067ZM38.5341 76.9545C37.7645 76.9545 37.0816 77.1512 36.5167 77.572L37.114 78.374C37.4771 78.1036 37.9401 77.9545 38.5341 77.9545V76.9545ZM36.5193 77.5701C35.9675 77.9755 35.5635 78.5367 35.2975 79.2282L36.2309 79.5872C36.4384 79.0476 36.7352 78.6523 37.1114 78.376L36.5193 77.5701ZM35.298 79.227C35.0342 79.9075 34.9091 80.6838 34.9091 81.5455H35.9091C35.9091 80.7784 36.0207 80.1294 36.2304 79.5884L35.298 79.227ZM47.7955 86.5241L47.5275 86.9463L47.5288 86.9471L47.7955 86.5241ZM46.0625 84.5568L45.6133 84.7764L45.6143 84.7784L46.0625 84.5568ZM46.0625 78.6264L45.6138 78.4058L45.6128 78.4079L46.0625 78.6264ZM47.7955 76.652L47.5288 76.2291L47.5275 76.2298L47.7955 76.652ZM52.973 76.652L52.7051 77.0742L52.7063 77.0749L52.973 76.652ZM54.706 78.6264L54.2563 78.845L54.2573 78.847L54.706 78.6264ZM54.706 84.5568L54.2577 84.3352L54.2568 84.3373L54.706 84.5568ZM52.973 86.5241L52.7063 86.1012L52.7051 86.102L52.973 86.5241ZM52.2344 85.1463L51.9234 84.7548L51.9234 84.7548L52.2344 85.1463ZM53.3068 83.6335L53.7756 83.8075L53.7756 83.8075L53.3068 83.6335ZM53.3068 79.5639L53.776 79.3911L53.776 79.3911L53.3068 79.5639ZM52.2344 78.0369L52.5477 77.6472L52.5477 77.6472L52.2344 78.0369ZM48.5412 78.0369L48.2279 77.6472L48.2279 77.6472L48.5412 78.0369ZM47.4688 79.5639L46.9996 79.3911L46.9996 79.3911L47.4688 79.5639ZM47.4688 83.6335L47 83.8075L47 83.8075L47.4688 83.6335ZM48.5412 85.1463L48.8521 84.7548L48.8521 84.7548L48.5412 85.1463ZM50.3878 86.7273C49.4856 86.7273 48.7163 86.5137 48.0621 86.1012L47.5288 86.9471C48.3613 87.4721 49.3203 87.7273 50.3878 87.7273V86.7273ZM48.0634 86.102C47.4079 85.686 46.8899 85.1023 46.5107 84.3352L45.6143 84.7784C46.0684 85.697 46.7058 86.4248 47.5275 86.9463L48.0634 86.102ZM46.5117 84.3373C46.1393 83.5752 45.9446 82.6682 45.9446 81.6023H44.9446C44.9446 82.7901 45.1619 83.8528 45.6133 84.7764L46.5117 84.3373ZM45.9446 81.6023C45.9446 80.5263 46.1395 79.6118 46.5122 78.845L45.6128 78.4079C45.1616 79.3361 44.9446 80.4056 44.9446 81.6023H45.9446ZM46.5112 78.847C46.8906 78.0752 47.4086 77.4897 48.0634 77.0742L47.5275 76.2298C46.7051 76.7518 46.0677 77.4826 45.6138 78.4058L46.5112 78.847ZM48.0621 77.0749C48.7163 76.6624 49.4856 76.4489 50.3878 76.4489V75.4489C49.3203 75.4489 48.3613 75.704 47.5288 76.2291L48.0621 77.0749ZM50.3878 76.4489C51.29 76.4489 52.0563 76.6624 52.7051 77.0742L53.2409 76.2298C52.4124 75.704 51.4552 75.4489 50.3878 75.4489V76.4489ZM52.7063 77.0749C53.3651 77.4903 53.882 78.075 54.2563 78.845L55.1557 78.4079C54.706 77.4828 54.0677 76.7511 53.2397 76.2291L52.7063 77.0749ZM54.2573 78.847C54.634 79.6133 54.831 80.527 54.831 81.6023H55.831C55.831 80.4048 55.6113 79.3346 55.1547 78.4058L54.2573 78.847ZM54.831 81.6023C54.831 82.6674 54.6342 83.5737 54.2577 84.3352L55.1542 84.7784C55.611 83.8543 55.831 82.7909 55.831 81.6023H54.831ZM54.2568 84.3373C53.8827 85.1025 53.3658 85.6854 52.7063 86.1012L53.2397 86.9471C54.067 86.4254 54.7053 85.6967 55.1552 84.7764L54.2568 84.3373ZM52.7051 86.102C52.0563 86.5137 51.29 86.7273 50.3878 86.7273V87.7273C51.4552 87.7273 52.4124 87.4721 53.2409 86.9463L52.7051 86.102ZM50.3878 86.2216C51.224 86.2216 51.9563 86.0056 52.5453 85.5379L51.9234 84.7548C51.5466 85.054 51.0478 85.2216 50.3878 85.2216V86.2216ZM52.5453 85.5379C53.1055 85.093 53.5145 84.5109 53.7756 83.8075L52.8381 83.4595C52.6352 84.0061 52.3291 84.4326 51.9234 84.7548L52.5453 85.5379ZM53.7756 83.8075C54.0301 83.1219 54.1548 82.3853 54.1548 81.6023H53.1548C53.1548 82.2776 53.0476 82.8952 52.8381 83.4595L53.7756 83.8075ZM54.1548 81.6023C54.1548 80.8192 54.0301 80.0808 53.776 79.3911L52.8376 79.7368C53.0476 80.3066 53.1548 80.927 53.1548 81.6023H54.1548ZM53.776 79.3911C53.5153 78.6836 53.1071 78.097 52.5477 77.6472L51.9211 78.4266C52.3276 78.7534 52.6343 79.1848 52.8376 79.7368L53.776 79.3911ZM52.5477 77.6472C51.9585 77.1736 51.2254 76.9545 50.3878 76.9545V77.9545C51.0464 77.9545 51.5443 78.1237 51.9211 78.4266L52.5477 77.6472ZM50.3878 76.9545C49.5502 76.9545 48.817 77.1736 48.2279 77.6472L48.8545 78.4266C49.2313 78.1237 49.7292 77.9545 50.3878 77.9545V76.9545ZM48.2279 77.6472C47.6685 78.097 47.2602 78.6836 46.9996 79.3911L47.9379 79.7368C48.1413 79.1848 48.448 78.7534 48.8545 78.4266L48.2279 77.6472ZM46.9996 79.3911C46.7455 80.0808 46.6207 80.8192 46.6207 81.6023H47.6207C47.6207 80.927 47.728 80.3066 47.9379 79.7368L46.9996 79.3911ZM46.6207 81.6023C46.6207 82.3853 46.7455 83.1219 47 83.8075L47.9375 83.4595C47.728 82.8952 47.6207 82.2776 47.6207 81.6023H46.6207ZM47 83.8075C47.2611 84.5109 47.6701 85.093 48.2303 85.5379L48.8521 84.7548C48.4464 84.4326 48.1404 84.0061 47.9375 83.4595L47 83.8075ZM48.2303 85.5379C48.8193 86.0056 49.5516 86.2216 50.3878 86.2216V85.2216C49.7278 85.2216 49.229 85.054 48.8521 84.7548L48.2303 85.5379ZM62.6339 76.0909H63.1339V75.5909H62.6339V76.0909ZM62.6339 77.5114V78.0114H63.1339V77.5114H62.6339ZM56.9805 77.5114H56.4805V78.0114H56.9805V77.5114ZM56.9805 76.0909V75.5909H56.4805V76.0909H56.9805ZM58.6282 73.4773V72.9773H58.1282V73.4773H58.6282ZM60.3043 73.4773H60.8043V72.9773H60.3043V73.4773ZM60.5103 84.9403L60.0777 85.1913L60.0839 85.2014L60.5103 84.9403ZM61.0501 85.4091L60.8767 85.8782L60.8889 85.8824L61.0501 85.4091ZM62.2077 85.4943L62.2867 85.988L62.2963 85.9865L62.3058 85.9846L62.2077 85.4943ZM62.4918 85.4375L62.9795 85.3271L62.8718 84.8516L62.3938 84.9472L62.4918 85.4375ZM62.8327 86.9432L63.0083 87.4113L63.4167 87.2582L63.3204 86.8328L62.8327 86.9432ZM62.3569 87.071L62.2544 86.5815L62.2436 86.584L62.3569 87.071ZM60.1907 86.8366L59.9845 87.2922L59.9863 87.293L60.1907 86.8366ZM59.0685 85.9062L58.6598 86.1942L58.662 86.1973L59.0685 85.9062ZM62.1339 76.0909V77.5114H63.1339V76.0909H62.1339ZM62.6339 77.0114H56.9805V78.0114H62.6339V77.0114ZM57.4805 77.5114V76.0909H56.4805V77.5114H57.4805ZM56.9805 76.5909H62.6339V75.5909H56.9805V76.5909ZM58.6282 73.9773H60.3043V72.9773H58.6282V73.9773ZM59.8043 73.4773V83.875H60.8043V73.4773H59.8043ZM59.8043 83.875C59.8043 84.3804 59.8747 84.8411 60.0778 85.1912L60.9428 84.6895C60.8712 84.5661 60.8043 84.3165 60.8043 83.875H59.8043ZM60.0839 85.2014C60.2741 85.5121 60.5362 85.7522 60.8767 85.8781L61.2234 84.9401C61.1283 84.905 61.0306 84.8326 60.9367 84.6793L60.0839 85.2014ZM60.8889 85.8824C61.1658 85.9767 61.4548 86.0227 61.7532 86.0227V85.0227C61.5592 85.0227 61.3794 84.993 61.2112 84.9358L60.8889 85.8824ZM61.7532 86.0227C61.9518 86.0227 62.1323 86.0128 62.2867 85.988L62.1287 85.0006C62.0465 85.0138 61.9239 85.0227 61.7532 85.0227V86.0227ZM62.3058 85.9846C62.4242 85.9609 62.5189 85.942 62.5899 85.9278L62.3938 84.9472C62.3228 84.9614 62.2281 84.9804 62.1097 85.004L62.3058 85.9846ZM62.0042 85.5479L62.3451 87.0536L63.3204 86.8328L62.9795 85.3271L62.0042 85.5479ZM62.6572 86.475C62.5783 86.5046 62.448 86.5411 62.2545 86.5816L62.4593 87.5604C62.6729 87.5157 62.8599 87.467 63.0083 87.4113L62.6572 86.475ZM62.2436 86.584C62.0906 86.6196 61.8739 86.642 61.5827 86.642V87.642C61.9166 87.642 62.216 87.6171 62.4701 87.558L62.2436 86.584ZM61.5827 86.642C61.1833 86.642 60.7887 86.5567 60.3951 86.3803L59.9863 87.293C60.5017 87.5238 61.0352 87.642 61.5827 87.642V86.642ZM60.3969 86.3811C60.0303 86.2152 59.7242 85.9632 59.4751 85.6152L58.662 86.1973C59.0094 86.6826 59.4515 87.0509 59.9845 87.2922L60.3969 86.3811ZM59.4773 85.6183C59.2563 85.3046 59.1282 84.8864 59.1282 84.3295H58.1282C58.1282 85.0417 58.2937 85.6746 58.6598 86.1942L59.4773 85.6183ZM59.1282 84.3295V73.4773H58.1282V84.3295H59.1282ZM67.0657 87V87.5H67.5657V87H67.0657ZM65.3896 87H64.8896V87.5H65.3896V87ZM65.3896 72.4545V71.9545H64.8896V72.4545H65.3896ZM67.0657 72.4545H67.5657V71.9545H67.0657V72.4545ZM67.0657 77.7955H66.5657V78.2955H67.0657V77.7955ZM67.2077 77.7955V78.2955H67.5299L67.6631 78.0021L67.2077 77.7955ZM68.3583 76.4531L68.6303 76.8727L68.6312 76.8721L68.3583 76.4531ZM72.3711 76.3963L72.1356 76.8374L72.1385 76.8389L72.3711 76.3963ZM73.6708 77.7528L73.2243 77.9778L73.2264 77.982L73.6708 77.7528ZM74.1396 87V87.5H74.6396V87H74.1396ZM72.4634 87H71.9634V87.5H72.4634V87ZM71.7887 78.1719L71.4227 78.5125L71.4262 78.5162L71.7887 78.1719ZM68.4577 77.8026L68.2227 77.3612L68.2207 77.3623L68.4577 77.8026ZM67.435 78.8182L66.9995 78.5726L66.9975 78.5762L67.435 78.8182ZM66.5657 80.4375V87H67.5657V80.4375H66.5657ZM67.0657 86.5H65.3896V87.5H67.0657V86.5ZM65.8896 87V72.4545H64.8896V87H65.8896ZM65.3896 72.9545H67.0657V71.9545H65.3896V72.9545ZM66.5657 72.4545V77.7955H67.5657V72.4545H66.5657ZM67.0657 78.2955H67.2077V77.2955H67.0657V78.2955ZM67.6631 78.0021C67.8799 77.5243 68.2004 77.1513 68.6303 76.8727L68.0864 76.0335C67.4935 76.4178 67.047 76.9398 66.7524 77.5888L67.6631 78.0021ZM68.6312 76.8721C69.0401 76.6057 69.6213 76.4489 70.418 76.4489V75.4489C69.5006 75.4489 68.7087 75.6282 68.0854 76.0342L68.6312 76.8721ZM70.418 76.4489C71.0935 76.4489 71.661 76.584 72.1356 76.8374L72.6066 75.9552C71.9638 75.612 71.2292 75.4489 70.418 75.4489V76.4489ZM72.1385 76.8389C72.5972 77.0799 72.9593 77.4519 73.2243 77.9778L74.1173 77.5279C73.7668 76.8322 73.2624 76.2998 72.6037 75.9537L72.1385 76.8389ZM73.2264 77.982C73.4913 78.4957 73.6396 79.1821 73.6396 80.0682H74.6396C74.6396 79.0793 74.4753 78.2221 74.1152 77.5237L73.2264 77.982ZM73.6396 80.0682V87H74.6396V80.0682H73.6396ZM74.1396 86.5H72.4634V87.5H74.1396V86.5ZM72.9634 87V80.1818H71.9634V87H72.9634ZM72.9634 80.1818C72.9634 79.2302 72.715 78.421 72.1512 77.8275L71.4262 78.5162C71.762 78.8697 71.9634 79.4005 71.9634 80.1818H72.9634ZM72.1547 77.8312C71.5955 77.2304 70.833 76.9545 69.935 76.9545V77.9545C70.6184 77.9545 71.0917 78.1569 71.4227 78.5125L72.1547 77.8312ZM69.935 76.9545C69.3132 76.9545 68.7385 77.0865 68.2227 77.3612L68.6928 78.2439C69.0482 78.0546 69.4583 77.9545 69.935 77.9545V76.9545ZM68.2207 77.3623C67.7028 77.6412 67.2947 78.049 66.9995 78.5726L67.8706 79.0638C68.0772 78.6972 68.3509 78.4279 68.6948 78.2428L68.2207 77.3623ZM66.9975 78.5762C66.7014 79.1115 66.5657 79.739 66.5657 80.4375H67.5657C67.5657 79.8671 67.6762 79.415 67.8725 79.0602L66.9975 78.5762ZM84.9332 78.5341L85.0694 79.0152L85.5741 78.8724L85.4073 78.3751L84.9332 78.5341ZM83.4276 78.9602L82.9598 79.1368L83.1219 79.5664L83.5637 79.4413L83.4276 78.9602ZM83.0085 78.2287L82.6075 78.5275L82.6143 78.5362L83.0085 78.2287ZM82.2699 77.6321L82.4935 77.1849L82.4935 77.1849L82.2699 77.6321ZM79.4006 77.8594L79.684 78.2713L79.6849 78.2706L79.4006 77.8594ZM79.1946 80.0043L78.883 80.3953L78.883 80.3953L79.1946 80.0043ZM80.6151 80.608L80.4938 81.093L80.4958 81.0935L80.6151 80.608ZM82.2344 81.0057L82.1151 81.4913L82.1164 81.4916L82.2344 81.0057ZM84.4148 82.0923L84.0578 82.4424L84.0595 82.4441L84.4148 82.0923ZM84.5923 85.6364L84.1886 85.3413L84.1868 85.3439L84.5923 85.6364ZM78.108 86.5028L78.3841 86.086L78.3841 86.086L78.108 86.5028ZM76.723 84.3864L76.6017 83.9013L76.1351 84.0179L76.2336 84.4887L76.723 84.3864ZM78.3139 83.9886L78.7981 83.8637L78.6741 83.3832L78.1927 83.5036L78.3139 83.9886ZM79.1733 85.3097L78.8875 85.7199L78.8896 85.7214L79.1733 85.3097ZM82.7031 85.2528L82.9957 85.6583L82.9965 85.6577L82.7031 85.2528ZM83.0014 83.0938L82.6511 83.4505L82.6544 83.4537L83.0014 83.0938ZM81.7798 82.5114L81.6657 82.9982L81.6665 82.9983L81.7798 82.5114ZM79.9616 82.0852L79.8464 82.5718L79.8476 82.572L79.9616 82.0852ZM77.7599 80.9844L77.3928 81.3238L77.3961 81.3274L77.7599 80.9844ZM77.5824 77.4688L77.1805 77.1713L77.1785 77.1739L77.5824 77.4688ZM79.0099 76.3537L78.8065 75.8969L78.8052 75.8975L79.0099 76.3537ZM83.6122 76.6591L83.3074 77.0554L83.3088 77.0565L83.6122 76.6591ZM84.7971 78.053L83.2914 78.4791L83.5637 79.4413L85.0694 79.0152L84.7971 78.053ZM83.8954 78.7837C83.7809 78.4804 83.6148 78.1929 83.4028 77.9212L82.6143 78.5362C82.7716 78.7379 82.8848 78.9382 82.9598 79.1368L83.8954 78.7837ZM83.4095 77.93C83.1759 77.6165 82.8647 77.3705 82.4935 77.1849L82.0463 78.0793C82.3001 78.2062 82.4813 78.358 82.6076 78.5274L83.4095 77.93ZM82.4935 77.1849C82.0897 76.983 81.606 76.8977 81.0696 76.8977V77.8977C81.5086 77.8977 81.8251 77.9687 82.0463 78.0793L82.4935 77.1849ZM81.0696 76.8977C80.3244 76.8977 79.6626 77.0703 79.1162 77.4481L79.6849 78.2706C80.0287 78.0329 80.4796 77.8977 81.0696 77.8977V76.8977ZM79.1171 77.4475C78.5633 77.8286 78.2401 78.3586 78.2401 79.017H79.2401C79.2401 78.738 79.3572 78.4962 79.684 78.2713L79.1171 77.4475ZM78.2401 79.017C78.2401 79.5728 78.451 80.051 78.883 80.3953L79.5062 79.6132C79.3322 79.4745 79.2401 79.2947 79.2401 79.017H78.2401ZM78.883 80.3953C79.2684 80.7024 79.8231 80.9253 80.4938 81.093L80.7363 80.1229C80.1191 79.9686 79.7268 79.789 79.5062 79.6132L78.883 80.3953ZM80.4958 81.0935L82.1151 81.4913L82.3536 80.5201L80.7343 80.1224L80.4958 81.0935ZM82.1164 81.4916C83.0411 81.716 83.6688 82.0458 84.0578 82.4424L84.7718 81.7423C84.2043 81.1635 83.3785 80.7689 82.3523 80.5198L82.1164 81.4916ZM84.0595 82.4441C84.4334 82.8217 84.6321 83.3122 84.6321 83.9602H85.6321C85.6321 83.0836 85.3526 82.3288 84.7701 81.7405L84.0595 82.4441ZM84.6321 83.9602C84.6321 84.482 84.4843 84.9368 84.1886 85.3414L84.996 85.9314C85.4201 85.3511 85.6321 84.6885 85.6321 83.9602H84.6321ZM84.1868 85.3439C83.8909 85.7542 83.4686 86.0905 82.8978 86.3442L83.3039 87.258C84.0115 86.9436 84.5836 86.5033 84.9979 85.9288L84.1868 85.3439ZM82.8978 86.3442C82.3345 86.5946 81.6628 86.7273 80.8707 86.7273V87.7273C81.7737 87.7273 82.5887 87.5759 83.3039 87.258L82.8978 86.3442ZM80.8707 86.7273C79.8296 86.7273 79.0117 86.5017 78.3841 86.086L77.8319 86.9197C78.6626 87.4699 79.6865 87.7273 80.8707 87.7273V86.7273ZM78.3841 86.086C77.7744 85.6822 77.3821 85.0951 77.2124 84.284L76.2336 84.4887C76.4522 85.5337 76.9832 86.3576 77.8319 86.9197L78.3841 86.086ZM76.8443 84.8714L78.4352 84.4737L78.1927 83.5036L76.6017 83.9013L76.8443 84.8714ZM77.8298 84.1136C78.0055 84.7945 78.3508 85.3461 78.8875 85.7199L79.4591 84.8994C79.153 84.6861 78.9254 84.3571 78.7981 83.8637L77.8298 84.1136ZM78.8896 85.7214C79.4225 86.0885 80.0871 86.25 80.8423 86.25V85.25C80.2245 85.25 79.7763 85.1179 79.4569 84.8979L78.8896 85.7214ZM80.8423 86.25C81.6897 86.25 82.4244 86.0706 82.9957 85.6583L82.4105 84.8474C82.0633 85.0979 81.5575 85.25 80.8423 85.25V86.25ZM82.9965 85.6577C83.5578 85.251 83.8991 84.7108 83.8991 84.0455H82.8991C82.8991 84.3176 82.7764 84.5823 82.4098 84.8479L82.9965 85.6577ZM83.8991 84.0455C83.8991 83.5352 83.7144 83.0867 83.3485 82.7338L82.6544 83.4537C82.8187 83.6122 82.8991 83.7981 82.8991 84.0455H83.8991ZM83.3518 82.737C82.9955 82.3871 82.489 82.1631 81.8932 82.0244L81.6665 82.9983C82.1691 83.1153 82.477 83.2795 82.6511 83.4505L83.3518 82.737ZM81.8939 82.0246L80.0757 81.5984L79.8476 82.572L81.6657 82.9982L81.8939 82.0246ZM80.0769 81.5987C79.1282 81.3739 78.4997 81.0401 78.1237 80.6414L77.3961 81.3274C77.9577 81.923 78.797 82.3231 79.8464 82.5718L80.0769 81.5987ZM78.1271 80.6449C77.7574 80.2451 77.5639 79.7431 77.5639 79.1023H76.5639C76.5639 79.9671 76.8344 80.7198 77.3928 81.3238L78.1271 80.6449ZM77.5639 79.1023C77.5639 78.5871 77.7063 78.147 77.9862 77.7636L77.1785 77.1739C76.7672 77.7375 76.5639 78.3864 76.5639 79.1023H77.5639ZM77.9843 77.7662C78.2778 77.3695 78.6821 77.0489 79.2147 76.8099L78.8052 75.8975C78.1351 76.1983 77.5877 76.621 77.1805 77.1713L77.9843 77.7662ZM79.2133 76.8105C79.7461 76.5732 80.3618 76.4489 81.0696 76.4489V75.4489C80.2433 75.4489 79.4859 75.5944 78.8065 75.8969L79.2133 76.8105ZM81.0696 76.4489C82.0811 76.4489 82.8077 76.671 83.3074 77.0554L83.9171 76.2628C83.1857 75.7002 82.2172 75.4489 81.0696 75.4489V76.4489ZM83.3088 77.0565C83.8456 77.4663 84.2289 78.0063 84.4592 78.6931L85.4073 78.3751C85.1168 77.5088 84.6194 76.7989 83.9156 76.2617L83.3088 77.0565ZM87.6552 87H87.1552V87.5H87.6552V87ZM87.6552 76.0909V75.5909H87.1552V76.0909H87.6552ZM89.3313 76.0909H89.8313V75.5909H89.3313V76.0909ZM89.3313 87V87.5H89.8313V87H89.3313ZM87.6623 73.9389L87.3162 74.2998L87.3198 74.3032L87.6623 73.9389ZM87.6623 72.3338L87.3198 71.9695L87.3162 71.973L87.6623 72.3338ZM89.3455 72.3338L88.9994 72.6947L89.0031 72.6981L89.3455 72.3338ZM89.3455 73.9389L89.0031 73.5746L88.9994 73.5781L89.3455 73.9389ZM88.1552 87V76.0909H87.1552V87H88.1552ZM87.6552 76.5909H89.3313V75.5909H87.6552V76.5909ZM88.8313 76.0909V87H89.8313V76.0909H88.8313ZM89.3313 86.5H87.6552V87.5H89.3313V86.5ZM88.5075 73.7727C88.3072 73.7727 88.1482 73.7094 88.0047 73.5746L87.3198 74.3032C87.6499 74.6135 88.0543 74.7727 88.5075 74.7727V73.7727ZM88.0084 73.5781C87.8715 73.4468 87.8143 73.3083 87.8143 73.1364H86.8143C86.8143 73.5894 86.989 73.986 87.3162 74.2998L88.0084 73.5781ZM87.8143 73.1364C87.8143 72.9644 87.8715 72.8259 88.0084 72.6946L87.3162 71.973C86.989 72.2867 86.8143 72.6833 86.8143 73.1364H87.8143ZM88.0047 72.6981C88.1482 72.5633 88.3072 72.5 88.5075 72.5V71.5C88.0543 71.5 87.6499 71.6593 87.3198 71.9695L88.0047 72.6981ZM88.5075 72.5C88.7075 72.5 88.8622 72.563 88.9994 72.6946L89.6916 71.973C89.3649 71.6595 88.9608 71.5 88.5075 71.5V72.5ZM89.0031 72.6981C89.1438 72.8304 89.2006 72.9679 89.2006 73.1364H90.2006C90.2006 72.6798 90.0208 72.2823 89.688 71.9695L89.0031 72.6981ZM89.2006 73.1364C89.2006 73.3048 89.1438 73.4423 89.0031 73.5746L89.688 74.3032C90.0208 73.9904 90.2006 73.5929 90.2006 73.1364H89.2006ZM88.9994 73.5781C88.8622 73.7097 88.7075 73.7727 88.5075 73.7727V74.7727C88.9608 74.7727 89.3649 74.6132 89.6916 74.2998L88.9994 73.5781ZM94.1129 86.5384L93.8356 86.9544L93.8375 86.9557L94.1129 86.5384ZM92.4794 84.5781L92.0258 84.7885L92.0262 84.7894L92.4794 84.5781ZM92.4794 78.5909L92.0262 78.3796L92.0262 78.3796L92.4794 78.5909ZM94.12 76.6378L93.8459 76.2196L93.8459 76.2196L94.12 76.6378ZM98.2322 76.304L97.9831 76.7375L97.989 76.7408L98.2322 76.304ZM99.1839 77.0994L98.7801 77.3943L98.7855 77.4015L99.1839 77.0994ZM99.7024 77.8239L99.2832 78.0964L99.4311 78.3239H99.7024V77.8239ZM99.8445 77.8239V78.3239H100.344V77.8239H99.8445ZM99.8445 72.4545V71.9545H99.3445V72.4545H99.8445ZM101.521 72.4545H102.021V71.9545H101.521V72.4545ZM101.521 87V87.5H102.021V87H101.521ZM99.9013 87H99.4013V87.5H99.9013V87ZM99.9013 85.3239H100.401V84.8239H99.9013V85.3239ZM99.7024 85.3239V84.8239H99.4239L99.2773 85.0607L99.7024 85.3239ZM99.1768 86.0767L99.5746 86.3797L99.5768 86.3767L99.1768 86.0767ZM98.2038 86.8793L98.445 87.3173L98.4487 87.3152L98.2038 86.8793ZM98.4524 85.196L98.7537 85.5951L98.7563 85.5931L98.4524 85.196ZM99.5107 83.7259L99.9771 83.9061L99.9775 83.9049L99.5107 83.7259ZM99.5178 79.4077L99.0511 79.5872L99.0516 79.5884L99.5178 79.4077ZM98.4666 77.973L98.1679 78.374L98.1706 78.376L98.4666 77.973ZM94.9723 78.0014L95.2768 78.398L95.2773 78.3976L94.9723 78.0014ZM93.9141 79.4716L93.4469 79.2933L93.4462 79.2952L93.9141 79.4716ZM93.9212 83.6619L93.4527 83.8367L93.4543 83.841L93.9212 83.6619ZM94.9865 85.1676L94.6746 85.5585L94.679 85.5619L94.9865 85.1676ZM96.5206 86.7273C95.7002 86.7273 94.9952 86.5215 94.3883 86.121L93.8375 86.9557C94.6226 87.4737 95.5228 87.7273 96.5206 87.7273V86.7273ZM94.3903 86.1223C93.7788 85.7147 93.2913 85.1361 92.9326 84.3668L92.0262 84.7894C92.4535 85.7058 93.055 86.434 93.8356 86.9544L94.3903 86.1223ZM92.933 84.3678C92.5769 83.5998 92.3899 82.6733 92.3899 81.5739H91.3899C91.3899 82.785 91.5959 83.8613 92.0258 84.7885L92.933 84.3678ZM92.3899 81.5739C92.3899 80.4845 92.5767 79.5653 92.9326 78.8022L92.0262 78.3796C91.5961 79.3021 91.3899 80.3716 91.3899 81.5739H92.3899ZM92.9326 78.8022C93.2907 78.0341 93.7795 77.4588 94.3941 77.056L93.8459 76.2196C93.0591 76.7353 92.4541 77.4621 92.0262 78.3796L92.9326 78.8022ZM94.3941 77.056C95.0056 76.6552 95.7181 76.4489 96.549 76.4489V75.4489C95.5428 75.4489 94.6359 75.7018 93.8459 76.2196L94.3941 77.056ZM96.549 76.4489C97.2119 76.4489 97.6755 76.5607 97.9831 76.7375L98.4814 75.8705C97.9652 75.5738 97.3066 75.4489 96.549 75.4489V76.4489ZM97.989 76.7408C98.3602 76.9475 98.6155 77.1688 98.7801 77.3943L99.5878 76.8046C99.3168 76.4335 98.9376 76.1245 98.4755 75.8671L97.989 76.7408ZM98.7855 77.4015C99.0047 77.6906 99.1694 77.9213 99.2832 78.0964L100.122 77.5514C99.9892 77.3476 99.8083 77.0954 99.5824 76.7974L98.7855 77.4015ZM99.7024 78.3239H99.8445V77.3239H99.7024V78.3239ZM100.344 77.8239V72.4545H99.3445V77.8239H100.344ZM99.8445 72.9545H101.521V71.9545H99.8445V72.9545ZM101.021 72.4545V87H102.021V72.4545H101.021ZM101.521 86.5H99.9013V87.5H101.521V86.5ZM100.401 87V85.3239H99.4013V87H100.401ZM99.9013 84.8239H99.7024V85.8239H99.9013V84.8239ZM99.2773 85.0607C99.1653 85.2416 98.9999 85.4793 98.7768 85.7767L99.5768 86.3767C99.8083 86.0681 99.9933 85.8038 100.128 85.587L99.2773 85.0607ZM98.7791 85.7737C98.6033 86.0045 98.3373 86.2308 97.9589 86.4433L98.4487 87.3152C98.9131 87.0543 99.2959 86.7455 99.5746 86.3797L98.7791 85.7737ZM97.9627 86.4413C97.6413 86.6182 97.1729 86.7273 96.5206 86.7273V87.7273C97.2698 87.7273 97.9236 87.6043 98.445 87.3173L97.9627 86.4413ZM96.7479 86.2216C97.5113 86.2216 98.1898 86.0209 98.7537 85.595L98.1511 84.797C97.787 85.0719 97.3292 85.2216 96.7479 85.2216V86.2216ZM98.7563 85.5931C99.3036 85.1742 99.7074 84.6041 99.9771 83.9061L99.0443 83.5457C98.831 84.0976 98.5292 84.5076 98.1485 84.799L98.7563 85.5931ZM99.9775 83.9049C100.245 83.2069 100.373 82.4174 100.373 81.5455H99.3729C99.3729 82.3213 99.2591 82.9853 99.0438 83.5468L99.9775 83.9049ZM100.373 81.5455C100.373 80.6838 100.248 79.9075 99.984 79.227L99.0516 79.5884C99.2613 80.1294 99.3729 80.7784 99.3729 81.5455H100.373ZM99.9844 79.2282C99.7185 78.5367 99.3145 77.9755 98.7627 77.5701L98.1706 78.376C98.5468 78.6523 98.8436 79.0476 99.0511 79.5872L99.9844 79.2282ZM98.7653 77.572C98.2003 77.1512 97.5175 76.9545 96.7479 76.9545V77.9545C97.3419 77.9545 97.8049 78.1036 98.1679 78.374L98.7653 77.572ZM96.7479 76.9545C95.9488 76.9545 95.2438 77.1613 94.6673 77.6053L95.2773 78.3976C95.6477 78.1124 96.1265 77.9545 96.7479 77.9545V76.9545ZM94.6678 77.6048C94.1169 78.0277 93.7125 78.5976 93.4469 79.2933L94.3812 79.6499C94.5891 79.1051 94.8902 78.6948 95.2768 78.398L94.6678 77.6048ZM93.4462 79.2952C93.1897 79.9757 93.0661 80.728 93.0661 81.5455H94.0661C94.0661 80.8288 94.1744 80.1986 94.3819 79.6479L93.4462 79.2952ZM93.0661 81.5455C93.0661 82.373 93.1923 83.1388 93.4527 83.8367L94.3896 83.4871C94.1766 82.9161 94.0661 82.2709 94.0661 81.5455H93.0661ZM93.4543 83.841C93.7236 84.5432 94.1279 85.1222 94.6746 85.5584L95.2984 84.7768C94.9076 84.465 94.6017 84.0401 94.388 83.4829L93.4543 83.841ZM94.679 85.5619C95.2545 86.0108 95.9551 86.2216 96.7479 86.2216V85.2216C96.1391 85.2216 95.6655 85.0631 95.294 84.7734L94.679 85.5619ZM106.677 86.5312L106.414 86.9565L106.417 86.9583L106.677 86.5312ZM104.923 84.571L104.472 84.7885L104.474 84.7916L104.923 84.571ZM104.923 78.6761L104.472 78.4595L104.471 78.4606L104.923 78.6761ZM106.641 76.6733L106.914 77.0922L106.915 77.0918L106.641 76.6733ZM110.91 76.233L111.072 75.7598L111.072 75.7598L110.91 76.233ZM112.423 77.1562L112.081 77.521L112.083 77.5229L112.423 77.1562ZM113.509 78.8324L113.975 78.6516L113.975 78.6516L113.509 78.8324ZM113.914 82.1136V82.6136H114.414V82.1136H113.914ZM105.505 82.1136H105.005V82.6136H105.505V82.1136ZM105.505 80.6648V80.1648H105.005V80.6648H105.505ZM112.21 80.6648V81.1648H112.71V80.6648H112.21ZM111.84 79.017L111.393 79.2407L111.395 79.2441L111.84 79.017ZM110.803 77.8736L110.537 78.2971L110.539 78.2983L110.803 77.8736ZM107.494 77.9517L107.774 78.3658L107.775 78.3652L107.494 77.9517ZM106.379 79.2301L105.931 79.0081L105.931 79.0081L106.379 79.2301ZM106.414 83.9815L105.966 84.2037L105.968 84.2081L106.414 83.9815ZM107.614 85.2812L107.362 85.7131L107.365 85.7149L107.614 85.2812ZM110.59 85.5369L110.754 86.0094L110.758 86.0081L110.59 85.5369ZM111.521 84.9688L111.868 85.3288L111.871 85.3255L111.521 84.9688ZM112.124 84.017L112.259 83.5357L111.817 83.4116L111.656 83.8415L112.124 84.017ZM113.744 84.4716L114.221 84.6198L114.373 84.1291L113.879 83.9902L113.744 84.4716ZM112.884 85.9205L113.242 86.2699L113.244 86.2678L112.884 85.9205ZM111.393 86.8864L111.572 87.3531L111.575 87.3519L111.393 86.8864ZM109.397 86.7273C108.421 86.7273 107.608 86.5126 106.937 86.1042L106.417 86.9583C107.271 87.478 108.271 87.7273 109.397 87.7273V86.7273ZM106.94 86.1061C106.266 85.6892 105.744 85.1085 105.371 84.3505L104.474 84.7916C104.925 85.7097 105.572 86.4358 106.414 86.9564L106.94 86.1061ZM105.373 84.3535C105.004 83.5904 104.812 82.6872 104.812 81.6307H103.812C103.812 82.809 104.027 83.866 104.472 84.7885L105.373 84.3535ZM104.812 81.6307C104.812 80.5743 105.004 79.6654 105.374 78.8917L104.471 78.4606C104.027 79.3914 103.812 80.4522 103.812 81.6307H104.812ZM105.373 78.8927C105.749 78.1109 106.264 77.5163 106.914 77.0922L106.368 76.2544C105.551 76.7868 104.92 77.5274 104.472 78.4595L105.373 78.8927ZM106.915 77.0918C107.563 76.6681 108.327 76.4489 109.227 76.4489V75.4489C108.156 75.4489 107.197 75.7126 106.368 76.2548L106.915 77.0918ZM109.227 76.4489C109.738 76.4489 110.245 76.5339 110.748 76.7061L111.072 75.7598C110.467 75.5532 109.851 75.4489 109.227 75.4489V76.4489ZM110.748 76.7061C111.231 76.8711 111.674 77.1402 112.081 77.521L112.765 76.7915C112.262 76.32 111.697 75.9736 111.072 75.7598L110.748 76.7061ZM112.083 77.5229C112.471 77.8833 112.795 78.3736 113.043 79.0132L113.975 78.6516C113.684 77.8991 113.283 77.2721 112.763 76.7896L112.083 77.5229ZM113.043 79.0131C113.284 79.6347 113.414 80.4262 113.414 81.4034H114.414C114.414 80.3446 114.274 79.4221 113.975 78.6516L113.043 79.0131ZM113.414 81.4034V82.1136H114.414V81.4034H113.414ZM113.914 81.6136H105.505V82.6136H113.914V81.6136ZM106.005 82.1136V80.6648H105.005V82.1136H106.005ZM105.505 81.1648H112.21V80.1648H105.505V81.1648ZM112.71 80.6648C112.71 79.9811 112.572 79.3522 112.286 78.79L111.395 79.2441C111.601 79.6478 111.71 80.1174 111.71 80.6648H112.71ZM112.287 78.7934C112.005 78.2295 111.597 77.778 111.067 77.4488L110.539 78.2983C110.909 78.5279 111.192 78.8387 111.393 79.2407L112.287 78.7934ZM111.069 77.4501C110.533 77.1135 109.912 76.9545 109.227 76.9545V77.9545C109.753 77.9545 110.184 78.075 110.537 78.2971L111.069 77.4501ZM109.227 76.9545C108.472 76.9545 107.794 77.1431 107.213 77.5382L107.775 78.3652C108.169 78.0974 108.645 77.9545 109.227 77.9545V76.9545ZM107.213 77.5376C106.658 77.913 106.229 78.4055 105.931 79.0081L106.827 79.4521C107.049 79.0035 107.363 78.6438 107.774 78.3658L107.213 77.5376ZM105.931 79.0081C105.635 79.6045 105.488 80.2441 105.488 80.9205H106.488C106.488 80.3941 106.601 79.9069 106.827 79.4521L105.931 79.0081ZM105.488 80.9205V81.8864H106.488V80.9205H105.488ZM105.488 81.8864C105.488 82.7658 105.639 83.5447 105.966 84.2037L106.862 83.7594C106.621 83.2725 106.488 82.6546 106.488 81.8864H105.488ZM105.968 84.2081C106.297 84.8551 106.762 85.3627 107.362 85.7131L107.866 84.8494C107.444 84.6032 107.109 84.2444 106.86 83.755L105.968 84.2081ZM107.365 85.7149C107.963 86.058 108.646 86.2216 109.397 86.2216V85.2216C108.794 85.2216 108.288 85.0916 107.863 84.8476L107.365 85.7149ZM109.397 86.2216C109.884 86.2216 110.338 86.1535 110.754 86.0093L110.426 85.0645C110.132 85.1665 109.791 85.2216 109.397 85.2216V86.2216ZM110.758 86.0081C111.181 85.8578 111.553 85.6319 111.868 85.3288L111.174 84.6087C110.967 84.8075 110.719 84.9604 110.423 85.0658L110.758 86.0081ZM111.871 85.3255C112.189 85.0135 112.428 84.6322 112.592 84.1926L111.656 83.8415C111.537 84.1595 111.373 84.4127 111.17 84.612L111.871 85.3255ZM111.989 84.4984L113.608 84.953L113.879 83.9902L112.259 83.5357L111.989 84.4984ZM113.266 84.3234C113.119 84.7974 112.873 85.2122 112.525 85.5731L113.244 86.2678C113.7 85.7953 114.027 85.2443 114.221 84.6198L113.266 84.3234ZM112.527 85.571C112.179 85.9273 111.743 86.212 111.21 86.4209L111.575 87.3519C112.226 87.0967 112.785 86.7375 113.242 86.2699L112.527 85.571ZM111.214 86.4196C110.687 86.6216 110.084 86.7273 109.397 86.7273V87.7273C110.187 87.7273 110.914 87.6057 111.572 87.3531L111.214 86.4196ZM124.191 78.5341L124.327 79.0152L124.832 78.8724L124.665 78.3751L124.191 78.5341ZM122.685 78.9602L122.218 79.1368L122.38 79.5664L122.822 79.4413L122.685 78.9602ZM122.266 78.2287L121.865 78.5275L121.872 78.5362L122.266 78.2287ZM121.528 77.6321L121.751 77.1849L121.751 77.1849L121.528 77.6321ZM118.658 77.8594L118.942 78.2713L118.943 78.2706L118.658 77.8594ZM118.452 80.0043L118.141 80.3953L118.141 80.3953L118.452 80.0043ZM119.873 80.608L119.752 81.093L119.754 81.0935L119.873 80.608ZM121.492 81.0057L121.373 81.4913L121.374 81.4916L121.492 81.0057ZM123.673 82.0923L123.316 82.4424L123.317 82.4441L123.673 82.0923ZM123.85 85.6364L123.446 85.3413L123.445 85.3439L123.85 85.6364ZM117.366 86.5028L117.642 86.086L117.642 86.086L117.366 86.5028ZM115.981 84.3864L115.86 83.9013L115.393 84.0179L115.491 84.4887L115.981 84.3864ZM117.572 83.9886L118.056 83.8637L117.932 83.3832L117.45 83.5036L117.572 83.9886ZM118.431 85.3097L118.145 85.7199L118.147 85.7214L118.431 85.3097ZM121.961 85.2528L122.254 85.6583L122.254 85.6577L121.961 85.2528ZM122.259 83.0938L121.909 83.4505L121.912 83.4537L122.259 83.0938ZM121.038 82.5114L120.924 82.9982L120.924 82.9983L121.038 82.5114ZM119.219 82.0852L119.104 82.5718L119.105 82.572L119.219 82.0852ZM117.018 80.9844L116.651 81.3238L116.654 81.3274L117.018 80.9844ZM116.84 77.4688L116.438 77.1713L116.436 77.1739L116.84 77.4688ZM118.268 76.3537L118.064 75.8969L118.063 75.8975L118.268 76.3537ZM122.87 76.6591L122.565 77.0554L122.567 77.0565L122.87 76.6591ZM124.055 78.053L122.549 78.4791L122.822 79.4413L124.327 79.0152L124.055 78.053ZM123.153 78.7837C123.039 78.4804 122.873 78.1929 122.661 77.9212L121.872 78.5362C122.029 78.7379 122.143 78.9382 122.218 79.1368L123.153 78.7837ZM122.667 77.93C122.434 77.6165 122.123 77.3705 121.751 77.1849L121.304 78.0793C121.558 78.2062 121.739 78.358 121.865 78.5274L122.667 77.93ZM121.751 77.1849C121.347 76.983 120.864 76.8977 120.327 76.8977V77.8977C120.766 77.8977 121.083 77.9687 121.304 78.0793L121.751 77.1849ZM120.327 76.8977C119.582 76.8977 118.92 77.0703 118.374 77.4481L118.943 78.2706C119.286 78.0329 119.737 77.8977 120.327 77.8977V76.8977ZM118.375 77.4475C117.821 77.8286 117.498 78.3586 117.498 79.017H118.498C118.498 78.738 118.615 78.4962 118.942 78.2713L118.375 77.4475ZM117.498 79.017C117.498 79.5728 117.709 80.051 118.141 80.3953L118.764 79.6132C118.59 79.4745 118.498 79.2947 118.498 79.017H117.498ZM118.141 80.3953C118.526 80.7024 119.081 80.9253 119.752 81.093L119.994 80.1229C119.377 79.9686 118.985 79.789 118.764 79.6132L118.141 80.3953ZM119.754 81.0935L121.373 81.4913L121.611 80.5201L119.992 80.1224L119.754 81.0935ZM121.374 81.4916C122.299 81.716 122.927 82.0458 123.316 82.4424L124.03 81.7423C123.462 81.1635 122.636 80.7689 121.61 80.5198L121.374 81.4916ZM123.317 82.4441C123.691 82.8217 123.89 83.3122 123.89 83.9602H124.89C124.89 83.0836 124.61 82.3288 124.028 81.7405L123.317 82.4441ZM123.89 83.9602C123.89 84.482 123.742 84.9368 123.446 85.3414L124.254 85.9314C124.678 85.3511 124.89 84.6885 124.89 83.9602H123.89ZM123.445 85.3439C123.149 85.7542 122.726 86.0905 122.156 86.3442L122.562 87.258C123.269 86.9436 123.841 86.5033 124.256 85.9288L123.445 85.3439ZM122.156 86.3442C121.592 86.5946 120.921 86.7273 120.129 86.7273V87.7273C121.032 87.7273 121.847 87.5759 122.562 87.258L122.156 86.3442ZM120.129 86.7273C119.087 86.7273 118.269 86.5017 117.642 86.086L117.09 86.9197C117.92 87.4699 118.944 87.7273 120.129 87.7273V86.7273ZM117.642 86.086C117.032 85.6822 116.64 85.0951 116.47 84.284L115.491 84.4887C115.71 85.5337 116.241 86.3576 117.09 86.9197L117.642 86.086ZM116.102 84.8714L117.693 84.4737L117.45 83.5036L115.86 83.9013L116.102 84.8714ZM117.088 84.1136C117.263 84.7945 117.609 85.3461 118.145 85.7199L118.717 84.8994C118.411 84.6861 118.183 84.3571 118.056 83.8637L117.088 84.1136ZM118.147 85.7214C118.68 86.0885 119.345 86.25 120.1 86.25V85.25C119.482 85.25 119.034 85.1179 118.715 84.8979L118.147 85.7214ZM120.1 86.25C120.948 86.25 121.682 86.0706 122.254 85.6583L121.668 84.8474C121.321 85.0979 120.815 85.25 120.1 85.25V86.25ZM122.254 85.6577C122.816 85.251 123.157 84.7108 123.157 84.0455H122.157C122.157 84.3176 122.034 84.5823 121.668 84.8479L122.254 85.6577ZM123.157 84.0455C123.157 83.5352 122.972 83.0867 122.606 82.7338L121.912 83.4537C122.077 83.6122 122.157 83.7981 122.157 84.0455H123.157ZM122.61 82.737C122.253 82.3871 121.747 82.1631 121.151 82.0244L120.924 82.9983C121.427 83.1153 121.735 83.2795 121.909 83.4505L122.61 82.737ZM121.152 82.0246L119.334 81.5984L119.105 82.572L120.924 82.9982L121.152 82.0246ZM119.335 81.5987C118.386 81.3739 117.757 81.0401 117.382 80.6414L116.654 81.3274C117.216 81.923 118.055 82.3231 119.104 82.5718L119.335 81.5987ZM117.385 80.6449C117.015 80.2451 116.822 79.7431 116.822 79.1023H115.822C115.822 79.9671 116.092 80.7198 116.651 81.3238L117.385 80.6449ZM116.822 79.1023C116.822 78.5871 116.964 78.147 117.244 77.7636L116.436 77.1739C116.025 77.7375 115.822 78.3864 115.822 79.1023H116.822ZM117.242 77.7662C117.536 77.3695 117.94 77.0489 118.472 76.8099L118.063 75.8975C117.393 76.1983 116.846 76.621 116.438 77.1713L117.242 77.7662ZM118.471 76.8105C119.004 76.5732 119.62 76.4489 120.327 76.4489V75.4489C119.501 75.4489 118.744 75.5944 118.064 75.8969L118.471 76.8105ZM120.327 76.4489C121.339 76.4489 122.065 76.671 122.565 77.0554L123.175 76.2628C122.444 75.7002 121.475 75.4489 120.327 75.4489V76.4489ZM122.567 77.0565C123.103 77.4663 123.487 78.0063 123.717 78.6931L124.665 78.3751C124.375 77.5088 123.877 76.7989 123.173 76.2617L122.567 77.0565Z" fill="black"/>
</svg>
