<svg width="160" height="160" viewBox="0 0 160 160" fill="none" xmlns="http://www.w3.org/2000/svg">
<rect width="160" height="160" fill="#D9D9D9"/>
<path d="M22.7614 87V72.4545H27.8466C28.8598 72.4545 29.6955 72.6297 30.3537 72.9801C31.0118 73.3258 31.5019 73.7921 31.8239 74.3793C32.1458 74.9616 32.3068 75.608 32.3068 76.3182C32.3068 76.9432 32.1955 77.4593 31.973 77.8665C31.7552 78.2737 31.4664 78.5956 31.1065 78.8324C30.7514 79.0691 30.3655 79.2443 29.9489 79.358V79.5C30.3939 79.5284 30.8414 79.6847 31.2912 79.9688C31.741 80.2528 32.1174 80.66 32.4205 81.1903C32.7235 81.7206 32.875 82.3693 32.875 83.1364C32.875 83.8655 32.7093 84.5213 32.3778 85.1037C32.0464 85.6861 31.5232 86.1477 30.8082 86.4886C30.0933 86.8295 29.1629 87 28.017 87H22.7614ZM24.5227 85.4375H28.017C29.1676 85.4375 29.9844 85.215 30.4673 84.7699C30.955 84.3201 31.1989 83.7756 31.1989 83.1364C31.1989 82.6439 31.0734 82.1894 30.8224 81.7727C30.5715 81.3513 30.214 81.0152 29.75 80.7642C29.286 80.5085 28.7367 80.3807 28.1023 80.3807H24.5227V85.4375ZM24.5227 78.8466H27.7898C28.3201 78.8466 28.7983 78.7424 29.2244 78.5341C29.6553 78.3258 29.9962 78.0322 30.2472 77.6534C30.5028 77.2746 30.6307 76.8295 30.6307 76.3182C30.6307 75.679 30.4081 75.1368 29.9631 74.6918C29.518 74.242 28.8125 74.017 27.8466 74.017H24.5227V78.8466ZM39.9737 87.2273C38.9889 87.2273 38.1248 86.9929 37.3814 86.5241C36.6428 86.0554 36.0651 85.3996 35.6484 84.5568C35.2365 83.714 35.0305 82.7292 35.0305 81.6023C35.0305 80.4659 35.2365 79.474 35.6484 78.6264C36.0651 77.7789 36.6428 77.1207 37.3814 76.652C38.1248 76.1832 38.9889 75.9489 39.9737 75.9489C40.9586 75.9489 41.8203 76.1832 42.5589 76.652C43.3023 77.1207 43.88 77.7789 44.2919 78.6264C44.7086 79.474 44.9169 80.4659 44.9169 81.6023C44.9169 82.7292 44.7086 83.714 44.2919 84.5568C43.88 85.3996 43.3023 86.0554 42.5589 86.5241C41.8203 86.9929 40.9586 87.2273 39.9737 87.2273ZM39.9737 85.7216C40.7218 85.7216 41.3374 85.5298 41.8203 85.1463C42.3033 84.7628 42.6607 84.2585 42.8928 83.6335C43.1248 83.0085 43.2408 82.3314 43.2408 81.6023C43.2408 80.8731 43.1248 80.1937 42.8928 79.5639C42.6607 78.9342 42.3033 78.4252 41.8203 78.0369C41.3374 77.6487 40.7218 77.4545 39.9737 77.4545C39.2256 77.4545 38.6101 77.6487 38.1271 78.0369C37.6442 78.4252 37.2867 78.9342 37.0547 79.5639C36.8227 80.1937 36.7067 80.8731 36.7067 81.6023C36.7067 82.3314 36.8227 83.0085 37.0547 83.6335C37.2867 84.2585 37.6442 84.7628 38.1271 85.1463C38.6101 85.5298 39.2256 85.7216 39.9737 85.7216ZM52.2198 76.0909V77.5114H46.5664V76.0909H52.2198ZM48.2141 73.4773H49.8903V83.875C49.8903 84.3485 49.9589 84.7036 50.0962 84.9403C50.2383 85.1723 50.4182 85.3286 50.636 85.4091C50.8585 85.4848 51.0929 85.5227 51.3391 85.5227C51.5238 85.5227 51.6753 85.5133 51.7937 85.4943C51.9121 85.4706 52.0067 85.4517 52.0778 85.4375L52.4187 86.9432C52.305 86.9858 52.1464 87.0284 51.9428 87.071C51.7392 87.1184 51.4812 87.142 51.1687 87.142C50.6952 87.142 50.2312 87.0402 49.7766 86.8366C49.3268 86.633 48.9528 86.3229 48.6545 85.9062C48.3609 85.4896 48.2141 84.964 48.2141 84.3295V73.4773ZM59.4854 76.0909V77.5114H53.832V76.0909H59.4854ZM55.4798 73.4773H57.1559V83.875C57.1559 84.3485 57.2246 84.7036 57.3619 84.9403C57.5039 85.1723 57.6838 85.3286 57.9016 85.4091C58.1242 85.4848 58.3585 85.5227 58.6048 85.5227C58.7894 85.5227 58.9409 85.5133 59.0593 85.4943C59.1777 85.4706 59.2724 85.4517 59.3434 85.4375L59.6843 86.9432C59.5707 86.9858 59.4121 87.0284 59.2085 87.071C59.0049 87.1184 58.7468 87.142 58.4343 87.142C57.9608 87.142 57.4968 87.0402 57.0423 86.8366C56.5924 86.633 56.2184 86.3229 55.9201 85.9062C55.6265 85.4896 55.4798 84.964 55.4798 84.3295V73.4773ZM66.3214 87.2273C65.3365 87.2273 64.4724 86.9929 63.729 86.5241C62.9904 86.0554 62.4128 85.3996 61.9961 84.5568C61.5842 83.714 61.3782 82.7292 61.3782 81.6023C61.3782 80.4659 61.5842 79.474 61.9961 78.6264C62.4128 77.7789 62.9904 77.1207 63.729 76.652C64.4724 76.1832 65.3365 75.9489 66.3214 75.9489C67.3062 75.9489 68.168 76.1832 68.9066 76.652C69.65 77.1207 70.2276 77.7789 70.6396 78.6264C71.0562 79.474 71.2646 80.4659 71.2646 81.6023C71.2646 82.7292 71.0562 83.714 70.6396 84.5568C70.2276 85.3996 69.65 86.0554 68.9066 86.5241C68.168 86.9929 67.3062 87.2273 66.3214 87.2273ZM66.3214 85.7216C67.0695 85.7216 67.685 85.5298 68.168 85.1463C68.6509 84.7628 69.0084 84.2585 69.2404 83.6335C69.4724 83.0085 69.5884 82.3314 69.5884 81.6023C69.5884 80.8731 69.4724 80.1937 69.2404 79.5639C69.0084 78.9342 68.6509 78.4252 68.168 78.0369C67.685 77.6487 67.0695 77.4545 66.3214 77.4545C65.5733 77.4545 64.9577 77.6487 64.4748 78.0369C63.9918 78.4252 63.6344 78.9342 63.4023 79.5639C63.1703 80.1937 63.0543 80.8731 63.0543 81.6023C63.0543 82.3314 63.1703 83.0085 63.4023 83.6335C63.6344 84.2585 63.9918 84.7628 64.4748 85.1463C64.9577 85.5298 65.5733 85.7216 66.3214 85.7216ZM73.8232 87V76.0909H75.4425V77.7955H75.5845C75.8118 77.2131 76.1787 76.7609 76.6854 76.4389C77.192 76.1122 77.8004 75.9489 78.5107 75.9489C79.2304 75.9489 79.8293 76.1122 80.3075 76.4389C80.7905 76.7609 81.1669 77.2131 81.4368 77.7955H81.5504C81.8298 77.232 82.2488 76.7846 82.8075 76.4531C83.3662 76.117 84.0362 75.9489 84.8175 75.9489C85.7929 75.9489 86.5907 76.2543 87.2109 76.8651C87.8312 77.4711 88.1413 78.4157 88.1413 79.6989V87H86.4652V79.6989C86.4652 78.8939 86.245 78.3187 85.8047 77.973C85.3643 77.6274 84.8459 77.4545 84.2493 77.4545C83.4822 77.4545 82.888 77.6866 82.4666 78.1506C82.0452 78.6098 81.8345 79.1922 81.8345 79.8977V87H80.13V79.5284C80.13 78.9081 79.9287 78.4086 79.5263 78.0298C79.1238 77.6463 78.6054 77.4545 77.9709 77.4545C77.5353 77.4545 77.1281 77.5705 76.7493 77.8026C76.3752 78.0346 76.0722 78.3565 75.8402 78.7685C75.6129 79.1757 75.4993 79.6468 75.4993 80.1818V87H73.8232ZM97.0582 87V72.4545H101.973C103.109 72.4545 104.042 72.6487 104.771 73.0369C105.5 73.4205 106.04 73.9484 106.391 74.6207C106.741 75.2931 106.916 76.0578 106.916 76.9148C106.916 77.7718 106.741 78.5317 106.391 79.1946C106.04 79.8575 105.503 80.3783 104.778 80.7571C104.054 81.1312 103.128 81.3182 102.001 81.3182H98.0241V79.7273H101.945C102.721 79.7273 103.346 79.6136 103.82 79.3864C104.298 79.1591 104.643 78.8371 104.857 78.4205C105.074 77.9991 105.183 77.4972 105.183 76.9148C105.183 76.3324 105.074 75.8234 104.857 75.3878C104.639 74.9522 104.291 74.616 103.812 74.3793C103.334 74.1378 102.702 74.017 101.916 74.017H98.8196V87H97.0582ZM103.905 80.4659L107.484 87H105.439L101.916 80.4659H103.905ZM109.624 87V76.0909H111.3V87H109.624ZM110.476 74.2727C110.15 74.2727 109.868 74.1615 109.631 73.9389C109.399 73.7164 109.283 73.4489 109.283 73.1364C109.283 72.8239 109.399 72.5563 109.631 72.3338C109.868 72.1113 110.15 72 110.476 72C110.803 72 111.082 72.1113 111.314 72.3338C111.551 72.5563 111.669 72.8239 111.669 73.1364C111.669 73.4489 111.551 73.7164 111.314 73.9389C111.082 74.1615 110.803 74.2727 110.476 74.2727ZM118.773 91.3182C117.964 91.3182 117.268 91.214 116.685 91.0057C116.103 90.8021 115.618 90.5322 115.229 90.196C114.846 89.8646 114.54 89.5095 114.313 89.1307L115.648 88.1932C115.8 88.392 115.992 88.6193 116.224 88.875C116.456 89.1354 116.773 89.3603 117.175 89.5497C117.583 89.7438 118.115 89.8409 118.773 89.8409C119.654 89.8409 120.381 89.6278 120.954 89.2017C121.527 88.7756 121.813 88.108 121.813 87.1989V84.983H121.671C121.548 85.1818 121.373 85.428 121.146 85.7216C120.923 86.0104 120.601 86.2685 120.18 86.4957C119.763 86.7183 119.2 86.8295 118.489 86.8295C117.609 86.8295 116.818 86.6212 116.117 86.2045C115.421 85.7879 114.87 85.1818 114.462 84.3864C114.06 83.5909 113.859 82.625 113.859 81.4886C113.859 80.3712 114.055 79.3982 114.448 78.5696C114.841 77.7363 115.388 77.0923 116.089 76.6378C116.79 76.1785 117.599 75.9489 118.518 75.9489C119.228 75.9489 119.791 76.0672 120.208 76.304C120.629 76.536 120.951 76.8011 121.174 77.0994C121.401 77.393 121.576 77.6345 121.7 77.8239H121.87V76.0909H123.489V87.3125C123.489 88.25 123.276 89.0123 122.85 89.5994C122.429 90.1913 121.861 90.6245 121.146 90.8991C120.435 91.1785 119.645 91.3182 118.773 91.3182ZM118.717 85.3239C119.389 85.3239 119.957 85.17 120.421 84.8622C120.885 84.5545 121.238 84.1117 121.479 83.5341C121.721 82.9564 121.842 82.2652 121.842 81.4602C121.842 80.6742 121.723 79.9806 121.487 79.3793C121.25 78.7779 120.899 78.3068 120.435 77.9659C119.971 77.625 119.398 77.4545 118.717 77.4545C118.006 77.4545 117.415 77.6345 116.941 77.9943C116.472 78.3542 116.12 78.8371 115.883 79.4432C115.651 80.0492 115.535 80.7216 115.535 81.4602C115.535 82.2178 115.653 82.8878 115.89 83.4702C116.131 84.0478 116.487 84.5024 116.955 84.8338C117.429 85.1605 118.016 85.3239 118.717 85.3239ZM128.234 80.4375V87H126.558V72.4545H128.234V77.7955H128.376C128.631 77.232 129.015 76.7846 129.526 76.4531C130.042 76.117 130.729 75.9489 131.586 75.9489C132.329 75.9489 132.98 76.098 133.539 76.3963C134.098 76.6899 134.531 77.142 134.839 77.7528C135.151 78.3589 135.308 79.1307 135.308 80.0682V87H133.631V80.1818C133.631 79.3153 133.406 78.6454 132.957 78.1719C132.512 77.6937 131.894 77.4545 131.103 77.4545C130.554 77.4545 130.061 77.5705 129.626 77.8026C129.195 78.0346 128.854 78.3731 128.603 78.8182C128.357 79.2633 128.234 79.803 128.234 80.4375ZM143.118 76.0909V77.5114H137.465V76.0909H143.118ZM139.113 73.4773H140.789V83.875C140.789 84.3485 140.857 84.7036 140.995 84.9403C141.137 85.1723 141.317 85.3286 141.534 85.4091C141.757 85.4848 141.991 85.5227 142.238 85.5227C142.422 85.5227 142.574 85.5133 142.692 85.4943C142.81 85.4706 142.905 85.4517 142.976 85.4375L143.317 86.9432C143.203 86.9858 143.045 87.0284 142.841 87.071C142.638 87.1184 142.38 87.142 142.067 87.142C141.594 87.142 141.13 87.0402 140.675 86.8366C140.225 86.633 139.851 86.3229 139.553 85.9062C139.259 85.4896 139.113 84.964 139.113 84.3295V73.4773Z" fill="black"/>
<path d="M22.7614 87H22.2614V87.5H22.7614V87ZM22.7614 72.4545V71.9545H22.2614V72.4545H22.7614ZM30.3537 72.9801L30.1187 73.4215L30.1212 73.4228L30.3537 72.9801ZM31.8239 74.3793L31.3855 74.6197L31.3863 74.6212L31.8239 74.3793ZM31.973 77.8665L31.5342 77.6267L31.5321 77.6307L31.973 77.8665ZM31.1065 78.8324L30.8317 78.4147L30.8292 78.4164L31.1065 78.8324ZM29.9489 79.358L29.8173 78.8756L29.4489 78.9761V79.358H29.9489ZM29.9489 79.5H29.4489V79.9691L29.917 79.999L29.9489 79.5ZM31.2912 79.9688L31.0242 80.3915L31.0242 80.3915L31.2912 79.9688ZM32.3778 85.1037L32.8124 85.351L32.8124 85.351L32.3778 85.1037ZM30.8082 86.4886L30.593 86.0373L30.593 86.0373L30.8082 86.4886ZM24.5227 85.4375H24.0227V85.9375H24.5227V85.4375ZM30.4673 84.7699L30.8062 85.1376L30.8063 85.1374L30.4673 84.7699ZM30.8224 81.7727L30.3928 82.0286L30.3941 82.0307L30.8224 81.7727ZM29.75 80.7642L29.5087 81.2021L29.5121 81.204L29.75 80.7642ZM24.5227 80.3807V79.8807H24.0227V80.3807H24.5227ZM24.5227 78.8466H24.0227V79.3466H24.5227V78.8466ZM29.2244 78.5341L29.0068 78.0839L29.0048 78.0849L29.2244 78.5341ZM30.2472 77.6534L29.8327 77.3737L29.8303 77.3773L30.2472 77.6534ZM29.9631 74.6918L29.6076 75.0434L29.6095 75.0453L29.9631 74.6918ZM24.5227 74.017V73.517H24.0227V74.017H24.5227ZM23.2614 87V72.4545H22.2614V87H23.2614ZM22.7614 72.9545H27.8466V71.9545H22.7614V72.9545ZM27.8466 72.9545C28.806 72.9545 29.5542 73.1209 30.1187 73.4215L30.5887 72.5388C29.8369 72.1386 28.9137 71.9545 27.8466 71.9545V72.9545ZM30.1212 73.4228C30.7023 73.7279 31.1159 74.1281 31.3855 74.6197L32.2623 74.1388C31.8879 73.4562 31.3214 72.9236 30.5862 72.5374L30.1212 73.4228ZM31.3863 74.6212C31.6646 75.1245 31.8068 75.6867 31.8068 76.3182H32.8068C32.8068 75.5292 32.6271 74.7988 32.2614 74.1373L31.3863 74.6212ZM31.8068 76.3182C31.8068 76.8873 31.7051 77.3141 31.5343 77.6267L32.4118 78.1063C32.686 77.6044 32.8068 76.9991 32.8068 76.3182H31.8068ZM31.5321 77.6307C31.3507 77.9698 31.1169 78.227 30.8317 78.4147L31.3813 79.2501C31.8158 78.9642 32.1597 78.5776 32.4139 78.1023L31.5321 77.6307ZM30.8292 78.4164C30.5193 78.6229 30.1828 78.7759 29.8173 78.8756L30.0804 79.8403C30.5483 79.7127 30.9835 79.5153 31.3839 79.2484L30.8292 78.4164ZM29.4489 79.358V79.5H30.4489V79.358H29.4489ZM29.917 79.999C30.2638 80.0211 30.6315 80.1435 31.0242 80.3915L31.5582 79.546C31.0512 79.2258 30.524 79.0357 29.9807 79.001L29.917 79.999ZM31.0242 80.3915C31.3952 80.6258 31.7178 80.9685 31.9863 81.4384L32.8546 80.9423C32.517 80.3515 32.0868 79.8799 31.5582 79.546L31.0242 80.3915ZM31.9863 81.4384C32.2365 81.8762 32.375 82.4344 32.375 83.1364H33.375C33.375 82.3042 33.2105 81.5651 32.8546 80.9423L31.9863 81.4384ZM32.375 83.1364C32.375 83.7867 32.2281 84.3559 31.9433 84.8564L32.8124 85.351C33.1905 84.6867 33.375 83.9444 33.375 83.1364H32.375ZM31.9433 84.8564C31.6711 85.3347 31.233 85.7322 30.593 86.0373L31.0234 86.94C31.8134 86.5633 32.4217 86.0375 32.8124 85.351L31.9433 84.8564ZM30.593 86.0373C29.9684 86.3351 29.1192 86.5 28.017 86.5V87.5C29.2066 87.5 30.2181 87.3239 31.0234 86.94L30.593 86.0373ZM28.017 86.5H22.7614V87.5H28.017V86.5ZM24.5227 85.9375H28.017V84.9375H24.5227V85.9375ZM28.017 85.9375C29.2069 85.9375 30.1827 85.7122 30.8062 85.1376L30.1285 84.4022C29.7861 84.7178 29.1283 84.9375 28.017 84.9375V85.9375ZM30.8063 85.1374C31.3922 84.597 31.6989 83.9211 31.6989 83.1364H30.6989C30.6989 83.6301 30.5178 84.0431 30.1283 84.4023L30.8063 85.1374ZM31.6989 83.1364C31.6989 82.5542 31.5492 82.0103 31.2508 81.5148L30.3941 82.0307C30.5976 82.3685 30.6989 82.7337 30.6989 83.1364H31.6989ZM31.252 81.5169C30.9515 81.0121 30.525 80.6149 29.9879 80.3244L29.5121 81.204C29.903 81.4154 30.1915 81.6905 30.3928 82.0286L31.252 81.5169ZM29.9913 80.3263C29.4401 80.0225 28.8045 79.8807 28.1023 79.8807V80.8807C28.669 80.8807 29.1319 80.9945 29.5087 81.2021L29.9913 80.3263ZM28.1023 79.8807H24.5227V80.8807H28.1023V79.8807ZM24.0227 80.3807V85.4375H25.0227V80.3807H24.0227ZM24.5227 79.3466H27.7898V78.3466H24.5227V79.3466ZM27.7898 79.3466C28.3871 79.3466 28.9418 79.2288 29.444 78.9833L29.0048 78.0849C28.6548 78.256 28.253 78.3466 27.7898 78.3466V79.3466ZM29.4421 78.9842C29.9493 78.739 30.3608 78.3872 30.664 77.9296L29.8303 77.3773C29.6316 77.6772 29.3613 77.9125 29.0068 78.0839L29.4421 78.9842ZM30.6616 77.9331C30.9795 77.4621 31.1307 76.9169 31.1307 76.3182H30.1307C30.1307 76.7422 30.0261 77.0872 29.8327 77.3737L30.6616 77.9331ZM31.1307 76.3182C31.1307 75.5487 30.8571 74.8787 30.3166 74.3382L29.6095 75.0453C29.9592 75.395 30.1307 75.8093 30.1307 76.3182H31.1307ZM30.3185 74.3401C29.7401 73.7555 28.8769 73.517 27.8466 73.517V74.517C28.7481 74.517 29.2959 74.7284 29.6076 75.0434L30.3185 74.3401ZM27.8466 73.517H24.5227V74.517H27.8466V73.517ZM24.0227 74.017V78.8466H25.0227V74.017H24.0227ZM37.3814 86.5241L37.1135 86.9463L37.1147 86.9471L37.3814 86.5241ZM35.6484 84.5568L35.1992 84.7764L35.2002 84.7784L35.6484 84.5568ZM35.6484 78.6264L35.1997 78.4058L35.1987 78.4079L35.6484 78.6264ZM37.3814 76.652L37.1147 76.2291L37.1135 76.2298L37.3814 76.652ZM42.5589 76.652L42.291 77.0742L42.2923 77.0749L42.5589 76.652ZM44.2919 78.6264L43.8422 78.845L43.8432 78.847L44.2919 78.6264ZM44.2919 84.5568L43.8437 84.3352L43.8427 84.3373L44.2919 84.5568ZM42.5589 86.5241L42.2923 86.1012L42.291 86.102L42.5589 86.5241ZM41.8203 85.1463L41.5094 84.7548L41.5094 84.7548L41.8203 85.1463ZM42.8928 83.6335L43.3615 83.8075L43.3615 83.8075L42.8928 83.6335ZM42.8928 79.5639L43.3619 79.3911L43.3619 79.3911L42.8928 79.5639ZM41.8203 78.0369L42.1336 77.6472L42.1336 77.6472L41.8203 78.0369ZM38.1271 78.0369L37.8139 77.6472L37.8139 77.6472L38.1271 78.0369ZM37.0547 79.5639L36.5855 79.3911L36.5855 79.3911L37.0547 79.5639ZM37.0547 83.6335L36.5859 83.8075L36.5859 83.8075L37.0547 83.6335ZM38.1271 85.1463L38.4381 84.7548L38.4381 84.7548L38.1271 85.1463ZM39.9737 86.7273C39.0715 86.7273 38.3022 86.5137 37.6481 86.1012L37.1147 86.9471C37.9473 87.4721 38.9062 87.7273 39.9737 87.7273V86.7273ZM37.6493 86.102C36.9938 85.686 36.4759 85.1023 36.0967 84.3352L35.2002 84.7784C35.6543 85.697 36.2917 86.4248 37.1135 86.9463L37.6493 86.102ZM36.0977 84.3373C35.7252 83.5752 35.5305 82.6682 35.5305 81.6023H34.5305C34.5305 82.7901 34.7478 83.8528 35.1992 84.7764L36.0977 84.3373ZM35.5305 81.6023C35.5305 80.5263 35.7254 79.6118 36.0981 78.845L35.1987 78.4079C34.7476 79.3361 34.5305 80.4056 34.5305 81.6023H35.5305ZM36.0971 78.847C36.4766 78.0752 36.9945 77.4897 37.6493 77.0742L37.1135 76.2298C36.291 76.7518 35.6536 77.4826 35.1997 78.4058L36.0971 78.847ZM37.6481 77.0749C38.3022 76.6624 39.0715 76.4489 39.9737 76.4489V75.4489C38.9062 75.4489 37.9473 75.704 37.1147 76.2291L37.6481 77.0749ZM39.9737 76.4489C40.876 76.4489 41.6423 76.6624 42.291 77.0742L42.8269 76.2298C41.9983 75.704 41.0412 75.4489 39.9737 75.4489V76.4489ZM42.2923 77.0749C42.951 77.4903 43.468 78.075 43.8422 78.845L44.7416 78.4079C44.292 77.4828 43.6536 76.7511 42.8256 76.2291L42.2923 77.0749ZM43.8432 78.847C44.2199 79.6133 44.4169 80.527 44.4169 81.6023H45.4169C45.4169 80.4048 45.1972 79.3346 44.7406 78.4058L43.8432 78.847ZM44.4169 81.6023C44.4169 82.6674 44.2202 83.5737 43.8437 84.3352L44.7401 84.7784C45.197 83.8543 45.4169 82.7909 45.4169 81.6023H44.4169ZM43.8427 84.3373C43.4687 85.1025 42.9517 85.6854 42.2923 86.1012L42.8256 86.9471C43.6529 86.4254 44.2913 85.6967 44.7411 84.7764L43.8427 84.3373ZM42.291 86.102C41.6423 86.5137 40.876 86.7273 39.9737 86.7273V87.7273C41.0412 87.7273 41.9983 87.4721 42.8269 86.9463L42.291 86.102ZM39.9737 86.2216C40.8099 86.2216 41.5422 86.0056 42.1313 85.5379L41.5094 84.7548C41.1325 85.054 40.6337 85.2216 39.9737 85.2216V86.2216ZM42.1313 85.5379C42.6915 85.093 43.1004 84.5109 43.3615 83.8075L42.424 83.4595C42.2211 84.0061 41.9151 84.4326 41.5094 84.7548L42.1313 85.5379ZM43.3615 83.8075C43.616 83.1219 43.7408 82.3853 43.7408 81.6023H42.7408C42.7408 82.2776 42.6335 82.8952 42.424 83.4595L43.3615 83.8075ZM43.7408 81.6023C43.7408 80.8192 43.616 80.0808 43.3619 79.3911L42.4236 79.7368C42.6335 80.3066 42.7408 80.927 42.7408 81.6023H43.7408ZM43.3619 79.3911C43.1013 78.6836 42.693 78.097 42.1336 77.6472L41.507 78.4266C41.9135 78.7534 42.2202 79.1848 42.4236 79.7368L43.3619 79.3911ZM42.1336 77.6472C41.5445 77.1736 40.8113 76.9545 39.9737 76.9545V77.9545C40.6323 77.9545 41.1302 78.1237 41.507 78.4266L42.1336 77.6472ZM39.9737 76.9545C39.1361 76.9545 38.403 77.1736 37.8139 77.6472L38.4404 78.4266C38.8172 78.1237 39.3151 77.9545 39.9737 77.9545V76.9545ZM37.8139 77.6472C37.2544 78.097 36.8462 78.6836 36.5855 79.3911L37.5239 79.7368C37.7272 79.1848 38.034 78.7534 38.4404 78.4266L37.8139 77.6472ZM36.5855 79.3911C36.3314 80.0808 36.2067 80.8192 36.2067 81.6023H37.2067C37.2067 80.927 37.3139 80.3066 37.5239 79.7368L36.5855 79.3911ZM36.2067 81.6023C36.2067 82.3853 36.3314 83.1219 36.5859 83.8075L37.5234 83.4595C37.3139 82.8952 37.2067 82.2776 37.2067 81.6023H36.2067ZM36.5859 83.8075C36.847 84.5109 37.256 85.093 37.8162 85.5379L38.4381 84.7548C38.0324 84.4326 37.7263 84.0061 37.5234 83.4595L36.5859 83.8075ZM37.8162 85.5379C38.4052 86.0056 39.1375 86.2216 39.9737 86.2216V85.2216C39.3137 85.2216 38.8149 85.054 38.4381 84.7548L37.8162 85.5379ZM52.2198 76.0909H52.7198V75.5909H52.2198V76.0909ZM52.2198 77.5114V78.0114H52.7198V77.5114H52.2198ZM46.5664 77.5114H46.0664V78.0114H46.5664V77.5114ZM46.5664 76.0909V75.5909H46.0664V76.0909H46.5664ZM48.2141 73.4773V72.9773H47.7141V73.4773H48.2141ZM49.8903 73.4773H50.3903V72.9773H49.8903V73.4773ZM50.0962 84.9403L49.6636 85.1913L49.6698 85.2014L50.0962 84.9403ZM50.636 85.4091L50.4626 85.8782L50.4749 85.8824L50.636 85.4091ZM51.7937 85.4943L51.8727 85.988L51.8822 85.9865L51.8917 85.9846L51.7937 85.4943ZM52.0778 85.4375L52.5654 85.3271L52.4578 84.8516L51.9797 84.9472L52.0778 85.4375ZM52.4187 86.9432L52.5942 87.4113L53.0027 87.2582L52.9063 86.8328L52.4187 86.9432ZM51.9428 87.071L51.8404 86.5815L51.8296 86.584L51.9428 87.071ZM49.7766 86.8366L49.5705 87.2922L49.5722 87.293L49.7766 86.8366ZM48.6545 85.9062L48.2457 86.1942L48.2479 86.1973L48.6545 85.9062ZM51.7198 76.0909V77.5114H52.7198V76.0909H51.7198ZM52.2198 77.0114H46.5664V78.0114H52.2198V77.0114ZM47.0664 77.5114V76.0909H46.0664V77.5114H47.0664ZM46.5664 76.5909H52.2198V75.5909H46.5664V76.5909ZM48.2141 73.9773H49.8903V72.9773H48.2141V73.9773ZM49.3903 73.4773V83.875H50.3903V73.4773H49.3903ZM49.3903 83.875C49.3903 84.3804 49.4607 84.8411 49.6637 85.1912L50.5288 84.6895C50.4572 84.5661 50.3903 84.3165 50.3903 83.875H49.3903ZM49.6698 85.2014C49.86 85.5121 50.1222 85.7522 50.4627 85.8781L50.8093 84.9401C50.7143 84.905 50.6166 84.8326 50.5227 84.6793L49.6698 85.2014ZM50.4749 85.8824C50.7517 85.9767 51.0407 86.0227 51.3391 86.0227V85.0227C51.1451 85.0227 50.9654 84.993 50.7971 84.9358L50.4749 85.8824ZM51.3391 86.0227C51.5377 86.0227 51.7182 86.0128 51.8727 85.988L51.7147 85.0006C51.6324 85.0138 51.5098 85.0227 51.3391 85.0227V86.0227ZM51.8917 85.9846C52.0101 85.9609 52.1048 85.942 52.1758 85.9278L51.9797 84.9472C51.9087 84.9614 51.814 84.9804 51.6956 85.004L51.8917 85.9846ZM51.5901 85.5479L51.931 87.0536L52.9063 86.8328L52.5654 85.3271L51.5901 85.5479ZM52.2431 86.475C52.1642 86.5046 52.034 86.5411 51.8404 86.5816L52.0453 87.5604C52.2589 87.5157 52.4459 87.467 52.5942 87.4113L52.2431 86.475ZM51.8296 86.584C51.6765 86.6196 51.4598 86.642 51.1687 86.642V87.642C51.5025 87.642 51.802 87.6171 52.0561 87.558L51.8296 86.584ZM51.1687 86.642C50.7693 86.642 50.3747 86.5567 49.981 86.3803L49.5722 87.293C50.0877 87.5238 50.6211 87.642 51.1687 87.642V86.642ZM49.9828 86.3811C49.6162 86.2152 49.3102 85.9632 49.061 85.6152L48.2479 86.1973C48.5954 86.6826 49.0375 87.0509 49.5705 87.2922L49.9828 86.3811ZM49.0632 85.6183C48.8422 85.3046 48.7141 84.8864 48.7141 84.3295H47.7141C47.7141 85.0417 47.8796 85.6746 48.2457 86.1942L49.0632 85.6183ZM48.7141 84.3295V73.4773H47.7141V84.3295H48.7141ZM59.4854 76.0909H59.9854V75.5909H59.4854V76.0909ZM59.4854 77.5114V78.0114H59.9854V77.5114H59.4854ZM53.832 77.5114H53.332V78.0114H53.832V77.5114ZM53.832 76.0909V75.5909H53.332V76.0909H53.832ZM55.4798 73.4773V72.9773H54.9798V73.4773H55.4798ZM57.1559 73.4773H57.6559V72.9773H57.1559V73.4773ZM57.3619 84.9403L56.9292 85.1913L56.9354 85.2014L57.3619 84.9403ZM57.9016 85.4091L57.7283 85.8782L57.7405 85.8824L57.9016 85.4091ZM59.0593 85.4943L59.1383 85.988L59.1479 85.9865L59.1574 85.9846L59.0593 85.4943ZM59.3434 85.4375L59.8311 85.3271L59.7234 84.8516L59.2453 84.9472L59.3434 85.4375ZM59.6843 86.9432L59.8599 87.4113L60.2683 87.2582L60.172 86.8328L59.6843 86.9432ZM59.2085 87.071L59.106 86.5815L59.0952 86.584L59.2085 87.071ZM57.0423 86.8366L56.8361 87.2922L56.8379 87.293L57.0423 86.8366ZM55.9201 85.9062L55.5113 86.1942L55.5135 86.1973L55.9201 85.9062ZM58.9854 76.0909V77.5114H59.9854V76.0909H58.9854ZM59.4854 77.0114H53.832V78.0114H59.4854V77.0114ZM54.332 77.5114V76.0909H53.332V77.5114H54.332ZM53.832 76.5909H59.4854V75.5909H53.832V76.5909ZM55.4798 73.9773H57.1559V72.9773H55.4798V73.9773ZM56.6559 73.4773V83.875H57.6559V73.4773H56.6559ZM56.6559 83.875C56.6559 84.3804 56.7263 84.8411 56.9293 85.1912L57.7944 84.6895C57.7228 84.5661 57.6559 84.3165 57.6559 83.875H56.6559ZM56.9354 85.2014C57.1256 85.5121 57.3878 85.7522 57.7283 85.8781L58.075 84.9401C57.9799 84.905 57.8822 84.8326 57.7883 84.6793L56.9354 85.2014ZM57.7405 85.8824C58.0173 85.9767 58.3064 86.0227 58.6048 86.0227V85.0227C58.4107 85.0227 58.231 84.993 58.0628 84.9358L57.7405 85.8824ZM58.6048 86.0227C58.8034 86.0227 58.9838 86.0128 59.1383 85.988L58.9803 85.0006C58.898 85.0138 58.7755 85.0227 58.6048 85.0227V86.0227ZM59.1574 85.9846C59.2757 85.9609 59.3704 85.942 59.4415 85.9278L59.2453 84.9472C59.1743 84.9614 59.0796 84.9804 58.9612 85.004L59.1574 85.9846ZM58.8557 85.5479L59.1966 87.0536L60.172 86.8328L59.8311 85.3271L58.8557 85.5479ZM59.5087 86.475C59.4298 86.5046 59.2996 86.5411 59.106 86.5816L59.3109 87.5604C59.5245 87.5157 59.7115 87.467 59.8599 87.4113L59.5087 86.475ZM59.0952 86.584C58.9421 86.6196 58.7255 86.642 58.4343 86.642V87.642C58.7681 87.642 59.0676 87.6171 59.3217 87.558L59.0952 86.584ZM58.4343 86.642C58.0349 86.642 57.6403 86.5567 57.2467 86.3803L56.8379 87.293C57.3533 87.5238 57.8867 87.642 58.4343 87.642V86.642ZM57.2484 86.3811C56.8818 86.2152 56.5758 85.9632 56.3267 85.6152L55.5135 86.1973C55.861 86.6826 56.3031 87.0509 56.8361 87.2922L57.2484 86.3811ZM56.3288 85.6183C56.1078 85.3046 55.9798 84.8864 55.9798 84.3295H54.9798C54.9798 85.0417 55.1453 85.6746 55.5114 86.1942L56.3288 85.6183ZM55.9798 84.3295V73.4773H54.9798V84.3295H55.9798ZM63.729 86.5241L63.4611 86.9463L63.4624 86.9471L63.729 86.5241ZM61.9961 84.5568L61.5469 84.7764L61.5479 84.7784L61.9961 84.5568ZM61.9961 78.6264L61.5474 78.4058L61.5464 78.4079L61.9961 78.6264ZM63.729 76.652L63.4624 76.2291L63.4611 76.2298L63.729 76.652ZM68.9066 76.652L68.6387 77.0742L68.6399 77.0749L68.9066 76.652ZM70.6396 78.6264L70.1899 78.845L70.1909 78.847L70.6396 78.6264ZM70.6396 84.5568L70.1913 84.3352L70.1903 84.3373L70.6396 84.5568ZM68.9066 86.5241L68.6399 86.1012L68.6387 86.102L68.9066 86.5241ZM68.168 85.1463L67.857 84.7548L67.857 84.7548L68.168 85.1463ZM69.2404 83.6335L69.7092 83.8075L69.7092 83.8075L69.2404 83.6335ZM69.2404 79.5639L69.7096 79.3911L69.7096 79.3911L69.2404 79.5639ZM68.168 78.0369L68.4812 77.6472L68.4812 77.6472L68.168 78.0369ZM64.4748 78.0369L64.1615 77.6472L64.1615 77.6472L64.4748 78.0369ZM63.4023 79.5639L62.9332 79.3911L62.9332 79.3911L63.4023 79.5639ZM63.4023 83.6335L62.9336 83.8075L62.9336 83.8075L63.4023 83.6335ZM64.4748 85.1463L64.7857 84.7548L64.7857 84.7548L64.4748 85.1463ZM66.3214 86.7273C65.4192 86.7273 64.6499 86.5137 63.9957 86.1012L63.4624 86.9471C64.2949 87.4721 65.2539 87.7273 66.3214 87.7273V86.7273ZM63.997 86.102C63.3415 85.686 62.8235 85.1023 62.4443 84.3352L61.5479 84.7784C62.002 85.697 62.6394 86.4248 63.4611 86.9463L63.997 86.102ZM62.4453 84.3373C62.0729 83.5752 61.8782 82.6682 61.8782 81.6023H60.8782C60.8782 82.7901 61.0955 83.8528 61.5469 84.7764L62.4453 84.3373ZM61.8782 81.6023C61.8782 80.5263 62.0731 79.6118 62.4458 78.845L61.5464 78.4079C61.0952 79.3361 60.8782 80.4056 60.8782 81.6023H61.8782ZM62.4448 78.847C62.8242 78.0752 63.3422 77.4897 63.997 77.0742L63.4611 76.2298C62.6387 76.7518 62.0013 77.4826 61.5474 78.4058L62.4448 78.847ZM63.9957 77.0749C64.6499 76.6624 65.4192 76.4489 66.3214 76.4489V75.4489C65.2539 75.4489 64.2949 75.704 63.4624 76.2291L63.9957 77.0749ZM66.3214 76.4489C67.2236 76.4489 67.9899 76.6624 68.6387 77.0742L69.1745 76.2298C68.346 75.704 67.3888 75.4489 66.3214 75.4489V76.4489ZM68.6399 77.0749C69.2987 77.4903 69.8156 78.075 70.1899 78.845L71.0893 78.4079C70.6396 77.4828 70.0013 76.7511 69.1733 76.2291L68.6399 77.0749ZM70.1909 78.847C70.5676 79.6133 70.7646 80.527 70.7646 81.6023H71.7646C71.7646 80.4048 71.5449 79.3346 71.0883 78.4058L70.1909 78.847ZM70.7646 81.6023C70.7646 82.6674 70.5678 83.5737 70.1913 84.3352L71.0878 84.7784C71.5446 83.8543 71.7646 82.7909 71.7646 81.6023H70.7646ZM70.1903 84.3373C69.8163 85.1025 69.2994 85.6854 68.6399 86.1012L69.1733 86.9471C70.0006 86.4254 70.6389 85.6967 71.0888 84.7764L70.1903 84.3373ZM68.6387 86.102C67.9899 86.5137 67.2236 86.7273 66.3214 86.7273V87.7273C67.3888 87.7273 68.346 87.4721 69.1745 86.9463L68.6387 86.102ZM66.3214 86.2216C67.1576 86.2216 67.8899 86.0056 68.4789 85.5379L67.857 84.7548C67.4802 85.054 66.9814 85.2216 66.3214 85.2216V86.2216ZM68.4789 85.5379C69.0391 85.093 69.4481 84.5109 69.7092 83.8075L68.7717 83.4595C68.5688 84.0061 68.2627 84.4326 67.857 84.7548L68.4789 85.5379ZM69.7092 83.8075C69.9637 83.1219 70.0884 82.3853 70.0884 81.6023H69.0884C69.0884 82.2776 68.9812 82.8952 68.7717 83.4595L69.7092 83.8075ZM70.0884 81.6023C70.0884 80.8192 69.9637 80.0808 69.7096 79.3911L68.7712 79.7368C68.9812 80.3066 69.0884 80.927 69.0884 81.6023H70.0884ZM69.7096 79.3911C69.4489 78.6836 69.0407 78.097 68.4812 77.6472L67.8547 78.4266C68.2611 78.7534 68.5679 79.1848 68.7712 79.7368L69.7096 79.3911ZM68.4812 77.6472C67.8921 77.1736 67.159 76.9545 66.3214 76.9545V77.9545C66.98 77.9545 67.4779 78.1237 67.8547 78.4266L68.4812 77.6472ZM66.3214 76.9545C65.4838 76.9545 64.7506 77.1736 64.1615 77.6472L64.7881 78.4266C65.1649 78.1237 65.6628 77.9545 66.3214 77.9545V76.9545ZM64.1615 77.6472C63.6021 78.097 63.1938 78.6836 62.9332 79.3911L63.8715 79.7368C64.0749 79.1848 64.3816 78.7534 64.7881 78.4266L64.1615 77.6472ZM62.9332 79.3911C62.6791 80.0808 62.5543 80.8192 62.5543 81.6023H63.5543C63.5543 80.927 63.6616 80.3066 63.8715 79.7368L62.9332 79.3911ZM62.5543 81.6023C62.5543 82.3853 62.6791 83.1219 62.9336 83.8075L63.8711 83.4595C63.6616 82.8952 63.5543 82.2776 63.5543 81.6023H62.5543ZM62.9336 83.8075C63.1947 84.5109 63.6036 85.093 64.1638 85.5379L64.7857 84.7548C64.38 84.4326 64.074 84.0061 63.8711 83.4595L62.9336 83.8075ZM64.1638 85.5379C64.7529 86.0056 65.4852 86.2216 66.3214 86.2216V85.2216C65.6614 85.2216 65.1626 85.054 64.7857 84.7548L64.1638 85.5379ZM73.8232 87H73.3232V87.5H73.8232V87ZM73.8232 76.0909V75.5909H73.3232V76.0909H73.8232ZM75.4425 76.0909H75.9425V75.5909H75.4425V76.0909ZM75.4425 77.7955H74.9425V78.2955H75.4425V77.7955ZM75.5845 77.7955V78.2955H75.9261L76.0503 77.9772L75.5845 77.7955ZM76.6854 76.4389L76.9536 76.8609L76.9563 76.8591L76.6854 76.4389ZM80.3075 76.4389L80.0255 76.8518L80.0302 76.8549L80.3075 76.4389ZM81.4368 77.7955L80.9831 78.0057L81.1174 78.2955H81.4368V77.7955ZM81.5504 77.7955V78.2955H81.8606L81.9984 78.0176L81.5504 77.7955ZM82.8075 76.4531L83.0626 76.8832L83.0653 76.8816L82.8075 76.4531ZM87.2109 76.8651L86.8601 77.2213L86.8615 77.2227L87.2109 76.8651ZM88.1413 87V87.5H88.6413V87H88.1413ZM86.4652 87H85.9652V87.5H86.4652V87ZM85.8047 77.973L85.496 78.3663L85.496 78.3663L85.8047 77.973ZM82.4666 78.1506L82.835 78.4886L82.8368 78.4867L82.4666 78.1506ZM81.8345 87V87.5H82.3345V87H81.8345ZM80.13 87H79.63V87.5H80.13V87ZM79.5263 78.0298L79.1813 78.3918L79.1836 78.3939L79.5263 78.0298ZM76.7493 77.8026L76.4881 77.3762L76.4857 77.3777L76.7493 77.8026ZM75.8402 78.7685L75.4045 78.5231L75.4036 78.5248L75.8402 78.7685ZM75.4993 87V87.5H75.9993V87H75.4993ZM74.3232 87V76.0909H73.3232V87H74.3232ZM73.8232 76.5909H75.4425V75.5909H73.8232V76.5909ZM74.9425 76.0909V77.7955H75.9425V76.0909H74.9425ZM75.4425 78.2955H75.5845V77.2955H75.4425V78.2955ZM76.0503 77.9772C76.2406 77.4895 76.5406 77.1234 76.9536 76.8609L76.4172 76.0169C75.8169 76.3984 75.3829 76.9366 75.1187 77.6137L76.0503 77.9772ZM76.9563 76.8591C77.3687 76.5932 77.8791 76.4489 78.5107 76.4489V75.4489C77.7217 75.4489 77.0153 75.6312 76.4144 76.0187L76.9563 76.8591ZM78.5107 76.4489C79.1543 76.4489 79.6486 76.5943 80.0255 76.8518L80.5896 76.0261C80.01 75.6301 79.3064 75.4489 78.5107 75.4489V76.4489ZM80.0302 76.8549C80.4286 77.1206 80.7477 77.4977 80.9831 78.0057L81.8904 77.5852C81.5861 76.9284 81.1524 76.4012 80.5849 76.0229L80.0302 76.8549ZM81.4368 78.2955H81.5504V77.2955H81.4368V78.2955ZM81.9984 78.0176C82.2334 77.5435 82.584 77.1671 83.0626 76.8832L82.5524 76.0231C81.9136 76.4021 81.4262 76.9205 81.1025 77.5734L81.9984 78.0176ZM83.0653 76.8816C83.532 76.6007 84.109 76.4489 84.8175 76.4489V75.4489C83.9635 75.4489 83.2005 75.6332 82.5497 76.0247L83.0653 76.8816ZM84.8175 76.4489C85.6788 76.4489 86.345 76.7141 86.8601 77.2213L87.5618 76.5088C86.8364 75.7945 85.9069 75.4489 84.8175 75.4489V76.4489ZM86.8615 77.2227C87.3475 77.6976 87.6413 78.486 87.6413 79.6989H88.6413C88.6413 78.3455 88.3149 77.2446 87.5604 76.5074L86.8615 77.2227ZM87.6413 79.6989V87H88.6413V79.6989H87.6413ZM88.1413 86.5H86.4652V87.5H88.1413V86.5ZM86.9652 87V79.6989H85.9652V87H86.9652ZM86.9652 79.6989C86.9652 78.8107 86.7207 78.0564 86.1134 77.5797L85.496 78.3663C85.7694 78.5809 85.9652 78.9772 85.9652 79.6989H86.9652ZM86.1134 77.5797C85.579 77.1602 84.95 76.9545 84.2493 76.9545V77.9545C84.7418 77.9545 85.1497 78.0945 85.496 78.3663L86.1134 77.5797ZM84.2493 76.9545C83.3754 76.9545 82.6334 77.2232 82.0965 77.8144L82.8368 78.4867C83.1427 78.1499 83.5891 77.9545 84.2493 77.9545V76.9545ZM82.0982 77.8125C81.5809 78.3763 81.3345 79.0848 81.3345 79.8977H82.3345C82.3345 79.2997 82.5095 78.8434 82.835 78.4886L82.0982 77.8125ZM81.3345 79.8977V87H82.3345V79.8977H81.3345ZM81.8345 86.5H80.13V87.5H81.8345V86.5ZM80.63 87V79.5284H79.63V87H80.63ZM80.63 79.5284C80.63 78.7889 80.3846 78.151 79.869 77.6657L79.1836 78.3939C79.4729 78.6662 79.63 79.0274 79.63 79.5284H80.63ZM79.8712 77.6679C79.3625 77.1831 78.7142 76.9545 77.9709 76.9545V77.9545C78.4965 77.9545 78.8851 78.1095 79.1813 78.3918L79.8712 77.6679ZM77.9709 76.9545C77.4412 76.9545 76.9439 77.097 76.4881 77.3762L77.0104 78.2289C77.3123 78.0441 77.6293 77.9545 77.9709 77.9545V76.9545ZM76.4857 77.3777C76.0348 77.6573 75.6747 78.0434 75.4045 78.5231L76.2759 79.0138C76.4697 78.6697 76.7156 78.4118 77.0128 78.2275L76.4857 77.3777ZM75.4036 78.5248C75.129 79.0168 74.9993 79.5742 74.9993 80.1818H75.9993C75.9993 79.7194 76.0969 79.3345 76.2768 79.0121L75.4036 78.5248ZM74.9993 80.1818V87H75.9993V80.1818H74.9993ZM75.4993 86.5H73.8232V87.5H75.4993V86.5ZM97.0582 87H96.5582V87.5H97.0582V87ZM97.0582 72.4545V71.9545H96.5582V72.4545H97.0582ZM104.771 73.0369L104.536 73.4783L104.539 73.4795L104.771 73.0369ZM106.391 74.6207L105.947 74.8518L105.947 74.8518L106.391 74.6207ZM106.391 79.1946L105.949 78.9609L105.949 78.9609L106.391 79.1946ZM104.778 80.7571L105.008 81.2014L105.01 81.2002L104.778 80.7571ZM98.0241 81.3182H97.5241V81.8182H98.0241V81.3182ZM98.0241 79.7273V79.2273H97.5241V79.7273H98.0241ZM103.82 79.3864L103.605 78.9348L103.603 78.9356L103.82 79.3864ZM104.857 78.4205L104.412 78.1909L104.411 78.1928L104.857 78.4205ZM103.812 74.3793L103.587 74.8256L103.591 74.8274L103.812 74.3793ZM98.8196 74.017V73.517H98.3196V74.017H98.8196ZM98.8196 87V87.5H99.3196V87H98.8196ZM103.905 80.4659L104.343 80.2257L104.201 79.9659H103.905V80.4659ZM107.484 87V87.5H108.328L107.923 86.7598L107.484 87ZM105.439 87L104.999 87.2373L105.14 87.5H105.439V87ZM101.916 80.4659V79.9659H101.079L101.476 80.7032L101.916 80.4659ZM97.5582 87V72.4545H96.5582V87H97.5582ZM97.0582 72.9545H101.973V71.9545H97.0582V72.9545ZM101.973 72.9545C103.057 72.9545 103.902 73.1403 104.536 73.4783L105.006 72.5956C104.183 72.1571 103.162 71.9545 101.973 71.9545V72.9545ZM104.539 73.4795C105.186 73.8199 105.648 74.2776 105.947 74.8518L106.834 74.3897C106.432 73.6192 105.815 73.021 105.004 72.5944L104.539 73.4795ZM105.947 74.8518C106.256 75.444 106.416 76.1276 106.416 76.9148H107.416C107.416 75.9879 107.226 75.1422 106.834 74.3897L105.947 74.8518ZM106.416 76.9148C106.416 77.7021 106.256 78.3798 105.949 78.9609L106.833 79.4283C107.226 78.6837 107.416 77.8415 107.416 76.9148H106.416ZM105.949 78.9609C105.65 79.5262 105.19 79.9777 104.547 80.314L105.01 81.2002C105.816 80.7789 106.431 80.1887 106.833 79.4283L105.949 78.9609ZM104.549 80.3128C103.917 80.639 103.077 80.8182 102.001 80.8182V81.8182C103.179 81.8182 104.191 81.6233 105.008 81.2014L104.549 80.3128ZM102.001 80.8182H98.0241V81.8182H102.001V80.8182ZM98.5241 81.3182V79.7273H97.5241V81.3182H98.5241ZM98.0241 80.2273H101.945V79.2273H98.0241V80.2273ZM101.945 80.2273C102.763 80.2273 103.471 80.1085 104.036 79.8371L103.603 78.9356C103.222 79.1187 102.679 79.2273 101.945 79.2273V80.2273ZM104.034 79.838C104.598 79.57 105.032 79.1755 105.302 78.6481L104.411 78.1928C104.255 78.4988 103.998 78.7482 103.605 78.9348L104.034 79.838ZM105.301 78.65C105.563 78.1433 105.683 77.5591 105.683 76.9148H104.683C104.683 77.4352 104.586 77.8548 104.412 78.1909L105.301 78.65ZM105.683 76.9148C105.683 76.2698 105.562 75.6815 105.304 75.1642L104.409 75.6114C104.586 75.9652 104.683 76.3949 104.683 76.9148H105.683ZM105.304 75.1642C105.033 74.6218 104.6 74.2113 104.034 73.9312L103.591 74.8274C103.981 75.0207 104.245 75.2826 104.409 75.6114L105.304 75.1642ZM104.038 73.9329C103.465 73.6436 102.747 73.517 101.916 73.517V74.517C102.658 74.517 103.204 74.632 103.587 74.8256L104.038 73.9329ZM101.916 73.517H98.8196V74.517H101.916V73.517ZM98.3196 74.017V87H99.3196V74.017H98.3196ZM98.8196 86.5H97.0582V87.5H98.8196V86.5ZM103.466 80.7061L107.046 87.2402L107.923 86.7598L104.343 80.2257L103.466 80.7061ZM107.484 86.5H105.439V87.5H107.484V86.5ZM105.879 86.7627L102.356 80.2286L101.476 80.7032L104.999 87.2373L105.879 86.7627ZM101.916 80.9659H103.905V79.9659H101.916V80.9659ZM109.624 87H109.124V87.5H109.624V87ZM109.624 76.0909V75.5909H109.124V76.0909H109.624ZM111.3 76.0909H111.8V75.5909H111.3V76.0909ZM111.3 87V87.5H111.8V87H111.3ZM109.631 73.9389L109.285 74.2998L109.289 74.3032L109.631 73.9389ZM109.631 72.3338L109.289 71.9695L109.285 71.973L109.631 72.3338ZM111.314 72.3338L110.968 72.6947L110.972 72.6981L111.314 72.3338ZM111.314 73.9389L110.972 73.5746L110.968 73.5781L111.314 73.9389ZM110.124 87V76.0909H109.124V87H110.124ZM109.624 76.5909H111.3V75.5909H109.624V76.5909ZM110.8 76.0909V87H111.8V76.0909H110.8ZM111.3 86.5H109.624V87.5H111.3V86.5ZM110.476 73.7727C110.276 73.7727 110.117 73.7094 109.973 73.5746L109.289 74.3032C109.619 74.6135 110.023 74.7727 110.476 74.7727V73.7727ZM109.977 73.5781C109.84 73.4468 109.783 73.3083 109.783 73.1364H108.783C108.783 73.5894 108.958 73.986 109.285 74.2998L109.977 73.5781ZM109.783 73.1364C109.783 72.9644 109.84 72.8259 109.977 72.6946L109.285 71.973C108.958 72.2867 108.783 72.6833 108.783 73.1364H109.783ZM109.973 72.6981C110.117 72.5633 110.276 72.5 110.476 72.5V71.5C110.023 71.5 109.619 71.6593 109.289 71.9695L109.973 72.6981ZM110.476 72.5C110.676 72.5 110.831 72.563 110.968 72.6946L111.66 71.973C111.334 71.6595 110.93 71.5 110.476 71.5V72.5ZM110.972 72.6981C111.113 72.8304 111.169 72.9679 111.169 73.1364H112.169C112.169 72.6798 111.99 72.2823 111.657 71.9695L110.972 72.6981ZM111.169 73.1364C111.169 73.3048 111.113 73.4423 110.972 73.5746L111.657 74.3032C111.99 73.9904 112.169 73.5929 112.169 73.1364H111.169ZM110.968 73.5781C110.831 73.7097 110.676 73.7727 110.476 73.7727V74.7727C110.93 74.7727 111.334 74.6132 111.66 74.2998L110.968 73.5781ZM116.685 91.0057L116.854 90.5349L116.85 90.5337L116.685 91.0057ZM115.229 90.196L115.557 89.818L115.556 89.8177L115.229 90.196ZM114.313 89.1307L114.026 88.7215L113.645 88.9889L113.884 89.3879L114.313 89.1307ZM115.648 88.1932L116.046 87.8902L115.755 87.5076L115.361 87.784L115.648 88.1932ZM116.224 88.875L116.597 88.5424L116.594 88.539L116.224 88.875ZM117.175 89.5497L117.391 89.0984L117.388 89.0973L117.175 89.5497ZM120.954 89.2017L121.252 89.6029L121.252 89.6029L120.954 89.2017ZM121.813 84.983H122.313V84.483H121.813V84.983ZM121.671 84.983V84.483H121.393L121.246 84.7198L121.671 84.983ZM121.146 85.7216L120.75 85.4155L120.75 85.4164L121.146 85.7216ZM120.18 86.4957L120.415 86.9368L120.417 86.9358L120.18 86.4957ZM116.117 86.2045L115.86 86.6336L115.862 86.6343L116.117 86.2045ZM114.462 84.3864L114.016 84.6121L114.017 84.6142L114.462 84.3864ZM114.448 78.5696L114.9 78.7839L114.9 78.7829L114.448 78.5696ZM116.089 76.6378L116.361 77.0573L116.363 77.056L116.089 76.6378ZM120.208 76.304L119.961 76.7387L119.967 76.742L120.208 76.304ZM121.174 77.0994L120.773 77.3985L120.779 77.4055L121.174 77.0994ZM121.7 77.8239L121.28 78.0964L121.428 78.3239H121.7V77.8239ZM121.87 77.8239V78.3239H122.37V77.8239H121.87ZM121.87 76.0909V75.5909H121.37V76.0909H121.87ZM123.489 76.0909H123.989V75.5909H123.489V76.0909ZM122.85 89.5994L122.445 89.3057L122.443 89.3094L122.85 89.5994ZM121.146 90.8991L120.966 90.4324L120.963 90.4338L121.146 90.8991ZM120.421 84.8622L120.145 84.4455L120.145 84.4455L120.421 84.8622ZM121.479 83.5341L121.941 83.7269L121.941 83.7269L121.479 83.5341ZM121.487 79.3793L121.952 79.1961L121.952 79.1961L121.487 79.3793ZM120.435 77.9659L120.139 78.3688L120.139 78.3688L120.435 77.9659ZM116.941 77.9943L116.639 77.5962L116.637 77.5977L116.941 77.9943ZM115.883 79.4432L115.417 79.2613L115.416 79.2644L115.883 79.4432ZM115.89 83.4702L115.427 83.6585L115.429 83.663L115.89 83.4702ZM116.955 84.8338L116.667 85.2421L116.671 85.2453L116.955 84.8338ZM118.773 90.8182C118.004 90.8182 117.368 90.719 116.854 90.5349L116.517 91.4765C117.167 91.7091 117.923 91.8182 118.773 91.8182V90.8182ZM116.85 90.5337C116.316 90.3468 115.889 90.1055 115.557 89.818L114.902 90.574C115.347 90.9589 115.89 91.2573 116.52 91.4777L116.85 90.5337ZM115.556 89.8177C115.207 89.5159 114.938 89.2006 114.742 88.8734L113.884 89.3879C114.143 89.8184 114.485 90.2132 114.902 90.5743L115.556 89.8177ZM114.601 89.5399L115.936 88.6024L115.361 87.784L114.026 88.7215L114.601 89.5399ZM115.251 88.4962C115.413 88.7098 115.615 88.9484 115.853 89.211L116.594 88.539C116.368 88.2903 116.186 88.0743 116.046 87.8902L115.251 88.4962ZM115.85 89.2076C116.138 89.5302 116.515 89.7916 116.963 90.0021L117.388 89.0973C117.031 88.929 116.774 88.7407 116.597 88.5424L115.85 89.2076ZM116.96 90.001C117.458 90.2385 118.072 90.3409 118.773 90.3409V89.3409C118.158 89.3409 117.707 89.2492 117.391 89.0984L116.96 90.001ZM118.773 90.3409C119.736 90.3409 120.575 90.1069 121.252 89.6029L120.655 88.8005C120.187 89.1488 119.572 89.3409 118.773 89.3409V90.3409ZM121.252 89.6029C121.986 89.0572 122.313 88.2184 122.313 87.1989H121.313C121.313 87.9976 121.068 88.494 120.655 88.8005L121.252 89.6029ZM122.313 87.1989V84.983H121.313V87.1989H122.313ZM121.813 84.483H121.671V85.483H121.813V84.483ZM121.246 84.7198C121.136 84.8979 120.972 85.1287 120.75 85.4155L121.541 86.0277C121.773 85.7273 121.96 85.4658 122.096 85.2461L121.246 84.7198ZM120.75 85.4164C120.581 85.6351 120.32 85.8518 119.942 86.0557L120.417 86.9358C120.882 86.6852 121.265 86.3857 121.542 86.0268L120.75 85.4164ZM119.944 86.0547C119.627 86.2239 119.155 86.3295 118.489 86.3295V87.3295C119.244 87.3295 119.899 87.2127 120.415 86.9368L119.944 86.0547ZM118.489 86.3295C117.691 86.3295 116.99 86.1418 116.373 85.7748L115.862 86.6343C116.646 87.1006 117.526 87.3295 118.489 87.3295V86.3295ZM116.374 85.7755C115.766 85.4118 115.276 84.8794 114.907 84.1585L114.017 84.6142C114.463 85.4843 115.076 86.164 115.86 86.6335L116.374 85.7755ZM114.909 84.1606C114.55 83.4517 114.359 82.5675 114.359 81.4886H113.359C113.359 82.6825 113.57 83.7301 114.016 84.6121L114.909 84.1606ZM114.359 81.4886C114.359 80.4294 114.545 79.5325 114.9 78.7839L113.996 78.3553C113.565 79.2639 113.359 80.313 113.359 81.4886H114.359ZM114.9 78.7829C115.258 78.0247 115.746 77.456 116.361 77.0573L115.817 76.2183C115.03 76.7286 114.424 77.4478 113.996 78.3563L114.9 78.7829ZM116.363 77.056C116.974 76.6552 117.687 76.4489 118.518 76.4489V75.4489C117.512 75.4489 116.605 75.7018 115.815 76.2196L116.363 77.056ZM118.518 76.4489C119.18 76.4489 119.647 76.5605 119.961 76.7387L120.455 75.8692C119.935 75.574 119.276 75.4489 118.518 75.4489V76.4489ZM119.967 76.742C120.343 76.9492 120.604 77.1715 120.773 77.3984L121.575 76.8004C121.299 76.4308 120.916 76.1227 120.449 75.866L119.967 76.742ZM120.779 77.4055C121.002 77.6942 121.168 77.9234 121.28 78.0964L122.119 77.5514C121.985 77.3455 121.8 77.0918 121.569 76.7933L120.779 77.4055ZM121.7 78.3239H121.87V77.3239H121.7V78.3239ZM122.37 77.8239V76.0909H121.37V77.8239H122.37ZM121.87 76.5909H123.489V75.5909H121.87V76.5909ZM122.989 76.0909V87.3125H123.989V76.0909H122.989ZM122.989 87.3125C122.989 88.1753 122.794 88.826 122.445 89.3057L123.255 89.8931C123.759 89.1987 123.989 88.3247 123.989 87.3125H122.989ZM122.443 89.3094C122.082 89.8168 121.595 90.191 120.966 90.4324L121.325 91.3659C122.126 91.0581 122.776 90.5658 123.257 89.8894L122.443 89.3094ZM120.963 90.4338C120.318 90.6873 119.591 90.8182 118.773 90.8182V91.8182C119.699 91.8182 120.552 91.6697 121.329 91.3644L120.963 90.4338ZM118.717 85.8239C119.467 85.8239 120.136 85.6514 120.698 85.2789L120.145 84.4455C119.778 84.6886 119.311 84.8239 118.717 84.8239V85.8239ZM120.698 85.2789C121.254 84.9098 121.666 84.3841 121.941 83.7269L121.018 83.3412C120.81 83.8394 120.516 84.1991 120.145 84.4455L120.698 85.2789ZM121.941 83.7269C122.214 83.0735 122.342 82.3133 122.342 81.4602H121.342C121.342 82.217 121.228 82.8394 121.018 83.3412L121.941 83.7269ZM122.342 81.4602C122.342 80.6247 122.216 79.8669 121.952 79.1961L121.021 79.5624C121.231 80.0943 121.342 80.7238 121.342 81.4602H122.342ZM121.952 79.1961C121.685 78.5181 121.28 77.9664 120.731 77.563L120.139 78.3688C120.518 78.6473 120.815 79.0378 121.021 79.5624L121.952 79.1961ZM120.731 77.563C120.167 77.148 119.485 76.9545 118.717 76.9545V77.9545C119.312 77.9545 119.776 78.102 120.139 78.3688L120.731 77.563ZM118.717 76.9545C117.919 76.9545 117.215 77.1581 116.639 77.5962L117.244 78.3924C117.614 78.1108 118.094 77.9545 118.717 77.9545V76.9545ZM116.637 77.5977C116.088 78.0186 115.684 78.5791 115.417 79.2613L116.349 79.6251C116.556 79.0951 116.856 78.6897 117.246 78.3909L116.637 77.5977ZM115.416 79.2644C115.159 79.9349 115.035 80.6688 115.035 81.4602H116.035C116.035 80.7743 116.142 80.1636 116.35 79.6219L115.416 79.2644ZM115.035 81.4602C115.035 82.2694 115.161 83.0054 115.427 83.6585L116.353 83.2819C116.145 82.7702 116.035 82.1662 116.035 81.4602H115.035ZM115.429 83.663C115.703 84.3191 116.114 84.8516 116.667 85.2421L117.244 84.4256C116.859 84.1532 116.56 83.7765 116.351 83.2773L115.429 83.663ZM116.671 85.2453C117.245 85.6412 117.937 85.8239 118.717 85.8239V84.8239C118.095 84.8239 117.612 84.6798 117.239 84.4223L116.671 85.2453ZM128.234 87V87.5H128.734V87H128.234ZM126.558 87H126.058V87.5H126.558V87ZM126.558 72.4545V71.9545H126.058V72.4545H126.558ZM128.234 72.4545H128.734V71.9545H128.234V72.4545ZM128.234 77.7955H127.734V78.2955H128.234V77.7955ZM128.376 77.7955V78.2955H128.698L128.831 78.0021L128.376 77.7955ZM129.526 76.4531L129.798 76.8727L129.799 76.8721L129.526 76.4531ZM133.539 76.3963L133.304 76.8374L133.306 76.8389L133.539 76.3963ZM134.839 77.7528L134.392 77.9778L134.394 77.982L134.839 77.7528ZM135.308 87V87.5H135.808V87H135.308ZM133.631 87H133.131V87.5H133.631V87ZM132.957 78.1719L132.591 78.5125L132.594 78.5162L132.957 78.1719ZM129.626 77.8026L129.391 77.3612L129.389 77.3623L129.626 77.8026ZM128.603 78.8182L128.167 78.5726L128.165 78.5762L128.603 78.8182ZM127.734 80.4375V87H128.734V80.4375H127.734ZM128.234 86.5H126.558V87.5H128.234V86.5ZM127.058 87V72.4545H126.058V87H127.058ZM126.558 72.9545H128.234V71.9545H126.558V72.9545ZM127.734 72.4545V77.7955H128.734V72.4545H127.734ZM128.234 78.2955H128.376V77.2955H128.234V78.2955ZM128.831 78.0021C129.048 77.5243 129.368 77.1513 129.798 76.8727L129.254 76.0335C128.661 76.4178 128.215 76.9398 127.92 77.5888L128.831 78.0021ZM129.799 76.8721C130.208 76.6057 130.789 76.4489 131.586 76.4489V75.4489C130.669 75.4489 129.877 75.6282 129.253 76.0342L129.799 76.8721ZM131.586 76.4489C132.261 76.4489 132.829 76.584 133.304 76.8374L133.775 75.9552C133.132 75.612 132.397 75.4489 131.586 75.4489V76.4489ZM133.306 76.8389C133.765 77.0799 134.127 77.4519 134.392 77.9778L135.285 77.5279C134.935 76.8322 134.43 76.2998 133.772 75.9537L133.306 76.8389ZM134.394 77.982C134.659 78.4957 134.808 79.1821 134.808 80.0682H135.808C135.808 79.0793 135.643 78.2221 135.283 77.5237L134.394 77.982ZM134.808 80.0682V87H135.808V80.0682H134.808ZM135.308 86.5H133.631V87.5H135.308V86.5ZM134.131 87V80.1818H133.131V87H134.131ZM134.131 80.1818C134.131 79.2302 133.883 78.421 133.319 77.8275L132.594 78.5162C132.93 78.8697 133.131 79.4005 133.131 80.1818H134.131ZM133.323 77.8312C132.763 77.2304 132.001 76.9545 131.103 76.9545V77.9545C131.786 77.9545 132.26 78.1569 132.591 78.5125L133.323 77.8312ZM131.103 76.9545C130.481 76.9545 129.906 77.0865 129.391 77.3612L129.861 78.2439C130.216 78.0546 130.626 77.9545 131.103 77.9545V76.9545ZM129.389 77.3623C128.871 77.6412 128.463 78.049 128.167 78.5726L129.039 79.0638C129.245 78.6972 129.519 78.4279 129.863 78.2428L129.389 77.3623ZM128.165 78.5762C127.869 79.1115 127.734 79.739 127.734 80.4375H128.734C128.734 79.8671 128.844 79.415 129.041 79.0602L128.165 78.5762ZM143.118 76.0909H143.618V75.5909H143.118V76.0909ZM143.118 77.5114V78.0114H143.618V77.5114H143.118ZM137.465 77.5114H136.965V78.0114H137.465V77.5114ZM137.465 76.0909V75.5909H136.965V76.0909H137.465ZM139.113 73.4773V72.9773H138.613V73.4773H139.113ZM140.789 73.4773H141.289V72.9773H140.789V73.4773ZM140.995 84.9403L140.562 85.1913L140.568 85.2014L140.995 84.9403ZM141.534 85.4091L141.361 85.8782L141.373 85.8824L141.534 85.4091ZM142.692 85.4943L142.771 85.988L142.781 85.9865L142.79 85.9846L142.692 85.4943ZM142.976 85.4375L143.464 85.3271L143.356 84.8516L142.878 84.9472L142.976 85.4375ZM143.317 86.9432L143.493 87.4113L143.901 87.2582L143.805 86.8328L143.317 86.9432ZM142.841 87.071L142.739 86.5815L142.728 86.584L142.841 87.071ZM140.675 86.8366L140.469 87.2922L140.471 87.293L140.675 86.8366ZM139.553 85.9062L139.144 86.1942L139.146 86.1973L139.553 85.9062ZM142.618 76.0909V77.5114H143.618V76.0909H142.618ZM143.118 77.0114H137.465V78.0114H143.118V77.0114ZM137.965 77.5114V76.0909H136.965V77.5114H137.965ZM137.465 76.5909H143.118V75.5909H137.465V76.5909ZM139.113 73.9773H140.789V72.9773H139.113V73.9773ZM140.289 73.4773V83.875H141.289V73.4773H140.289ZM140.289 83.875C140.289 84.3804 140.359 84.8411 140.562 85.1912L141.427 84.6895C141.356 84.5661 141.289 84.3165 141.289 83.875H140.289ZM140.568 85.2014C140.758 85.5121 141.021 85.7522 141.361 85.8781L141.708 84.9401C141.613 84.905 141.515 84.8326 141.421 84.6793L140.568 85.2014ZM141.373 85.8824C141.65 85.9767 141.939 86.0227 142.238 86.0227V85.0227C142.044 85.0227 141.864 84.993 141.696 84.9358L141.373 85.8824ZM142.238 86.0227C142.436 86.0227 142.617 86.0128 142.771 85.988L142.613 85.0006C142.531 85.0138 142.408 85.0227 142.238 85.0227V86.0227ZM142.79 85.9846C142.909 85.9609 143.003 85.942 143.074 85.9278L142.878 84.9472C142.807 84.9614 142.712 84.9804 142.594 85.004L142.79 85.9846ZM142.489 85.5479L142.829 87.0536L143.805 86.8328L143.464 85.3271L142.489 85.5479ZM143.142 86.475C143.063 86.5046 142.932 86.5411 142.739 86.5816L142.944 87.5604C143.157 87.5157 143.344 87.467 143.493 87.4113L143.142 86.475ZM142.728 86.584C142.575 86.6196 142.358 86.642 142.067 86.642V87.642C142.401 87.642 142.7 87.6171 142.955 87.558L142.728 86.584ZM142.067 86.642C141.668 86.642 141.273 86.5567 140.879 86.3803L140.471 87.293C140.986 87.5238 141.52 87.642 142.067 87.642V86.642ZM140.881 86.3811C140.515 86.2152 140.209 85.9632 139.959 85.6152L139.146 86.1973C139.494 86.6826 139.936 87.0509 140.469 87.2922L140.881 86.3811ZM139.962 85.6183C139.741 85.3046 139.613 84.8864 139.613 84.3295H138.613C138.613 85.0417 138.778 85.6746 139.144 86.1942L139.962 85.6183ZM139.613 84.3295V73.4773H138.613V84.3295H139.613Z" fill="black"/>
</svg>
