<svg width="160" height="160" viewBox="0 0 160 160" fill="none" xmlns="http://www.w3.org/2000/svg">
<rect width="160" height="160" fill="#D9D9D9"/>
<path d="M22.7614 87V72.4545H27.8466C28.8598 72.4545 29.6955 72.6297 30.3537 72.9801C31.0118 73.3258 31.5019 73.7921 31.8239 74.3793C32.1458 74.9616 32.3068 75.608 32.3068 76.3182C32.3068 76.9432 32.1955 77.4593 31.973 77.8665C31.7552 78.2737 31.4664 78.5956 31.1065 78.8324C30.7514 79.0691 30.3655 79.2443 29.9489 79.358V79.5C30.3939 79.5284 30.8414 79.6847 31.2912 79.9688C31.741 80.2528 32.1174 80.66 32.4205 81.1903C32.7235 81.7206 32.875 82.3693 32.875 83.1364C32.875 83.8655 32.7093 84.5213 32.3778 85.1037C32.0464 85.6861 31.5232 86.1477 30.8082 86.4886C30.0933 86.8295 29.1629 87 28.017 87H22.7614ZM24.5227 85.4375H28.017C29.1676 85.4375 29.9844 85.215 30.4673 84.7699C30.955 84.3201 31.1989 83.7756 31.1989 83.1364C31.1989 82.6439 31.0734 82.1894 30.8224 81.7727C30.5715 81.3513 30.214 81.0152 29.75 80.7642C29.286 80.5085 28.7367 80.3807 28.1023 80.3807H24.5227V85.4375ZM24.5227 78.8466H27.7898C28.3201 78.8466 28.7983 78.7424 29.2244 78.5341C29.6553 78.3258 29.9962 78.0322 30.2472 77.6534C30.5028 77.2746 30.6307 76.8295 30.6307 76.3182C30.6307 75.679 30.4081 75.1368 29.9631 74.6918C29.518 74.242 28.8125 74.017 27.8466 74.017H24.5227V78.8466ZM39.9737 87.2273C38.9889 87.2273 38.1248 86.9929 37.3814 86.5241C36.6428 86.0554 36.0651 85.3996 35.6484 84.5568C35.2365 83.714 35.0305 82.7292 35.0305 81.6023C35.0305 80.4659 35.2365 79.474 35.6484 78.6264C36.0651 77.7789 36.6428 77.1207 37.3814 76.652C38.1248 76.1832 38.9889 75.9489 39.9737 75.9489C40.9586 75.9489 41.8203 76.1832 42.5589 76.652C43.3023 77.1207 43.88 77.7789 44.2919 78.6264C44.7086 79.474 44.9169 80.4659 44.9169 81.6023C44.9169 82.7292 44.7086 83.714 44.2919 84.5568C43.88 85.3996 43.3023 86.0554 42.5589 86.5241C41.8203 86.9929 40.9586 87.2273 39.9737 87.2273ZM39.9737 85.7216C40.7218 85.7216 41.3374 85.5298 41.8203 85.1463C42.3033 84.7628 42.6607 84.2585 42.8928 83.6335C43.1248 83.0085 43.2408 82.3314 43.2408 81.6023C43.2408 80.8731 43.1248 80.1937 42.8928 79.5639C42.6607 78.9342 42.3033 78.4252 41.8203 78.0369C41.3374 77.6487 40.7218 77.4545 39.9737 77.4545C39.2256 77.4545 38.6101 77.6487 38.1271 78.0369C37.6442 78.4252 37.2867 78.9342 37.0547 79.5639C36.8227 80.1937 36.7067 80.8731 36.7067 81.6023C36.7067 82.3314 36.8227 83.0085 37.0547 83.6335C37.2867 84.2585 37.6442 84.7628 38.1271 85.1463C38.6101 85.5298 39.2256 85.7216 39.9737 85.7216ZM52.2198 76.0909V77.5114H46.5664V76.0909H52.2198ZM48.2141 73.4773H49.8903V83.875C49.8903 84.3485 49.9589 84.7036 50.0962 84.9403C50.2383 85.1723 50.4182 85.3286 50.636 85.4091C50.8585 85.4848 51.0929 85.5227 51.3391 85.5227C51.5238 85.5227 51.6753 85.5133 51.7937 85.4943C51.9121 85.4706 52.0067 85.4517 52.0778 85.4375L52.4187 86.9432C52.305 86.9858 52.1464 87.0284 51.9428 87.071C51.7392 87.1184 51.4812 87.142 51.1687 87.142C50.6952 87.142 50.2312 87.0402 49.7766 86.8366C49.3268 86.633 48.9528 86.3229 48.6545 85.9062C48.3609 85.4896 48.2141 84.964 48.2141 84.3295V73.4773ZM59.4854 76.0909V77.5114H53.832V76.0909H59.4854ZM55.4798 73.4773H57.1559V83.875C57.1559 84.3485 57.2246 84.7036 57.3619 84.9403C57.5039 85.1723 57.6838 85.3286 57.9016 85.4091C58.1242 85.4848 58.3585 85.5227 58.6048 85.5227C58.7894 85.5227 58.9409 85.5133 59.0593 85.4943C59.1777 85.4706 59.2724 85.4517 59.3434 85.4375L59.6843 86.9432C59.5707 86.9858 59.4121 87.0284 59.2085 87.071C59.0049 87.1184 58.7468 87.142 58.4343 87.142C57.9608 87.142 57.4968 87.0402 57.0423 86.8366C56.5924 86.633 56.2184 86.3229 55.9201 85.9062C55.6265 85.4896 55.4798 84.964 55.4798 84.3295V73.4773ZM66.3214 87.2273C65.3365 87.2273 64.4724 86.9929 63.729 86.5241C62.9904 86.0554 62.4128 85.3996 61.9961 84.5568C61.5842 83.714 61.3782 82.7292 61.3782 81.6023C61.3782 80.4659 61.5842 79.474 61.9961 78.6264C62.4128 77.7789 62.9904 77.1207 63.729 76.652C64.4724 76.1832 65.3365 75.9489 66.3214 75.9489C67.3062 75.9489 68.168 76.1832 68.9066 76.652C69.65 77.1207 70.2276 77.7789 70.6396 78.6264C71.0562 79.474 71.2646 80.4659 71.2646 81.6023C71.2646 82.7292 71.0562 83.714 70.6396 84.5568C70.2276 85.3996 69.65 86.0554 68.9066 86.5241C68.168 86.9929 67.3062 87.2273 66.3214 87.2273ZM66.3214 85.7216C67.0695 85.7216 67.685 85.5298 68.168 85.1463C68.6509 84.7628 69.0084 84.2585 69.2404 83.6335C69.4724 83.0085 69.5884 82.3314 69.5884 81.6023C69.5884 80.8731 69.4724 80.1937 69.2404 79.5639C69.0084 78.9342 68.6509 78.4252 68.168 78.0369C67.685 77.6487 67.0695 77.4545 66.3214 77.4545C65.5733 77.4545 64.9577 77.6487 64.4748 78.0369C63.9918 78.4252 63.6344 78.9342 63.4023 79.5639C63.1703 80.1937 63.0543 80.8731 63.0543 81.6023C63.0543 82.3314 63.1703 83.0085 63.4023 83.6335C63.6344 84.2585 63.9918 84.7628 64.4748 85.1463C64.9577 85.5298 65.5733 85.7216 66.3214 85.7216ZM73.8232 87V76.0909H75.4425V77.7955H75.5845C75.8118 77.2131 76.1787 76.7609 76.6854 76.4389C77.192 76.1122 77.8004 75.9489 78.5107 75.9489C79.2304 75.9489 79.8293 76.1122 80.3075 76.4389C80.7905 76.7609 81.1669 77.2131 81.4368 77.7955H81.5504C81.8298 77.232 82.2488 76.7846 82.8075 76.4531C83.3662 76.117 84.0362 75.9489 84.8175 75.9489C85.7929 75.9489 86.5907 76.2543 87.2109 76.8651C87.8312 77.4711 88.1413 78.4157 88.1413 79.6989V87H86.4652V79.6989C86.4652 78.8939 86.245 78.3187 85.8047 77.973C85.3643 77.6274 84.8459 77.4545 84.2493 77.4545C83.4822 77.4545 82.888 77.6866 82.4666 78.1506C82.0452 78.6098 81.8345 79.1922 81.8345 79.8977V87H80.13V79.5284C80.13 78.9081 79.9287 78.4086 79.5263 78.0298C79.1238 77.6463 78.6054 77.4545 77.9709 77.4545C77.5353 77.4545 77.1281 77.5705 76.7493 77.8026C76.3752 78.0346 76.0722 78.3565 75.8402 78.7685C75.6129 79.1757 75.4993 79.6468 75.4993 80.1818V87H73.8232ZM97.0582 87V72.4545H98.8196V85.4375H105.581V87H97.0582ZM112.655 87.2273C111.604 87.2273 110.697 86.9953 109.935 86.5312C109.177 86.0625 108.592 85.4091 108.18 84.571C107.773 83.7282 107.57 82.7481 107.57 81.6307C107.57 80.5133 107.773 79.5284 108.18 78.6761C108.592 77.8191 109.165 77.1515 109.899 76.6733C110.638 76.1903 111.5 75.9489 112.484 75.9489C113.053 75.9489 113.614 76.0436 114.168 76.233C114.722 76.4223 115.226 76.7301 115.68 77.1562C116.135 77.5777 116.497 78.1364 116.767 78.8324C117.037 79.5284 117.172 80.3854 117.172 81.4034V82.1136H108.763V80.6648H115.467C115.467 80.0492 115.344 79.5 115.098 79.017C114.857 78.5341 114.511 78.1529 114.061 77.8736C113.616 77.5942 113.09 77.4545 112.484 77.4545C111.817 77.4545 111.239 77.6203 110.751 77.9517C110.268 78.2784 109.897 78.7045 109.636 79.2301C109.376 79.7557 109.246 80.3191 109.246 80.9205V81.8864C109.246 82.7102 109.388 83.4086 109.672 83.9815C109.961 84.5497 110.361 84.983 110.872 85.2812C111.384 85.5748 111.978 85.7216 112.655 85.7216C113.095 85.7216 113.493 85.66 113.848 85.5369C114.208 85.4091 114.518 85.2197 114.778 84.9688C115.039 84.7131 115.24 84.3958 115.382 84.017L117.001 84.4716C116.831 85.0208 116.545 85.5038 116.142 85.9205C115.74 86.3324 115.242 86.6544 114.651 86.8864C114.059 87.1136 113.393 87.2273 112.655 87.2273ZM124.58 76.0909V77.5114H118.699V76.0909H124.58ZM120.46 87V74.5852C120.46 73.9602 120.607 73.4394 120.901 73.0227C121.194 72.6061 121.575 72.2936 122.044 72.0852C122.513 71.8769 123.008 71.7727 123.528 71.7727C123.94 71.7727 124.277 71.8059 124.537 71.8722C124.797 71.9384 124.991 72 125.119 72.0568L124.636 73.5057C124.551 73.4773 124.433 73.4418 124.281 73.3991C124.134 73.3565 123.94 73.3352 123.699 73.3352C123.145 73.3352 122.745 73.4749 122.499 73.7543C122.257 74.0336 122.136 74.4432 122.136 74.983V87H120.46ZM131.673 76.0909V77.5114H126.02V76.0909H131.673ZM127.667 73.4773H129.343V83.875C129.343 84.3485 129.412 84.7036 129.549 84.9403C129.691 85.1723 129.871 85.3286 130.089 85.4091C130.312 85.4848 130.546 85.5227 130.792 85.5227C130.977 85.5227 131.128 85.5133 131.247 85.4943C131.365 85.4706 131.46 85.4517 131.531 85.4375L131.872 86.9432C131.758 86.9858 131.6 87.0284 131.396 87.071C131.192 87.1184 130.934 87.142 130.622 87.142C130.148 87.142 129.684 87.0402 129.23 86.8366C128.78 86.633 128.406 86.3229 128.108 85.9062C127.814 85.4896 127.667 84.964 127.667 84.3295V73.4773Z" fill="black"/>
<path d="M22.7614 87H22.2614V87.5H22.7614V87ZM22.7614 72.4545V71.9545H22.2614V72.4545H22.7614ZM30.3537 72.9801L30.1187 73.4215L30.1212 73.4228L30.3537 72.9801ZM31.8239 74.3793L31.3855 74.6197L31.3863 74.6212L31.8239 74.3793ZM31.973 77.8665L31.5342 77.6267L31.5321 77.6307L31.973 77.8665ZM31.1065 78.8324L30.8317 78.4147L30.8292 78.4164L31.1065 78.8324ZM29.9489 79.358L29.8173 78.8756L29.4489 78.9761V79.358H29.9489ZM29.9489 79.5H29.4489V79.9691L29.917 79.999L29.9489 79.5ZM31.2912 79.9688L31.0242 80.3915L31.0242 80.3915L31.2912 79.9688ZM32.3778 85.1037L32.8124 85.351L32.8124 85.351L32.3778 85.1037ZM30.8082 86.4886L30.593 86.0373L30.593 86.0373L30.8082 86.4886ZM24.5227 85.4375H24.0227V85.9375H24.5227V85.4375ZM30.4673 84.7699L30.8062 85.1376L30.8063 85.1374L30.4673 84.7699ZM30.8224 81.7727L30.3928 82.0286L30.3941 82.0307L30.8224 81.7727ZM29.75 80.7642L29.5087 81.2021L29.5121 81.204L29.75 80.7642ZM24.5227 80.3807V79.8807H24.0227V80.3807H24.5227ZM24.5227 78.8466H24.0227V79.3466H24.5227V78.8466ZM29.2244 78.5341L29.0068 78.0839L29.0048 78.0849L29.2244 78.5341ZM30.2472 77.6534L29.8327 77.3737L29.8303 77.3773L30.2472 77.6534ZM29.9631 74.6918L29.6076 75.0434L29.6095 75.0453L29.9631 74.6918ZM24.5227 74.017V73.517H24.0227V74.017H24.5227ZM23.2614 87V72.4545H22.2614V87H23.2614ZM22.7614 72.9545H27.8466V71.9545H22.7614V72.9545ZM27.8466 72.9545C28.806 72.9545 29.5542 73.1209 30.1187 73.4215L30.5887 72.5388C29.8369 72.1386 28.9137 71.9545 27.8466 71.9545V72.9545ZM30.1212 73.4228C30.7023 73.7279 31.1159 74.1281 31.3855 74.6197L32.2623 74.1388C31.8879 73.4562 31.3214 72.9236 30.5862 72.5374L30.1212 73.4228ZM31.3863 74.6212C31.6646 75.1245 31.8068 75.6867 31.8068 76.3182H32.8068C32.8068 75.5292 32.6271 74.7988 32.2614 74.1373L31.3863 74.6212ZM31.8068 76.3182C31.8068 76.8873 31.7051 77.3141 31.5343 77.6267L32.4118 78.1063C32.686 77.6044 32.8068 76.9991 32.8068 76.3182H31.8068ZM31.5321 77.6307C31.3507 77.9698 31.1169 78.227 30.8317 78.4147L31.3813 79.2501C31.8158 78.9642 32.1597 78.5776 32.4139 78.1023L31.5321 77.6307ZM30.8292 78.4164C30.5193 78.6229 30.1828 78.7759 29.8173 78.8756L30.0804 79.8403C30.5483 79.7127 30.9835 79.5153 31.3839 79.2484L30.8292 78.4164ZM29.4489 79.358V79.5H30.4489V79.358H29.4489ZM29.917 79.999C30.2638 80.0211 30.6315 80.1435 31.0242 80.3915L31.5582 79.546C31.0512 79.2258 30.524 79.0357 29.9807 79.001L29.917 79.999ZM31.0242 80.3915C31.3952 80.6258 31.7178 80.9685 31.9863 81.4384L32.8546 80.9423C32.517 80.3515 32.0868 79.8799 31.5582 79.546L31.0242 80.3915ZM31.9863 81.4384C32.2365 81.8762 32.375 82.4344 32.375 83.1364H33.375C33.375 82.3042 33.2105 81.5651 32.8546 80.9423L31.9863 81.4384ZM32.375 83.1364C32.375 83.7867 32.2281 84.3559 31.9433 84.8564L32.8124 85.351C33.1905 84.6867 33.375 83.9444 33.375 83.1364H32.375ZM31.9433 84.8564C31.6711 85.3347 31.233 85.7322 30.593 86.0373L31.0234 86.94C31.8134 86.5633 32.4217 86.0375 32.8124 85.351L31.9433 84.8564ZM30.593 86.0373C29.9684 86.3351 29.1192 86.5 28.017 86.5V87.5C29.2066 87.5 30.2181 87.3239 31.0234 86.94L30.593 86.0373ZM28.017 86.5H22.7614V87.5H28.017V86.5ZM24.5227 85.9375H28.017V84.9375H24.5227V85.9375ZM28.017 85.9375C29.2069 85.9375 30.1827 85.7122 30.8062 85.1376L30.1285 84.4022C29.7861 84.7178 29.1283 84.9375 28.017 84.9375V85.9375ZM30.8063 85.1374C31.3922 84.597 31.6989 83.9211 31.6989 83.1364H30.6989C30.6989 83.6301 30.5178 84.0431 30.1283 84.4023L30.8063 85.1374ZM31.6989 83.1364C31.6989 82.5542 31.5492 82.0103 31.2508 81.5148L30.3941 82.0307C30.5976 82.3685 30.6989 82.7337 30.6989 83.1364H31.6989ZM31.252 81.5169C30.9515 81.0121 30.525 80.6149 29.9879 80.3244L29.5121 81.204C29.903 81.4154 30.1915 81.6905 30.3928 82.0286L31.252 81.5169ZM29.9913 80.3263C29.4401 80.0225 28.8045 79.8807 28.1023 79.8807V80.8807C28.669 80.8807 29.1319 80.9945 29.5087 81.2021L29.9913 80.3263ZM28.1023 79.8807H24.5227V80.8807H28.1023V79.8807ZM24.0227 80.3807V85.4375H25.0227V80.3807H24.0227ZM24.5227 79.3466H27.7898V78.3466H24.5227V79.3466ZM27.7898 79.3466C28.3871 79.3466 28.9418 79.2288 29.444 78.9833L29.0048 78.0849C28.6548 78.256 28.253 78.3466 27.7898 78.3466V79.3466ZM29.4421 78.9842C29.9493 78.739 30.3608 78.3872 30.664 77.9296L29.8303 77.3773C29.6316 77.6772 29.3613 77.9125 29.0068 78.0839L29.4421 78.9842ZM30.6616 77.9331C30.9795 77.4621 31.1307 76.9169 31.1307 76.3182H30.1307C30.1307 76.7422 30.0261 77.0872 29.8327 77.3737L30.6616 77.9331ZM31.1307 76.3182C31.1307 75.5487 30.8571 74.8787 30.3166 74.3382L29.6095 75.0453C29.9592 75.395 30.1307 75.8093 30.1307 76.3182H31.1307ZM30.3185 74.3401C29.7401 73.7555 28.8769 73.517 27.8466 73.517V74.517C28.7481 74.517 29.2959 74.7284 29.6076 75.0434L30.3185 74.3401ZM27.8466 73.517H24.5227V74.517H27.8466V73.517ZM24.0227 74.017V78.8466H25.0227V74.017H24.0227ZM37.3814 86.5241L37.1135 86.9463L37.1147 86.9471L37.3814 86.5241ZM35.6484 84.5568L35.1992 84.7764L35.2002 84.7784L35.6484 84.5568ZM35.6484 78.6264L35.1997 78.4058L35.1987 78.4079L35.6484 78.6264ZM37.3814 76.652L37.1147 76.2291L37.1135 76.2298L37.3814 76.652ZM42.5589 76.652L42.291 77.0742L42.2923 77.0749L42.5589 76.652ZM44.2919 78.6264L43.8422 78.845L43.8432 78.847L44.2919 78.6264ZM44.2919 84.5568L43.8437 84.3352L43.8427 84.3373L44.2919 84.5568ZM42.5589 86.5241L42.2923 86.1012L42.291 86.102L42.5589 86.5241ZM41.8203 85.1463L41.5094 84.7548L41.5094 84.7548L41.8203 85.1463ZM42.8928 83.6335L43.3615 83.8075L43.3615 83.8075L42.8928 83.6335ZM42.8928 79.5639L43.3619 79.3911L43.3619 79.3911L42.8928 79.5639ZM41.8203 78.0369L42.1336 77.6472L42.1336 77.6472L41.8203 78.0369ZM38.1271 78.0369L37.8139 77.6472L37.8139 77.6472L38.1271 78.0369ZM37.0547 79.5639L36.5855 79.3911L36.5855 79.3911L37.0547 79.5639ZM37.0547 83.6335L36.5859 83.8075L36.5859 83.8075L37.0547 83.6335ZM38.1271 85.1463L38.4381 84.7548L38.4381 84.7548L38.1271 85.1463ZM39.9737 86.7273C39.0715 86.7273 38.3022 86.5137 37.6481 86.1012L37.1147 86.9471C37.9473 87.4721 38.9062 87.7273 39.9737 87.7273V86.7273ZM37.6493 86.102C36.9938 85.686 36.4759 85.1023 36.0967 84.3352L35.2002 84.7784C35.6543 85.697 36.2917 86.4248 37.1135 86.9463L37.6493 86.102ZM36.0977 84.3373C35.7252 83.5752 35.5305 82.6682 35.5305 81.6023H34.5305C34.5305 82.7901 34.7478 83.8528 35.1992 84.7764L36.0977 84.3373ZM35.5305 81.6023C35.5305 80.5263 35.7254 79.6118 36.0981 78.845L35.1987 78.4079C34.7476 79.3361 34.5305 80.4056 34.5305 81.6023H35.5305ZM36.0971 78.847C36.4766 78.0752 36.9945 77.4897 37.6493 77.0742L37.1135 76.2298C36.291 76.7518 35.6536 77.4826 35.1997 78.4058L36.0971 78.847ZM37.6481 77.0749C38.3022 76.6624 39.0715 76.4489 39.9737 76.4489V75.4489C38.9062 75.4489 37.9473 75.704 37.1147 76.2291L37.6481 77.0749ZM39.9737 76.4489C40.876 76.4489 41.6423 76.6624 42.291 77.0742L42.8269 76.2298C41.9983 75.704 41.0412 75.4489 39.9737 75.4489V76.4489ZM42.2923 77.0749C42.951 77.4903 43.468 78.075 43.8422 78.845L44.7416 78.4079C44.292 77.4828 43.6536 76.7511 42.8256 76.2291L42.2923 77.0749ZM43.8432 78.847C44.2199 79.6133 44.4169 80.527 44.4169 81.6023H45.4169C45.4169 80.4048 45.1972 79.3346 44.7406 78.4058L43.8432 78.847ZM44.4169 81.6023C44.4169 82.6674 44.2202 83.5737 43.8437 84.3352L44.7401 84.7784C45.197 83.8543 45.4169 82.7909 45.4169 81.6023H44.4169ZM43.8427 84.3373C43.4687 85.1025 42.9517 85.6854 42.2923 86.1012L42.8256 86.9471C43.6529 86.4254 44.2913 85.6967 44.7411 84.7764L43.8427 84.3373ZM42.291 86.102C41.6423 86.5137 40.876 86.7273 39.9737 86.7273V87.7273C41.0412 87.7273 41.9983 87.4721 42.8269 86.9463L42.291 86.102ZM39.9737 86.2216C40.8099 86.2216 41.5422 86.0056 42.1313 85.5379L41.5094 84.7548C41.1325 85.054 40.6337 85.2216 39.9737 85.2216V86.2216ZM42.1313 85.5379C42.6915 85.093 43.1004 84.5109 43.3615 83.8075L42.424 83.4595C42.2211 84.0061 41.9151 84.4326 41.5094 84.7548L42.1313 85.5379ZM43.3615 83.8075C43.616 83.1219 43.7408 82.3853 43.7408 81.6023H42.7408C42.7408 82.2776 42.6335 82.8952 42.424 83.4595L43.3615 83.8075ZM43.7408 81.6023C43.7408 80.8192 43.616 80.0808 43.3619 79.3911L42.4236 79.7368C42.6335 80.3066 42.7408 80.927 42.7408 81.6023H43.7408ZM43.3619 79.3911C43.1013 78.6836 42.693 78.097 42.1336 77.6472L41.507 78.4266C41.9135 78.7534 42.2202 79.1848 42.4236 79.7368L43.3619 79.3911ZM42.1336 77.6472C41.5445 77.1736 40.8113 76.9545 39.9737 76.9545V77.9545C40.6323 77.9545 41.1302 78.1237 41.507 78.4266L42.1336 77.6472ZM39.9737 76.9545C39.1361 76.9545 38.403 77.1736 37.8139 77.6472L38.4404 78.4266C38.8172 78.1237 39.3151 77.9545 39.9737 77.9545V76.9545ZM37.8139 77.6472C37.2544 78.097 36.8462 78.6836 36.5855 79.3911L37.5239 79.7368C37.7272 79.1848 38.034 78.7534 38.4404 78.4266L37.8139 77.6472ZM36.5855 79.3911C36.3314 80.0808 36.2067 80.8192 36.2067 81.6023H37.2067C37.2067 80.927 37.3139 80.3066 37.5239 79.7368L36.5855 79.3911ZM36.2067 81.6023C36.2067 82.3853 36.3314 83.1219 36.5859 83.8075L37.5234 83.4595C37.3139 82.8952 37.2067 82.2776 37.2067 81.6023H36.2067ZM36.5859 83.8075C36.847 84.5109 37.256 85.093 37.8162 85.5379L38.4381 84.7548C38.0324 84.4326 37.7263 84.0061 37.5234 83.4595L36.5859 83.8075ZM37.8162 85.5379C38.4052 86.0056 39.1375 86.2216 39.9737 86.2216V85.2216C39.3137 85.2216 38.8149 85.054 38.4381 84.7548L37.8162 85.5379ZM52.2198 76.0909H52.7198V75.5909H52.2198V76.0909ZM52.2198 77.5114V78.0114H52.7198V77.5114H52.2198ZM46.5664 77.5114H46.0664V78.0114H46.5664V77.5114ZM46.5664 76.0909V75.5909H46.0664V76.0909H46.5664ZM48.2141 73.4773V72.9773H47.7141V73.4773H48.2141ZM49.8903 73.4773H50.3903V72.9773H49.8903V73.4773ZM50.0962 84.9403L49.6636 85.1913L49.6698 85.2014L50.0962 84.9403ZM50.636 85.4091L50.4626 85.8782L50.4749 85.8824L50.636 85.4091ZM51.7937 85.4943L51.8727 85.988L51.8822 85.9865L51.8917 85.9846L51.7937 85.4943ZM52.0778 85.4375L52.5654 85.3271L52.4578 84.8516L51.9797 84.9472L52.0778 85.4375ZM52.4187 86.9432L52.5942 87.4113L53.0027 87.2582L52.9063 86.8328L52.4187 86.9432ZM51.9428 87.071L51.8404 86.5815L51.8296 86.584L51.9428 87.071ZM49.7766 86.8366L49.5705 87.2922L49.5722 87.293L49.7766 86.8366ZM48.6545 85.9062L48.2457 86.1942L48.2479 86.1973L48.6545 85.9062ZM51.7198 76.0909V77.5114H52.7198V76.0909H51.7198ZM52.2198 77.0114H46.5664V78.0114H52.2198V77.0114ZM47.0664 77.5114V76.0909H46.0664V77.5114H47.0664ZM46.5664 76.5909H52.2198V75.5909H46.5664V76.5909ZM48.2141 73.9773H49.8903V72.9773H48.2141V73.9773ZM49.3903 73.4773V83.875H50.3903V73.4773H49.3903ZM49.3903 83.875C49.3903 84.3804 49.4607 84.8411 49.6637 85.1912L50.5288 84.6895C50.4572 84.5661 50.3903 84.3165 50.3903 83.875H49.3903ZM49.6698 85.2014C49.86 85.5121 50.1222 85.7522 50.4627 85.8781L50.8093 84.9401C50.7143 84.905 50.6166 84.8326 50.5227 84.6793L49.6698 85.2014ZM50.4749 85.8824C50.7517 85.9767 51.0407 86.0227 51.3391 86.0227V85.0227C51.1451 85.0227 50.9654 84.993 50.7971 84.9358L50.4749 85.8824ZM51.3391 86.0227C51.5377 86.0227 51.7182 86.0128 51.8727 85.988L51.7147 85.0006C51.6324 85.0138 51.5098 85.0227 51.3391 85.0227V86.0227ZM51.8917 85.9846C52.0101 85.9609 52.1048 85.942 52.1758 85.9278L51.9797 84.9472C51.9087 84.9614 51.814 84.9804 51.6956 85.004L51.8917 85.9846ZM51.5901 85.5479L51.931 87.0536L52.9063 86.8328L52.5654 85.3271L51.5901 85.5479ZM52.2431 86.475C52.1642 86.5046 52.034 86.5411 51.8404 86.5816L52.0453 87.5604C52.2589 87.5157 52.4459 87.467 52.5942 87.4113L52.2431 86.475ZM51.8296 86.584C51.6765 86.6196 51.4598 86.642 51.1687 86.642V87.642C51.5025 87.642 51.802 87.6171 52.0561 87.558L51.8296 86.584ZM51.1687 86.642C50.7693 86.642 50.3747 86.5567 49.981 86.3803L49.5722 87.293C50.0877 87.5238 50.6211 87.642 51.1687 87.642V86.642ZM49.9828 86.3811C49.6162 86.2152 49.3102 85.9632 49.061 85.6152L48.2479 86.1973C48.5954 86.6826 49.0375 87.0509 49.5705 87.2922L49.9828 86.3811ZM49.0632 85.6183C48.8422 85.3046 48.7141 84.8864 48.7141 84.3295H47.7141C47.7141 85.0417 47.8796 85.6746 48.2457 86.1942L49.0632 85.6183ZM48.7141 84.3295V73.4773H47.7141V84.3295H48.7141ZM59.4854 76.0909H59.9854V75.5909H59.4854V76.0909ZM59.4854 77.5114V78.0114H59.9854V77.5114H59.4854ZM53.832 77.5114H53.332V78.0114H53.832V77.5114ZM53.832 76.0909V75.5909H53.332V76.0909H53.832ZM55.4798 73.4773V72.9773H54.9798V73.4773H55.4798ZM57.1559 73.4773H57.6559V72.9773H57.1559V73.4773ZM57.3619 84.9403L56.9292 85.1913L56.9354 85.2014L57.3619 84.9403ZM57.9016 85.4091L57.7283 85.8782L57.7405 85.8824L57.9016 85.4091ZM59.0593 85.4943L59.1383 85.988L59.1479 85.9865L59.1574 85.9846L59.0593 85.4943ZM59.3434 85.4375L59.8311 85.3271L59.7234 84.8516L59.2453 84.9472L59.3434 85.4375ZM59.6843 86.9432L59.8599 87.4113L60.2683 87.2582L60.172 86.8328L59.6843 86.9432ZM59.2085 87.071L59.106 86.5815L59.0952 86.584L59.2085 87.071ZM57.0423 86.8366L56.8361 87.2922L56.8379 87.293L57.0423 86.8366ZM55.9201 85.9062L55.5113 86.1942L55.5135 86.1973L55.9201 85.9062ZM58.9854 76.0909V77.5114H59.9854V76.0909H58.9854ZM59.4854 77.0114H53.832V78.0114H59.4854V77.0114ZM54.332 77.5114V76.0909H53.332V77.5114H54.332ZM53.832 76.5909H59.4854V75.5909H53.832V76.5909ZM55.4798 73.9773H57.1559V72.9773H55.4798V73.9773ZM56.6559 73.4773V83.875H57.6559V73.4773H56.6559ZM56.6559 83.875C56.6559 84.3804 56.7263 84.8411 56.9293 85.1912L57.7944 84.6895C57.7228 84.5661 57.6559 84.3165 57.6559 83.875H56.6559ZM56.9354 85.2014C57.1256 85.5121 57.3878 85.7522 57.7283 85.8781L58.075 84.9401C57.9799 84.905 57.8822 84.8326 57.7883 84.6793L56.9354 85.2014ZM57.7405 85.8824C58.0173 85.9767 58.3064 86.0227 58.6048 86.0227V85.0227C58.4107 85.0227 58.231 84.993 58.0628 84.9358L57.7405 85.8824ZM58.6048 86.0227C58.8034 86.0227 58.9838 86.0128 59.1383 85.988L58.9803 85.0006C58.898 85.0138 58.7755 85.0227 58.6048 85.0227V86.0227ZM59.1574 85.9846C59.2757 85.9609 59.3704 85.942 59.4415 85.9278L59.2453 84.9472C59.1743 84.9614 59.0796 84.9804 58.9612 85.004L59.1574 85.9846ZM58.8557 85.5479L59.1966 87.0536L60.172 86.8328L59.8311 85.3271L58.8557 85.5479ZM59.5087 86.475C59.4298 86.5046 59.2996 86.5411 59.106 86.5816L59.3109 87.5604C59.5245 87.5157 59.7115 87.467 59.8599 87.4113L59.5087 86.475ZM59.0952 86.584C58.9421 86.6196 58.7255 86.642 58.4343 86.642V87.642C58.7681 87.642 59.0676 87.6171 59.3217 87.558L59.0952 86.584ZM58.4343 86.642C58.0349 86.642 57.6403 86.5567 57.2467 86.3803L56.8379 87.293C57.3533 87.5238 57.8867 87.642 58.4343 87.642V86.642ZM57.2484 86.3811C56.8818 86.2152 56.5758 85.9632 56.3267 85.6152L55.5135 86.1973C55.861 86.6826 56.3031 87.0509 56.8361 87.2922L57.2484 86.3811ZM56.3288 85.6183C56.1078 85.3046 55.9798 84.8864 55.9798 84.3295H54.9798C54.9798 85.0417 55.1453 85.6746 55.5114 86.1942L56.3288 85.6183ZM55.9798 84.3295V73.4773H54.9798V84.3295H55.9798ZM63.729 86.5241L63.4611 86.9463L63.4624 86.9471L63.729 86.5241ZM61.9961 84.5568L61.5469 84.7764L61.5479 84.7784L61.9961 84.5568ZM61.9961 78.6264L61.5474 78.4058L61.5464 78.4079L61.9961 78.6264ZM63.729 76.652L63.4624 76.2291L63.4611 76.2298L63.729 76.652ZM68.9066 76.652L68.6387 77.0742L68.6399 77.0749L68.9066 76.652ZM70.6396 78.6264L70.1899 78.845L70.1909 78.847L70.6396 78.6264ZM70.6396 84.5568L70.1913 84.3352L70.1903 84.3373L70.6396 84.5568ZM68.9066 86.5241L68.6399 86.1012L68.6387 86.102L68.9066 86.5241ZM68.168 85.1463L67.857 84.7548L67.857 84.7548L68.168 85.1463ZM69.2404 83.6335L69.7092 83.8075L69.7092 83.8075L69.2404 83.6335ZM69.2404 79.5639L69.7096 79.3911L69.7096 79.3911L69.2404 79.5639ZM68.168 78.0369L68.4812 77.6472L68.4812 77.6472L68.168 78.0369ZM64.4748 78.0369L64.1615 77.6472L64.1615 77.6472L64.4748 78.0369ZM63.4023 79.5639L62.9332 79.3911L62.9332 79.3911L63.4023 79.5639ZM63.4023 83.6335L62.9336 83.8075L62.9336 83.8075L63.4023 83.6335ZM64.4748 85.1463L64.7857 84.7548L64.7857 84.7548L64.4748 85.1463ZM66.3214 86.7273C65.4192 86.7273 64.6499 86.5137 63.9957 86.1012L63.4624 86.9471C64.2949 87.4721 65.2539 87.7273 66.3214 87.7273V86.7273ZM63.997 86.102C63.3415 85.686 62.8235 85.1023 62.4443 84.3352L61.5479 84.7784C62.002 85.697 62.6394 86.4248 63.4611 86.9463L63.997 86.102ZM62.4453 84.3373C62.0729 83.5752 61.8782 82.6682 61.8782 81.6023H60.8782C60.8782 82.7901 61.0955 83.8528 61.5469 84.7764L62.4453 84.3373ZM61.8782 81.6023C61.8782 80.5263 62.0731 79.6118 62.4458 78.845L61.5464 78.4079C61.0952 79.3361 60.8782 80.4056 60.8782 81.6023H61.8782ZM62.4448 78.847C62.8242 78.0752 63.3422 77.4897 63.997 77.0742L63.4611 76.2298C62.6387 76.7518 62.0013 77.4826 61.5474 78.4058L62.4448 78.847ZM63.9957 77.0749C64.6499 76.6624 65.4192 76.4489 66.3214 76.4489V75.4489C65.2539 75.4489 64.2949 75.704 63.4624 76.2291L63.9957 77.0749ZM66.3214 76.4489C67.2236 76.4489 67.9899 76.6624 68.6387 77.0742L69.1745 76.2298C68.346 75.704 67.3888 75.4489 66.3214 75.4489V76.4489ZM68.6399 77.0749C69.2987 77.4903 69.8156 78.075 70.1899 78.845L71.0893 78.4079C70.6396 77.4828 70.0013 76.7511 69.1733 76.2291L68.6399 77.0749ZM70.1909 78.847C70.5676 79.6133 70.7646 80.527 70.7646 81.6023H71.7646C71.7646 80.4048 71.5449 79.3346 71.0883 78.4058L70.1909 78.847ZM70.7646 81.6023C70.7646 82.6674 70.5678 83.5737 70.1913 84.3352L71.0878 84.7784C71.5446 83.8543 71.7646 82.7909 71.7646 81.6023H70.7646ZM70.1903 84.3373C69.8163 85.1025 69.2994 85.6854 68.6399 86.1012L69.1733 86.9471C70.0006 86.4254 70.6389 85.6967 71.0888 84.7764L70.1903 84.3373ZM68.6387 86.102C67.9899 86.5137 67.2236 86.7273 66.3214 86.7273V87.7273C67.3888 87.7273 68.346 87.4721 69.1745 86.9463L68.6387 86.102ZM66.3214 86.2216C67.1576 86.2216 67.8899 86.0056 68.4789 85.5379L67.857 84.7548C67.4802 85.054 66.9814 85.2216 66.3214 85.2216V86.2216ZM68.4789 85.5379C69.0391 85.093 69.4481 84.5109 69.7092 83.8075L68.7717 83.4595C68.5688 84.0061 68.2627 84.4326 67.857 84.7548L68.4789 85.5379ZM69.7092 83.8075C69.9637 83.1219 70.0884 82.3853 70.0884 81.6023H69.0884C69.0884 82.2776 68.9812 82.8952 68.7717 83.4595L69.7092 83.8075ZM70.0884 81.6023C70.0884 80.8192 69.9637 80.0808 69.7096 79.3911L68.7712 79.7368C68.9812 80.3066 69.0884 80.927 69.0884 81.6023H70.0884ZM69.7096 79.3911C69.4489 78.6836 69.0407 78.097 68.4812 77.6472L67.8547 78.4266C68.2611 78.7534 68.5679 79.1848 68.7712 79.7368L69.7096 79.3911ZM68.4812 77.6472C67.8921 77.1736 67.159 76.9545 66.3214 76.9545V77.9545C66.98 77.9545 67.4779 78.1237 67.8547 78.4266L68.4812 77.6472ZM66.3214 76.9545C65.4838 76.9545 64.7506 77.1736 64.1615 77.6472L64.7881 78.4266C65.1649 78.1237 65.6628 77.9545 66.3214 77.9545V76.9545ZM64.1615 77.6472C63.6021 78.097 63.1938 78.6836 62.9332 79.3911L63.8715 79.7368C64.0749 79.1848 64.3816 78.7534 64.7881 78.4266L64.1615 77.6472ZM62.9332 79.3911C62.6791 80.0808 62.5543 80.8192 62.5543 81.6023H63.5543C63.5543 80.927 63.6616 80.3066 63.8715 79.7368L62.9332 79.3911ZM62.5543 81.6023C62.5543 82.3853 62.6791 83.1219 62.9336 83.8075L63.8711 83.4595C63.6616 82.8952 63.5543 82.2776 63.5543 81.6023H62.5543ZM62.9336 83.8075C63.1947 84.5109 63.6036 85.093 64.1638 85.5379L64.7857 84.7548C64.38 84.4326 64.074 84.0061 63.8711 83.4595L62.9336 83.8075ZM64.1638 85.5379C64.7529 86.0056 65.4852 86.2216 66.3214 86.2216V85.2216C65.6614 85.2216 65.1626 85.054 64.7857 84.7548L64.1638 85.5379ZM73.8232 87H73.3232V87.5H73.8232V87ZM73.8232 76.0909V75.5909H73.3232V76.0909H73.8232ZM75.4425 76.0909H75.9425V75.5909H75.4425V76.0909ZM75.4425 77.7955H74.9425V78.2955H75.4425V77.7955ZM75.5845 77.7955V78.2955H75.9261L76.0503 77.9772L75.5845 77.7955ZM76.6854 76.4389L76.9536 76.8609L76.9563 76.8591L76.6854 76.4389ZM80.3075 76.4389L80.0255 76.8518L80.0302 76.8549L80.3075 76.4389ZM81.4368 77.7955L80.9831 78.0057L81.1174 78.2955H81.4368V77.7955ZM81.5504 77.7955V78.2955H81.8606L81.9984 78.0176L81.5504 77.7955ZM82.8075 76.4531L83.0626 76.8832L83.0653 76.8816L82.8075 76.4531ZM87.2109 76.8651L86.8601 77.2213L86.8615 77.2227L87.2109 76.8651ZM88.1413 87V87.5H88.6413V87H88.1413ZM86.4652 87H85.9652V87.5H86.4652V87ZM85.8047 77.973L85.496 78.3663L85.496 78.3663L85.8047 77.973ZM82.4666 78.1506L82.835 78.4886L82.8368 78.4867L82.4666 78.1506ZM81.8345 87V87.5H82.3345V87H81.8345ZM80.13 87H79.63V87.5H80.13V87ZM79.5263 78.0298L79.1813 78.3918L79.1836 78.3939L79.5263 78.0298ZM76.7493 77.8026L76.4881 77.3762L76.4857 77.3777L76.7493 77.8026ZM75.8402 78.7685L75.4045 78.5231L75.4036 78.5248L75.8402 78.7685ZM75.4993 87V87.5H75.9993V87H75.4993ZM74.3232 87V76.0909H73.3232V87H74.3232ZM73.8232 76.5909H75.4425V75.5909H73.8232V76.5909ZM74.9425 76.0909V77.7955H75.9425V76.0909H74.9425ZM75.4425 78.2955H75.5845V77.2955H75.4425V78.2955ZM76.0503 77.9772C76.2406 77.4895 76.5406 77.1234 76.9536 76.8609L76.4172 76.0169C75.8169 76.3984 75.3829 76.9366 75.1187 77.6137L76.0503 77.9772ZM76.9563 76.8591C77.3687 76.5932 77.8791 76.4489 78.5107 76.4489V75.4489C77.7217 75.4489 77.0153 75.6312 76.4144 76.0187L76.9563 76.8591ZM78.5107 76.4489C79.1543 76.4489 79.6486 76.5943 80.0255 76.8518L80.5896 76.0261C80.01 75.6301 79.3064 75.4489 78.5107 75.4489V76.4489ZM80.0302 76.8549C80.4286 77.1206 80.7477 77.4977 80.9831 78.0057L81.8904 77.5852C81.5861 76.9284 81.1524 76.4012 80.5849 76.0229L80.0302 76.8549ZM81.4368 78.2955H81.5504V77.2955H81.4368V78.2955ZM81.9984 78.0176C82.2334 77.5435 82.584 77.1671 83.0626 76.8832L82.5524 76.0231C81.9136 76.4021 81.4262 76.9205 81.1025 77.5734L81.9984 78.0176ZM83.0653 76.8816C83.532 76.6007 84.109 76.4489 84.8175 76.4489V75.4489C83.9635 75.4489 83.2005 75.6332 82.5497 76.0247L83.0653 76.8816ZM84.8175 76.4489C85.6788 76.4489 86.345 76.7141 86.8601 77.2213L87.5618 76.5088C86.8364 75.7945 85.9069 75.4489 84.8175 75.4489V76.4489ZM86.8615 77.2227C87.3475 77.6976 87.6413 78.486 87.6413 79.6989H88.6413C88.6413 78.3455 88.3149 77.2446 87.5604 76.5074L86.8615 77.2227ZM87.6413 79.6989V87H88.6413V79.6989H87.6413ZM88.1413 86.5H86.4652V87.5H88.1413V86.5ZM86.9652 87V79.6989H85.9652V87H86.9652ZM86.9652 79.6989C86.9652 78.8107 86.7207 78.0564 86.1134 77.5797L85.496 78.3663C85.7694 78.5809 85.9652 78.9772 85.9652 79.6989H86.9652ZM86.1134 77.5797C85.579 77.1602 84.95 76.9545 84.2493 76.9545V77.9545C84.7418 77.9545 85.1497 78.0945 85.496 78.3663L86.1134 77.5797ZM84.2493 76.9545C83.3754 76.9545 82.6334 77.2232 82.0965 77.8144L82.8368 78.4867C83.1427 78.1499 83.5891 77.9545 84.2493 77.9545V76.9545ZM82.0982 77.8125C81.5809 78.3763 81.3345 79.0848 81.3345 79.8977H82.3345C82.3345 79.2997 82.5095 78.8434 82.835 78.4886L82.0982 77.8125ZM81.3345 79.8977V87H82.3345V79.8977H81.3345ZM81.8345 86.5H80.13V87.5H81.8345V86.5ZM80.63 87V79.5284H79.63V87H80.63ZM80.63 79.5284C80.63 78.7889 80.3846 78.151 79.869 77.6657L79.1836 78.3939C79.4729 78.6662 79.63 79.0274 79.63 79.5284H80.63ZM79.8712 77.6679C79.3625 77.1831 78.7142 76.9545 77.9709 76.9545V77.9545C78.4965 77.9545 78.8851 78.1095 79.1813 78.3918L79.8712 77.6679ZM77.9709 76.9545C77.4412 76.9545 76.9439 77.097 76.4881 77.3762L77.0104 78.2289C77.3123 78.0441 77.6293 77.9545 77.9709 77.9545V76.9545ZM76.4857 77.3777C76.0348 77.6573 75.6747 78.0434 75.4045 78.5231L76.2759 79.0138C76.4697 78.6697 76.7156 78.4118 77.0128 78.2275L76.4857 77.3777ZM75.4036 78.5248C75.129 79.0168 74.9993 79.5742 74.9993 80.1818H75.9993C75.9993 79.7194 76.0969 79.3345 76.2768 79.0121L75.4036 78.5248ZM74.9993 80.1818V87H75.9993V80.1818H74.9993ZM75.4993 86.5H73.8232V87.5H75.4993V86.5ZM97.0582 87H96.5582V87.5H97.0582V87ZM97.0582 72.4545V71.9545H96.5582V72.4545H97.0582ZM98.8196 72.4545H99.3196V71.9545H98.8196V72.4545ZM98.8196 85.4375H98.3196V85.9375H98.8196V85.4375ZM105.581 85.4375H106.081V84.9375H105.581V85.4375ZM105.581 87V87.5H106.081V87H105.581ZM97.5582 87V72.4545H96.5582V87H97.5582ZM97.0582 72.9545H98.8196V71.9545H97.0582V72.9545ZM98.3196 72.4545V85.4375H99.3196V72.4545H98.3196ZM98.8196 85.9375H105.581V84.9375H98.8196V85.9375ZM105.081 85.4375V87H106.081V85.4375H105.081ZM105.581 86.5H97.0582V87.5H105.581V86.5ZM109.935 86.5312L109.672 86.9565L109.675 86.9583L109.935 86.5312ZM108.18 84.571L107.73 84.7885L107.732 84.7916L108.18 84.571ZM108.18 78.6761L107.73 78.4595L107.729 78.4606L108.18 78.6761ZM109.899 76.6733L110.172 77.0922L110.173 77.0918L109.899 76.6733ZM114.168 76.233L114.329 75.7598L114.329 75.7598L114.168 76.233ZM115.68 77.1562L115.338 77.521L115.34 77.5229L115.68 77.1562ZM116.767 78.8324L117.233 78.6516L117.233 78.6516L116.767 78.8324ZM117.172 82.1136V82.6136H117.672V82.1136H117.172ZM108.763 82.1136H108.263V82.6136H108.763V82.1136ZM108.763 80.6648V80.1648H108.263V80.6648H108.763ZM115.467 80.6648V81.1648H115.967V80.6648H115.467ZM115.098 79.017L114.651 79.2407L114.653 79.2441L115.098 79.017ZM114.061 77.8736L113.795 78.2971L113.797 78.2983L114.061 77.8736ZM110.751 77.9517L111.032 78.3658L111.032 78.3652L110.751 77.9517ZM109.636 79.2301L109.188 79.0081L109.188 79.0081L109.636 79.2301ZM109.672 83.9815L109.224 84.2037L109.226 84.2081L109.672 83.9815ZM110.872 85.2812L110.62 85.7131L110.623 85.7149L110.872 85.2812ZM113.848 85.5369L114.012 86.0094L114.015 86.0081L113.848 85.5369ZM114.778 84.9688L115.125 85.3288L115.129 85.3255L114.778 84.9688ZM115.382 84.017L115.517 83.5357L115.075 83.4116L114.914 83.8415L115.382 84.017ZM117.001 84.4716L117.479 84.6198L117.631 84.1291L117.137 83.9902L117.001 84.4716ZM116.142 85.9205L116.5 86.2699L116.502 86.2678L116.142 85.9205ZM114.651 86.8864L114.83 87.3531L114.833 87.3519L114.651 86.8864ZM112.655 86.7273C111.679 86.7273 110.866 86.5126 110.195 86.1042L109.675 86.9583C110.528 87.478 111.528 87.7273 112.655 87.7273V86.7273ZM110.198 86.1061C109.524 85.6892 109.002 85.1085 108.629 84.3505L107.732 84.7916C108.183 85.7097 108.83 86.4358 109.672 86.9564L110.198 86.1061ZM108.631 84.3535C108.262 83.5904 108.07 82.6872 108.07 81.6307H107.07C107.07 82.809 107.284 83.866 107.73 84.7885L108.631 84.3535ZM108.07 81.6307C108.07 80.5743 108.262 79.6654 108.632 78.8917L107.729 78.4606C107.285 79.3914 107.07 80.4522 107.07 81.6307H108.07ZM108.631 78.8927C109.007 78.1109 109.521 77.5163 110.172 77.0922L109.626 76.2544C108.809 76.7868 108.178 77.5274 107.73 78.4595L108.631 78.8927ZM110.173 77.0918C110.821 76.6681 111.585 76.4489 112.484 76.4489V75.4489C111.414 75.4489 110.455 75.7126 109.626 76.2548L110.173 77.0918ZM112.484 76.4489C112.996 76.4489 113.502 76.5339 114.006 76.7061L114.329 75.7598C113.725 75.5532 113.109 75.4489 112.484 75.4489V76.4489ZM114.006 76.7061C114.489 76.8711 114.932 77.1402 115.338 77.521L116.022 76.7915C115.519 76.32 114.955 75.9736 114.329 75.7598L114.006 76.7061ZM115.34 77.5229C115.729 77.8833 116.053 78.3736 116.301 79.0132L117.233 78.6516C116.941 77.8991 116.541 77.2721 116.02 76.7896L115.34 77.5229ZM116.301 79.0131C116.542 79.6347 116.672 80.4262 116.672 81.4034H117.672C117.672 80.3446 117.532 79.4221 117.233 78.6516L116.301 79.0131ZM116.672 81.4034V82.1136H117.672V81.4034H116.672ZM117.172 81.6136H108.763V82.6136H117.172V81.6136ZM109.263 82.1136V80.6648H108.263V82.1136H109.263ZM108.763 81.1648H115.467V80.1648H108.763V81.1648ZM115.967 80.6648C115.967 79.9811 115.83 79.3522 115.543 78.79L114.653 79.2441C114.858 79.6478 114.967 80.1174 114.967 80.6648H115.967ZM115.545 78.7934C115.263 78.2295 114.855 77.778 114.325 77.4488L113.797 78.2983C114.167 78.5279 114.45 78.8387 114.651 79.2407L115.545 78.7934ZM114.327 77.4501C113.791 77.1135 113.17 76.9545 112.484 76.9545V77.9545C113.011 77.9545 113.441 78.075 113.795 78.2971L114.327 77.4501ZM112.484 76.9545C111.73 76.9545 111.052 77.1431 110.47 77.5382L111.032 78.3652C111.427 78.0974 111.903 77.9545 112.484 77.9545V76.9545ZM110.471 77.5376C109.916 77.913 109.487 78.4055 109.188 79.0081L110.084 79.4521C110.307 79.0035 110.621 78.6438 111.032 78.3658L110.471 77.5376ZM109.188 79.0081C108.893 79.6045 108.746 80.2441 108.746 80.9205H109.746C109.746 80.3941 109.859 79.9069 110.084 79.4521L109.188 79.0081ZM108.746 80.9205V81.8864H109.746V80.9205H108.746ZM108.746 81.8864C108.746 82.7658 108.897 83.5447 109.224 84.2037L110.12 83.7594C109.878 83.2725 109.746 82.6546 109.746 81.8864H108.746ZM109.226 84.2081C109.555 84.8551 110.019 85.3627 110.62 85.7131L111.124 84.8494C110.702 84.6032 110.366 84.2444 110.118 83.755L109.226 84.2081ZM110.623 85.7149C111.221 86.058 111.904 86.2216 112.655 86.2216V85.2216C112.052 85.2216 111.546 85.0916 111.121 84.8476L110.623 85.7149ZM112.655 86.2216C113.142 86.2216 113.596 86.1535 114.012 86.0093L113.684 85.0645C113.39 85.1665 113.049 85.2216 112.655 85.2216V86.2216ZM114.015 86.0081C114.438 85.8578 114.811 85.6319 115.125 85.3288L114.431 84.6087C114.225 84.8075 113.977 84.9604 113.681 85.0658L114.015 86.0081ZM115.129 85.3255C115.447 85.0135 115.685 84.6322 115.85 84.1926L114.914 83.8415C114.795 84.1595 114.631 84.4127 114.428 84.612L115.129 85.3255ZM115.247 84.4984L116.866 84.953L117.137 83.9902L115.517 83.5357L115.247 84.4984ZM116.524 84.3234C116.377 84.7974 116.131 85.2122 115.782 85.5731L116.502 86.2678C116.958 85.7953 117.285 85.2443 117.479 84.6198L116.524 84.3234ZM115.784 85.571C115.436 85.9273 115.001 86.212 114.468 86.4209L114.833 87.3519C115.484 87.0967 116.043 86.7375 116.5 86.2699L115.784 85.571ZM114.471 86.4196C113.945 86.6216 113.342 86.7273 112.655 86.7273V87.7273C113.445 87.7273 114.172 87.6057 114.83 87.3531L114.471 86.4196ZM124.58 76.0909H125.08V75.5909H124.58V76.0909ZM124.58 77.5114V78.0114H125.08V77.5114H124.58ZM118.699 77.5114H118.199V78.0114H118.699V77.5114ZM118.699 76.0909V75.5909H118.199V76.0909H118.699ZM120.46 87H119.96V87.5H120.46V87ZM120.901 73.0227L120.492 72.7347L120.492 72.7347L120.901 73.0227ZM122.044 72.0852L121.841 71.6283L121.841 71.6283L122.044 72.0852ZM124.537 71.8722L124.414 72.3567L124.414 72.3567L124.537 71.8722ZM125.119 72.0568L125.594 72.2149L125.737 71.7843L125.322 71.5999L125.119 72.0568ZM124.636 73.5057L124.478 73.98L124.953 74.1381L125.111 73.6638L124.636 73.5057ZM124.281 73.3991L124.142 73.8793L124.146 73.8805L124.281 73.3991ZM122.499 73.7543L122.123 73.4236L122.12 73.4273L122.499 73.7543ZM122.136 87V87.5H122.636V87H122.136ZM124.08 76.0909V77.5114H125.08V76.0909H124.08ZM124.58 77.0114H118.699V78.0114H124.58V77.0114ZM119.199 77.5114V76.0909H118.199V77.5114H119.199ZM118.699 76.5909H124.58V75.5909H118.699V76.5909ZM120.96 87V74.5852H119.96V87H120.96ZM120.96 74.5852C120.96 74.0397 121.087 73.6256 121.309 73.3107L120.492 72.7347C120.127 73.2532 119.96 73.8808 119.96 74.5852H120.96ZM121.309 73.3107C121.55 72.9684 121.86 72.714 122.247 72.5421L121.841 71.6283C121.29 71.8731 120.838 72.2437 120.492 72.7347L121.309 73.3107ZM122.247 72.5421C122.651 72.3627 123.076 72.2727 123.528 72.2727V71.2727C122.939 71.2727 122.375 71.3911 121.841 71.6283L122.247 72.5421ZM123.528 72.2727C123.918 72.2727 124.209 72.3046 124.414 72.3567L124.66 71.3876C124.344 71.3072 123.962 71.2727 123.528 71.2727V72.2727ZM124.414 72.3567C124.667 72.4211 124.828 72.4745 124.916 72.5137L125.322 71.5999C125.155 71.5255 124.928 71.4557 124.66 71.3876L124.414 72.3567ZM124.645 71.8987L124.162 73.3476L125.111 73.6638L125.594 72.2149L124.645 71.8987ZM124.794 73.0313C124.698 72.9992 124.571 72.9612 124.417 72.9178L124.146 73.8805C124.295 73.9223 124.404 73.9553 124.478 73.98L124.794 73.0313ZM124.421 72.919C124.21 72.8579 123.964 72.8352 123.699 72.8352V73.8352C123.917 73.8352 124.059 73.8552 124.142 73.8793L124.421 72.919ZM123.699 72.8352C123.072 72.8352 122.503 72.9929 122.123 73.4237L122.874 74.0849C122.986 73.9569 123.218 73.8352 123.699 73.8352V72.8352ZM122.12 73.4273C121.771 73.8315 121.636 74.3773 121.636 74.983H122.636C122.636 74.5091 122.743 74.2358 122.877 74.0812L122.12 73.4273ZM121.636 74.983V87H122.636V74.983H121.636ZM122.136 86.5H120.46V87.5H122.136V86.5ZM131.673 76.0909H132.173V75.5909H131.673V76.0909ZM131.673 77.5114V78.0114H132.173V77.5114H131.673ZM126.02 77.5114H125.52V78.0114H126.02V77.5114ZM126.02 76.0909V75.5909H125.52V76.0909H126.02ZM127.667 73.4773V72.9773H127.167V73.4773H127.667ZM129.343 73.4773H129.843V72.9773H129.343V73.4773ZM129.549 84.9403L129.117 85.1913L129.123 85.2014L129.549 84.9403ZM130.089 85.4091L129.916 85.8782L129.928 85.8824L130.089 85.4091ZM131.247 85.4943L131.326 85.988L131.335 85.9865L131.345 85.9846L131.247 85.4943ZM131.531 85.4375L132.019 85.3271L131.911 84.8516L131.433 84.9472L131.531 85.4375ZM131.872 86.9432L132.047 87.4113L132.456 87.2582L132.359 86.8328L131.872 86.9432ZM131.396 87.071L131.293 86.5815L131.283 86.584L131.396 87.071ZM129.23 86.8366L129.024 87.2922L129.025 87.293L129.23 86.8366ZM128.108 85.9062L127.699 86.1942L127.701 86.1973L128.108 85.9062ZM131.173 76.0909V77.5114H132.173V76.0909H131.173ZM131.673 77.0114H126.02V78.0114H131.673V77.0114ZM126.52 77.5114V76.0909H125.52V77.5114H126.52ZM126.02 76.5909H131.673V75.5909H126.02V76.5909ZM127.667 73.9773H129.343V72.9773H127.667V73.9773ZM128.843 73.4773V83.875H129.843V73.4773H128.843ZM128.843 83.875C128.843 84.3804 128.914 84.8411 129.117 85.1912L129.982 84.6895C129.91 84.5661 129.843 84.3165 129.843 83.875H128.843ZM129.123 85.2014C129.313 85.5121 129.575 85.7522 129.916 85.8781L130.262 84.9401C130.167 84.905 130.07 84.8326 129.976 84.6793L129.123 85.2014ZM129.928 85.8824C130.205 85.9767 130.494 86.0227 130.792 86.0227V85.0227C130.598 85.0227 130.418 84.993 130.25 84.9358L129.928 85.8824ZM130.792 86.0227C130.991 86.0227 131.171 86.0128 131.326 85.988L131.168 85.0006C131.086 85.0138 130.963 85.0227 130.792 85.0227V86.0227ZM131.345 85.9846C131.463 85.9609 131.558 85.942 131.629 85.9278L131.433 84.9472C131.362 84.9614 131.267 84.9804 131.149 85.004L131.345 85.9846ZM131.043 85.5479L131.384 87.0536L132.359 86.8328L132.019 85.3271L131.043 85.5479ZM131.696 86.475C131.617 86.5046 131.487 86.5411 131.294 86.5816L131.498 87.5604C131.712 87.5157 131.899 87.467 132.047 87.4113L131.696 86.475ZM131.283 86.584C131.13 86.6196 130.913 86.642 130.622 86.642V87.642C130.956 87.642 131.255 87.6171 131.509 87.558L131.283 86.584ZM130.622 86.642C130.222 86.642 129.828 86.5567 129.434 86.3803L129.025 87.293C129.541 87.5238 130.074 87.642 130.622 87.642V86.642ZM129.436 86.3811C129.069 86.2152 128.763 85.9632 128.514 85.6152L127.701 86.1973C128.048 86.6826 128.491 87.0509 129.024 87.2922L129.436 86.3811ZM128.516 85.6183C128.295 85.3046 128.167 84.8864 128.167 84.3295H127.167C127.167 85.0417 127.333 85.6746 127.699 86.1942L128.516 85.6183ZM128.167 84.3295V73.4773H127.167V84.3295H128.167Z" fill="black"/>
</svg>
