<svg width="160" height="160" viewBox="0 0 160 160" fill="none" xmlns="http://www.w3.org/2000/svg">
<rect width="160" height="160" fill="#D9D9D9"/>
<path d="M30.4659 77H28.7045C28.6004 76.4934 28.4181 76.0483 28.1577 75.6648C27.902 75.2812 27.5895 74.9593 27.2202 74.6989C26.8556 74.4337 26.4508 74.2348 26.0057 74.1023C25.5606 73.9697 25.0966 73.9034 24.6136 73.9034C23.733 73.9034 22.9351 74.1259 22.2202 74.571C21.5099 75.0161 20.9441 75.6719 20.5227 76.5384C20.1061 77.4048 19.8977 78.4678 19.8977 79.7273C19.8977 80.9867 20.1061 82.0497 20.5227 82.9162C20.9441 83.7827 21.5099 84.4384 22.2202 84.8835C22.9351 85.3286 23.733 85.5511 24.6136 85.5511C25.0966 85.5511 25.5606 85.4848 26.0057 85.3523C26.4508 85.2197 26.8556 85.0232 27.2202 84.7628C27.5895 84.4976 27.902 84.1733 28.1577 83.7898C28.4181 83.4015 28.6004 82.9564 28.7045 82.4545H30.4659C30.3333 83.1979 30.0919 83.8632 29.7415 84.4503C29.3911 85.0374 28.9555 85.5369 28.4347 85.9489C27.9138 86.3561 27.3291 86.6662 26.6804 86.8793C26.0365 87.0923 25.3475 87.1989 24.6136 87.1989C23.3731 87.1989 22.2699 86.8958 21.304 86.2898C20.3381 85.6837 19.5781 84.822 19.0241 83.7045C18.4702 82.5871 18.1932 81.2614 18.1932 79.7273C18.1932 78.1932 18.4702 76.8674 19.0241 75.75C19.5781 74.6326 20.3381 73.7708 21.304 73.1648C22.2699 72.5587 23.3731 72.2557 24.6136 72.2557C25.3475 72.2557 26.0365 72.3622 26.6804 72.5753C27.3291 72.7884 27.9138 73.1009 28.4347 73.5128C28.9555 73.92 29.3911 74.4171 29.7415 75.0043C30.0919 75.5866 30.3333 76.2519 30.4659 77ZM37.5167 87.2273C36.5318 87.2273 35.6677 86.9929 34.9244 86.5241C34.1857 86.0554 33.6081 85.3996 33.1914 84.5568C32.7795 83.714 32.5735 82.7292 32.5735 81.6023C32.5735 80.4659 32.7795 79.474 33.1914 78.6264C33.6081 77.7789 34.1857 77.1207 34.9244 76.652C35.6677 76.1832 36.5318 75.9489 37.5167 75.9489C38.5015 75.9489 39.3633 76.1832 40.1019 76.652C40.8453 77.1207 41.4229 77.7789 41.8349 78.6264C42.2515 79.474 42.4599 80.4659 42.4599 81.6023C42.4599 82.7292 42.2515 83.714 41.8349 84.5568C41.4229 85.3996 40.8453 86.0554 40.1019 86.5241C39.3633 86.9929 38.5015 87.2273 37.5167 87.2273ZM37.5167 85.7216C38.2648 85.7216 38.8803 85.5298 39.3633 85.1463C39.8462 84.7628 40.2037 84.2585 40.4357 83.6335C40.6677 83.0085 40.7837 82.3314 40.7837 81.6023C40.7837 80.8731 40.6677 80.1937 40.4357 79.5639C40.2037 78.9342 39.8462 78.4252 39.3633 78.0369C38.8803 77.6487 38.2648 77.4545 37.5167 77.4545C36.7686 77.4545 36.1531 77.6487 35.6701 78.0369C35.1871 78.4252 34.8297 78.9342 34.5977 79.5639C34.3656 80.1937 34.2496 80.8731 34.2496 81.6023C34.2496 82.3314 34.3656 83.0085 34.5977 83.6335C34.8297 84.2585 35.1871 84.7628 35.6701 85.1463C36.1531 85.5298 36.7686 85.7216 37.5167 85.7216ZM51.8935 82.5398V76.0909H53.5696V87H51.8935V85.1534H51.7798C51.5241 85.7074 51.1264 86.1785 50.5866 86.5668C50.0469 86.9503 49.3651 87.142 48.5412 87.142C47.8594 87.142 47.2533 86.9929 46.723 86.6946C46.1927 86.3916 45.776 85.937 45.473 85.331C45.17 84.7202 45.0185 83.9508 45.0185 83.0227V76.0909H46.6946V82.9091C46.6946 83.7045 46.9171 84.339 47.3622 84.8125C47.812 85.286 48.3849 85.5227 49.081 85.5227C49.4976 85.5227 49.9214 85.4162 50.3523 85.2031C50.7879 84.9901 51.1525 84.6634 51.446 84.223C51.7443 83.7827 51.8935 83.2216 51.8935 82.5398ZM58.3157 80.4375V87H56.6396V76.0909H58.2589V77.7955H58.4009C58.6566 77.2415 59.0449 76.7964 59.5657 76.4602C60.0865 76.1193 60.7589 75.9489 61.5827 75.9489C62.3214 75.9489 62.9677 76.1004 63.5217 76.4034C64.0756 76.7017 64.5065 77.1562 64.8143 77.767C65.122 78.3731 65.2759 79.1402 65.2759 80.0682V87H63.5998V80.1818C63.5998 79.3248 63.3772 78.6572 62.9322 78.179C62.4871 77.696 61.8763 77.4545 61.0998 77.4545C60.5647 77.4545 60.0865 77.5705 59.6651 77.8026C59.2485 78.0346 58.9194 78.3731 58.6779 78.8182C58.4364 79.2633 58.3157 79.803 58.3157 80.4375ZM73.0831 76.0909V77.5114H67.4297V76.0909H73.0831ZM69.0774 73.4773H70.7536V83.875C70.7536 84.3485 70.8222 84.7036 70.9595 84.9403C71.1016 85.1723 71.2815 85.3286 71.4993 85.4091C71.7218 85.4848 71.9562 85.5227 72.2024 85.5227C72.3871 85.5227 72.5386 85.5133 72.657 85.4943C72.7753 85.4706 72.87 85.4517 72.9411 85.4375L73.282 86.9432C73.1683 86.9858 73.0097 87.0284 72.8061 87.071C72.6025 87.1184 72.3445 87.142 72.032 87.142C71.5585 87.142 71.0945 87.0402 70.6399 86.8366C70.1901 86.633 69.8161 86.3229 69.5178 85.9062C69.2242 85.4896 69.0774 84.964 69.0774 84.3295V73.4773ZM80.0611 87.2273C79.0099 87.2273 78.1032 86.9953 77.3409 86.5312C76.5833 86.0625 75.9986 85.4091 75.5866 84.571C75.1795 83.7282 74.9759 82.7481 74.9759 81.6307C74.9759 80.5133 75.1795 79.5284 75.5866 78.6761C75.9986 77.8191 76.5715 77.1515 77.3054 76.6733C78.044 76.1903 78.9058 75.9489 79.8906 75.9489C80.4588 75.9489 81.0199 76.0436 81.5739 76.233C82.1278 76.4223 82.6321 76.7301 83.0866 77.1562C83.5412 77.5777 83.9034 78.1364 84.1733 78.8324C84.4432 79.5284 84.5781 80.3854 84.5781 81.4034V82.1136H76.169V80.6648H82.8736C82.8736 80.0492 82.7505 79.5 82.5043 79.017C82.2628 78.5341 81.9171 78.1529 81.4673 77.8736C81.0223 77.5942 80.4967 77.4545 79.8906 77.4545C79.223 77.4545 78.6454 77.6203 78.1577 77.9517C77.6747 78.2784 77.303 78.7045 77.0426 79.2301C76.7822 79.7557 76.652 80.3191 76.652 80.9205V81.8864C76.652 82.7102 76.794 83.4086 77.0781 83.9815C77.367 84.5497 77.767 84.983 78.2784 85.2812C78.7898 85.5748 79.384 85.7216 80.0611 85.7216C80.5014 85.7216 80.8991 85.66 81.2543 85.5369C81.6141 85.4091 81.9242 85.2197 82.1847 84.9688C82.4451 84.7131 82.6463 84.3958 82.7884 84.017L84.4077 84.4716C84.2372 85.0208 83.9508 85.5038 83.5483 85.9205C83.1458 86.3324 82.6487 86.6544 82.0568 86.8864C81.465 87.1136 80.7997 87.2273 80.0611 87.2273ZM87.1278 87V76.0909H88.7472V77.7386H88.8608C89.0597 77.1989 89.4195 76.7609 89.9403 76.4247C90.4612 76.0885 91.0483 75.9205 91.7017 75.9205C91.8248 75.9205 91.9787 75.9228 92.1634 75.9276C92.348 75.9323 92.4877 75.9394 92.5824 75.9489V77.6534C92.5256 77.6392 92.3954 77.6179 92.1918 77.5895C91.9929 77.5563 91.7822 77.5398 91.5597 77.5398C91.0294 77.5398 90.5559 77.651 90.1392 77.8736C89.7273 78.0914 89.4006 78.3944 89.1591 78.7827C88.9223 79.1662 88.804 79.6042 88.804 80.0966V87H87.1278ZM98.669 87.2273C97.6463 87.2273 96.7656 86.9858 96.027 86.5028C95.2884 86.0199 94.7202 85.3546 94.3224 84.5071C93.9247 83.6596 93.7259 82.6913 93.7259 81.6023C93.7259 80.4943 93.9295 79.5166 94.3366 78.669C94.7486 77.8168 95.3215 77.1515 96.0554 76.6733C96.794 76.1903 97.6558 75.9489 98.6406 75.9489C99.4077 75.9489 100.099 76.0909 100.714 76.375C101.33 76.6591 101.834 77.0568 102.227 77.5682C102.62 78.0795 102.864 78.6761 102.959 79.358H101.283C101.155 78.8608 100.871 78.4205 100.43 78.0369C99.9948 77.6487 99.4077 77.4545 98.669 77.4545C98.0156 77.4545 97.4427 77.625 96.9503 77.9659C96.4626 78.3021 96.0814 78.7779 95.8068 79.3935C95.5369 80.0043 95.402 80.7216 95.402 81.5455C95.402 82.3883 95.5346 83.1222 95.7997 83.7472C96.0696 84.3722 96.4484 84.8575 96.9361 85.2031C97.4285 85.5488 98.0062 85.7216 98.669 85.7216C99.1046 85.7216 99.5 85.6458 99.8551 85.4943C100.21 85.3428 100.511 85.125 100.757 84.8409C101.003 84.5568 101.179 84.2159 101.283 83.8182H102.959C102.864 84.4621 102.63 85.0421 102.256 85.5582C101.886 86.0696 101.396 86.4768 100.786 86.7798C100.179 87.0781 99.474 87.2273 98.669 87.2273ZM107.085 72.4545V87H105.409V72.4545H107.085ZM114.587 87.2273C113.602 87.2273 112.738 86.9929 111.995 86.5241C111.256 86.0554 110.678 85.3996 110.262 84.5568C109.85 83.714 109.644 82.7292 109.644 81.6023C109.644 80.4659 109.85 79.474 110.262 78.6264C110.678 77.7789 111.256 77.1207 111.995 76.652C112.738 76.1832 113.602 75.9489 114.587 75.9489C115.572 75.9489 116.434 76.1832 117.172 76.652C117.916 77.1207 118.493 77.7789 118.905 78.6264C119.322 79.474 119.53 80.4659 119.53 81.6023C119.53 82.7292 119.322 83.714 118.905 84.5568C118.493 85.3996 117.916 86.0554 117.172 86.5241C116.434 86.9929 115.572 87.2273 114.587 87.2273ZM114.587 85.7216C115.335 85.7216 115.951 85.5298 116.434 85.1463C116.917 84.7628 117.274 84.2585 117.506 83.6335C117.738 83.0085 117.854 82.3314 117.854 81.6023C117.854 80.8731 117.738 80.1937 117.506 79.5639C117.274 78.9342 116.917 78.4252 116.434 78.0369C115.951 77.6487 115.335 77.4545 114.587 77.4545C113.839 77.4545 113.223 77.6487 112.74 78.0369C112.257 78.4252 111.9 78.9342 111.668 79.5639C111.436 80.1937 111.32 80.8731 111.32 81.6023C111.32 82.3314 111.436 83.0085 111.668 83.6335C111.9 84.2585 112.257 84.7628 112.74 85.1463C113.223 85.5298 113.839 85.7216 114.587 85.7216ZM126.521 87.2273C125.498 87.2273 124.617 86.9858 123.879 86.5028C123.14 86.0199 122.572 85.3546 122.174 84.5071C121.776 83.6596 121.577 82.6913 121.577 81.6023C121.577 80.4943 121.781 79.5166 122.188 78.669C122.6 77.8168 123.173 77.1515 123.907 76.6733C124.646 76.1903 125.507 75.9489 126.492 75.9489C127.259 75.9489 127.951 76.0909 128.566 76.375C129.182 76.6591 129.686 77.0568 130.079 77.5682C130.472 78.0795 130.716 78.6761 130.81 79.358H129.134C129.006 78.8608 128.722 78.4205 128.282 78.0369C127.846 77.6487 127.259 77.4545 126.521 77.4545C125.867 77.4545 125.294 77.625 124.802 77.9659C124.314 78.3021 123.933 78.7779 123.658 79.3935C123.388 80.0043 123.254 80.7216 123.254 81.5455C123.254 82.3883 123.386 83.1222 123.651 83.7472C123.921 84.3722 124.3 84.8575 124.788 85.2031C125.28 85.5488 125.858 85.7216 126.521 85.7216C126.956 85.7216 127.352 85.6458 127.707 85.4943C128.062 85.3428 128.362 85.125 128.609 84.8409C128.855 84.5568 129.03 84.2159 129.134 83.8182H130.81C130.716 84.4621 130.481 85.0421 130.107 85.5582C129.738 86.0696 129.248 86.4768 128.637 86.7798C128.031 87.0781 127.326 87.2273 126.521 87.2273ZM134.823 83.0227L134.795 80.9489H135.136L139.908 76.0909H141.982L136.897 81.233H136.755L134.823 83.0227ZM133.261 87V72.4545H134.937V87H133.261ZM140.192 87L135.931 81.6023L137.124 80.4375L142.323 87H140.192Z" fill="black"/>
<path d="M30.4659 77V77.5H31.0623L30.9582 76.9128L30.4659 77ZM28.7045 77L28.2148 77.1007L28.2969 77.5H28.7045V77ZM28.1577 75.6648L27.7416 75.9421L27.744 75.9456L28.1577 75.6648ZM27.2202 74.6989L26.9261 75.1033L26.932 75.1075L27.2202 74.6989ZM26.0057 74.1023L25.8629 74.5815L25.8629 74.5815L26.0057 74.1023ZM22.2202 74.571L21.9559 74.1465L21.9547 74.1473L22.2202 74.571ZM20.5227 76.5384L20.0731 76.3197L20.0721 76.3217L20.5227 76.5384ZM20.5227 82.9162L20.0721 83.1329L20.0731 83.1349L20.5227 82.9162ZM22.2202 84.8835L21.9547 85.3072L21.9559 85.308L22.2202 84.8835ZM26.0057 85.3523L25.8629 84.8731L25.8629 84.8731L26.0057 85.3523ZM27.2202 84.7628L27.5108 85.1697L27.5118 85.1689L27.2202 84.7628ZM28.1577 83.7898L27.7424 83.5113L27.7416 83.5124L28.1577 83.7898ZM28.7045 82.4545V81.9545H28.2977L28.215 82.3529L28.7045 82.4545ZM30.4659 82.4545L30.9581 82.5423L31.063 81.9545H30.4659V82.4545ZM29.7415 84.4503L29.3121 84.1941L29.3121 84.1941L29.7415 84.4503ZM28.4347 85.9489L28.7426 86.3428L28.7448 86.341L28.4347 85.9489ZM26.6804 86.8793L26.5244 86.4042L26.5233 86.4046L26.6804 86.8793ZM21.304 86.2898L21.0382 86.7133L21.0382 86.7133L21.304 86.2898ZM19.0241 83.7045L19.4721 83.4825L19.4721 83.4825L19.0241 83.7045ZM19.0241 75.75L18.5762 75.5279L19.0241 75.75ZM26.6804 72.5753L26.5233 73.05L26.5244 73.0503L26.6804 72.5753ZM28.4347 73.5128L28.1245 73.905L28.1267 73.9067L28.4347 73.5128ZM29.7415 75.0043L29.3121 75.2605L29.313 75.262L29.7415 75.0043ZM30.4659 76.5H28.7045V77.5H30.4659V76.5ZM29.1943 76.8993C29.0784 76.3357 28.8728 75.8279 28.5713 75.3839L27.744 75.9456C27.9634 76.2687 28.1223 76.6511 28.2148 77.1007L29.1943 76.8993ZM28.5737 75.3874C28.2845 74.9537 27.929 74.5869 27.5083 74.2902L26.932 75.1075C27.25 75.3317 27.5194 75.6088 27.7416 75.9421L28.5737 75.3874ZM27.5143 74.2945C27.1024 73.995 26.6462 73.7713 26.1484 73.6231L25.8629 74.5815C26.2554 74.6984 26.6087 74.8724 26.9261 75.1032L27.5143 74.2945ZM26.1484 73.6231C25.6552 73.4762 25.143 73.4034 24.6136 73.4034V74.4034C25.0502 74.4034 25.466 74.4632 25.8629 74.5815L26.1484 73.6231ZM24.6136 73.4034C23.644 73.4034 22.7539 73.6498 21.9559 74.1466L22.4844 74.9955C23.1164 74.6021 23.8219 74.4034 24.6136 74.4034V73.4034ZM21.9547 74.1473C21.1538 74.6492 20.5292 75.3818 20.0731 76.3197L20.9724 76.757C21.3591 75.9619 21.8661 75.383 22.4857 74.9947L21.9547 74.1473ZM20.0721 76.3217C19.6145 77.2733 19.3977 78.4151 19.3977 79.7273H20.3977C20.3977 78.5205 20.5976 77.5363 20.9733 76.755L20.0721 76.3217ZM19.3977 79.7273C19.3977 81.0395 19.6145 82.1812 20.0721 83.1329L20.9733 82.6995C20.5976 81.9182 20.3977 80.934 20.3977 79.7273H19.3977ZM20.0731 83.1349C20.5292 84.0727 21.1538 84.8053 21.9547 85.3072L22.4857 84.4598C21.8661 84.0716 21.3591 83.4926 20.9724 82.6975L20.0731 83.1349ZM21.9559 85.308C22.7539 85.8047 23.644 86.0511 24.6136 86.0511V85.0511C23.8219 85.0511 23.1164 84.8524 22.4844 84.4591L21.9559 85.308ZM24.6136 86.0511C25.143 86.0511 25.6552 85.9784 26.1484 85.8315L25.8629 84.8731C25.466 84.9913 25.0502 85.0511 24.6136 85.0511V86.0511ZM26.1484 85.8315C26.6445 85.6837 27.0996 85.4633 27.5108 85.1697L26.9296 84.3559C26.6116 84.5831 26.257 84.7557 25.8629 84.8731L26.1484 85.8315ZM27.5118 85.1689C27.9307 84.8682 28.2851 84.5 28.5737 84.0671L27.7416 83.5124C27.5189 83.8466 27.2483 84.1271 26.9286 84.3566L27.5118 85.1689ZM28.5729 84.0683C28.8726 83.6215 29.0781 83.1151 29.1941 82.5562L28.215 82.3529C28.1227 82.7977 27.9636 83.1816 27.7424 83.5113L28.5729 84.0683ZM28.7045 82.9545H30.4659V81.9545H28.7045V82.9545ZM29.9737 82.3668C29.8506 83.0568 29.6285 83.664 29.3121 84.1941L30.1708 84.7065C30.5552 84.0624 30.8161 83.339 30.9581 82.5423L29.9737 82.3668ZM29.3121 84.1941C28.9919 84.7306 28.5962 85.1836 28.1245 85.5567L28.7448 86.341C29.3147 85.8903 29.7903 85.3442 30.1708 84.7065L29.3121 84.1941ZM28.1267 85.555C27.6529 85.9254 27.1199 86.2086 26.5244 86.4042L26.8364 87.3543C27.5382 87.1238 28.1747 86.7868 28.7426 86.3428L28.1267 85.555ZM26.5233 86.4046C25.9341 86.5996 25.2985 86.6989 24.6136 86.6989V87.6989C25.3965 87.6989 26.1389 87.5851 26.8375 87.354L26.5233 86.4046ZM24.6136 86.6989C23.4585 86.6989 22.449 86.418 21.5697 85.8662L21.0382 86.7133C22.0907 87.3737 23.2877 87.6989 24.6136 87.6989V86.6989ZM21.5697 85.8662C20.6892 85.3138 19.9891 84.5252 19.4721 83.4825L18.5762 83.9266C19.1672 85.1187 19.9869 86.0536 21.0382 86.7133L21.5697 85.8662ZM19.4721 83.4825C18.9593 82.4481 18.6932 81.2017 18.6932 79.7273H17.6932C17.6932 81.321 17.981 82.7261 18.5762 83.9266L19.4721 83.4825ZM18.6932 79.7273C18.6932 78.2528 18.9593 77.0064 19.4721 75.9721L18.5762 75.5279C17.981 76.7284 17.6932 78.1335 17.6932 79.7273H18.6932ZM19.4721 75.9721C19.9891 74.9293 20.6892 74.1408 21.5697 73.5883L21.0382 72.7412C19.9869 73.4009 19.1672 74.3358 18.5762 75.5279L19.4721 75.9721ZM21.5697 73.5883C22.449 73.0366 23.4585 72.7557 24.6136 72.7557V71.7557C23.2877 71.7557 22.0907 72.0808 21.0382 72.7412L21.5697 73.5883ZM24.6136 72.7557C25.2985 72.7557 25.9341 72.855 26.5233 73.05L26.8375 72.1006C26.1389 71.8694 25.3965 71.7557 24.6136 71.7557V72.7557ZM26.5244 73.0503C27.1188 73.2456 27.6511 73.5305 28.1245 73.905L28.7448 73.1206C28.1766 72.6712 27.5394 72.3311 26.8364 72.1003L26.5244 73.0503ZM28.1267 73.9067C28.5973 74.2746 28.9923 74.7245 29.3121 75.2605L30.1708 74.748C29.7899 74.1098 29.3137 73.5654 28.7426 73.1189L28.1267 73.9067ZM29.313 75.262C29.6284 75.7861 29.8504 76.3923 29.9736 77.0872L30.9582 76.9128C30.8162 76.1114 30.5554 75.3872 30.1699 74.7465L29.313 75.262ZM34.9244 86.5241L34.6564 86.9463L34.6577 86.9471L34.9244 86.5241ZM33.1914 84.5568L32.7422 84.7764L32.7432 84.7784L33.1914 84.5568ZM33.1914 78.6264L32.7427 78.4058L32.7417 78.4079L33.1914 78.6264ZM34.9244 76.652L34.6577 76.2291L34.6564 76.2298L34.9244 76.652ZM40.1019 76.652L39.834 77.0742L39.8352 77.0749L40.1019 76.652ZM41.8349 78.6264L41.3852 78.845L41.3862 78.847L41.8349 78.6264ZM41.8349 84.5568L41.3867 84.3352L41.3857 84.3373L41.8349 84.5568ZM40.1019 86.5241L39.8352 86.1012L39.834 86.102L40.1019 86.5241ZM39.3633 85.1463L39.0523 84.7548L39.0523 84.7548L39.3633 85.1463ZM40.4357 83.6335L40.9045 83.8075L40.9045 83.8075L40.4357 83.6335ZM40.4357 79.5639L40.9049 79.3911L40.9049 79.3911L40.4357 79.5639ZM39.3633 78.0369L39.6766 77.6472L39.6766 77.6472L39.3633 78.0369ZM35.6701 78.0369L35.3568 77.6472L35.3568 77.6472L35.6701 78.0369ZM34.5977 79.5639L34.1285 79.3911L34.1285 79.3911L34.5977 79.5639ZM34.5977 83.6335L34.1289 83.8075L34.1289 83.8075L34.5977 83.6335ZM35.6701 85.1463L35.981 84.7548L35.981 84.7548L35.6701 85.1463ZM37.5167 86.7273C36.6145 86.7273 35.8452 86.5137 35.1911 86.1012L34.6577 86.9471C35.4903 87.4721 36.4492 87.7273 37.5167 87.7273V86.7273ZM35.1923 86.102C34.5368 85.686 34.0188 85.1023 33.6396 84.3352L32.7432 84.7784C33.1973 85.697 33.8347 86.4248 34.6564 86.9463L35.1923 86.102ZM33.6406 84.3373C33.2682 83.5752 33.0735 82.6682 33.0735 81.6023H32.0735C32.0735 82.7901 32.2908 83.8528 32.7422 84.7764L33.6406 84.3373ZM33.0735 81.6023C33.0735 80.5263 33.2684 79.6118 33.6411 78.845L32.7417 78.4079C32.2906 79.3361 32.0735 80.4056 32.0735 81.6023H33.0735ZM33.6401 78.847C34.0196 78.0752 34.5375 77.4897 35.1923 77.0742L34.6564 76.2298C33.834 76.7518 33.1966 77.4826 32.7427 78.4058L33.6401 78.847ZM35.1911 77.0749C35.8452 76.6624 36.6145 76.4489 37.5167 76.4489V75.4489C36.4492 75.4489 35.4903 75.704 34.6577 76.2291L35.1911 77.0749ZM37.5167 76.4489C38.4189 76.4489 39.1853 76.6624 39.834 77.0742L40.3698 76.2298C39.5413 75.704 38.5841 75.4489 37.5167 75.4489V76.4489ZM39.8352 77.0749C40.494 77.4903 41.0109 78.075 41.3852 78.845L42.2846 78.4079C41.835 77.4828 41.1966 76.7511 40.3686 76.2291L39.8352 77.0749ZM41.3862 78.847C41.7629 79.6133 41.9599 80.527 41.9599 81.6023H42.9599C42.9599 80.4048 42.7402 79.3346 42.2836 78.4058L41.3862 78.847ZM41.9599 81.6023C41.9599 82.6674 41.7631 83.5737 41.3867 84.3352L42.2831 84.7784C42.7399 83.8543 42.9599 82.7909 42.9599 81.6023H41.9599ZM41.3857 84.3373C41.0116 85.1025 40.4947 85.6854 39.8352 86.1012L40.3686 86.9471C41.1959 86.4254 41.8342 85.6967 42.2841 84.7764L41.3857 84.3373ZM39.834 86.102C39.1853 86.5137 38.4189 86.7273 37.5167 86.7273V87.7273C38.5841 87.7273 39.5413 87.4721 40.3698 86.9463L39.834 86.102ZM37.5167 86.2216C38.3529 86.2216 39.0852 86.0056 39.6742 85.5379L39.0523 84.7548C38.6755 85.054 38.1767 85.2216 37.5167 85.2216V86.2216ZM39.6742 85.5379C40.2344 85.093 40.6434 84.5109 40.9045 83.8075L39.967 83.4595C39.7641 84.0061 39.4581 84.4326 39.0523 84.7548L39.6742 85.5379ZM40.9045 83.8075C41.159 83.1219 41.2837 82.3853 41.2837 81.6023H40.2837C40.2837 82.2776 40.1765 82.8952 39.967 83.4595L40.9045 83.8075ZM41.2837 81.6023C41.2837 80.8192 41.159 80.0808 40.9049 79.3911L39.9666 79.7368C40.1765 80.3066 40.2837 80.927 40.2837 81.6023H41.2837ZM40.9049 79.3911C40.6442 78.6836 40.236 78.097 39.6766 77.6472L39.05 78.4266C39.4565 78.7534 39.7632 79.1848 39.9666 79.7368L40.9049 79.3911ZM39.6766 77.6472C39.0874 77.1736 38.3543 76.9545 37.5167 76.9545V77.9545C38.1753 77.9545 38.6732 78.1237 39.05 78.4266L39.6766 77.6472ZM37.5167 76.9545C36.6791 76.9545 35.9459 77.1736 35.3568 77.6472L35.9834 78.4266C36.3602 78.1237 36.8581 77.9545 37.5167 77.9545V76.9545ZM35.3568 77.6472C34.7974 78.097 34.3891 78.6836 34.1285 79.3911L35.0668 79.7368C35.2702 79.1848 35.5769 78.7534 35.9834 78.4266L35.3568 77.6472ZM34.1285 79.3911C33.8744 80.0808 33.7496 80.8192 33.7496 81.6023H34.7496C34.7496 80.927 34.8569 80.3066 35.0668 79.7368L34.1285 79.3911ZM33.7496 81.6023C33.7496 82.3853 33.8744 83.1219 34.1289 83.8075L35.0664 83.4595C34.8569 82.8952 34.7496 82.2776 34.7496 81.6023H33.7496ZM34.1289 83.8075C34.39 84.5109 34.799 85.093 35.3592 85.5379L35.981 84.7548C35.5753 84.4326 35.2693 84.0061 35.0664 83.4595L34.1289 83.8075ZM35.3592 85.5379C35.9482 86.0056 36.6805 86.2216 37.5167 86.2216V85.2216C36.8567 85.2216 36.3579 85.054 35.981 84.7548L35.3592 85.5379ZM51.8935 76.0909V75.5909H51.3935V76.0909H51.8935ZM53.5696 76.0909H54.0696V75.5909H53.5696V76.0909ZM53.5696 87V87.5H54.0696V87H53.5696ZM51.8935 87H51.3935V87.5H51.8935V87ZM51.8935 85.1534H52.3935V84.6534H51.8935V85.1534ZM51.7798 85.1534V84.6534H51.4599L51.3259 84.9439L51.7798 85.1534ZM50.5866 86.5668L50.8763 86.9744L50.8786 86.9727L50.5866 86.5668ZM46.723 86.6946L46.4749 87.1287L46.4779 87.1304L46.723 86.6946ZM45.473 85.331L45.0251 85.5532L45.0258 85.5546L45.473 85.331ZM45.0185 76.0909V75.5909H44.5185V76.0909H45.0185ZM46.6946 76.0909H47.1946V75.5909H46.6946V76.0909ZM47.3622 84.8125L46.9979 85.155L46.9997 85.1569L47.3622 84.8125ZM50.3523 85.2031L50.1326 84.754L50.1306 84.7549L50.3523 85.2031ZM51.446 84.223L51.0321 83.9426L51.03 83.9457L51.446 84.223ZM52.3935 82.5398V76.0909H51.3935V82.5398H52.3935ZM51.8935 76.5909H53.5696V75.5909H51.8935V76.5909ZM53.0696 76.0909V87H54.0696V76.0909H53.0696ZM53.5696 86.5H51.8935V87.5H53.5696V86.5ZM52.3935 87V85.1534H51.3935V87H52.3935ZM51.8935 84.6534H51.7798V85.6534H51.8935V84.6534ZM51.3259 84.9439C51.1095 85.4126 50.7709 85.8183 50.2947 86.1609L50.8786 86.9727C51.482 86.5387 51.9388 86.0022 52.2338 85.3629L51.3259 84.9439ZM50.297 86.1592C49.8606 86.4693 49.2869 86.642 48.5412 86.642V87.642C49.4432 87.642 50.2332 87.4313 50.8763 86.9744L50.297 86.1592ZM48.5412 86.642C47.9347 86.642 47.4149 86.5101 46.9681 86.2588L46.4779 87.1304C47.0917 87.4757 47.7841 87.642 48.5412 87.642V86.642ZM46.9711 86.2605C46.5357 86.0117 46.1841 85.6352 45.9202 85.1074L45.0258 85.5546C45.368 86.2389 45.8497 86.7714 46.4749 87.1287L46.9711 86.2605ZM45.9209 85.1087C45.6622 84.5873 45.5185 83.9001 45.5185 83.0227H44.5185C44.5185 84.0014 44.6777 84.853 45.0251 85.5532L45.9209 85.1087ZM45.5185 83.0227V76.0909H44.5185V83.0227H45.5185ZM45.0185 76.5909H46.6946V75.5909H45.0185V76.5909ZM46.1946 76.0909V82.9091H47.1946V76.0909H46.1946ZM46.1946 82.9091C46.1946 83.8018 46.4471 84.569 46.9979 85.155L47.7265 84.47C47.3872 84.1091 47.1946 83.6073 47.1946 82.9091H46.1946ZM46.9997 85.1569C47.5506 85.7368 48.258 86.0227 49.081 86.0227V85.0227C48.5119 85.0227 48.0734 84.8352 47.7247 84.4681L46.9997 85.1569ZM49.081 86.0227C49.5855 86.0227 50.0847 85.8932 50.5739 85.6513L50.1306 84.7549C49.7581 84.9392 49.4097 85.0227 49.081 85.0227V86.0227ZM50.572 85.6523C51.0942 85.3968 51.524 85.0074 51.862 84.5004L51.03 83.9457C50.7809 84.3193 50.4815 84.5833 50.1326 84.754L50.572 85.6523ZM51.86 84.5034C52.2282 83.9598 52.3935 83.2935 52.3935 82.5398H51.3935C51.3935 83.1497 51.2604 83.6055 51.0321 83.9426L51.86 84.5034ZM58.3157 87V87.5H58.8157V87H58.3157ZM56.6396 87H56.1396V87.5H56.6396V87ZM56.6396 76.0909V75.5909H56.1396V76.0909H56.6396ZM58.2589 76.0909H58.7589V75.5909H58.2589V76.0909ZM58.2589 77.7955H57.7589V78.2955H58.2589V77.7955ZM58.4009 77.7955V78.2955H58.7208L58.8549 78.005L58.4009 77.7955ZM59.5657 76.4602L59.8369 76.8803L59.8395 76.8786L59.5657 76.4602ZM63.5217 76.4034L63.2817 76.8421L63.2846 76.8436L63.5217 76.4034ZM64.8143 77.767L64.3678 77.992L64.3685 77.9934L64.8143 77.767ZM65.2759 87V87.5H65.7759V87H65.2759ZM63.5998 87H63.0998V87.5H63.5998V87ZM62.9322 78.179L62.5645 78.5178L62.5662 78.5196L62.9322 78.179ZM59.6651 77.8026L59.424 77.3645L59.4219 77.3657L59.6651 77.8026ZM58.6779 78.8182L58.2384 78.5797L58.2384 78.5797L58.6779 78.8182ZM57.8157 80.4375V87H58.8157V80.4375H57.8157ZM58.3157 86.5H56.6396V87.5H58.3157V86.5ZM57.1396 87V76.0909H56.1396V87H57.1396ZM56.6396 76.5909H58.2589V75.5909H56.6396V76.5909ZM57.7589 76.0909V77.7955H58.7589V76.0909H57.7589ZM58.2589 78.2955H58.4009V77.2955H58.2589V78.2955ZM58.8549 78.005C59.0702 77.5386 59.3943 77.1659 59.8368 76.8803L59.2945 76.0401C58.6954 76.4269 58.243 76.9444 57.9469 77.5859L58.8549 78.005ZM59.8395 76.8786C60.2565 76.6056 60.8253 76.4489 61.5827 76.4489V75.4489C60.6925 75.4489 59.9166 75.633 59.2919 76.0419L59.8395 76.8786ZM61.5827 76.4489C62.2518 76.4489 62.8129 76.5856 63.2817 76.8421L63.7616 75.9647C63.1225 75.6151 62.3909 75.4489 61.5827 75.4489V76.4489ZM63.2846 76.8436C63.7404 77.0891 64.1019 77.4644 64.3678 77.992L65.2608 77.5421C64.9111 76.8481 64.4108 76.3143 63.7587 75.9632L63.2846 76.8436ZM64.3685 77.9934C64.63 78.5085 64.7759 79.1915 64.7759 80.0682H65.7759C65.7759 79.0888 65.6141 78.2377 65.2601 77.5407L64.3685 77.9934ZM64.7759 80.0682V87H65.7759V80.0682H64.7759ZM65.2759 86.5H63.5998V87.5H65.2759V86.5ZM64.0998 87V80.1818H63.0998V87H64.0998ZM64.0998 80.1818C64.0998 79.2389 63.8535 78.435 63.2982 77.8383L62.5662 78.5196C62.901 78.8794 63.0998 79.4107 63.0998 80.1818H64.0998ZM63.2999 77.8401C62.7428 77.2357 61.9882 76.9545 61.0998 76.9545V77.9545C61.7644 77.9545 62.2314 78.1564 62.5645 78.5178L63.2999 77.8401ZM61.0998 76.9545C60.4901 76.9545 59.9273 77.0875 59.424 77.3646L59.9063 78.2406C60.2458 78.0536 60.6394 77.9545 61.0998 77.9545V76.9545ZM59.4219 77.3657C58.9171 77.6468 58.5222 78.0566 58.2384 78.5797L59.1174 79.0566C59.3165 78.6896 59.5798 78.4223 59.9084 78.2394L59.4219 77.3657ZM58.2384 78.5797C57.9484 79.1143 57.8157 79.7404 57.8157 80.4375H58.8157C58.8157 79.8656 58.9245 79.4122 59.1174 79.0566L58.2384 78.5797ZM73.0831 76.0909H73.5831V75.5909H73.0831V76.0909ZM73.0831 77.5114V78.0114H73.5831V77.5114H73.0831ZM67.4297 77.5114H66.9297V78.0114H67.4297V77.5114ZM67.4297 76.0909V75.5909H66.9297V76.0909H67.4297ZM69.0774 73.4773V72.9773H68.5774V73.4773H69.0774ZM70.7536 73.4773H71.2536V72.9773H70.7536V73.4773ZM70.9595 84.9403L70.5269 85.1913L70.5331 85.2014L70.9595 84.9403ZM71.4993 85.4091L71.3259 85.8782L71.3382 85.8824L71.4993 85.4091ZM72.657 85.4943L72.736 85.988L72.7455 85.9865L72.755 85.9846L72.657 85.4943ZM72.9411 85.4375L73.4287 85.3271L73.321 84.8516L72.843 84.9472L72.9411 85.4375ZM73.282 86.9432L73.4575 87.4113L73.8659 87.2582L73.7696 86.8328L73.282 86.9432ZM72.8061 87.071L72.7037 86.5815L72.6929 86.584L72.8061 87.071ZM70.6399 86.8366L70.4337 87.2922L70.4355 87.293L70.6399 86.8366ZM69.5178 85.9062L69.109 86.1942L69.1112 86.1973L69.5178 85.9062ZM72.5831 76.0909V77.5114H73.5831V76.0909H72.5831ZM73.0831 77.0114H67.4297V78.0114H73.0831V77.0114ZM67.9297 77.5114V76.0909H66.9297V77.5114H67.9297ZM67.4297 76.5909H73.0831V75.5909H67.4297V76.5909ZM69.0774 73.9773H70.7536V72.9773H69.0774V73.9773ZM70.2536 73.4773V83.875H71.2536V73.4773H70.2536ZM70.2536 83.875C70.2536 84.3804 70.324 84.8411 70.527 85.1912L71.392 84.6895C71.3205 84.5661 71.2536 84.3165 71.2536 83.875H70.2536ZM70.5331 85.2014C70.7233 85.5121 70.9854 85.7522 71.326 85.8781L71.6726 84.9401C71.5775 84.905 71.4798 84.8326 71.3859 84.6793L70.5331 85.2014ZM71.3382 85.8824C71.615 85.9767 71.904 86.0227 72.2024 86.0227V85.0227C72.0084 85.0227 71.8287 84.993 71.6604 84.9358L71.3382 85.8824ZM72.2024 86.0227C72.401 86.0227 72.5815 86.0128 72.736 85.988L72.578 85.0006C72.4957 85.0138 72.3731 85.0227 72.2024 85.0227V86.0227ZM72.755 85.9846C72.8734 85.9609 72.9681 85.942 73.0391 85.9278L72.843 84.9472C72.772 84.9614 72.6773 84.9804 72.5589 85.004L72.755 85.9846ZM72.4534 85.5479L72.7943 87.0536L73.7696 86.8328L73.4287 85.3271L72.4534 85.5479ZM73.1064 86.475C73.0275 86.5046 72.8973 86.5411 72.7037 86.5816L72.9085 87.5604C73.1221 87.5157 73.3092 87.467 73.4575 87.4113L73.1064 86.475ZM72.6929 86.584C72.5398 86.6196 72.3231 86.642 72.032 86.642V87.642C72.3658 87.642 72.6652 87.6171 72.9194 87.558L72.6929 86.584ZM72.032 86.642C71.6326 86.642 71.238 86.5567 70.8443 86.3803L70.4355 87.293C70.951 87.5238 71.4844 87.642 72.032 87.642V86.642ZM70.8461 86.3811C70.4795 86.2152 70.1735 85.9632 69.9243 85.6152L69.1112 86.1973C69.4586 86.6826 69.9007 87.0509 70.4337 87.2922L70.8461 86.3811ZM69.9265 85.6183C69.7055 85.3046 69.5774 84.8864 69.5774 84.3295H68.5774C68.5774 85.0417 68.7429 85.6746 69.109 86.1942L69.9265 85.6183ZM69.5774 84.3295V73.4773H68.5774V84.3295H69.5774ZM77.3409 86.5312L77.0778 86.9565L77.0809 86.9583L77.3409 86.5312ZM75.5866 84.571L75.1364 84.7885L75.1379 84.7916L75.5866 84.571ZM75.5866 78.6761L75.136 78.4595L75.1355 78.4606L75.5866 78.6761ZM77.3054 76.6733L77.5784 77.0922L77.579 77.0918L77.3054 76.6733ZM81.5739 76.233L81.7356 75.7598L81.7356 75.7598L81.5739 76.233ZM83.0866 77.1562L82.7447 77.521L82.7467 77.5229L83.0866 77.1562ZM84.1733 78.8324L84.6395 78.6516L84.6395 78.6516L84.1733 78.8324ZM84.5781 82.1136V82.6136H85.0781V82.1136H84.5781ZM76.169 82.1136H75.669V82.6136H76.169V82.1136ZM76.169 80.6648V80.1648H75.669V80.6648H76.169ZM82.8736 80.6648V81.1648H83.3736V80.6648H82.8736ZM82.5043 79.017L82.057 79.2407L82.0588 79.2441L82.5043 79.017ZM81.4673 77.8736L81.2015 78.2971L81.2035 78.2983L81.4673 77.8736ZM78.1577 77.9517L78.4378 78.3658L78.4387 78.3652L78.1577 77.9517ZM77.0426 79.2301L76.5946 79.0081L76.5946 79.0081L77.0426 79.2301ZM77.0781 83.9815L76.6302 84.2037L76.6324 84.2081L77.0781 83.9815ZM78.2784 85.2812L78.0265 85.7131L78.0295 85.7149L78.2784 85.2812ZM81.2543 85.5369L81.418 86.0094L81.4216 86.0081L81.2543 85.5369ZM82.1847 84.9688L82.5316 85.3288L82.535 85.3255L82.1847 84.9688ZM82.7884 84.017L82.9235 83.5357L82.4814 83.4116L82.3202 83.8415L82.7884 84.017ZM84.4077 84.4716L84.8852 84.6198L85.0375 84.1291L84.5428 83.9902L84.4077 84.4716ZM83.5483 85.9205L83.9059 86.2699L83.9079 86.2678L83.5483 85.9205ZM82.0568 86.8864L82.2361 87.3531L82.2393 87.3519L82.0568 86.8864ZM80.0611 86.7273C79.0851 86.7273 78.2719 86.5126 77.6009 86.1042L77.0809 86.9583C77.9346 87.478 78.9347 87.7273 80.0611 87.7273V86.7273ZM77.604 86.1061C76.9302 85.6892 76.408 85.1085 76.0354 84.3505L75.1379 84.7916C75.5892 85.7097 76.2364 86.4358 77.0778 86.9564L77.604 86.1061ZM76.0369 84.3535C75.6682 83.5904 75.4759 82.6872 75.4759 81.6307H74.4759C74.4759 82.809 74.6907 83.866 75.1364 84.7885L76.0369 84.3535ZM75.4759 81.6307C75.4759 80.5743 75.6681 79.6654 76.0378 78.8917L75.1355 78.4606C74.6908 79.3914 74.4759 80.4522 74.4759 81.6307H75.4759ZM76.0373 78.8927C76.4131 78.1109 76.9276 77.5163 77.5784 77.0922L77.0324 76.2544C76.2154 76.7868 75.584 77.5274 75.136 78.4595L76.0373 78.8927ZM77.579 77.0918C78.2271 76.6681 78.9913 76.4489 79.8906 76.4489V75.4489C78.8203 75.4489 77.861 75.7126 77.0318 76.2548L77.579 77.0918ZM79.8906 76.4489C80.4021 76.4489 80.9086 76.5339 81.4121 76.7061L81.7356 75.7598C81.1312 75.5532 80.5155 75.4489 79.8906 75.4489V76.4489ZM81.4121 76.7061C81.8948 76.8711 82.3385 77.1402 82.7447 77.521L83.4286 76.7915C82.9257 76.32 82.3609 75.9736 81.7356 75.7598L81.4121 76.7061ZM82.7467 77.5229C83.1354 77.8833 83.4591 78.3736 83.7071 79.0132L84.6395 78.6516C84.3477 77.8991 83.947 77.2721 83.4266 76.7896L82.7467 77.5229ZM83.7071 79.0131C83.9481 79.6347 84.0781 80.4262 84.0781 81.4034H85.0781C85.0781 80.3446 84.9382 79.4221 84.6395 78.6516L83.7071 79.0131ZM84.0781 81.4034V82.1136H85.0781V81.4034H84.0781ZM84.5781 81.6136H76.169V82.6136H84.5781V81.6136ZM76.669 82.1136V80.6648H75.669V82.1136H76.669ZM76.169 81.1648H82.8736V80.1648H76.169V81.1648ZM83.3736 80.6648C83.3736 79.9811 83.2364 79.3522 82.9497 78.79L82.0588 79.2441C82.2646 79.6478 82.3736 80.1174 82.3736 80.6648H83.3736ZM82.9515 78.7934C82.6695 78.2295 82.2611 77.778 81.7311 77.4488L81.2035 78.2983C81.5732 78.5279 81.8561 78.8387 82.057 79.2407L82.9515 78.7934ZM81.7331 77.4501C81.1968 77.1135 80.576 76.9545 79.8906 76.9545V77.9545C80.4174 77.9545 80.8477 78.075 81.2015 78.2971L81.7331 77.4501ZM79.8906 76.9545C79.1365 76.9545 78.4579 77.1431 77.8766 77.5382L78.4387 78.3652C78.8328 78.0974 79.3095 77.9545 79.8906 77.9545V76.9545ZM77.8775 77.5376C77.3225 77.913 76.8932 78.4055 76.5946 79.0081L77.4906 79.4521C77.7129 79.0035 78.0269 78.6438 78.4378 78.3658L77.8775 77.5376ZM76.5946 79.0081C76.2991 79.6045 76.152 80.2441 76.152 80.9205H77.152C77.152 80.3941 77.2653 79.9069 77.4906 79.4521L76.5946 79.0081ZM76.152 80.9205V81.8864H77.152V80.9205H76.152ZM76.152 81.8864C76.152 82.7658 76.3034 83.5447 76.6302 84.2037L77.5261 83.7594C77.2846 83.2725 77.152 82.6546 77.152 81.8864H76.152ZM76.6324 84.2081C76.9613 84.8551 77.4257 85.3627 78.0265 85.7131L78.5303 84.8494C78.1084 84.6032 77.7726 84.2444 77.5238 83.755L76.6324 84.2081ZM78.0295 85.7149C78.6272 86.058 79.3098 86.2216 80.0611 86.2216V85.2216C79.4582 85.2216 78.9523 85.0916 78.5273 84.8476L78.0295 85.7149ZM80.0611 86.2216C80.5478 86.2216 81.0021 86.1535 81.418 86.0093L81.0905 85.0645C80.7962 85.1665 80.455 85.2216 80.0611 85.2216V86.2216ZM81.4216 86.0081C81.8447 85.8578 82.2171 85.6319 82.5316 85.3288L81.8377 84.6087C81.6314 84.8075 81.3835 84.9604 81.0869 85.0658L81.4216 86.0081ZM82.535 85.3255C82.8528 85.0135 83.0917 84.6322 83.2565 84.1926L82.3202 83.8415C82.2009 84.1595 82.0373 84.4127 81.8344 84.612L82.535 85.3255ZM82.6532 84.4984L84.2725 84.953L84.5428 83.9902L82.9235 83.5357L82.6532 84.4984ZM83.9301 84.3234C83.783 84.7974 83.5372 85.2122 83.1887 85.5731L83.9079 86.2678C84.3643 85.7953 84.6914 85.2443 84.8852 84.6198L83.9301 84.3234ZM83.1907 85.571C82.8426 85.9273 82.4071 86.212 81.8743 86.4209L82.2393 87.3519C82.8902 87.0967 83.449 86.7375 83.9059 86.2699L83.1907 85.571ZM81.8776 86.4196C81.3515 86.6216 80.7484 86.7273 80.0611 86.7273V87.7273C80.851 87.7273 81.5784 87.6057 82.2361 87.3531L81.8776 86.4196ZM87.1278 87H86.6278V87.5H87.1278V87ZM87.1278 76.0909V75.5909H86.6278V76.0909H87.1278ZM88.7472 76.0909H89.2472V75.5909H88.7472V76.0909ZM88.7472 77.7386H88.2472V78.2386H88.7472V77.7386ZM88.8608 77.7386V78.2386H89.2094L89.33 77.9115L88.8608 77.7386ZM89.9403 76.4247L89.6692 76.0046L89.6692 76.0046L89.9403 76.4247ZM92.5824 75.9489H93.0824V75.4964L92.6321 75.4513L92.5824 75.9489ZM92.5824 77.6534L92.4611 78.1385L93.0824 78.2938V77.6534H92.5824ZM92.1918 77.5895L92.1095 78.0829L92.1227 78.0847L92.1918 77.5895ZM90.1392 77.8736L90.3729 78.3156L90.3748 78.3146L90.1392 77.8736ZM89.1591 78.7827L88.7345 78.5186L88.7336 78.52L89.1591 78.7827ZM88.804 87V87.5H89.304V87H88.804ZM87.6278 87V76.0909H86.6278V87H87.6278ZM87.1278 76.5909H88.7472V75.5909H87.1278V76.5909ZM88.2472 76.0909V77.7386H89.2472V76.0909H88.2472ZM88.7472 78.2386H88.8608V77.2386H88.7472V78.2386ZM89.33 77.9115C89.4884 77.4815 89.7742 77.1271 90.2115 76.8448L89.6692 76.0046C89.0648 76.3947 88.6309 76.9162 88.3916 77.5658L89.33 77.9115ZM90.2115 76.8448C90.647 76.5637 91.139 76.4205 91.7017 76.4205V75.4205C90.9576 75.4205 90.2753 75.6134 89.6692 76.0046L90.2115 76.8448ZM91.7017 76.4205C91.819 76.4205 91.9683 76.4227 92.1505 76.4274L92.1762 75.4277C91.9891 75.4229 91.8306 75.4205 91.7017 75.4205V76.4205ZM92.1505 76.4274C92.332 76.432 92.4568 76.4388 92.5326 76.4464L92.6321 75.4513C92.5186 75.44 92.364 75.4325 92.1762 75.4277L92.1505 76.4274ZM92.0824 75.9489V77.6534H93.0824V75.9489H92.0824ZM92.7037 77.1683C92.6158 77.1464 92.457 77.1217 92.2609 77.0943L92.1227 78.0847C92.2225 78.0986 92.3016 78.1104 92.3614 78.1202C92.3912 78.1251 92.4148 78.1292 92.4327 78.1326C92.4417 78.1343 92.4485 78.1357 92.4537 78.1368C92.4589 78.1379 92.4612 78.1385 92.4611 78.1385L92.7037 77.1683ZM92.274 77.0963C92.0453 77.0582 91.8069 77.0398 91.5597 77.0398V78.0398C91.7575 78.0398 91.9405 78.0545 92.1096 78.0827L92.274 77.0963ZM91.5597 77.0398C90.9574 77.0398 90.4013 77.1667 89.9037 77.4325L90.3748 78.3146C90.7104 78.1353 91.1013 78.0398 91.5597 78.0398V77.0398ZM89.9055 77.4316C89.4169 77.6899 89.0237 78.0537 88.7345 78.5186L89.5837 79.0467C89.7775 78.7351 90.0377 78.4929 90.3729 78.3156L89.9055 77.4316ZM88.7336 78.52C88.4437 78.9897 88.304 79.5203 88.304 80.0966H89.304C89.304 79.688 89.401 79.3427 89.5846 79.0453L88.7336 78.52ZM88.304 80.0966V87H89.304V80.0966H88.304ZM88.804 86.5H87.1278V87.5H88.804V86.5ZM96.027 86.5028L95.7534 86.9213L95.7534 86.9213L96.027 86.5028ZM94.3366 78.669L93.8865 78.4514L93.886 78.4525L94.3366 78.669ZM96.0554 76.6733L96.3284 77.0922L96.329 77.0918L96.0554 76.6733ZM102.227 77.5682L102.624 77.2635L102.624 77.2635L102.227 77.5682ZM102.959 79.358V79.858H103.533L103.454 79.2892L102.959 79.358ZM101.283 79.358L100.798 79.4825L100.895 79.858H101.283V79.358ZM100.43 78.0369L100.098 78.4102L100.102 78.414L100.43 78.0369ZM96.9503 77.9659L97.2341 78.3776L97.2349 78.377L96.9503 77.9659ZM95.8068 79.3935L95.3502 79.1897L95.3495 79.1914L95.8068 79.3935ZM95.7997 83.7472L95.3394 83.9424L95.3407 83.9454L95.7997 83.7472ZM96.9361 85.2031L96.647 85.6111L96.6488 85.6124L96.9361 85.2031ZM99.8551 85.4943L99.6589 85.0344L99.6589 85.0344L99.8551 85.4943ZM100.757 84.8409L101.135 85.1684L101.135 85.1684L100.757 84.8409ZM101.283 83.8182V83.3182H100.897L100.799 83.6915L101.283 83.8182ZM102.959 83.8182L103.453 83.8909L103.538 83.3182H102.959V83.8182ZM102.256 85.5582L101.851 85.2648L101.85 85.2655L102.256 85.5582ZM100.786 86.7798L101.006 87.2284L101.008 87.2277L100.786 86.7798ZM98.669 86.7273C97.7277 86.7273 96.9456 86.5061 96.3006 86.0844L95.7534 86.9213C96.5856 87.4655 97.5649 87.7273 98.669 87.7273V86.7273ZM96.3006 86.0844C95.6444 85.6553 95.1359 85.0636 94.7751 84.2947L93.8698 84.7195C94.3044 85.6457 94.9323 86.3845 95.7534 86.9213L96.3006 86.0844ZM94.7751 84.2947C94.4132 83.5236 94.2259 82.6298 94.2259 81.6023H93.2259C93.2259 82.7528 93.4362 83.7955 93.8698 84.7195L94.7751 84.2947ZM94.2259 81.6023C94.2259 80.556 94.4179 79.6545 94.7873 78.8856L93.886 78.4525C93.441 79.3786 93.2259 80.4326 93.2259 81.6023H94.2259ZM94.7868 78.8866C95.1624 78.1095 95.6769 77.5167 96.3284 77.0922L95.7824 76.2544C94.9661 76.7863 94.3347 77.524 93.8865 78.4514L94.7868 78.8866ZM96.329 77.0918C96.9771 76.6681 97.7413 76.4489 98.6406 76.4489V75.4489C97.5703 75.4489 96.611 75.7126 95.7818 76.2548L96.329 77.0918ZM98.6406 76.4489C99.3449 76.4489 99.9633 76.579 100.505 76.829L100.924 75.921C100.235 75.6029 99.4705 75.4489 98.6406 75.4489V76.4489ZM100.505 76.829C101.051 77.081 101.49 77.429 101.831 77.8729L102.624 77.2635C102.179 76.6847 101.609 76.2372 100.924 75.921L100.505 76.829ZM101.831 77.8729C102.167 78.3109 102.38 78.8248 102.464 79.4267L103.454 79.2892C103.348 78.5275 103.073 77.8482 102.624 77.2635L101.831 77.8729ZM102.959 78.858H101.283V79.858H102.959V78.858ZM101.767 79.2334C101.611 78.6252 101.265 78.1004 100.759 77.6599L100.102 78.414C100.477 78.7405 100.699 79.0964 100.798 79.4825L101.767 79.2334ZM100.763 77.6637C100.214 77.1738 99.4966 76.9545 98.669 76.9545V77.9545C99.3187 77.9545 99.7761 78.1235 100.098 78.4102L100.763 77.6637ZM98.669 76.9545C97.9236 76.9545 97.2494 77.1507 96.6657 77.5548L97.2349 78.377C97.6361 78.0993 98.1076 77.9545 98.669 77.9545V76.9545ZM96.6665 77.5542C96.0932 77.9494 95.657 78.5022 95.3502 79.1897L96.2634 79.5972C96.5059 79.0537 96.832 78.6547 97.2341 78.3776L96.6665 77.5542ZM95.3495 79.1914C95.0457 79.8789 94.902 80.6678 94.902 81.5455H95.902C95.902 80.7754 96.0282 80.1296 96.2642 79.5955L95.3495 79.1914ZM94.902 81.5455C94.902 82.4397 95.0426 83.2427 95.3394 83.9424L96.26 83.5519C96.0266 83.0016 95.902 82.3369 95.902 81.5455H94.902ZM95.3407 83.9454C95.6418 84.6426 96.0745 85.2054 96.647 85.6111L97.2252 84.7952C96.8222 84.5096 96.4974 84.1017 96.2587 83.5489L95.3407 83.9454ZM96.6488 85.6124C97.2339 86.0231 97.9143 86.2216 98.669 86.2216V85.2216C98.098 85.2216 97.6231 85.0745 97.2233 84.7939L96.6488 85.6124ZM98.669 86.2216C99.1634 86.2216 99.6267 86.1354 100.051 85.9542L99.6589 85.0344C99.3733 85.1563 99.0458 85.2216 98.669 85.2216V86.2216ZM100.051 85.9542C100.474 85.7737 100.838 85.5114 101.135 85.1684L100.379 84.5134C100.184 84.7386 99.9461 84.9119 99.6589 85.0344L100.051 85.9542ZM101.135 85.1684C101.436 84.8211 101.645 84.4097 101.766 83.9449L100.799 83.6915C100.712 84.0221 100.571 84.2926 100.379 84.5134L101.135 85.1684ZM101.283 84.3182H102.959V83.3182H101.283V84.3182ZM102.464 83.7454C102.381 84.3114 102.177 84.8154 101.851 85.2648L102.661 85.8517C103.083 85.2689 103.347 84.6128 103.453 83.8909L102.464 83.7454ZM101.85 85.2655C101.532 85.7058 101.107 86.062 100.563 86.3319L101.008 87.2277C101.685 86.8916 102.24 86.4334 102.661 85.851L101.85 85.2655ZM100.565 86.3312C100.039 86.5898 99.4119 86.7273 98.669 86.7273V87.7273C99.536 87.7273 100.32 87.5664 101.006 87.2284L100.565 86.3312ZM107.085 72.4545H107.585V71.9545H107.085V72.4545ZM107.085 87V87.5H107.585V87H107.085ZM105.409 87H104.909V87.5H105.409V87ZM105.409 72.4545V71.9545H104.909V72.4545H105.409ZM106.585 72.4545V87H107.585V72.4545H106.585ZM107.085 86.5H105.409V87.5H107.085V86.5ZM105.909 87V72.4545H104.909V87H105.909ZM105.409 72.9545H107.085V71.9545H105.409V72.9545ZM111.995 86.5241L111.727 86.9463L111.728 86.9471L111.995 86.5241ZM110.262 84.5568L109.812 84.7764L109.814 84.7784L110.262 84.5568ZM110.262 78.6264L109.813 78.4058L109.812 78.4079L110.262 78.6264ZM111.995 76.652L111.728 76.2291L111.727 76.2298L111.995 76.652ZM117.172 76.652L116.904 77.0742L116.906 77.0749L117.172 76.652ZM118.905 78.6264L118.455 78.845L118.456 78.847L118.905 78.6264ZM118.905 84.5568L118.457 84.3352L118.456 84.3373L118.905 84.5568ZM117.172 86.5241L116.906 86.1012L116.904 86.102L117.172 86.5241ZM116.434 85.1463L116.123 84.7548L116.123 84.7548L116.434 85.1463ZM117.506 83.6335L117.975 83.8075L117.975 83.8075L117.506 83.6335ZM117.506 79.5639L117.975 79.3911L117.975 79.3911L117.506 79.5639ZM116.434 78.0369L116.747 77.6472L116.747 77.6472L116.434 78.0369ZM112.74 78.0369L112.427 77.6472L112.427 77.6472L112.74 78.0369ZM111.668 79.5639L111.199 79.3911L111.199 79.3911L111.668 79.5639ZM111.668 83.6335L111.199 83.8075L111.199 83.8075L111.668 83.6335ZM112.74 85.1463L113.051 84.7548L113.051 84.7548L112.74 85.1463ZM114.587 86.7273C113.685 86.7273 112.916 86.5137 112.261 86.1012L111.728 86.9471C112.561 87.4721 113.519 87.7273 114.587 87.7273V86.7273ZM112.263 86.102C111.607 85.686 111.089 85.1023 110.71 84.3352L109.814 84.7784C110.268 85.697 110.905 86.4248 111.727 86.9463L112.263 86.102ZM110.711 84.3373C110.338 83.5752 110.144 82.6682 110.144 81.6023H109.144C109.144 82.7901 109.361 83.8528 109.813 84.7764L110.711 84.3373ZM110.144 81.6023C110.144 80.5263 110.339 79.6118 110.711 78.845L109.812 78.4079C109.361 79.3361 109.144 80.4056 109.144 81.6023H110.144ZM110.71 78.847C111.09 78.0752 111.608 77.4897 112.263 77.0742L111.727 76.2298C110.904 76.7518 110.267 77.4826 109.813 78.4058L110.71 78.847ZM112.261 77.0749C112.916 76.6624 113.685 76.4489 114.587 76.4489V75.4489C113.519 75.4489 112.561 75.704 111.728 76.2291L112.261 77.0749ZM114.587 76.4489C115.489 76.4489 116.256 76.6624 116.904 77.0742L117.44 76.2298C116.612 75.704 115.654 75.4489 114.587 75.4489V76.4489ZM116.906 77.0749C117.564 77.4903 118.081 78.075 118.455 78.845L119.355 78.4079C118.905 77.4828 118.267 76.7511 117.439 76.2291L116.906 77.0749ZM118.456 78.847C118.833 79.6133 119.03 80.527 119.03 81.6023H120.03C120.03 80.4048 119.81 79.3346 119.354 78.4058L118.456 78.847ZM119.03 81.6023C119.03 82.6674 118.833 83.5737 118.457 84.3352L119.353 84.7784C119.81 83.8543 120.03 82.7909 120.03 81.6023H119.03ZM118.456 84.3373C118.082 85.1025 117.565 85.6854 116.906 86.1012L117.439 86.9471C118.266 86.4254 118.905 85.6967 119.354 84.7764L118.456 84.3373ZM116.904 86.102C116.256 86.5137 115.489 86.7273 114.587 86.7273V87.7273C115.654 87.7273 116.612 87.4721 117.44 86.9463L116.904 86.102ZM114.587 86.2216C115.423 86.2216 116.155 86.0056 116.745 85.5379L116.123 84.7548C115.746 85.054 115.247 85.2216 114.587 85.2216V86.2216ZM116.745 85.5379C117.305 85.093 117.714 84.5109 117.975 83.8075L117.037 83.4595C116.834 84.0061 116.528 84.4326 116.123 84.7548L116.745 85.5379ZM117.975 83.8075C118.229 83.1219 118.354 82.3853 118.354 81.6023H117.354C117.354 82.2776 117.247 82.8952 117.037 83.4595L117.975 83.8075ZM118.354 81.6023C118.354 80.8192 118.229 80.0808 117.975 79.3911L117.037 79.7368C117.247 80.3066 117.354 80.927 117.354 81.6023H118.354ZM117.975 79.3911C117.715 78.6836 117.306 78.097 116.747 77.6472L116.12 78.4266C116.527 78.7534 116.834 79.1848 117.037 79.7368L117.975 79.3911ZM116.747 77.6472C116.158 77.1736 115.425 76.9545 114.587 76.9545V77.9545C115.246 77.9545 115.744 78.1237 116.12 78.4266L116.747 77.6472ZM114.587 76.9545C113.749 76.9545 113.016 77.1736 112.427 77.6472L113.054 78.4266C113.43 78.1237 113.928 77.9545 114.587 77.9545V76.9545ZM112.427 77.6472C111.868 78.097 111.459 78.6836 111.199 79.3911L112.137 79.7368C112.34 79.1848 112.647 78.7534 113.054 78.4266L112.427 77.6472ZM111.199 79.3911C110.945 80.0808 110.82 80.8192 110.82 81.6023H111.82C111.82 80.927 111.927 80.3066 112.137 79.7368L111.199 79.3911ZM110.82 81.6023C110.82 82.3853 110.945 83.1219 111.199 83.8075L112.137 83.4595C111.927 82.8952 111.82 82.2776 111.82 81.6023H110.82ZM111.199 83.8075C111.46 84.5109 111.869 85.093 112.429 85.5379L113.051 84.7548C112.646 84.4326 112.34 84.0061 112.137 83.4595L111.199 83.8075ZM112.429 85.5379C113.019 86.0056 113.751 86.2216 114.587 86.2216V85.2216C113.927 85.2216 113.428 85.054 113.051 84.7548L112.429 85.5379ZM123.879 86.5028L123.605 86.9213L123.605 86.9213L123.879 86.5028ZM122.188 78.669L121.738 78.4514L121.738 78.4525L122.188 78.669ZM123.907 76.6733L124.18 77.0922L124.181 77.0918L123.907 76.6733ZM130.079 77.5682L130.475 77.2635L130.475 77.2635L130.079 77.5682ZM130.81 79.358V79.858H131.385L131.306 79.2892L130.81 79.358ZM129.134 79.358L128.65 79.4825L128.747 79.858H129.134V79.358ZM128.282 78.0369L127.949 78.4102L127.954 78.414L128.282 78.0369ZM124.802 77.9659L125.086 78.3776L125.086 78.377L124.802 77.9659ZM123.658 79.3935L123.202 79.1897L123.201 79.1914L123.658 79.3935ZM123.651 83.7472L123.191 83.9424L123.192 83.9454L123.651 83.7472ZM124.788 85.2031L124.499 85.6111L124.5 85.6124L124.788 85.2031ZM127.707 85.4943L127.51 85.0344L127.51 85.0344L127.707 85.4943ZM128.609 84.8409L128.987 85.1684L128.987 85.1684L128.609 84.8409ZM129.134 83.8182V83.3182H128.748L128.651 83.6915L129.134 83.8182ZM130.81 83.8182L131.305 83.8909L131.389 83.3182H130.81V83.8182ZM130.107 85.5582L129.702 85.2648L129.702 85.2655L130.107 85.5582ZM128.637 86.7798L128.858 87.2284L128.859 87.2277L128.637 86.7798ZM126.521 86.7273C125.579 86.7273 124.797 86.5061 124.152 86.0844L123.605 86.9213C124.437 87.4655 125.416 87.7273 126.521 87.7273V86.7273ZM124.152 86.0844C123.496 85.6553 122.987 85.0636 122.627 84.2947L121.721 84.7195C122.156 85.6457 122.784 86.3845 123.605 86.9213L124.152 86.0844ZM122.627 84.2947C122.265 83.5236 122.077 82.6298 122.077 81.6023H121.077C121.077 82.7528 121.288 83.7955 121.721 84.7195L122.627 84.2947ZM122.077 81.6023C122.077 80.556 122.269 79.6545 122.639 78.8856L121.738 78.4525C121.293 79.3786 121.077 80.4326 121.077 81.6023H122.077ZM122.638 78.8866C123.014 78.1095 123.528 77.5167 124.18 77.0922L123.634 76.2544C122.818 76.7863 122.186 77.524 121.738 78.4514L122.638 78.8866ZM124.181 77.0918C124.829 76.6681 125.593 76.4489 126.492 76.4489V75.4489C125.422 75.4489 124.463 75.7126 123.633 76.2548L124.181 77.0918ZM126.492 76.4489C127.196 76.4489 127.815 76.579 128.357 76.829L128.776 75.921C128.086 75.6029 127.322 75.4489 126.492 75.4489V76.4489ZM128.357 76.829C128.902 77.081 129.341 77.429 129.682 77.8729L130.475 77.2635C130.03 76.6847 129.461 76.2372 128.776 75.921L128.357 76.829ZM129.682 77.8729C130.019 78.3109 130.232 78.8248 130.315 79.4267L131.306 79.2892C131.2 78.5275 130.925 77.8482 130.475 77.2635L129.682 77.8729ZM130.81 78.858H129.134V79.858H130.81V78.858ZM129.618 79.2334C129.462 78.6252 129.116 78.1004 128.61 77.6599L127.954 78.414C128.328 78.7405 128.551 79.0964 128.65 79.4825L129.618 79.2334ZM128.615 77.6637C128.065 77.1738 127.348 76.9545 126.521 76.9545V77.9545C127.17 77.9545 127.628 78.1235 127.949 78.4102L128.615 77.6637ZM126.521 76.9545C125.775 76.9545 125.101 77.1507 124.517 77.5548L125.086 78.377C125.488 78.0993 125.959 77.9545 126.521 77.9545V76.9545ZM124.518 77.5542C123.945 77.9494 123.509 78.5022 123.202 79.1897L124.115 79.5972C124.357 79.0537 124.684 78.6547 125.086 78.3776L124.518 77.5542ZM123.201 79.1914C122.897 79.8789 122.754 80.6678 122.754 81.5455H123.754C123.754 80.7754 123.88 80.1296 124.116 79.5955L123.201 79.1914ZM122.754 81.5455C122.754 82.4397 122.894 83.2427 123.191 83.9424L124.112 83.5519C123.878 83.0016 123.754 82.3369 123.754 81.5455H122.754ZM123.192 83.9454C123.493 84.6426 123.926 85.2054 124.499 85.6111L125.077 84.7952C124.674 84.5096 124.349 84.1017 124.11 83.5489L123.192 83.9454ZM124.5 85.6124C125.085 86.0231 125.766 86.2216 126.521 86.2216V85.2216C125.95 85.2216 125.475 85.0745 125.075 84.7939L124.5 85.6124ZM126.521 86.2216C127.015 86.2216 127.478 86.1354 127.903 85.9542L127.51 85.0344C127.225 85.1563 126.897 85.2216 126.521 85.2216V86.2216ZM127.903 85.9542C128.326 85.7737 128.689 85.5114 128.987 85.1684L128.231 84.5134C128.036 84.7386 127.798 84.9119 127.51 85.0344L127.903 85.9542ZM128.987 85.1684C129.287 84.8211 129.496 84.4097 129.618 83.9449L128.651 83.6915C128.564 84.0221 128.422 84.2926 128.231 84.5134L128.987 85.1684ZM129.134 84.3182H130.81V83.3182H129.134V84.3182ZM130.316 83.7454C130.232 84.3114 130.028 84.8154 129.702 85.2648L130.512 85.8517C130.934 85.2689 131.199 84.6128 131.305 83.8909L130.316 83.7454ZM129.702 85.2655C129.384 85.7058 128.959 86.062 128.415 86.3319L128.859 87.2277C129.537 86.8916 130.092 86.4334 130.513 85.851L129.702 85.2655ZM128.416 86.3312C127.891 86.5898 127.263 86.7273 126.521 86.7273V87.7273C127.388 87.7273 128.171 87.5664 128.858 87.2284L128.416 86.3312ZM134.823 83.0227L134.323 83.0296L134.339 84.1533L135.163 83.3895L134.823 83.0227ZM134.795 80.9489V80.4489H134.288L134.295 80.9557L134.795 80.9489ZM135.136 80.9489V81.4489H135.345L135.492 81.2993L135.136 80.9489ZM139.908 76.0909V75.5909H139.699L139.552 75.7405L139.908 76.0909ZM141.982 76.0909L142.338 76.4425L143.18 75.5909H141.982V76.0909ZM136.897 81.233V81.733H137.106L137.253 81.5845L136.897 81.233ZM136.755 81.233V80.733H136.559L136.415 80.8662L136.755 81.233ZM133.261 87H132.761V87.5H133.261V87ZM133.261 72.4545V71.9545H132.761V72.4545H133.261ZM134.937 72.4545H135.437V71.9545H134.937V72.4545ZM134.937 87V87.5H135.437V87H134.937ZM140.192 87L139.8 87.3098L139.95 87.5H140.192V87ZM135.931 81.6023L135.582 81.2445L135.26 81.5589L135.539 81.9121L135.931 81.6023ZM137.124 80.4375L137.516 80.127L137.172 79.6923L136.775 80.0797L137.124 80.4375ZM142.323 87V87.5H143.357L142.715 86.6895L142.323 87ZM135.323 83.0159L135.295 80.942L134.295 80.9557L134.323 83.0296L135.323 83.0159ZM134.795 81.4489H135.136V80.4489H134.795V81.4489ZM135.492 81.2993L140.265 76.4413L139.552 75.7405L134.779 80.5985L135.492 81.2993ZM139.908 76.5909H141.982V75.5909H139.908V76.5909ZM141.627 75.7393L136.542 80.8814L137.253 81.5845L142.338 76.4425L141.627 75.7393ZM136.897 80.733H136.755V81.733H136.897V80.733ZM136.415 80.8662L134.483 82.6559L135.163 83.3895L137.095 81.5997L136.415 80.8662ZM133.761 87V72.4545H132.761V87H133.761ZM133.261 72.9545H134.937V71.9545H133.261V72.9545ZM134.437 72.4545V87H135.437V72.4545H134.437ZM134.937 86.5H133.261V87.5H134.937V86.5ZM140.585 86.6902L136.324 81.2925L135.539 81.9121L139.8 87.3098L140.585 86.6902ZM136.28 81.9601L137.474 80.7953L136.775 80.0797L135.582 81.2445L136.28 81.9601ZM136.732 80.748L141.931 87.3105L142.715 86.6895L137.516 80.127L136.732 80.748ZM142.323 86.5H140.192V87.5H142.323V86.5Z" fill="black"/>
</svg>
