<svg width="160" height="160" viewBox="0 0 160 160" fill="none" xmlns="http://www.w3.org/2000/svg">
<rect width="160" height="160" fill="#D9D9D9"/>
<path d="M22.7727 77H21.3636C21.2803 76.5947 21.1345 76.2386 20.9261 75.9318C20.7216 75.625 20.4716 75.3674 20.1761 75.1591C19.8845 74.947 19.5606 74.7879 19.2045 74.6818C18.8485 74.5758 18.4773 74.5227 18.0909 74.5227C17.3864 74.5227 16.7481 74.7008 16.1761 75.0568C15.608 75.4129 15.1553 75.9375 14.8182 76.6307C14.4848 77.3239 14.3182 78.1742 14.3182 79.1818C14.3182 80.1894 14.4848 81.0398 14.8182 81.733C15.1553 82.4261 15.608 82.9508 16.1761 83.3068C16.7481 83.6629 17.3864 83.8409 18.0909 83.8409C18.4773 83.8409 18.8485 83.7879 19.2045 83.6818C19.5606 83.5758 19.8845 83.4186 20.1761 83.2102C20.4716 82.9981 20.7216 82.7386 20.9261 82.4318C21.1345 82.1212 21.2803 81.7652 21.3636 81.3636H22.7727C22.6667 81.9583 22.4735 82.4905 22.1932 82.9602C21.9129 83.4299 21.5644 83.8295 21.1477 84.1591C20.7311 84.4848 20.2633 84.733 19.7443 84.9034C19.2292 85.0739 18.678 85.1591 18.0909 85.1591C17.0985 85.1591 16.2159 84.9167 15.4432 84.4318C14.6705 83.947 14.0625 83.2576 13.6193 82.3636C13.1761 81.4697 12.9545 80.4091 12.9545 79.1818C12.9545 77.9545 13.1761 76.8939 13.6193 76C14.0625 75.1061 14.6705 74.4167 15.4432 73.9318C16.2159 73.447 17.0985 73.2045 18.0909 73.2045C18.678 73.2045 19.2292 73.2898 19.7443 73.4602C20.2633 73.6307 20.7311 73.8807 21.1477 74.2102C21.5644 74.536 21.9129 74.9337 22.1932 75.4034C22.4735 75.8693 22.6667 76.4015 22.7727 77ZM28.4134 85.1818C27.6255 85.1818 26.9342 84.9943 26.3395 84.6193C25.7486 84.2443 25.2865 83.7197 24.9531 83.0455C24.6236 82.3712 24.4588 81.5833 24.4588 80.6818C24.4588 79.7727 24.6236 78.9792 24.9531 78.3011C25.2865 77.6231 25.7486 77.0966 26.3395 76.7216C26.9342 76.3466 27.6255 76.1591 28.4134 76.1591C29.2012 76.1591 29.8906 76.3466 30.4815 76.7216C31.0762 77.0966 31.5384 77.6231 31.8679 78.3011C32.2012 78.9792 32.3679 79.7727 32.3679 80.6818C32.3679 81.5833 32.2012 82.3712 31.8679 83.0455C31.5384 83.7197 31.0762 84.2443 30.4815 84.6193C29.8906 84.9943 29.2012 85.1818 28.4134 85.1818ZM28.4134 83.9773C29.0118 83.9773 29.5043 83.8239 29.8906 83.517C30.277 83.2102 30.563 82.8068 30.7486 82.3068C30.9342 81.8068 31.027 81.2652 31.027 80.6818C31.027 80.0985 30.9342 79.5549 30.7486 79.0511C30.563 78.5473 30.277 78.1402 29.8906 77.8295C29.5043 77.5189 29.0118 77.3636 28.4134 77.3636C27.8149 77.3636 27.3224 77.5189 26.9361 77.8295C26.5497 78.1402 26.2637 78.5473 26.0781 79.0511C25.8925 79.5549 25.7997 80.0985 25.7997 80.6818C25.7997 81.2652 25.8925 81.8068 26.0781 82.3068C26.2637 82.8068 26.5497 83.2102 26.9361 83.517C27.3224 83.8239 27.8149 83.9773 28.4134 83.9773ZM39.9148 81.4318V76.2727H41.2557V85H39.9148V83.5227H39.8239C39.6193 83.9659 39.3011 84.3428 38.8693 84.6534C38.4375 84.9602 37.892 85.1136 37.233 85.1136C36.6875 85.1136 36.2027 84.9943 35.7784 84.7557C35.3542 84.5133 35.0208 84.1496 34.7784 83.6648C34.536 83.1761 34.4148 82.5606 34.4148 81.8182V76.2727H35.7557V81.7273C35.7557 82.3636 35.9337 82.8712 36.2898 83.25C36.6496 83.6288 37.108 83.8182 37.6648 83.8182C37.9981 83.8182 38.3371 83.733 38.6818 83.5625C39.0303 83.392 39.322 83.1307 39.5568 82.7784C39.7955 82.4261 39.9148 81.9773 39.9148 81.4318ZM45.0526 79.75V85H43.7116V76.2727H45.0071V77.6364H45.1207C45.3253 77.1932 45.6359 76.8371 46.0526 76.5682C46.4692 76.2955 47.0071 76.1591 47.6662 76.1591C48.2571 76.1591 48.7741 76.2803 49.2173 76.5227C49.6605 76.7614 50.0052 77.125 50.2514 77.6136C50.4976 78.0985 50.6207 78.7121 50.6207 79.4545V85H49.2798V79.5455C49.2798 78.8598 49.1018 78.3258 48.7457 77.9432C48.3897 77.5568 47.901 77.3636 47.2798 77.3636C46.8518 77.3636 46.4692 77.4564 46.1321 77.642C45.7988 77.8277 45.5355 78.0985 45.3423 78.4545C45.1491 78.8106 45.0526 79.2424 45.0526 79.75ZM56.8665 76.2727V77.4091H52.3438V76.2727H56.8665ZM53.6619 74.1818H55.0028V82.5C55.0028 82.8788 55.0578 83.1629 55.1676 83.3523C55.2813 83.5379 55.4252 83.6629 55.5994 83.7273C55.7775 83.7879 55.965 83.8182 56.1619 83.8182C56.3097 83.8182 56.4309 83.8106 56.5256 83.7955C56.6203 83.7765 56.696 83.7614 56.7528 83.75L57.0256 84.9545C56.9347 84.9886 56.8078 85.0227 56.6449 85.0568C56.482 85.0947 56.2756 85.1136 56.0256 85.1136C55.6468 85.1136 55.2756 85.0322 54.9119 84.8693C54.5521 84.7064 54.2528 84.4583 54.0142 84.125C53.7794 83.7917 53.6619 83.3712 53.6619 82.8636V74.1818ZM62.4489 85.1818C61.608 85.1818 60.8826 84.9962 60.2727 84.625C59.6667 84.25 59.1989 83.7273 58.8693 83.0568C58.5436 82.3826 58.3807 81.5985 58.3807 80.7045C58.3807 79.8106 58.5436 79.0227 58.8693 78.3409C59.1989 77.6553 59.6572 77.1212 60.2443 76.7386C60.8352 76.3523 61.5246 76.1591 62.3125 76.1591C62.767 76.1591 63.2159 76.2348 63.6591 76.3864C64.1023 76.5379 64.5057 76.7841 64.8693 77.125C65.233 77.4621 65.5227 77.9091 65.7386 78.4659C65.9545 79.0227 66.0625 79.7083 66.0625 80.5227V81.0909H59.3352V79.9318H64.6989C64.6989 79.4394 64.6004 79 64.4034 78.6136C64.2102 78.2273 63.9337 77.9223 63.5739 77.6989C63.2178 77.4754 62.7973 77.3636 62.3125 77.3636C61.7784 77.3636 61.3163 77.4962 60.9261 77.7614C60.5398 78.0227 60.2424 78.3636 60.0341 78.7841C59.8258 79.2045 59.7216 79.6553 59.7216 80.1364V80.9091C59.7216 81.5682 59.8352 82.1269 60.0625 82.5852C60.2936 83.0398 60.6136 83.3864 61.0227 83.625C61.4318 83.8598 61.9072 83.9773 62.4489 83.9773C62.8011 83.9773 63.1193 83.928 63.4034 83.8295C63.6913 83.7273 63.9394 83.5758 64.1477 83.375C64.3561 83.1705 64.517 82.9167 64.6307 82.6136L65.9261 82.9773C65.7898 83.4167 65.5606 83.803 65.2386 84.1364C64.9167 84.4659 64.5189 84.7235 64.0455 84.9091C63.572 85.0909 63.0398 85.1818 62.4489 85.1818ZM68.1023 85V76.2727H69.3977V77.5909H69.4886C69.6477 77.1591 69.9356 76.8087 70.3523 76.5398C70.7689 76.2708 71.2386 76.1364 71.7614 76.1364C71.8598 76.1364 71.983 76.1383 72.1307 76.142C72.2784 76.1458 72.3902 76.1515 72.4659 76.1591V77.5227C72.4205 77.5114 72.3163 77.4943 72.1534 77.4716C71.9943 77.4451 71.8258 77.4318 71.6477 77.4318C71.2235 77.4318 70.8447 77.5208 70.5114 77.6989C70.1818 77.8731 69.9205 78.1155 69.7273 78.4261C69.5379 78.733 69.4432 79.0833 69.4432 79.4773V85H68.1023ZM77.3352 85.1818C76.517 85.1818 75.8125 84.9886 75.2216 84.6023C74.6307 84.2159 74.1761 83.6837 73.858 83.0057C73.5398 82.3277 73.3807 81.553 73.3807 80.6818C73.3807 79.7955 73.5436 79.0133 73.8693 78.3352C74.1989 77.6534 74.6572 77.1212 75.2443 76.7386C75.8352 76.3523 76.5246 76.1591 77.3125 76.1591C77.9261 76.1591 78.4792 76.2727 78.9716 76.5C79.464 76.7273 79.8674 77.0455 80.1818 77.4545C80.4962 77.8636 80.6913 78.3409 80.767 78.8864H79.4261C79.3239 78.4886 79.0966 78.1364 78.7443 77.8295C78.3958 77.5189 77.9261 77.3636 77.3352 77.3636C76.8125 77.3636 76.3542 77.5 75.9602 77.7727C75.5701 78.0417 75.2652 78.4223 75.0455 78.9148C74.8295 79.4034 74.7216 79.9773 74.7216 80.6364C74.7216 81.3106 74.8277 81.8977 75.0398 82.3977C75.2557 82.8977 75.5587 83.286 75.9489 83.5625C76.3428 83.839 76.8049 83.9773 77.3352 83.9773C77.6837 83.9773 78 83.9167 78.2841 83.7955C78.5682 83.6742 78.8087 83.5 79.0057 83.2727C79.2027 83.0455 79.3428 82.7727 79.4261 82.4545H80.767C80.6913 82.9697 80.5038 83.4337 80.2045 83.8466C79.9091 84.2557 79.517 84.5814 79.0284 84.8239C78.5436 85.0625 77.9792 85.1818 77.3352 85.1818ZM84.0682 73.3636V85H82.7273V73.3636H84.0682ZM90.0696 85.1818C89.2817 85.1818 88.5904 84.9943 87.9957 84.6193C87.4048 84.2443 86.9427 83.7197 86.6094 83.0455C86.2798 82.3712 86.1151 81.5833 86.1151 80.6818C86.1151 79.7727 86.2798 78.9792 86.6094 78.3011C86.9427 77.6231 87.4048 77.0966 87.9957 76.7216C88.5904 76.3466 89.2817 76.1591 90.0696 76.1591C90.8575 76.1591 91.5469 76.3466 92.1378 76.7216C92.7325 77.0966 93.1946 77.6231 93.5241 78.3011C93.8575 78.9792 94.0241 79.7727 94.0241 80.6818C94.0241 81.5833 93.8575 82.3712 93.5241 83.0455C93.1946 83.7197 92.7325 84.2443 92.1378 84.6193C91.5469 84.9943 90.8575 85.1818 90.0696 85.1818ZM90.0696 83.9773C90.6681 83.9773 91.1605 83.8239 91.5469 83.517C91.9332 83.2102 92.2192 82.8068 92.4048 82.3068C92.5904 81.8068 92.6832 81.2652 92.6832 80.6818C92.6832 80.0985 92.5904 79.5549 92.4048 79.0511C92.2192 78.5473 91.9332 78.1402 91.5469 77.8295C91.1605 77.5189 90.6681 77.3636 90.0696 77.3636C89.4711 77.3636 88.9787 77.5189 88.5923 77.8295C88.206 78.1402 87.92 78.5473 87.7344 79.0511C87.5488 79.5549 87.456 80.0985 87.456 80.6818C87.456 81.2652 87.5488 81.8068 87.7344 82.3068C87.92 82.8068 88.206 83.2102 88.5923 83.517C88.9787 83.8239 89.4711 83.9773 90.0696 83.9773ZM99.6165 85.1818C98.7983 85.1818 98.0938 84.9886 97.5028 84.6023C96.9119 84.2159 96.4574 83.6837 96.1392 83.0057C95.821 82.3277 95.6619 81.553 95.6619 80.6818C95.6619 79.7955 95.8248 79.0133 96.1506 78.3352C96.4801 77.6534 96.9384 77.1212 97.5256 76.7386C98.1165 76.3523 98.8059 76.1591 99.5938 76.1591C100.207 76.1591 100.76 76.2727 101.253 76.5C101.745 76.7273 102.149 77.0455 102.463 77.4545C102.777 77.8636 102.973 78.3409 103.048 78.8864H101.707C101.605 78.4886 101.378 78.1364 101.026 77.8295C100.677 77.5189 100.207 77.3636 99.6165 77.3636C99.0938 77.3636 98.6354 77.5 98.2415 77.7727C97.8513 78.0417 97.5464 78.4223 97.3267 78.9148C97.1108 79.4034 97.0028 79.9773 97.0028 80.6364C97.0028 81.3106 97.1089 81.8977 97.321 82.3977C97.5369 82.8977 97.84 83.286 98.2301 83.5625C98.6241 83.839 99.0862 83.9773 99.6165 83.9773C99.965 83.9773 100.281 83.9167 100.565 83.7955C100.849 83.6742 101.09 83.5 101.287 83.2727C101.484 83.0455 101.624 82.7727 101.707 82.4545H103.048C102.973 82.9697 102.785 83.4337 102.486 83.8466C102.19 84.2557 101.798 84.5814 101.31 84.8239C100.825 85.0625 100.26 85.1818 99.6165 85.1818ZM106.259 81.8182L106.236 80.1591H106.509L110.327 76.2727H111.986L107.918 80.3864H107.804L106.259 81.8182ZM105.009 85V73.3636H106.349V85H105.009ZM110.554 85L107.145 80.6818L108.099 79.75L112.259 85H110.554ZM115.689 85L113.03 76.2727H114.439L116.325 82.9545H116.416L118.28 76.2727H119.712L121.553 82.9318H121.643L123.53 76.2727H124.939L122.28 85H120.962L119.053 78.2955H118.916L117.007 85H115.689ZM126.712 85V76.2727H128.053V85H126.712ZM127.393 74.8182C127.132 74.8182 126.907 74.7292 126.717 74.5511C126.532 74.3731 126.439 74.1591 126.439 73.9091C126.439 73.6591 126.532 73.4451 126.717 73.267C126.907 73.089 127.132 73 127.393 73C127.655 73 127.878 73.089 128.064 73.267C128.253 73.4451 128.348 73.6591 128.348 73.9091C128.348 74.1591 128.253 74.3731 128.064 74.5511C127.878 74.7292 127.655 74.8182 127.393 74.8182ZM136.69 78.2273L135.486 78.5682C135.41 78.3674 135.298 78.1723 135.151 77.983C135.007 77.7898 134.81 77.6307 134.56 77.5057C134.31 77.3807 133.99 77.3182 133.599 77.3182C133.065 77.3182 132.62 77.4413 132.264 77.6875C131.912 77.9299 131.736 78.2386 131.736 78.6136C131.736 78.947 131.857 79.2102 132.099 79.4034C132.342 79.5966 132.721 79.7576 133.236 79.8864L134.531 80.2045C135.312 80.3939 135.893 80.6837 136.276 81.0739C136.658 81.4602 136.849 81.9583 136.849 82.5682C136.849 83.0682 136.705 83.5152 136.418 83.9091C136.134 84.303 135.736 84.6136 135.224 84.8409C134.713 85.0682 134.118 85.1818 133.44 85.1818C132.55 85.1818 131.813 84.9886 131.23 84.6023C130.647 84.2159 130.277 83.6515 130.122 82.9091L131.395 82.5909C131.516 83.0606 131.745 83.4129 132.082 83.6477C132.423 83.8826 132.868 84 133.418 84C134.043 84 134.539 83.8674 134.906 83.6023C135.277 83.3333 135.463 83.0114 135.463 82.6364C135.463 82.3333 135.357 82.0795 135.145 81.875C134.933 81.6667 134.607 81.5114 134.168 81.4091L132.713 81.0682C131.914 80.8788 131.327 80.5852 130.952 80.1875C130.58 79.786 130.395 79.2841 130.395 78.6818C130.395 78.1894 130.533 77.7538 130.81 77.375C131.09 76.9962 131.471 76.6989 131.952 76.483C132.437 76.267 132.986 76.1591 133.599 76.1591C134.463 76.1591 135.141 76.3485 135.634 76.7273C136.13 77.1061 136.482 77.6061 136.69 78.2273ZM142.527 85.1818C141.686 85.1818 140.961 84.9962 140.351 84.625C139.745 84.25 139.277 83.7273 138.947 83.0568C138.622 82.3826 138.459 81.5985 138.459 80.7045C138.459 79.8106 138.622 79.0227 138.947 78.3409C139.277 77.6553 139.735 77.1212 140.322 76.7386C140.913 76.3523 141.603 76.1591 142.391 76.1591C142.845 76.1591 143.294 76.2348 143.737 76.3864C144.18 76.5379 144.584 76.7841 144.947 77.125C145.311 77.4621 145.601 77.9091 145.817 78.4659C146.033 79.0227 146.141 79.7083 146.141 80.5227V81.0909H139.413V79.9318H144.777C144.777 79.4394 144.679 79 144.482 78.6136C144.288 78.2273 144.012 77.9223 143.652 77.6989C143.296 77.4754 142.875 77.3636 142.391 77.3636C141.857 77.3636 141.394 77.4962 141.004 77.7614C140.618 78.0227 140.321 78.3636 140.112 78.7841C139.904 79.2045 139.8 79.6553 139.8 80.1364V80.9091C139.8 81.5682 139.913 82.1269 140.141 82.5852C140.372 83.0398 140.692 83.3864 141.101 83.625C141.51 83.8598 141.985 83.9773 142.527 83.9773C142.879 83.9773 143.197 83.928 143.482 83.8295C143.769 83.7273 144.018 83.5758 144.226 83.375C144.434 83.1705 144.595 82.9167 144.709 82.6136L146.004 82.9773C145.868 83.4167 145.639 83.803 145.317 84.1364C144.995 84.4659 144.597 84.7235 144.124 84.9091C143.65 85.0909 143.118 85.1818 142.527 85.1818Z" fill="black"/>
<path d="M22.7727 77V77.5H23.3691L23.2651 76.9128L22.7727 77ZM21.3636 77L20.8739 77.1007L20.956 77.5H21.3636V77ZM20.9261 75.9318L20.5101 76.2092L20.5125 76.2127L20.9261 75.9318ZM20.1761 75.1591L19.882 75.5635L19.888 75.5677L20.1761 75.1591ZM19.2045 74.6818L19.0618 75.161L19.0618 75.161L19.2045 74.6818ZM16.1761 75.0568L15.9119 74.6323L15.9106 74.6331L16.1761 75.0568ZM14.8182 76.6307L14.3685 76.412L14.3676 76.414L14.8182 76.6307ZM14.8182 81.733L14.3676 81.9496L14.3685 81.9516L14.8182 81.733ZM16.1761 83.3068L15.9106 83.7305L15.9119 83.7313L16.1761 83.3068ZM19.2045 83.6818L19.0618 83.2026L19.0618 83.2026L19.2045 83.6818ZM20.1761 83.2102L20.4668 83.6171L20.4677 83.6164L20.1761 83.2102ZM20.9261 82.4318L20.5109 82.1533L20.5101 82.1545L20.9261 82.4318ZM21.3636 81.3636V80.8636H20.9568L20.8741 81.262L21.3636 81.3636ZM22.7727 81.3636L23.265 81.4514L23.3698 80.8636H22.7727V81.3636ZM22.1932 82.9602L21.7638 82.704L21.7638 82.704L22.1932 82.9602ZM21.1477 84.1591L21.4557 84.553L21.4579 84.5513L21.1477 84.1591ZM19.7443 84.9034L19.5883 84.4284L19.5873 84.4287L19.7443 84.9034ZM15.4432 84.4318L15.1774 84.8554L15.1774 84.8554L15.4432 84.4318ZM13.6193 82.3636L14.0673 82.1415L14.0673 82.1415L13.6193 82.3636ZM13.6193 76L13.1713 75.7779L13.6193 76ZM19.7443 73.4602L19.5873 73.9349L19.5883 73.9353L19.7443 73.4602ZM21.1477 74.2102L20.8376 74.6024L20.8398 74.6041L21.1477 74.2102ZM22.1932 75.4034L21.7638 75.6596L21.7647 75.6612L22.1932 75.4034ZM22.7727 76.5H21.3636V77.5H22.7727V76.5ZM21.8534 76.8993C21.7583 76.437 21.5892 76.0182 21.3398 75.6509L20.5125 76.2127C20.6798 76.4591 20.8023 76.7524 20.8739 77.1007L21.8534 76.8993ZM21.3422 75.6545C21.1041 75.2974 20.8111 74.995 20.4643 74.7505L19.888 75.5677C20.1321 75.7398 20.339 75.9526 20.5101 76.2092L21.3422 75.6545ZM20.4702 74.7547C20.1313 74.5083 19.756 74.3244 19.3473 74.2026L19.0618 75.161C19.3652 75.2514 19.6376 75.3857 19.8821 75.5635L20.4702 74.7547ZM19.3473 74.2026C18.9431 74.0822 18.5237 74.0227 18.0909 74.0227V75.0227C18.4309 75.0227 18.7539 75.0693 19.0618 75.161L19.3473 74.2026ZM18.0909 74.0227C17.2974 74.0227 16.5669 74.2246 15.9119 74.6323L16.4404 75.4813C16.9293 75.1769 17.4753 75.0227 18.0909 75.0227V74.0227ZM15.9106 74.6331C15.2518 75.046 14.7404 75.6475 14.3685 76.412L15.2678 76.8494C15.5702 76.2275 15.9641 75.7797 16.4416 75.4805L15.9106 74.6331ZM14.3676 76.414C13.9933 77.1924 13.8182 78.1215 13.8182 79.1818H14.8182C14.8182 78.227 14.9764 77.4554 15.2688 76.8474L14.3676 76.414ZM13.8182 79.1818C13.8182 80.2421 13.9933 81.1713 14.3676 81.9496L15.2688 81.5163C14.9764 80.9083 14.8182 80.1367 14.8182 79.1818H13.8182ZM14.3685 81.9516C14.7404 82.7162 15.2518 83.3176 15.9106 83.7305L16.4416 82.8831C15.9641 82.5839 15.5702 82.1361 15.2678 81.5143L14.3685 81.9516ZM15.9119 83.7313C16.5669 84.139 17.2974 84.3409 18.0909 84.3409V83.3409C17.4753 83.3409 16.9293 83.1867 16.4404 82.8823L15.9119 83.7313ZM18.0909 84.3409C18.5237 84.3409 18.9431 84.2814 19.3473 84.161L19.0618 83.2026C18.7539 83.2943 18.4309 83.3409 18.0909 83.3409V84.3409ZM19.3473 84.161C19.7543 84.0398 20.1285 83.8587 20.4668 83.6171L19.8855 82.8034C19.6404 82.9784 19.3669 83.1118 19.0618 83.2026L19.3473 84.161ZM20.4677 83.6164C20.8128 83.3687 21.1047 83.0654 21.3422 82.7092L20.5101 82.1545C20.3385 82.4119 20.1304 82.6275 19.8845 82.8041L20.4677 83.6164ZM21.3414 82.7103C21.589 82.3412 21.758 81.9239 21.8532 81.4652L20.8741 81.262C20.8026 81.6064 20.6799 81.9013 20.5109 82.1533L21.3414 82.7103ZM21.3636 81.8636H22.7727V80.8636H21.3636V81.8636ZM22.2805 81.2758C22.1839 81.8173 22.0101 82.2913 21.7638 82.704L22.6225 83.2165C22.9369 82.6897 23.1494 82.0994 23.265 81.4514L22.2805 81.2758ZM21.7638 82.704C21.5137 83.1231 21.2052 83.4762 20.8376 83.7669L21.4579 84.5513C21.9236 84.1829 22.312 83.7368 22.6225 83.2165L21.7638 82.704ZM20.8398 83.7652C20.4702 84.0542 20.0541 84.2754 19.5883 84.4284L19.9004 85.3784C20.4724 85.1905 20.992 84.9155 21.4557 84.553L20.8398 83.7652ZM19.5873 84.4287C19.1268 84.5811 18.629 84.6591 18.0909 84.6591V85.6591C18.727 85.6591 19.3316 85.5666 19.9014 85.3781L19.5873 84.4287ZM18.0909 84.6591C17.1839 84.6591 16.3951 84.4388 15.7089 84.0083L15.1774 84.8554C16.0368 85.3945 17.0131 85.6591 18.0909 85.6591V84.6591ZM15.7089 84.0083C15.0216 83.577 14.4735 82.9608 14.0673 82.1415L13.1713 82.5857C13.6515 83.5543 14.3193 84.3169 15.1774 84.8554L15.7089 84.0083ZM14.0673 82.1415C13.6653 81.3307 13.4545 80.3494 13.4545 79.1818H12.4545C12.4545 80.4687 12.687 81.6087 13.1713 82.5857L14.0673 82.1415ZM13.4545 79.1818C13.4545 78.0142 13.6653 77.0329 14.0673 76.2221L13.1713 75.7779C12.687 76.7549 12.4545 77.8949 12.4545 79.1818H13.4545ZM14.0673 76.2221C14.4735 75.4028 15.0216 74.7866 15.7089 74.3553L15.1774 73.5083C14.3193 74.0467 13.6515 74.8093 13.1713 75.7779L14.0673 76.2221ZM15.7089 74.3553C16.3951 73.9248 17.1839 73.7045 18.0909 73.7045V72.7045C17.0131 72.7045 16.0368 72.9691 15.1774 73.5083L15.7089 74.3553ZM18.0909 73.7045C18.629 73.7045 19.1268 73.7825 19.5873 73.9349L19.9014 72.9855C19.3316 72.797 18.727 72.7045 18.0909 72.7045V73.7045ZM19.5883 73.9353C20.053 74.0879 20.4683 74.3103 20.8376 74.6024L21.4579 73.8181C20.9938 73.451 20.4735 73.1735 19.9004 72.9852L19.5883 73.9353ZM20.8398 74.6041C21.2062 74.8906 21.514 75.2411 21.7638 75.6596L22.6225 75.1472C22.3117 74.6263 21.9226 74.1814 21.4557 73.8163L20.8398 74.6041ZM21.7647 75.6612C22.01 76.0688 22.1838 76.542 22.2804 77.0872L23.2651 76.9128C23.1496 76.2611 22.937 75.6698 22.6216 75.1456L21.7647 75.6612ZM26.3395 84.6193L26.0716 85.0415L26.0728 85.0423L26.3395 84.6193ZM24.9531 83.0455L24.5039 83.265L24.5049 83.267L24.9531 83.0455ZM24.9531 78.3011L24.5044 78.0805L24.5034 78.0826L24.9531 78.3011ZM26.3395 76.7216L26.0728 76.2987L26.0716 76.2994L26.3395 76.7216ZM30.4815 76.7216L30.2136 77.1438L30.2148 77.1445L30.4815 76.7216ZM31.8679 78.3011L31.4182 78.5197L31.4192 78.5217L31.8679 78.3011ZM31.8679 83.0455L31.4197 82.8239L31.4187 82.8259L31.8679 83.0455ZM30.4815 84.6193L30.2148 84.1964L30.2136 84.1972L30.4815 84.6193ZM29.8906 83.517L29.5797 83.1255L29.5797 83.1255L29.8906 83.517ZM30.7486 82.3068L31.2173 82.4808L31.2173 82.4808L30.7486 82.3068ZM30.7486 79.0511L31.2178 78.8783L31.2178 78.8783L30.7486 79.0511ZM29.8906 77.8295L30.2039 77.4399L30.2039 77.4399L29.8906 77.8295ZM26.9361 77.8295L26.6228 77.4399L26.6228 77.4399L26.9361 77.8295ZM26.0781 79.0511L25.609 78.8783L25.609 78.8783L26.0781 79.0511ZM26.0781 82.3068L25.6094 82.4808L25.6094 82.4808L26.0781 82.3068ZM26.9361 83.517L27.247 83.1255L27.247 83.1255L26.9361 83.517ZM28.4134 84.6818C27.7081 84.6818 27.1117 84.5151 26.6062 84.1964L26.0728 85.0423C26.7567 85.4735 27.5428 85.6818 28.4134 85.6818V84.6818ZM26.6074 84.1972C26.0996 83.8749 25.6972 83.4224 25.4013 82.8239L24.5049 83.267C24.8757 84.017 25.3975 84.6137 26.0716 85.0415L26.6074 84.1972ZM25.4023 82.8259C25.1123 82.2324 24.9588 81.5224 24.9588 80.6818H23.9588C23.9588 81.6443 24.1349 82.51 24.5039 83.265L25.4023 82.8259ZM24.9588 80.6818C24.9588 79.8331 25.1125 79.117 25.4028 78.5197L24.5034 78.0826C24.1347 78.8413 23.9588 79.7124 23.9588 80.6818H24.9588ZM25.4018 78.5217C25.6979 77.9194 26.1003 77.4656 26.6074 77.1438L26.0716 76.2994C25.3968 76.7276 24.875 77.3268 24.5044 78.0805L25.4018 78.5217ZM26.6062 77.1445C27.1117 76.8258 27.7081 76.6591 28.4134 76.6591V75.6591C27.5428 75.6591 26.7567 75.8674 26.0728 76.2987L26.6062 77.1445ZM28.4134 76.6591C29.1186 76.6591 29.7126 76.8258 30.2136 77.1438L30.7494 76.2994C30.0687 75.8674 29.2838 75.6591 28.4134 75.6591V76.6591ZM30.2148 77.1445C30.7249 77.4662 31.1263 77.9192 31.4182 78.5197L32.3176 78.0826C31.9504 77.327 31.4275 76.727 30.7482 76.2987L30.2148 77.1445ZM31.4192 78.5217C31.7126 79.1186 31.8679 79.8339 31.8679 80.6818H32.8679C32.8679 79.7116 32.6899 78.8398 32.3166 78.0805L31.4192 78.5217ZM31.8679 80.6818C31.8679 81.5216 31.7128 82.2309 31.4197 82.8239L32.3161 83.267C32.6896 82.5115 32.8679 81.6451 32.8679 80.6818H31.8679ZM31.4187 82.8259C31.127 83.4226 30.7257 83.8743 30.2148 84.1964L30.7482 85.0423C31.4268 84.6144 31.9497 84.0168 32.3171 83.265L31.4187 82.8259ZM30.2136 84.1972C29.7126 84.5151 29.1186 84.6818 28.4134 84.6818V85.6818C29.2838 85.6818 30.0687 85.4735 30.7494 85.0415L30.2136 84.1972ZM28.4134 84.4773C29.0999 84.4773 29.7091 84.2997 30.2016 83.9086L29.5797 83.1255C29.2994 83.3481 28.9238 83.4773 28.4134 83.4773V84.4773ZM30.2016 83.9086C30.6652 83.5404 31.0026 83.0592 31.2173 82.4808L30.2798 82.1328C30.1233 82.5544 29.8888 82.88 29.5797 83.1255L30.2016 83.9086ZM31.2173 82.4808C31.4255 81.9201 31.527 81.319 31.527 80.6818H30.527C30.527 81.2113 30.4429 81.6935 30.2798 82.1328L31.2173 82.4808ZM31.527 80.6818C31.527 80.0446 31.4254 79.442 31.2178 78.8783L30.2794 79.224C30.4429 79.6678 30.527 80.1524 30.527 80.6818H31.527ZM31.2178 78.8783C31.0035 78.2967 30.6668 77.812 30.2039 77.4399L29.5773 78.2192C29.8872 78.4683 30.1225 78.798 30.2794 79.224L31.2178 78.8783ZM30.2039 77.4399C29.7114 77.0439 29.1013 76.8636 28.4134 76.8636V77.8636C28.9223 77.8636 29.2971 77.994 29.5773 78.2192L30.2039 77.4399ZM28.4134 76.8636C27.7254 76.8636 27.1153 77.0439 26.6228 77.4399L27.2494 78.2192C27.5296 77.994 27.9044 77.8636 28.4134 77.8636V76.8636ZM26.6228 77.4399C26.1599 77.812 25.8232 78.2967 25.609 78.8783L26.5473 79.224C26.7043 78.798 26.9395 78.4683 27.2494 78.2192L26.6228 77.4399ZM25.609 78.8783C25.4013 79.442 25.2997 80.0446 25.2997 80.6818H26.2997C26.2997 80.1524 26.3838 79.6678 26.5473 79.224L25.609 78.8783ZM25.2997 80.6818C25.2997 81.319 25.4012 81.9201 25.6094 82.4808L26.5469 82.1328C26.3838 81.6935 26.2997 81.2113 26.2997 80.6818H25.2997ZM25.6094 82.4808C25.8241 83.0592 26.1615 83.5404 26.6251 83.9086L27.247 83.1255C26.9379 82.88 26.7034 82.5544 26.5469 82.1328L25.6094 82.4808ZM26.6251 83.9086C27.1176 84.2997 27.7268 84.4773 28.4134 84.4773V83.4773C27.903 83.4773 27.5273 83.3481 27.247 83.1255L26.6251 83.9086ZM39.9148 76.2727V75.7727H39.4148V76.2727H39.9148ZM41.2557 76.2727H41.7557V75.7727H41.2557V76.2727ZM41.2557 85V85.5H41.7557V85H41.2557ZM39.9148 85H39.4148V85.5H39.9148V85ZM39.9148 83.5227H40.4148V83.0227H39.9148V83.5227ZM39.8239 83.5227V83.0227H39.5039L39.3699 83.3132L39.8239 83.5227ZM38.8693 84.6534L39.1589 85.061L39.1613 85.0593L38.8693 84.6534ZM35.7784 84.7557L35.5303 85.1898L35.5333 85.1915L35.7784 84.7557ZM34.7784 83.6648L34.3305 83.887L34.3312 83.8884L34.7784 83.6648ZM34.4148 76.2727V75.7727H33.9148V76.2727H34.4148ZM35.7557 76.2727H36.2557V75.7727H35.7557V76.2727ZM36.2898 83.25L35.9255 83.5925L35.9273 83.5944L36.2898 83.25ZM38.6818 83.5625L38.4621 83.1133L38.4602 83.1143L38.6818 83.5625ZM39.5568 82.7784L39.1428 82.498L39.1408 82.5011L39.5568 82.7784ZM40.4148 81.4318V76.2727H39.4148V81.4318H40.4148ZM39.9148 76.7727H41.2557V75.7727H39.9148V76.7727ZM40.7557 76.2727V85H41.7557V76.2727H40.7557ZM41.2557 84.5H39.9148V85.5H41.2557V84.5ZM40.4148 85V83.5227H39.4148V85H40.4148ZM39.9148 83.0227H39.8239V84.0227H39.9148V83.0227ZM39.3699 83.3132C39.2047 83.6711 38.9456 83.9826 38.5774 84.2475L39.1613 85.0593C39.6567 84.703 40.0339 84.2607 40.2778 83.7323L39.3699 83.3132ZM38.5797 84.2458C38.2512 84.4792 37.8139 84.6136 37.233 84.6136V85.6136C37.9702 85.6136 38.6238 85.4412 39.1589 85.061L38.5797 84.2458ZM37.233 84.6136C36.7628 84.6136 36.3642 84.5115 36.0235 84.3199L35.5333 85.1915C36.0411 85.4771 36.6122 85.6136 37.233 85.6136V84.6136ZM36.0265 84.3216C35.6972 84.1334 35.4289 83.8478 35.2256 83.4412L34.3312 83.8884C34.6127 84.4515 35.0111 84.8931 35.5303 85.1898L36.0265 84.3216ZM35.2263 83.4426C35.0282 83.0433 34.9148 82.5099 34.9148 81.8182H33.9148C33.9148 82.6113 34.0437 83.309 34.3305 83.887L35.2263 83.4426ZM34.9148 81.8182V76.2727H33.9148V81.8182H34.9148ZM34.4148 76.7727H35.7557V75.7727H34.4148V76.7727ZM35.2557 76.2727V81.7273H36.2557V76.2727H35.2557ZM35.2557 81.7273C35.2557 82.4609 35.4636 83.1011 35.9255 83.5925L36.6541 82.9075C36.4038 82.6413 36.2557 82.2664 36.2557 81.7273H35.2557ZM35.9273 83.5944C36.3882 84.0796 36.981 84.3182 37.6648 84.3182V83.3182C37.2349 83.3182 36.911 83.178 36.6523 82.9056L35.9273 83.5944ZM37.6648 84.3182C38.086 84.3182 38.5004 84.21 38.9035 84.0107L38.4602 83.1143C38.1738 83.2559 37.9102 83.3182 37.6648 83.3182V84.3182ZM38.9015 84.0116C39.3367 83.7988 39.6935 83.4747 39.9728 83.0558L39.1408 82.5011C38.9504 82.7866 38.724 82.9853 38.4621 83.1134L38.9015 84.0116ZM39.9708 83.0588C40.2794 82.6033 40.4148 82.0492 40.4148 81.4318H39.4148C39.4148 81.9053 39.3115 82.249 39.1429 82.498L39.9708 83.0588ZM45.0526 85V85.5H45.5526V85H45.0526ZM43.7116 85H43.2116V85.5H43.7116V85ZM43.7116 76.2727V75.7727H43.2116V76.2727H43.7116ZM45.0071 76.2727H45.5071V75.7727H45.0071V76.2727ZM45.0071 77.6364H44.5071V78.1364H45.0071V77.6364ZM45.1207 77.6364V78.1364H45.4407L45.5747 77.8459L45.1207 77.6364ZM46.0526 76.5682L46.3237 76.9883L46.3264 76.9865L46.0526 76.5682ZM49.2173 76.5227L48.9774 76.9614L48.9803 76.963L49.2173 76.5227ZM50.2514 77.6136L49.8049 77.8386L49.8056 77.84L50.2514 77.6136ZM50.6207 85V85.5H51.1207V85H50.6207ZM49.2798 85H48.7798V85.5H49.2798V85ZM48.7457 77.9432L48.3781 78.282L48.3797 78.2838L48.7457 77.9432ZM46.1321 77.642L45.891 77.204L45.8889 77.2052L46.1321 77.642ZM45.3423 78.4545L44.9028 78.2161L44.9028 78.2161L45.3423 78.4545ZM44.5526 79.75V85H45.5526V79.75H44.5526ZM45.0526 84.5H43.7116V85.5H45.0526V84.5ZM44.2116 85V76.2727H43.2116V85H44.2116ZM43.7116 76.7727H45.0071V75.7727H43.7116V76.7727ZM44.5071 76.2727V77.6364H45.5071V76.2727H44.5071ZM45.0071 78.1364H45.1207V77.1364H45.0071V78.1364ZM45.5747 77.8459C45.7389 77.4903 45.9854 77.2067 46.3237 76.9883L45.7814 76.1481C45.2864 76.4676 44.9117 76.8961 44.6668 77.4268L45.5747 77.8459ZM46.3264 76.9865C46.6392 76.7818 47.0735 76.6591 47.6662 76.6591V75.6591C46.9407 75.6591 46.2992 75.8091 45.7787 76.1498L46.3264 76.9865ZM47.6662 76.6591C48.1875 76.6591 48.6194 76.7656 48.9774 76.9614L49.4573 76.0841C48.9289 75.7951 48.3267 75.6591 47.6662 75.6591V76.6591ZM48.9803 76.963C49.3253 77.1488 49.6006 77.4331 49.8049 77.8386L50.6979 77.3886C50.4098 76.8169 49.9957 76.374 49.4544 76.0825L48.9803 76.963ZM49.8056 77.84C50.0056 78.2339 50.1207 78.7635 50.1207 79.4545H51.1207C51.1207 78.6607 50.9896 77.9631 50.6972 77.3872L49.8056 77.84ZM50.1207 79.4545V85H51.1207V79.4545H50.1207ZM50.6207 84.5H49.2798V85.5H50.6207V84.5ZM49.7798 85V79.5455H48.7798V85H49.7798ZM49.7798 79.5455C49.7798 78.774 49.578 78.1036 49.1117 77.6025L48.3797 78.2838C48.6256 78.548 48.7798 78.9457 48.7798 79.5455H49.7798ZM49.1134 77.6043C48.6454 77.0965 48.013 76.8636 47.2798 76.8636V77.8636C47.7891 77.8636 48.134 78.0172 48.3781 78.282L49.1134 77.6043ZM47.2798 76.8636C46.7771 76.8636 46.31 76.9734 45.891 77.204L46.3733 78.08C46.6285 77.9395 46.9265 77.8636 47.2798 77.8636V76.8636ZM45.8889 77.2052C45.4674 77.4399 45.1384 77.782 44.9028 78.2161L45.7818 78.693C45.9327 78.415 46.1301 78.2154 46.3753 78.0789L45.8889 77.2052ZM44.9028 78.2161C44.6611 78.6616 44.5526 79.1798 44.5526 79.75H45.5526C45.5526 79.305 45.6372 78.9596 45.7818 78.693L44.9028 78.2161ZM56.8665 76.2727H57.3665V75.7727H56.8665V76.2727ZM56.8665 77.4091V77.9091H57.3665V77.4091H56.8665ZM52.3438 77.4091H51.8438V77.9091H52.3438V77.4091ZM52.3438 76.2727V75.7727H51.8438V76.2727H52.3438ZM53.6619 74.1818V73.6818H53.1619V74.1818H53.6619ZM55.0028 74.1818H55.5028V73.6818H55.0028V74.1818ZM55.1676 83.3523L54.735 83.6032L54.7412 83.6133L55.1676 83.3523ZM55.5994 83.7273L55.426 84.1964L55.4383 84.2006L55.5994 83.7273ZM56.5256 83.7955L56.6046 84.2892L56.6141 84.2876L56.6236 84.2857L56.5256 83.7955ZM56.7528 83.75L57.2405 83.6396L57.1328 83.1641L56.6548 83.2597L56.7528 83.75ZM57.0256 84.9545L57.2011 85.4227L57.6095 85.2696L57.5132 84.8441L57.0256 84.9545ZM56.6449 85.0568L56.5424 84.5673L56.5316 84.5698L56.6449 85.0568ZM54.9119 84.8693L54.7058 85.3248L54.7075 85.3256L54.9119 84.8693ZM54.0142 84.125L53.6055 84.413L53.6077 84.4161L54.0142 84.125ZM56.3665 76.2727V77.4091H57.3665V76.2727H56.3665ZM56.8665 76.9091H52.3438V77.9091H56.8665V76.9091ZM52.8438 77.4091V76.2727H51.8438V77.4091H52.8438ZM52.3438 76.7727H56.8665V75.7727H52.3438V76.7727ZM53.6619 74.6818H55.0028V73.6818H53.6619V74.6818ZM54.5028 74.1818V82.5H55.5028V74.1818H54.5028ZM54.5028 82.5C54.5028 82.9107 54.5595 83.3004 54.7351 83.6031L55.6001 83.1014C55.556 83.0254 55.5028 82.8468 55.5028 82.5H54.5028ZM54.7412 83.6133C54.903 83.8776 55.1291 84.0865 55.4261 84.1963L55.7728 83.2583C55.7212 83.2392 55.6595 83.1982 55.594 83.0912L54.7412 83.6133ZM55.4383 84.2006C55.6706 84.2797 55.9128 84.3182 56.1619 84.3182V83.3182C56.0172 83.3182 55.8843 83.2961 55.7606 83.2539L55.4383 84.2006ZM56.1619 84.3182C56.3236 84.3182 56.4738 84.3101 56.6046 84.2892L56.4466 83.3017C56.388 83.3111 56.2957 83.3182 56.1619 83.3182V84.3182ZM56.6236 84.2857C56.7183 84.2668 56.7941 84.2517 56.8509 84.2403L56.6548 83.2597C56.598 83.2711 56.5222 83.2862 56.4275 83.3052L56.6236 84.2857ZM56.2652 83.8604L56.5379 85.065L57.5132 84.8441L57.2405 83.6396L56.2652 83.8604ZM56.85 84.4864C56.7938 84.5075 56.6953 84.5354 56.5425 84.5674L56.7473 85.5462C56.9202 85.51 57.0755 85.4698 57.2011 85.4227L56.85 84.4864ZM56.5316 84.5698C56.4193 84.5959 56.2542 84.6136 56.0256 84.6136V85.6136C56.2969 85.6136 56.5447 85.5935 56.7581 85.5438L56.5316 84.5698ZM56.0256 84.6136C55.7209 84.6136 55.4191 84.5486 55.1163 84.413L54.7075 85.3256C55.1321 85.5158 55.5727 85.6136 56.0256 85.6136V84.6136ZM55.1181 84.4138C54.8415 84.2886 54.6102 84.0986 54.4208 83.8339L53.6077 84.4161C53.8954 84.818 54.2627 85.1243 54.7058 85.3248L55.1181 84.4138ZM54.4229 83.837C54.2606 83.6066 54.1619 83.2936 54.1619 82.8636H53.1619C53.1619 83.4488 53.2981 83.9767 53.6055 84.413L54.4229 83.837ZM54.1619 82.8636V74.1818H53.1619V82.8636H54.1619ZM60.2727 84.625L60.0096 85.0502L60.0128 85.0521L60.2727 84.625ZM58.8693 83.0568L58.4191 83.2743L58.4206 83.2774L58.8693 83.0568ZM58.8693 78.3409L58.4187 78.1243L58.4182 78.1254L58.8693 78.3409ZM60.2443 76.7386L60.5173 77.1575L60.5179 77.1571L60.2443 76.7386ZM63.6591 76.3864L63.8208 75.9132L63.8208 75.9132L63.6591 76.3864ZM64.8693 77.125L64.5273 77.4898L64.5294 77.4917L64.8693 77.125ZM65.7386 78.4659L66.2048 78.2851L66.2048 78.2851L65.7386 78.4659ZM66.0625 81.0909V81.5909H66.5625V81.0909H66.0625ZM59.3352 81.0909H58.8352V81.5909H59.3352V81.0909ZM59.3352 79.9318V79.4318H58.8352V79.9318H59.3352ZM64.6989 79.9318V80.4318H65.1989V79.9318H64.6989ZM64.4034 78.6136L63.9562 78.8372L63.958 78.8407L64.4034 78.6136ZM63.5739 77.6989L63.3081 78.1224L63.3101 78.1236L63.5739 77.6989ZM60.9261 77.7614L61.2063 78.1755L61.2072 78.1749L60.9261 77.7614ZM60.0341 78.7841L59.5861 78.5621L59.5861 78.5621L60.0341 78.7841ZM60.0625 82.5852L59.6145 82.8074L59.6168 82.8118L60.0625 82.5852ZM61.0227 83.625L60.7708 84.0569L60.7738 84.0586L61.0227 83.625ZM63.4034 83.8295L63.5672 84.302L63.5708 84.3007L63.4034 83.8295ZM64.1477 83.375L64.4947 83.7351L64.498 83.7318L64.1477 83.375ZM64.6307 82.6136L64.7658 82.1322L64.3237 82.0082L64.1625 82.4381L64.6307 82.6136ZM65.9261 82.9773L66.4037 83.1255L66.556 82.6347L66.0613 82.4959L65.9261 82.9773ZM65.2386 84.1364L65.5963 84.4858L65.5983 84.4837L65.2386 84.1364ZM64.0455 84.9091L64.2247 85.3759L64.2279 85.3746L64.0455 84.9091ZM62.4489 84.6818C61.6832 84.6818 61.0512 84.5135 60.5327 84.1979L60.0128 85.0521C60.7139 85.4789 61.5327 85.6818 62.4489 85.6818V84.6818ZM60.5358 84.1998C60.0136 83.8767 59.6083 83.4267 59.318 82.8363L58.4206 83.2774C58.7895 84.0279 59.3198 84.6233 60.0096 85.0502L60.5358 84.1998ZM59.3195 82.8393C59.0323 82.2448 58.8807 81.5376 58.8807 80.7045H57.8807C57.8807 81.6594 58.0548 82.5204 58.4191 83.2743L59.3195 82.8393ZM58.8807 80.7045C58.8807 79.8717 59.0322 79.1597 59.3205 78.5565L58.4182 78.1254C58.0549 78.8857 57.8807 79.7495 57.8807 80.7045H58.8807ZM59.32 78.5575C59.6134 77.947 60.0133 77.486 60.5173 77.1575L59.9713 76.3197C59.3011 76.7565 58.7843 77.3636 58.4187 78.1243L59.32 78.5575ZM60.5179 77.1571C61.0183 76.83 61.6101 76.6591 62.3125 76.6591V75.6591C61.4391 75.6591 60.6522 75.8746 59.9707 76.3202L60.5179 77.1571ZM62.3125 76.6591C62.7103 76.6591 63.1046 76.7252 63.4973 76.8595L63.8208 75.9132C63.3272 75.7445 62.8237 75.6591 62.3125 75.6591V76.6591ZM63.4973 76.8595C63.8692 76.9866 64.212 77.1942 64.5273 77.4898L65.2113 76.7602C64.7993 76.374 64.3353 76.0891 63.8208 75.9132L63.4973 76.8595ZM64.5294 77.4917C64.8272 77.7677 65.0784 78.1463 65.2725 78.6467L66.2048 78.2851C65.967 77.6719 65.6388 77.1565 65.2093 76.7583L64.5294 77.4917ZM65.2725 78.6467C65.4595 79.129 65.5625 79.7491 65.5625 80.5227H66.5625C66.5625 79.6675 66.4496 78.9164 66.2048 78.2851L65.2725 78.6467ZM65.5625 80.5227V81.0909H66.5625V80.5227H65.5625ZM66.0625 80.5909H59.3352V81.5909H66.0625V80.5909ZM59.8352 81.0909V79.9318H58.8352V81.0909H59.8352ZM59.3352 80.4318H64.6989V79.4318H59.3352V80.4318ZM65.1989 79.9318C65.1989 79.3712 65.0863 78.8522 64.8489 78.3865L63.958 78.8407C64.1145 79.1478 64.1989 79.5076 64.1989 79.9318H65.1989ZM64.8506 78.39C64.6169 77.9227 64.2777 77.5474 63.8377 77.2741L63.3101 78.1236C63.5897 78.2973 63.8035 78.5319 63.9562 78.8372L64.8506 78.39ZM63.8397 77.2754C63.3924 76.9946 62.8767 76.8636 62.3125 76.8636V77.8636C62.718 77.8636 63.0433 77.9561 63.3081 78.1224L63.8397 77.2754ZM62.3125 76.8636C61.6919 76.8636 61.1288 77.0191 60.6451 77.3478L61.2072 78.1749C61.5038 77.9733 61.8649 77.8636 62.3125 77.8636V76.8636ZM60.646 77.3472C60.1875 77.6573 59.8326 78.0646 59.5861 78.5621L60.4821 79.0061C60.6523 78.6626 60.892 78.3881 61.2063 78.1755L60.646 77.3472ZM59.5861 78.5621C59.3427 79.0533 59.2216 79.5803 59.2216 80.1364H60.2216C60.2216 79.7303 60.3088 79.3558 60.4821 79.0061L59.5861 78.5621ZM59.2216 80.1364V80.9091H60.2216V80.1364H59.2216ZM59.2216 80.9091C59.2216 81.6238 59.3446 82.263 59.6145 82.8074L60.5105 82.3631C60.3258 81.9908 60.2216 81.5126 60.2216 80.9091H59.2216ZM59.6168 82.8118C59.8879 83.3451 60.2723 83.7661 60.7708 84.0569L61.2747 83.1931C60.9549 83.0066 60.6992 82.7344 60.5082 82.3587L59.6168 82.8118ZM60.7738 84.0586C61.2693 84.3431 61.833 84.4773 62.4489 84.4773V83.4773C61.9814 83.4773 61.5944 83.3766 61.2717 83.1914L60.7738 84.0586ZM62.4489 84.4773C62.8475 84.4773 63.2223 84.4215 63.5672 84.302L63.2396 83.3571C63.0164 83.4345 62.7547 83.4773 62.4489 83.4773V84.4773ZM63.5708 84.3007C63.9219 84.176 64.2322 83.9879 64.4947 83.735L63.8008 83.015C63.6466 83.1636 63.4607 83.2786 63.236 83.3584L63.5708 84.3007ZM64.498 83.7318C64.7638 83.4708 64.9624 83.153 65.0988 82.7892L64.1625 82.4381C64.0717 82.6803 63.9483 82.8701 63.7974 83.0182L64.498 83.7318ZM64.4956 83.095L65.791 83.4587L66.0613 82.4959L64.7658 82.1322L64.4956 83.095ZM65.4486 82.8291C65.3356 83.1932 65.1471 83.5115 64.879 83.789L65.5983 84.4837C65.9742 84.0946 66.2439 83.6401 66.4037 83.1255L65.4486 82.8291ZM64.881 83.7869C64.6135 84.0608 64.2774 84.2811 63.863 84.4436L64.2279 85.3746C64.7605 85.1658 65.2199 84.871 65.5963 84.4858L64.881 83.7869ZM63.8662 84.4423C63.4585 84.5989 62.9884 84.6818 62.4489 84.6818V85.6818C63.0911 85.6818 63.6854 85.5829 64.2247 85.3759L63.8662 84.4423ZM68.1023 85H67.6023V85.5H68.1023V85ZM68.1023 76.2727V75.7727H67.6023V76.2727H68.1023ZM69.3977 76.2727H69.8977V75.7727H69.3977V76.2727ZM69.3977 77.5909H68.8977V78.0909H69.3977V77.5909ZM69.4886 77.5909V78.0909H69.8373L69.9578 77.7638L69.4886 77.5909ZM70.3523 76.5398L70.0811 76.1197L70.0811 76.1197L70.3523 76.5398ZM72.4659 76.1591H72.9659V75.7066L72.5157 75.6616L72.4659 76.1591ZM72.4659 77.5227L72.3446 78.0078L72.9659 78.1631V77.5227H72.4659ZM72.1534 77.4716L72.0712 77.965L72.0843 77.9668L72.1534 77.4716ZM70.5114 77.6989L70.7451 78.1409L70.7469 78.1399L70.5114 77.6989ZM69.7273 78.4261L69.3027 78.1621L69.3018 78.1635L69.7273 78.4261ZM69.4432 85V85.5H69.9432V85H69.4432ZM68.6023 85V76.2727H67.6023V85H68.6023ZM68.1023 76.7727H69.3977V75.7727H68.1023V76.7727ZM68.8977 76.2727V77.5909H69.8977V76.2727H68.8977ZM69.3977 78.0909H69.4886V77.0909H69.3977V78.0909ZM69.9578 77.7638C70.0765 77.4417 70.2903 77.1749 70.6234 76.9599L70.0811 76.1197C69.5809 76.4425 69.219 76.8765 69.0195 77.4181L69.9578 77.7638ZM70.6234 76.9599C70.9548 76.746 71.3294 76.6364 71.7614 76.6364V75.6364C71.1479 75.6364 70.5831 75.7957 70.0811 76.1197L70.6234 76.9599ZM71.7614 76.6364C71.854 76.6364 71.9725 76.6382 72.1179 76.6419L72.1435 75.6422C71.9934 75.6384 71.8657 75.6364 71.7614 75.6364V76.6364ZM72.1179 76.6419C72.2624 76.6456 72.3593 76.6509 72.4162 76.6566L72.5157 75.6616C72.421 75.6521 72.2944 75.6461 72.1435 75.6422L72.1179 76.6419ZM71.9659 76.1591V77.5227H72.9659V76.1591H71.9659ZM72.5872 77.0377C72.5107 77.0185 72.3779 76.9981 72.2225 76.9764L72.0843 77.9668C72.1637 77.9779 72.2262 77.9872 72.2729 77.9949C72.2963 77.9987 72.3142 78.0018 72.3275 78.0044C72.3419 78.0071 72.3464 78.0082 72.3446 78.0078L72.5872 77.0377ZM72.2356 76.9784C72.0467 76.9469 71.8505 76.9318 71.6477 76.9318V77.9318C71.801 77.9318 71.9419 77.9432 72.0712 77.9648L72.2356 76.9784ZM71.6477 76.9318C71.1515 76.9318 70.6901 77.0365 70.2758 77.2578L70.7469 78.1399C70.9993 78.0051 71.2954 77.9318 71.6477 77.9318V76.9318ZM70.2777 77.2568C69.8714 77.4716 69.5436 77.7748 69.3027 78.1621L70.1519 78.6902C70.2974 78.4563 70.4922 78.2746 70.7451 78.1409L70.2777 77.2568ZM69.3018 78.1635C69.0592 78.5565 68.9432 78.9995 68.9432 79.4773H69.9432C69.9432 79.1672 70.0165 78.9094 70.1527 78.6888L69.3018 78.1635ZM68.9432 79.4773V85H69.9432V79.4773H68.9432ZM69.4432 84.5H68.1023V85.5H69.4432V84.5ZM75.2216 84.6023L74.948 85.0208L74.948 85.0208L75.2216 84.6023ZM73.8693 78.3352L73.4191 78.1176L73.4186 78.1187L73.8693 78.3352ZM75.2443 76.7386L75.5173 77.1575L75.5179 77.1571L75.2443 76.7386ZM80.1818 77.4545L80.5783 77.1499L80.5783 77.1499L80.1818 77.4545ZM80.767 78.8864V79.3864H81.3413L81.2623 78.8176L80.767 78.8864ZM79.4261 78.8864L78.9419 79.0109L79.0384 79.3864H79.4261V78.8864ZM78.7443 77.8295L78.4116 78.2028L78.4159 78.2066L78.7443 77.8295ZM75.9602 77.7727L76.244 78.1844L76.2448 78.1838L75.9602 77.7727ZM75.0455 78.9148L74.5888 78.7111L74.5881 78.7127L75.0455 78.9148ZM75.0398 82.3977L74.5795 82.593L74.5807 82.5959L75.0398 82.3977ZM75.9489 83.5625L75.6597 83.9704L75.6616 83.9717L75.9489 83.5625ZM78.2841 83.7955L78.0879 83.3356L78.0879 83.3356L78.2841 83.7955ZM79.0057 83.2727L79.3835 83.6002L79.3835 83.6002L79.0057 83.2727ZM79.4261 82.4545V81.9545H79.0402L78.9425 82.3279L79.4261 82.4545ZM80.767 82.4545L81.2617 82.5273L81.346 81.9545H80.767V82.4545ZM80.2045 83.8466L79.7997 83.5532L79.7992 83.5538L80.2045 83.8466ZM79.0284 84.8239L79.2492 85.2725L79.2506 85.2718L79.0284 84.8239ZM77.3352 84.6818C76.5984 84.6818 75.9925 84.5089 75.4952 84.1838L74.948 85.0208C75.6325 85.4683 76.4357 85.6818 77.3352 85.6818V84.6818ZM75.4952 84.1838C74.9867 83.8513 74.5919 83.3927 74.3106 82.7933L73.4053 83.2181C73.7604 83.9748 74.2746 84.5805 74.948 85.0208L75.4952 84.1838ZM74.3106 82.7933C74.0283 82.1917 73.8807 81.4915 73.8807 80.6818H72.8807C72.8807 81.6145 73.0512 82.4636 73.4053 83.2181L74.3106 82.7933ZM73.8807 80.6818C73.8807 79.8571 74.032 79.1512 74.32 78.5518L73.4186 78.1187C73.0551 78.8753 72.8807 79.7338 72.8807 80.6818H73.8807ZM74.3195 78.5528C74.6127 77.9461 75.0126 77.4864 75.5173 77.1575L74.9713 76.3197C74.3018 76.756 73.785 77.3607 73.4191 78.1176L74.3195 78.5528ZM75.5179 77.1571C76.0183 76.83 76.6101 76.6591 77.3125 76.6591V75.6591C76.4391 75.6591 75.6522 75.8746 74.9707 76.3202L75.5179 77.1571ZM77.3125 76.6591C77.8633 76.6591 78.3435 76.7608 78.7621 76.954L79.1811 76.046C78.6149 75.7847 77.989 75.6591 77.3125 75.6591V76.6591ZM78.7621 76.954C79.1849 77.1491 79.5228 77.4176 79.7854 77.7592L80.5783 77.1499C80.212 76.6733 79.7431 76.3054 79.1811 76.046L78.7621 76.954ZM79.7854 77.7592C80.0434 78.0949 80.2071 78.4896 80.2718 78.9551L81.2623 78.8176C81.1754 78.1922 80.949 77.6323 80.5783 77.1499L79.7854 77.7592ZM80.767 78.3864H79.4261V79.3864H80.767V78.3864ZM79.9104 78.7618C79.7795 78.253 79.4904 77.8163 79.0727 77.4525L78.4159 78.2066C78.7028 78.4564 78.8682 78.7242 78.9419 79.0109L79.9104 78.7618ZM79.077 77.4563C78.6145 77.0441 78.0151 76.8636 77.3352 76.8636V77.8636C77.8372 77.8636 78.1771 77.9938 78.4116 78.2028L79.077 77.4563ZM77.3352 76.8636C76.7205 76.8636 76.1608 77.0257 75.6756 77.3616L76.2448 78.1838C76.5475 77.9743 76.9045 77.8636 77.3352 77.8636V76.8636ZM75.6765 77.3611C75.2007 77.689 74.8407 78.1466 74.5888 78.7111L75.5021 79.1185C75.6896 78.6981 75.9395 78.3943 76.244 78.1844L75.6765 77.3611ZM74.5881 78.7127C74.3383 79.278 74.2216 79.9235 74.2216 80.6364H75.2216C75.2216 80.031 75.3208 79.5288 75.5028 79.1169L74.5881 78.7127ZM74.2216 80.6364C74.2216 81.362 74.3357 82.0183 74.5795 82.593L75.5001 82.2025C75.3197 81.7772 75.2216 81.2592 75.2216 80.6364H74.2216ZM74.5807 82.5959C74.8278 83.1682 75.1849 83.6339 75.6597 83.9704L76.238 83.1546C75.9326 82.9381 75.6835 82.6273 75.4988 82.1995L74.5807 82.5959ZM75.6616 83.9717C76.1482 84.3133 76.7131 84.4773 77.3352 84.4773V83.4773C76.8968 83.4773 76.5374 83.3647 76.2361 83.1533L75.6616 83.9717ZM77.3352 84.4773C77.7425 84.4773 78.1267 84.4062 78.4803 84.2553L78.0879 83.3356C77.8733 83.4271 77.6249 83.4773 77.3352 83.4773V84.4773ZM78.4803 84.2553C78.8323 84.1052 79.1355 83.8864 79.3835 83.6002L78.6278 82.9453C78.4819 83.1136 78.3041 83.2433 78.0879 83.3356L78.4803 84.2553ZM79.3835 83.6002C79.6353 83.3097 79.8089 82.9665 79.9098 82.5812L78.9425 82.3279C78.8767 82.5789 78.77 82.7812 78.6278 82.9453L79.3835 83.6002ZM79.4261 82.9545H80.767V81.9545H79.4261V82.9545ZM80.2724 82.3818C80.2081 82.819 80.0506 83.207 79.7997 83.5532L80.6094 84.14C80.957 83.6605 81.1745 83.1204 81.2617 82.5273L80.2724 82.3818ZM79.7992 83.5538C79.5551 83.8919 79.2281 84.1666 78.8062 84.376L79.2506 85.2718C79.806 84.9963 80.2631 84.6195 80.6099 84.1393L79.7992 83.5538ZM78.8076 84.3753C78.4034 84.5742 77.9171 84.6818 77.3352 84.6818V85.6818C78.0412 85.6818 78.6837 85.5508 79.2492 85.2725L78.8076 84.3753ZM84.0682 73.3636H84.5682V72.8636H84.0682V73.3636ZM84.0682 85V85.5H84.5682V85H84.0682ZM82.7273 85H82.2273V85.5H82.7273V85ZM82.7273 73.3636V72.8636H82.2273V73.3636H82.7273ZM83.5682 73.3636V85H84.5682V73.3636H83.5682ZM84.0682 84.5H82.7273V85.5H84.0682V84.5ZM83.2273 85V73.3636H82.2273V85H83.2273ZM82.7273 73.8636H84.0682V72.8636H82.7273V73.8636ZM87.9957 84.6193L87.7278 85.0415L87.729 85.0423L87.9957 84.6193ZM86.6094 83.0455L86.1602 83.265L86.1612 83.267L86.6094 83.0455ZM86.6094 78.3011L86.1607 78.0805L86.1597 78.0826L86.6094 78.3011ZM87.9957 76.7216L87.729 76.2987L87.7278 76.2994L87.9957 76.7216ZM92.1378 76.7216L91.8699 77.1438L91.8711 77.1445L92.1378 76.7216ZM93.5241 78.3011L93.0744 78.5197L93.0754 78.5217L93.5241 78.3011ZM93.5241 83.0455L93.0759 82.8239L93.0749 82.8259L93.5241 83.0455ZM92.1378 84.6193L91.8711 84.1964L91.8699 84.1972L92.1378 84.6193ZM91.5469 83.517L91.2359 83.1255L91.2359 83.1255L91.5469 83.517ZM92.4048 82.3068L92.8736 82.4808L92.8736 82.4808L92.4048 82.3068ZM92.4048 79.0511L92.874 78.8783L92.874 78.8783L92.4048 79.0511ZM91.5469 77.8295L91.8602 77.4399L91.8602 77.4399L91.5469 77.8295ZM88.5923 77.8295L88.2791 77.4399L88.2791 77.4399L88.5923 77.8295ZM87.7344 79.0511L87.2652 78.8783L87.2652 78.8783L87.7344 79.0511ZM87.7344 82.3068L87.2656 82.4808L87.2656 82.4808L87.7344 82.3068ZM88.5923 83.517L88.9033 83.1255L88.9033 83.1255L88.5923 83.517ZM90.0696 84.6818C89.3644 84.6818 88.7679 84.5151 88.2624 84.1964L87.729 85.0423C88.413 85.4735 89.1991 85.6818 90.0696 85.6818V84.6818ZM88.2637 84.1972C87.7559 83.8749 87.3535 83.4224 87.0576 82.8239L86.1612 83.267C86.5319 84.017 87.0538 84.6137 87.7278 85.0415L88.2637 84.1972ZM87.0586 82.8259C86.7685 82.2324 86.6151 81.5224 86.6151 80.6818H85.6151C85.6151 81.6443 85.7911 82.51 86.1602 83.265L87.0586 82.8259ZM86.6151 80.6818C86.6151 79.8331 86.7688 79.117 87.0591 78.5197L86.1597 78.0826C85.7909 78.8413 85.6151 79.7124 85.6151 80.6818H86.6151ZM87.0581 78.5217C87.3542 77.9194 87.7566 77.4656 88.2637 77.1438L87.7278 76.2994C87.0531 76.7276 86.5312 77.3268 86.1607 78.0805L87.0581 78.5217ZM88.2624 77.1445C88.7679 76.8258 89.3644 76.6591 90.0696 76.6591V75.6591C89.1991 75.6591 88.413 75.8674 87.729 76.2987L88.2624 77.1445ZM90.0696 76.6591C90.7749 76.6591 91.3688 76.8258 91.8699 77.1438L92.4057 76.2994C91.7249 75.8674 90.9401 75.6591 90.0696 75.6591V76.6591ZM91.8711 77.1445C92.3812 77.4662 92.7826 77.9192 93.0745 78.5197L93.9738 78.0826C93.6066 77.327 93.0838 76.727 92.4045 76.2987L91.8711 77.1445ZM93.0754 78.5217C93.3689 79.1186 93.5241 79.8339 93.5241 80.6818H94.5241C94.5241 79.7116 94.3461 78.8398 93.9729 78.0805L93.0754 78.5217ZM93.5241 80.6818C93.5241 81.5216 93.3691 82.2309 93.0759 82.8239L93.9724 83.267C94.3459 82.5115 94.5241 81.6451 94.5241 80.6818H93.5241ZM93.0749 82.8259C92.7833 83.4226 92.3819 83.8743 91.8711 84.1964L92.4045 85.0423C93.0831 84.6144 93.6059 84.0168 93.9734 83.265L93.0749 82.8259ZM91.8699 84.1972C91.3688 84.5151 90.7749 84.6818 90.0696 84.6818V85.6818C90.9401 85.6818 91.7249 85.4735 92.4057 85.0415L91.8699 84.1972ZM90.0696 84.4773C90.7562 84.4773 91.3654 84.2997 91.8578 83.9086L91.2359 83.1255C90.9557 83.3481 90.58 83.4773 90.0696 83.4773V84.4773ZM91.8578 83.9086C92.3214 83.5404 92.6589 83.0592 92.8736 82.4808L91.9361 82.1328C91.7796 82.5544 91.5451 82.88 91.2359 83.1255L91.8578 83.9086ZM92.8736 82.4808C93.0817 81.9201 93.1832 81.319 93.1832 80.6818H92.1832C92.1832 81.2113 92.0992 81.6935 91.9361 82.1328L92.8736 82.4808ZM93.1832 80.6818C93.1832 80.0446 93.0817 79.442 92.874 78.8783L91.9357 79.224C92.0992 79.6678 92.1832 80.1524 92.1832 80.6818H93.1832ZM92.874 78.8783C92.6597 78.2967 92.323 77.812 91.8602 77.4399L91.2336 78.2192C91.5435 78.4683 91.7787 78.798 91.9357 79.224L92.874 78.8783ZM91.8602 77.4399C91.3676 77.0439 90.7576 76.8636 90.0696 76.8636V77.8636C90.5786 77.8636 90.9534 77.994 91.2336 78.2192L91.8602 77.4399ZM90.0696 76.8636C89.3816 76.8636 88.7716 77.0439 88.2791 77.4399L88.9056 78.2192C89.1858 77.994 89.5606 77.8636 90.0696 77.8636V76.8636ZM88.2791 77.4399C87.8162 77.812 87.4795 78.2967 87.2652 78.8783L88.2035 79.224C88.3605 78.798 88.5957 78.4683 88.9056 78.2192L88.2791 77.4399ZM87.2652 78.8783C87.0575 79.442 86.956 80.0446 86.956 80.6818H87.956C87.956 80.1524 88.04 79.6678 88.2035 79.224L87.2652 78.8783ZM86.956 80.6818C86.956 81.319 87.0575 81.9201 87.2656 82.4808L88.2031 82.1328C88.04 81.6935 87.956 81.2113 87.956 80.6818H86.956ZM87.2656 82.4808C87.4803 83.0592 87.8178 83.5404 88.2814 83.9086L88.9033 83.1255C88.5942 82.88 88.3596 82.5544 88.2031 82.1328L87.2656 82.4808ZM88.2814 83.9086C88.7738 84.2997 89.383 84.4773 90.0696 84.4773V83.4773C89.5592 83.4773 89.1835 83.3481 88.9033 83.1255L88.2814 83.9086ZM97.5028 84.6023L97.2292 85.0208L97.2292 85.0208L97.5028 84.6023ZM96.1506 78.3352L95.7004 78.1176L95.6999 78.1187L96.1506 78.3352ZM97.5256 76.7386L97.7985 77.1575L97.7992 77.1571L97.5256 76.7386ZM102.463 77.4545L102.86 77.1499L102.86 77.1499L102.463 77.4545ZM103.048 78.8864V79.3864H103.623L103.544 78.8176L103.048 78.8864ZM101.707 78.8864L101.223 79.0109L101.32 79.3864H101.707V78.8864ZM101.026 77.8295L100.693 78.2028L100.697 78.2066L101.026 77.8295ZM98.2415 77.7727L98.5253 78.1844L98.5261 78.1838L98.2415 77.7727ZM97.3267 78.9148L96.8701 78.7111L96.8694 78.7127L97.3267 78.9148ZM97.321 82.3977L96.8607 82.593L96.862 82.5959L97.321 82.3977ZM98.2301 83.5625L97.941 83.9704L97.9429 83.9717L98.2301 83.5625ZM100.565 83.7955L100.369 83.3356L100.369 83.3356L100.565 83.7955ZM101.287 83.2727L101.665 83.6002L101.665 83.6002L101.287 83.2727ZM101.707 82.4545V81.9545H101.321L101.224 82.3279L101.707 82.4545ZM103.048 82.4545L103.543 82.5273L103.627 81.9545H103.048V82.4545ZM102.486 83.8466L102.081 83.5532L102.08 83.5538L102.486 83.8466ZM101.31 84.8239L101.53 85.2725L101.532 85.2718L101.31 84.8239ZM99.6165 84.6818C98.8797 84.6818 98.2737 84.5089 97.7765 84.1838L97.2292 85.0208C97.9138 85.4683 98.7169 85.6818 99.6165 85.6818V84.6818ZM97.7765 84.1838C97.268 83.8513 96.8731 83.3927 96.5918 82.7933L95.6866 83.2181C96.0416 83.9748 96.5559 84.5805 97.2292 85.0208L97.7765 84.1838ZM96.5918 82.7933C96.3095 82.1917 96.1619 81.4915 96.1619 80.6818H95.1619C95.1619 81.6145 95.3325 82.4636 95.6866 83.2181L96.5918 82.7933ZM96.1619 80.6818C96.1619 79.8571 96.3132 79.1512 96.6013 78.5518L95.6999 78.1187C95.3364 78.8753 95.1619 79.7338 95.1619 80.6818H96.1619ZM96.6007 78.5528C96.894 77.9461 97.2939 77.4864 97.7985 77.1575L97.2526 76.3197C96.583 76.756 96.0663 77.3607 95.7004 78.1176L96.6007 78.5528ZM97.7992 77.1571C98.2995 76.83 98.8914 76.6591 99.5938 76.6591V75.6591C98.7203 75.6591 97.9334 75.8746 97.2519 76.3202L97.7992 77.1571ZM99.5938 76.6591C100.145 76.6591 100.625 76.7608 101.043 76.954L101.462 76.046C100.896 75.7847 100.27 75.6591 99.5938 75.6591V76.6591ZM101.043 76.954C101.466 77.1491 101.804 77.4176 102.067 77.7592L102.86 77.1499C102.493 76.6733 102.024 76.3054 101.462 76.046L101.043 76.954ZM102.067 77.7592C102.325 78.0949 102.488 78.4896 102.553 78.9551L103.544 78.8176C103.457 78.1922 103.23 77.6323 102.86 77.1499L102.067 77.7592ZM103.048 78.3864H101.707V79.3864H103.048V78.3864ZM102.192 78.7618C102.061 78.253 101.772 77.8163 101.354 77.4525L100.697 78.2066C100.984 78.4564 101.149 78.7242 101.223 79.0109L102.192 78.7618ZM101.358 77.4563C100.896 77.0441 100.296 76.8636 99.6165 76.8636V77.8636C100.118 77.8636 100.458 77.9938 100.693 78.2028L101.358 77.4563ZM99.6165 76.8636C99.0017 76.8636 98.4421 77.0257 97.9569 77.3616L98.5261 78.1838C98.8288 77.9743 99.1858 77.8636 99.6165 77.8636V76.8636ZM97.9577 77.3611C97.4819 77.689 97.1219 78.1466 96.8701 78.7111L97.7833 79.1185C97.9709 78.6981 98.2207 78.3943 98.5253 78.1844L97.9577 77.3611ZM96.8694 78.7127C96.6196 79.278 96.5028 79.9235 96.5028 80.6364H97.5028C97.5028 80.031 97.602 79.5288 97.784 79.1169L96.8694 78.7127ZM96.5028 80.6364C96.5028 81.362 96.6169 82.0183 96.8607 82.593L97.7813 82.2025C97.6009 81.7772 97.5028 81.2592 97.5028 80.6364H96.5028ZM96.862 82.5959C97.1091 83.1682 97.4661 83.6339 97.941 83.9704L98.5192 83.1546C98.2138 82.9381 97.9648 82.6273 97.7801 82.1995L96.862 82.5959ZM97.9429 83.9717C98.4295 84.3133 98.9943 84.4773 99.6165 84.4773V83.4773C99.178 83.4773 98.8186 83.3647 98.5174 83.1533L97.9429 83.9717ZM99.6165 84.4773C100.024 84.4773 100.408 84.4062 100.762 84.2553L100.369 83.3356C100.155 83.4271 99.9062 83.4773 99.6165 83.4773V84.4773ZM100.762 84.2553C101.114 84.1052 101.417 83.8864 101.665 83.6002L100.909 82.9453C100.763 83.1136 100.585 83.2433 100.369 83.3356L100.762 84.2553ZM101.665 83.6002C101.917 83.3097 102.09 82.9665 102.191 82.5812L101.224 82.3279C101.158 82.5789 101.051 82.7812 100.909 82.9453L101.665 83.6002ZM101.707 82.9545H103.048V81.9545H101.707V82.9545ZM102.554 82.3818C102.489 82.819 102.332 83.207 102.081 83.5532L102.891 84.14C103.238 83.6605 103.456 83.1204 103.543 82.5273L102.554 82.3818ZM102.08 83.5538C101.836 83.8919 101.509 84.1666 101.087 84.376L101.532 85.2718C102.087 84.9963 102.544 84.6195 102.891 84.1393L102.08 83.5538ZM101.089 84.3753C100.685 84.5742 100.198 84.6818 99.6165 84.6818V85.6818C100.322 85.6818 100.965 85.5508 101.53 85.2725L101.089 84.3753ZM106.259 81.8182L105.759 81.825L105.774 82.9487L106.598 82.185L106.259 81.8182ZM106.236 80.1591V79.6591H105.729L105.736 80.1659L106.236 80.1591ZM106.509 80.1591V80.6591H106.718L106.865 80.5095L106.509 80.1591ZM110.327 76.2727V75.7727H110.117L109.97 75.9223L110.327 76.2727ZM111.986 76.2727L112.341 76.6243L113.183 75.7727H111.986V76.2727ZM107.918 80.3864V80.8864H108.126L108.273 80.7379L107.918 80.3864ZM107.804 80.3864V79.8864H107.608L107.464 80.0196L107.804 80.3864ZM105.009 85H104.509V85.5H105.009V85ZM105.009 73.3636V72.8636H104.509V73.3636H105.009ZM106.349 73.3636H106.849V72.8636H106.349V73.3636ZM106.349 85V85.5H106.849V85H106.349ZM110.554 85L110.162 85.3098L110.312 85.5H110.554V85ZM107.145 80.6818L106.796 80.324L106.474 80.6384L106.752 80.9916L107.145 80.6818ZM108.099 79.75L108.491 79.4395L108.147 79.0048L107.75 79.3922L108.099 79.75ZM112.259 85V85.5H113.293L112.65 84.6895L112.259 85ZM106.758 81.8113L106.736 80.1522L105.736 80.1659L105.759 81.825L106.758 81.8113ZM106.236 80.6591H106.509V79.6591H106.236V80.6591ZM106.865 80.5095L110.683 76.6231L109.97 75.9223L106.152 79.8087L106.865 80.5095ZM110.327 76.7727H111.986V75.7727H110.327V76.7727ZM111.63 75.9211L107.562 80.0348L108.273 80.7379L112.341 76.6243L111.63 75.9211ZM107.918 79.8864H107.804V80.8864H107.918V79.8864ZM107.464 80.0196L105.919 81.4514L106.598 82.185L108.144 80.7531L107.464 80.0196ZM105.509 85V73.3636H104.509V85H105.509ZM105.009 73.8636H106.349V72.8636H105.009V73.8636ZM105.849 73.3636V85H106.849V73.3636H105.849ZM106.349 84.5H105.009V85.5H106.349V84.5ZM110.946 84.6902L107.537 80.372L106.752 80.9916L110.162 85.3098L110.946 84.6902ZM107.494 81.0396L108.449 80.1078L107.75 79.3922L106.796 80.324L107.494 81.0396ZM107.708 80.0605L111.867 85.3105L112.65 84.6895L108.491 79.4395L107.708 80.0605ZM112.259 84.5H110.554V85.5H112.259V84.5ZM115.689 85L115.211 85.1457L115.319 85.5H115.689V85ZM113.03 76.2727V75.7727H112.355L112.552 76.4185L113.03 76.2727ZM114.439 76.2727L114.92 76.1369L114.817 75.7727H114.439V76.2727ZM116.325 82.9545L115.844 83.0904L115.947 83.4545H116.325V82.9545ZM116.416 82.9545V83.4545H116.796L116.898 83.0889L116.416 82.9545ZM118.28 76.2727V75.7727H117.9L117.798 76.1384L118.28 76.2727ZM119.712 76.2727L120.194 76.1395L120.092 75.7727H119.712V76.2727ZM121.553 82.9318L121.071 83.065L121.172 83.4318H121.553V82.9318ZM121.643 82.9318V83.4318H122.022L122.125 83.0681L121.643 82.9318ZM123.53 76.2727V75.7727H123.152L123.049 76.1365L123.53 76.2727ZM124.939 76.2727L125.417 76.4185L125.614 75.7727H124.939V76.2727ZM122.28 85V85.5H122.65L122.758 85.1457L122.28 85ZM120.962 85L120.481 85.1369L120.584 85.5H120.962V85ZM119.053 78.2955L119.533 78.1585L119.43 77.7955H119.053V78.2955ZM118.916 78.2955V77.7955H118.539L118.435 78.1585L118.916 78.2955ZM117.007 85V85.5H117.385L117.488 85.1369L117.007 85ZM116.167 84.8543L113.508 76.127L112.552 76.4185L115.211 85.1457L116.167 84.8543ZM113.03 76.7727H114.439V75.7727H113.03V76.7727ZM113.958 76.4086L115.844 83.0904L116.806 82.8187L114.92 76.1369L113.958 76.4086ZM116.325 83.4545H116.416V82.4545H116.325V83.4545ZM116.898 83.0889L118.761 76.4071L117.798 76.1384L115.935 82.8202L116.898 83.0889ZM118.28 76.7727H119.712V75.7727H118.28V76.7727ZM119.23 76.406L121.071 83.065L122.034 82.7986L120.194 76.1395L119.23 76.406ZM121.553 83.4318H121.643V82.4318H121.553V83.4318ZM122.125 83.0681L124.011 76.409L123.049 76.1365L121.162 82.7955L122.125 83.0681ZM123.53 76.7727H124.939V75.7727H123.53V76.7727ZM124.461 76.127L121.802 84.8543L122.758 85.1457L125.417 76.4185L124.461 76.127ZM122.28 84.5H120.962V85.5H122.28V84.5ZM121.443 84.8631L119.533 78.1585L118.572 78.4324L120.481 85.1369L121.443 84.8631ZM119.053 77.7955H118.916V78.7955H119.053V77.7955ZM118.435 78.1585L116.526 84.8631L117.488 85.1369L119.397 78.4324L118.435 78.1585ZM117.007 84.5H115.689V85.5H117.007V84.5ZM126.712 85H126.212V85.5H126.712V85ZM126.712 76.2727V75.7727H126.212V76.2727H126.712ZM128.053 76.2727H128.553V75.7727H128.053V76.2727ZM128.053 85V85.5H128.553V85H128.053ZM126.717 74.5511L126.371 74.912L126.375 74.9154L126.717 74.5511ZM126.717 73.267L126.375 72.9027L126.371 72.9062L126.717 73.267ZM128.064 73.267L127.718 73.6279L127.721 73.6314L128.064 73.267ZM128.064 74.5511L127.721 74.1868L127.718 74.1903L128.064 74.5511ZM127.212 85V76.2727H126.212V85H127.212ZM126.712 76.7727H128.053V75.7727H126.712V76.7727ZM127.553 76.2727V85H128.553V76.2727H127.553ZM128.053 84.5H126.712V85.5H128.053V84.5ZM127.393 74.3182C127.259 74.3182 127.156 74.2772 127.06 74.1868L126.375 74.9154C126.658 75.1812 127.006 75.3182 127.393 75.3182V74.3182ZM127.063 74.1903C126.973 74.1035 126.939 74.0185 126.939 73.9091H125.939C125.939 74.2997 126.09 74.6427 126.371 74.912L127.063 74.1903ZM126.939 73.9091C126.939 73.7997 126.973 73.7147 127.063 73.6279L126.371 72.9062C126.09 73.1755 125.939 73.5185 125.939 73.9091H126.939ZM127.06 73.6314C127.156 73.541 127.259 73.5 127.393 73.5V72.5C127.006 72.5 126.658 72.637 126.375 72.9027L127.06 73.6314ZM127.393 73.5C127.528 73.5 127.627 73.5408 127.718 73.6279L128.41 72.9062C128.13 72.6373 127.781 72.5 127.393 72.5V73.5ZM127.721 73.6314C127.815 73.7191 127.848 73.8031 127.848 73.9091H128.848C128.848 73.5151 128.692 73.171 128.406 72.9027L127.721 73.6314ZM127.848 73.9091C127.848 74.0151 127.815 74.0991 127.721 74.1868L128.406 74.9155C128.692 74.6472 128.848 74.3031 128.848 73.9091H127.848ZM127.718 74.1903C127.627 74.2774 127.528 74.3182 127.393 74.3182V75.3182C127.781 75.3182 128.13 75.1809 128.41 74.912L127.718 74.1903ZM136.69 78.2273L136.827 78.7084L137.331 78.5655L137.164 78.0683L136.69 78.2273ZM135.486 78.5682L135.018 78.7447L135.18 79.1743L135.622 79.0493L135.486 78.5682ZM135.151 77.983L134.75 78.2818L134.756 78.2905L135.151 77.983ZM134.56 77.5057L134.783 77.0585L134.783 77.0585L134.56 77.5057ZM132.264 77.6875L132.548 78.0994L132.549 78.0988L132.264 77.6875ZM132.099 79.4034L131.788 79.7944L131.788 79.7944L132.099 79.4034ZM133.236 79.8864L133.115 80.3714L133.117 80.3719L133.236 79.8864ZM134.531 80.2045L134.412 80.6901L134.413 80.6904L134.531 80.2045ZM136.276 81.0739L135.919 81.4239L135.92 81.4257L136.276 81.0739ZM136.418 83.9091L136.014 83.6141L136.012 83.6166L136.418 83.9091ZM131.23 84.6023L131.506 84.1854L131.506 84.1854L131.23 84.6023ZM130.122 82.9091L130.001 82.424L129.534 82.5407L129.633 83.0115L130.122 82.9091ZM131.395 82.5909L131.879 82.466L131.755 81.9855L131.274 82.1058L131.395 82.5909ZM132.082 83.6477L131.797 84.058L131.799 84.0595L132.082 83.6477ZM134.906 83.6023L135.199 84.0077L135.2 84.0072L134.906 83.6023ZM135.145 81.875L134.795 82.2317L134.798 82.2349L135.145 81.875ZM134.168 81.4091L134.054 81.8959L134.054 81.8961L134.168 81.4091ZM132.713 81.0682L132.598 81.5547L132.599 81.555L132.713 81.0682ZM130.952 80.1875L130.585 80.5269L130.588 80.5305L130.952 80.1875ZM130.81 77.375L130.408 77.0776L130.406 77.0802L130.81 77.375ZM131.952 76.483L131.748 76.0262L131.747 76.0268L131.952 76.483ZM135.634 76.7273L135.329 77.1236L135.33 77.1247L135.634 76.7273ZM136.554 77.7462L135.35 78.0871L135.622 79.0493L136.827 78.7084L136.554 77.7462ZM135.954 78.3917C135.858 78.1385 135.72 77.8999 135.545 77.6754L134.756 78.2905C134.877 78.4448 134.962 78.5963 135.018 78.7447L135.954 78.3917ZM135.552 77.6842C135.354 77.419 135.092 77.2128 134.783 77.0585L134.336 77.9529C134.527 78.0485 134.659 78.1605 134.75 78.2817L135.552 77.6842ZM134.783 77.0585C134.442 76.8878 134.038 76.8182 133.599 76.8182V77.8182C133.941 77.8182 134.177 77.8736 134.336 77.9529L134.783 77.0585ZM133.599 76.8182C132.988 76.8182 132.437 76.96 131.98 77.2762L132.549 78.0988C132.803 77.9226 133.143 77.8182 133.599 77.8182V76.8182ZM131.981 77.2756C131.515 77.5961 131.236 78.049 131.236 78.6136H132.236C132.236 78.4283 132.309 78.2637 132.548 78.0994L131.981 77.2756ZM131.236 78.6136C131.236 79.086 131.416 79.4985 131.788 79.7944L132.411 79.0124C132.298 78.922 132.236 78.8079 132.236 78.6136H131.236ZM131.788 79.7944C132.113 80.0533 132.573 80.236 133.115 80.3714L133.357 79.4013C132.869 79.2792 132.571 79.1399 132.411 79.0124L131.788 79.7944ZM133.117 80.3719L134.412 80.6901L134.651 79.719L133.355 79.4008L133.117 80.3719ZM134.413 80.6904C135.143 80.8675 135.625 81.1248 135.919 81.4239L136.633 80.7238C136.161 80.2426 135.48 79.9204 134.649 79.7187L134.413 80.6904ZM135.92 81.4257C136.199 81.7067 136.349 82.0726 136.349 82.5682H137.349C137.349 81.8441 137.118 81.2138 136.631 80.7221L135.92 81.4257ZM136.349 82.5682C136.349 82.9649 136.238 83.308 136.014 83.6141L136.821 84.2041C137.173 83.7223 137.349 83.1714 137.349 82.5682H136.349ZM136.012 83.6166C135.787 83.9285 135.464 84.1871 135.021 84.384L135.428 85.2978C136.007 85.0402 136.48 84.6776 136.823 84.2016L136.012 83.6166ZM135.021 84.384C134.586 84.5775 134.063 84.6818 133.44 84.6818V85.6818C134.174 85.6818 134.84 85.5589 135.428 85.2978L135.021 84.384ZM133.44 84.6818C132.622 84.6818 131.988 84.5045 131.506 84.1854L130.954 85.0191C131.639 85.4728 132.479 85.6818 133.44 85.6818V84.6818ZM131.506 84.1854C131.042 83.8782 130.742 83.4322 130.612 82.8067L129.633 83.0115C129.813 83.8708 130.251 84.5536 130.954 85.0191L131.506 84.1854ZM130.243 83.3942L131.516 83.076L131.274 82.1058L130.001 82.424L130.243 83.3942ZM130.911 82.7158C131.056 83.2793 131.344 83.7429 131.797 84.058L132.368 83.2375C132.146 83.0829 131.976 82.8419 131.879 82.466L130.911 82.7158ZM131.799 84.0595C132.246 84.3679 132.8 84.5 133.418 84.5V83.5C132.937 83.5 132.6 83.3973 132.366 83.236L131.799 84.0595ZM133.418 84.5C134.109 84.5 134.719 84.3538 135.199 84.0077L134.614 83.1968C134.358 83.3811 133.976 83.5 133.418 83.5V84.5ZM135.2 84.0072C135.668 83.6677 135.963 83.2079 135.963 82.6364H134.963C134.963 82.8148 134.887 82.999 134.613 83.1974L135.2 84.0072ZM135.963 82.6364C135.963 82.2019 135.805 81.8168 135.492 81.5151L134.798 82.2349C134.909 82.3423 134.963 82.4648 134.963 82.6364H135.963ZM135.495 81.5183C135.192 81.2205 134.767 81.0352 134.281 80.9221L134.054 81.8961C134.447 81.9875 134.673 82.1129 134.795 82.2317L135.495 81.5183ZM134.282 80.9223L132.827 80.5814L132.599 81.555L134.054 81.8959L134.282 80.9223ZM132.828 80.5817C132.079 80.4042 131.598 80.1438 131.315 79.8445L130.588 80.5305C131.056 81.0267 131.748 81.3534 132.598 81.5547L132.828 80.5817ZM131.319 79.8481C131.042 79.5486 130.895 79.1721 130.895 78.6818H129.895C129.895 79.3961 130.119 80.0233 130.585 80.5269L131.319 79.8481ZM130.895 78.6818C130.895 78.2897 131.003 77.9585 131.214 77.6698L130.406 77.0802C130.064 77.549 129.895 78.0891 129.895 78.6818H130.895ZM131.212 77.6724C131.435 77.3705 131.744 77.1242 132.156 76.9391L131.747 76.0268C131.197 76.2736 130.745 76.6219 130.408 77.0776L131.212 77.6724ZM132.155 76.9397C132.567 76.7564 133.045 76.6591 133.599 76.6591V75.6591C132.927 75.6591 132.306 75.7777 131.748 76.0262L132.155 76.9397ZM133.599 76.6591C134.395 76.6591 134.952 76.8339 135.329 77.1236L135.938 76.331C135.33 75.8631 134.531 75.6591 133.599 75.6591V76.6591ZM135.33 77.1247C135.743 77.4398 136.038 77.8548 136.216 78.3863L137.164 78.0683C136.926 77.3573 136.517 76.7724 135.937 76.3298L135.33 77.1247ZM140.351 84.625L140.088 85.0502L140.091 85.0521L140.351 84.625ZM138.947 83.0568L138.497 83.2743L138.499 83.2774L138.947 83.0568ZM138.947 78.3409L138.497 78.1243L138.496 78.1254L138.947 78.3409ZM140.322 76.7386L140.595 77.1575L140.596 77.1571L140.322 76.7386ZM143.737 76.3864L143.899 75.9132L143.899 75.9132L143.737 76.3864ZM144.947 77.125L144.605 77.4898L144.608 77.4917L144.947 77.125ZM145.817 78.4659L146.283 78.2851L146.283 78.2851L145.817 78.4659ZM146.141 81.0909V81.5909H146.641V81.0909H146.141ZM139.413 81.0909H138.913V81.5909H139.413V81.0909ZM139.413 79.9318V79.4318H138.913V79.9318H139.413ZM144.777 79.9318V80.4318H145.277V79.9318H144.777ZM144.482 78.6136L144.034 78.8372L144.036 78.8407L144.482 78.6136ZM143.652 77.6989L143.386 78.1224L143.388 78.1236L143.652 77.6989ZM141.004 77.7614L141.284 78.1755L141.285 78.1749L141.004 77.7614ZM140.112 78.7841L139.664 78.5621L139.664 78.5621L140.112 78.7841ZM140.141 82.5852L139.693 82.8074L139.695 82.8118L140.141 82.5852ZM141.101 83.625L140.849 84.0569L140.852 84.0586L141.101 83.625ZM143.482 83.8295L143.645 84.302L143.649 84.3007L143.482 83.8295ZM144.226 83.375L144.573 83.7351L144.576 83.7318L144.226 83.375ZM144.709 82.6136L144.844 82.1322L144.402 82.0082L144.241 82.4381L144.709 82.6136ZM146.004 82.9773L146.482 83.1255L146.634 82.6347L146.139 82.4959L146.004 82.9773ZM145.317 84.1364L145.674 84.4858L145.676 84.4837L145.317 84.1364ZM144.124 84.9091L144.303 85.3759L144.306 85.3746L144.124 84.9091ZM142.527 84.6818C141.761 84.6818 141.129 84.5135 140.611 84.1979L140.091 85.0521C140.792 85.4789 141.611 85.6818 142.527 85.6818V84.6818ZM140.614 84.1998C140.092 83.8767 139.686 83.4267 139.396 82.8363L138.499 83.2774C138.868 84.0279 139.398 84.6233 140.088 85.0502L140.614 84.1998ZM139.398 82.8393C139.11 82.2448 138.959 81.5376 138.959 80.7045H137.959C137.959 81.6594 138.133 82.5204 138.497 83.2743L139.398 82.8393ZM138.959 80.7045C138.959 79.8717 139.11 79.1597 139.399 78.5565L138.496 78.1254C138.133 78.8857 137.959 79.7495 137.959 80.7045H138.959ZM139.398 78.5575C139.692 77.947 140.091 77.486 140.595 77.1575L140.049 76.3197C139.379 76.7565 138.862 77.3636 138.497 78.1243L139.398 78.5575ZM140.596 77.1571C141.096 76.83 141.688 76.6591 142.391 76.6591V75.6591C141.517 75.6591 140.73 75.8746 140.049 76.3202L140.596 77.1571ZM142.391 76.6591C142.788 76.6591 143.183 76.7252 143.575 76.8595L143.899 75.9132C143.405 75.7445 142.902 75.6591 142.391 75.6591V76.6591ZM143.575 76.8595C143.947 76.9866 144.29 77.1942 144.605 77.4898L145.289 76.7602C144.877 76.374 144.413 76.0891 143.899 75.9132L143.575 76.8595ZM144.608 77.4917C144.905 77.7677 145.157 78.1463 145.351 78.6467L146.283 78.2851C146.045 77.6719 145.717 77.1565 145.287 76.7583L144.608 77.4917ZM145.351 78.6467C145.538 79.129 145.641 79.7491 145.641 80.5227H146.641C146.641 79.6675 146.528 78.9164 146.283 78.2851L145.351 78.6467ZM145.641 80.5227V81.0909H146.641V80.5227H145.641ZM146.141 80.5909H139.413V81.5909H146.141V80.5909ZM139.913 81.0909V79.9318H138.913V81.0909H139.913ZM139.413 80.4318H144.777V79.4318H139.413V80.4318ZM145.277 79.9318C145.277 79.3712 145.164 78.8522 144.927 78.3865L144.036 78.8407C144.193 79.1478 144.277 79.5076 144.277 79.9318H145.277ZM144.929 78.39C144.695 77.9227 144.356 77.5474 143.916 77.2741L143.388 78.1236C143.668 78.2973 143.882 78.5319 144.034 78.8372L144.929 78.39ZM143.918 77.2754C143.47 76.9946 142.955 76.8636 142.391 76.8636V77.8636C142.796 77.8636 143.121 77.9561 143.386 78.1224L143.918 77.2754ZM142.391 76.8636C141.77 76.8636 141.207 77.0191 140.723 77.3478L141.285 78.1749C141.582 77.9733 141.943 77.8636 142.391 77.8636V76.8636ZM140.724 77.3472C140.266 77.6573 139.911 78.0646 139.664 78.5621L140.56 79.0061C140.73 78.6626 140.97 78.3881 141.284 78.1755L140.724 77.3472ZM139.664 78.5621C139.421 79.0533 139.3 79.5803 139.3 80.1364H140.3C140.3 79.7303 140.387 79.3558 140.56 79.0061L139.664 78.5621ZM139.3 80.1364V80.9091H140.3V80.1364H139.3ZM139.3 80.9091C139.3 81.6238 139.423 82.263 139.693 82.8074L140.589 82.3631C140.404 81.9908 140.3 81.5126 140.3 80.9091H139.3ZM139.695 82.8118C139.966 83.3451 140.35 83.7661 140.849 84.0569L141.353 83.1931C141.033 83.0066 140.777 82.7344 140.586 82.3587L139.695 82.8118ZM140.852 84.0586C141.347 84.3431 141.911 84.4773 142.527 84.4773V83.4773C142.06 83.4773 141.672 83.3766 141.35 83.1914L140.852 84.0586ZM142.527 84.4773C142.926 84.4773 143.3 84.4215 143.645 84.302L143.318 83.3571C143.095 83.4345 142.833 83.4773 142.527 83.4773V84.4773ZM143.649 84.3007C144 84.176 144.31 83.9879 144.573 83.735L143.879 83.015C143.725 83.1636 143.539 83.2786 143.314 83.3584L143.649 84.3007ZM144.576 83.7318C144.842 83.4708 145.041 83.153 145.177 82.7892L144.241 82.4381C144.15 82.6803 144.026 82.8701 143.876 83.0182L144.576 83.7318ZM144.574 83.095L145.869 83.4587L146.139 82.4959L144.844 82.1322L144.574 83.095ZM145.527 82.8291C145.414 83.1932 145.225 83.5115 144.957 83.789L145.676 84.4837C146.052 84.0946 146.322 83.6401 146.482 83.1255L145.527 82.8291ZM144.959 83.7869C144.692 84.0608 144.356 84.2811 143.941 84.4436L144.306 85.3746C144.839 85.1658 145.298 84.871 145.674 84.4858L144.959 83.7869ZM143.944 84.4423C143.537 84.5989 143.067 84.6818 142.527 84.6818V85.6818C143.169 85.6818 143.764 85.5829 144.303 85.3759L143.944 84.4423Z" fill="black"/>
</svg>
