<svg width="144" height="144" viewBox="0 0 144 144" fill="none" xmlns="http://www.w3.org/2000/svg">
<circle cx="82" cy="82" r="4" fill="#C83434"/>
<circle cx="122" cy="82" r="4" fill="#C83434"/>
<circle cx="42" cy="82" r="4" fill="#C83434"/>
<circle cx="62" cy="62" r="4" fill="#C83434"/>
<circle cx="102" cy="62" r="4" fill="#C83434"/>
<circle cx="22" cy="62" r="4" fill="#C83434"/>
<circle cx="82" cy="42" r="4" fill="#C83434"/>
<circle cx="122" cy="42" r="4" fill="#C83434"/>
<circle cx="42" cy="42" r="4" fill="#C83434"/>
<circle cx="62" cy="22" r="4" fill="#C83434"/>
<circle cx="102" cy="22" r="4" fill="#C83434"/>
<circle cx="22" cy="22" r="4" fill="#C83434"/>
<circle cx="62" cy="102" r="4" fill="#C83434"/>
<circle cx="102" cy="102" r="4" fill="#C83434"/>
<circle cx="22" cy="102" r="4" fill="#C83434"/>
<circle cx="82" cy="122" r="4" fill="#C83434"/>
<circle cx="122" cy="122" r="4" fill="#C83434"/>
<circle cx="42" cy="122" r="4" fill="#C83434"/>
<rect width="4" height="19" transform="matrix(0 -1 -1 0 42 24)" fill="#C83434"/>
<rect width="4" height="19" transform="matrix(0 -1 -1 0 81 24)" fill="#C83434"/>
<rect width="4" height="19" transform="matrix(0 -1 -1 0 121 24)" fill="#C83434"/>
<rect width="4" height="19" transform="matrix(0 -1 -1 0 44 44)" fill="#C83434"/>
<rect width="4" height="19" transform="matrix(0 -1 -1 0 83 44)" fill="#C83434"/>
<rect width="4" height="19" transform="matrix(0 -1 -1 0 123 44)" fill="#C83434"/>
<rect width="4" height="19" transform="matrix(0 -1 -1 0 43 64)" fill="#C83434"/>
<rect width="4" height="19" transform="matrix(0 -1 -1 0 82 64)" fill="#C83434"/>
<rect width="4" height="19" transform="matrix(0 -1 -1 0 122 64)" fill="#C83434"/>
<rect width="4" height="19" transform="matrix(0 -1 -1 0 43 84)" fill="#C83434"/>
<rect width="4" height="19" transform="matrix(0 -1 -1 0 82 84)" fill="#C83434"/>
<rect width="4" height="19" transform="matrix(0 -1 -1 0 122 84)" fill="#C83434"/>
<rect width="4" height="19" transform="matrix(0 -1 -1 0 43 104)" fill="#C83434"/>
<rect width="4" height="19" transform="matrix(0 -1 -1 0 82 104)" fill="#C83434"/>
<rect width="4" height="19" transform="matrix(0 -1 -1 0 122 104)" fill="#C83434"/>
<rect width="4" height="19" transform="matrix(0 -1 -1 0 43 124)" fill="#C83434"/>
<rect width="4" height="19" transform="matrix(0 -1 -1 0 82 124)" fill="#C83434"/>
<rect width="4" height="19" transform="matrix(0 -1 -1 0 122 124)" fill="#C83434"/>
<circle cx="42" cy="22" r="5" fill="#57ACDC"/>
<circle cx="42" cy="22" r="3" fill="#496989"/>
<path d="M87 22C87 24.7614 84.7614 27 82 27C79.2386 27 77 24.7614 77 22C77 19.2386 79.2386 17 82 17C84.7614 17 87 19.2386 87 22Z" fill="#57ACDC"/>
<circle cx="82" cy="22" r="3" fill="#496989"/>
<path d="M127 22C127 24.7614 124.761 27 122 27C119.239 27 117 24.7614 117 22C117 19.2386 119.239 17 122 17C124.761 17 127 19.2386 127 22Z" fill="#57ACDC"/>
<circle cx="122" cy="22" r="3" fill="#496989"/>
<circle cx="22" cy="42" r="5" fill="#57ACDC"/>
<circle cx="22" cy="42" r="3" fill="#496989"/>
<path d="M67 42C67 44.7614 64.7614 47 62 47C59.2386 47 57 44.7614 57 42C57 39.2386 59.2386 37 62 37C64.7614 37 67 39.2386 67 42Z" fill="#57ACDC"/>
<circle cx="62" cy="42" r="3" fill="#496989"/>
<path d="M107 42C107 44.7614 104.761 47 102 47C99.2386 47 97 44.7614 97 42C97 39.2386 99.2386 37 102 37C104.761 37 107 39.2386 107 42Z" fill="#57ACDC"/>
<circle cx="102" cy="42" r="3" fill="#496989"/>
<circle cx="42" cy="62" r="5" fill="#57ACDC"/>
<circle cx="42" cy="62" r="3" fill="#496989"/>
<path d="M87 62C87 64.7614 84.7614 67 82 67C79.2386 67 77 64.7614 77 62C77 59.2386 79.2386 57 82 57C84.7614 57 87 59.2386 87 62Z" fill="#57ACDC"/>
<circle cx="82" cy="62" r="3" fill="#496989"/>
<path d="M127 62C127 64.7614 124.761 67 122 67C119.239 67 117 64.7614 117 62C117 59.2386 119.239 57 122 57C124.761 57 127 59.2386 127 62Z" fill="#57ACDC"/>
<circle cx="122" cy="62" r="3" fill="#496989"/>
<circle cx="22" cy="82" r="5" fill="#57ACDC"/>
<circle cx="22" cy="82" r="3" fill="#496989"/>
<path d="M67 82C67 84.7614 64.7614 87 62 87C59.2386 87 57 84.7614 57 82C57 79.2386 59.2386 77 62 77C64.7614 77 67 79.2386 67 82Z" fill="#57ACDC"/>
<circle cx="62" cy="82" r="3" fill="#496989"/>
<path d="M107 82C107 84.7614 104.761 87 102 87C99.2386 87 97 84.7614 97 82C97 79.2386 99.2386 77 102 77C104.761 77 107 79.2386 107 82Z" fill="#57ACDC"/>
<circle cx="102" cy="82" r="3" fill="#496989"/>
<circle cx="42" cy="102" r="5" fill="#57ACDC"/>
<circle cx="42" cy="102" r="3" fill="#496989"/>
<path d="M87 102C87 104.761 84.7614 107 82 107C79.2386 107 77 104.761 77 102C77 99.2386 79.2386 97 82 97C84.7614 97 87 99.2386 87 102Z" fill="#57ACDC"/>
<circle cx="82" cy="102" r="3" fill="#496989"/>
<path d="M127 102C127 104.761 124.761 107 122 107C119.239 107 117 104.761 117 102C117 99.2386 119.239 97 122 97C124.761 97 127 99.2386 127 102Z" fill="#57ACDC"/>
<circle cx="122" cy="102" r="3" fill="#496989"/>
<circle cx="22" cy="122" r="5" fill="#57ACDC"/>
<circle cx="22" cy="122" r="3" fill="#496989"/>
<path d="M67 122C67 124.761 64.7614 127 62 127C59.2386 127 57 124.761 57 122C57 119.239 59.2386 117 62 117C64.7614 117 67 119.239 67 122Z" fill="#57ACDC"/>
<circle cx="62" cy="122" r="3" fill="#496989"/>
<path d="M107 122C107 124.761 104.761 127 102 127C99.2386 127 97 124.761 97 122C97 119.239 99.2386 117 102 117C104.761 117 107 119.239 107 122Z" fill="#57ACDC"/>
<circle cx="102" cy="122" r="3" fill="#496989"/>
<rect x="1" y="1" width="4" height="142" fill="#F2EDA1"/>
<rect x="139" y="1" width="4" height="142" fill="#F2EDA1"/>
<rect x="1" y="5" width="4" height="142" transform="rotate(-90 1 5)" fill="#F2EDA1"/>
<rect x="1" y="143" width="4" height="142" transform="rotate(-90 1 143)" fill="#F2EDA1"/>
</svg>
