<svg width="160" height="160" viewBox="0 0 160 160" fill="none" xmlns="http://www.w3.org/2000/svg">
<rect width="160" height="160" fill="#D9D9D9"/>
<path d="M24.2102 80.4375V87H22.5341V72.4545H24.2102V77.7955H24.3523C24.608 77.232 24.9915 76.7846 25.5028 76.4531C26.0189 76.117 26.7055 75.9489 27.5625 75.9489C28.3059 75.9489 28.9569 76.098 29.5156 76.3963C30.0743 76.6899 30.5076 77.142 30.8153 77.7528C31.1278 78.3589 31.2841 79.1307 31.2841 80.0682V87H29.608V80.1818C29.608 79.3153 29.383 78.6454 28.9332 78.1719C28.4882 77.6937 27.8703 77.4545 27.0795 77.4545C26.5303 77.4545 26.0379 77.5705 25.6023 77.8026C25.1714 78.0346 24.8305 78.3731 24.5795 78.8182C24.3333 79.2633 24.2102 79.803 24.2102 80.4375ZM38.7823 87.2273C37.7975 87.2273 36.9334 86.9929 36.19 86.5241C35.4513 86.0554 34.8737 85.3996 34.457 84.5568C34.0451 83.714 33.8391 82.7292 33.8391 81.6023C33.8391 80.4659 34.0451 79.474 34.457 78.6264C34.8737 77.7789 35.4513 77.1207 36.19 76.652C36.9334 76.1832 37.7975 75.9489 38.7823 75.9489C39.7672 75.9489 40.6289 76.1832 41.3675 76.652C42.1109 77.1207 42.6886 77.7789 43.1005 78.6264C43.5172 79.474 43.7255 80.4659 43.7255 81.6023C43.7255 82.7292 43.5172 83.714 43.1005 84.5568C42.6886 85.3996 42.1109 86.0554 41.3675 86.5241C40.6289 86.9929 39.7672 87.2273 38.7823 87.2273ZM38.7823 85.7216C39.5304 85.7216 40.146 85.5298 40.6289 85.1463C41.1119 84.7628 41.4693 84.2585 41.7013 83.6335C41.9334 83.0085 42.0494 82.3314 42.0494 81.6023C42.0494 80.8731 41.9334 80.1937 41.7013 79.5639C41.4693 78.9342 41.1119 78.4252 40.6289 78.0369C40.146 77.6487 39.5304 77.4545 38.7823 77.4545C38.0342 77.4545 37.4187 77.6487 36.9357 78.0369C36.4528 78.4252 36.0953 78.9342 35.8633 79.5639C35.6313 80.1937 35.5153 80.8731 35.5153 81.6023C35.5153 82.3314 35.6313 83.0085 35.8633 83.6335C36.0953 84.2585 36.4528 84.7628 36.9357 85.1463C37.4187 85.5298 38.0342 85.7216 38.7823 85.7216ZM46.2841 87V76.0909H47.9034V77.7386H48.017C48.2159 77.1989 48.5758 76.7609 49.0966 76.4247C49.6174 76.0885 50.2045 75.9205 50.858 75.9205C50.9811 75.9205 51.1349 75.9228 51.3196 75.9276C51.5043 75.9323 51.6439 75.9394 51.7386 75.9489V77.6534C51.6818 77.6392 51.5516 77.6179 51.348 77.5895C51.1491 77.5563 50.9384 77.5398 50.7159 77.5398C50.1856 77.5398 49.7121 77.651 49.2955 77.8736C48.8835 78.0914 48.5568 78.3944 48.3153 78.7827C48.0786 79.1662 47.9602 79.6042 47.9602 80.0966V87H46.2841ZM53.7255 87V76.0909H55.4016V87H53.7255ZM54.5778 74.2727C54.2511 74.2727 53.9693 74.1615 53.7326 73.9389C53.5006 73.7164 53.3846 73.4489 53.3846 73.1364C53.3846 72.8239 53.5006 72.5563 53.7326 72.3338C53.9693 72.1113 54.2511 72 54.5778 72C54.9045 72 55.1838 72.1113 55.4158 72.3338C55.6526 72.5563 55.771 72.8239 55.771 73.1364C55.771 73.4489 55.6526 73.7164 55.4158 73.9389C55.1838 74.1615 54.9045 74.2727 54.5778 74.2727ZM58.1591 87V85.7216L64.3523 77.767V77.6534H58.358V76.0909H66.5114V77.4261L60.4886 85.3239V85.4375H66.7102V87H58.1591ZM73.4112 87.2273C72.4264 87.2273 71.5623 86.9929 70.8189 86.5241C70.0803 86.0554 69.5026 85.3996 69.0859 84.5568C68.674 83.714 68.468 82.7292 68.468 81.6023C68.468 80.4659 68.674 79.474 69.0859 78.6264C69.5026 77.7789 70.0803 77.1207 70.8189 76.652C71.5623 76.1832 72.4264 75.9489 73.4112 75.9489C74.3961 75.9489 75.2578 76.1832 75.9964 76.652C76.7398 77.1207 77.3175 77.7789 77.7294 78.6264C78.1461 79.474 78.3544 80.4659 78.3544 81.6023C78.3544 82.7292 78.1461 83.714 77.7294 84.5568C77.3175 85.3996 76.7398 86.0554 75.9964 86.5241C75.2578 86.9929 74.3961 87.2273 73.4112 87.2273ZM73.4112 85.7216C74.1593 85.7216 74.7749 85.5298 75.2578 85.1463C75.7408 84.7628 76.0982 84.2585 76.3303 83.6335C76.5623 83.0085 76.6783 82.3314 76.6783 81.6023C76.6783 80.8731 76.5623 80.1937 76.3303 79.5639C76.0982 78.9342 75.7408 78.4252 75.2578 78.0369C74.7749 77.6487 74.1593 77.4545 73.4112 77.4545C72.6631 77.4545 72.0476 77.6487 71.5646 78.0369C71.0817 78.4252 70.7242 78.9342 70.4922 79.5639C70.2602 80.1937 70.1442 80.8731 70.1442 81.6023C70.1442 82.3314 70.2602 83.0085 70.4922 83.6335C70.7242 84.2585 71.0817 84.7628 71.5646 85.1463C72.0476 85.5298 72.6631 85.7216 73.4112 85.7216ZM82.5891 80.4375V87H80.913V76.0909H82.5323V77.7955H82.6744C82.93 77.2415 83.3183 76.7964 83.8391 76.4602C84.36 76.1193 85.0323 75.9489 85.8562 75.9489C86.5948 75.9489 87.2411 76.1004 87.7951 76.4034C88.3491 76.7017 88.7799 77.1562 89.0877 77.767C89.3955 78.3731 89.5494 79.1402 89.5494 80.0682V87H87.8732V80.1818C87.8732 79.3248 87.6507 78.6572 87.2056 78.179C86.7605 77.696 86.1497 77.4545 85.3732 77.4545C84.8382 77.4545 84.36 77.5705 83.9386 77.8026C83.5219 78.0346 83.1928 78.3731 82.9513 78.8182C82.7099 79.2633 82.5891 79.803 82.5891 80.4375ZM97.3565 76.0909V77.5114H91.7031V76.0909H97.3565ZM93.3509 73.4773H95.027V83.875C95.027 84.3485 95.0956 84.7036 95.233 84.9403C95.375 85.1723 95.5549 85.3286 95.7727 85.4091C95.9953 85.4848 96.2296 85.5227 96.4759 85.5227C96.6605 85.5227 96.812 85.5133 96.9304 85.4943C97.0488 85.4706 97.1435 85.4517 97.2145 85.4375L97.5554 86.9432C97.4418 86.9858 97.2831 87.0284 97.0795 87.071C96.8759 87.1184 96.6179 87.142 96.3054 87.142C95.8319 87.142 95.3679 87.0402 94.9134 86.8366C94.4635 86.633 94.0895 86.3229 93.7912 85.9062C93.4976 85.4896 93.3509 84.964 93.3509 84.3295V73.4773ZM103.088 87.2557C102.397 87.2557 101.769 87.1255 101.206 86.8651C100.643 86.5999 100.195 86.2188 99.8636 85.7216C99.5322 85.2197 99.3665 84.6136 99.3665 83.9034C99.3665 83.2784 99.4896 82.7718 99.7358 82.3835C99.982 81.9905 100.311 81.6828 100.723 81.4602C101.135 81.2377 101.589 81.072 102.087 80.9631C102.589 80.8494 103.093 80.7595 103.599 80.6932C104.262 80.608 104.8 80.544 105.212 80.5014C105.628 80.4541 105.931 80.3759 106.121 80.267C106.315 80.1581 106.412 79.9687 106.412 79.6989V79.642C106.412 78.9413 106.22 78.3968 105.837 78.0085C105.458 77.6203 104.883 77.4261 104.111 77.4261C103.311 77.4261 102.683 77.6013 102.229 77.9517C101.774 78.3021 101.455 78.6761 101.27 79.0739L99.679 78.5057C99.9631 77.8428 100.342 77.3267 100.815 76.9574C101.294 76.5833 101.814 76.3229 102.378 76.1761C102.946 76.0246 103.505 75.9489 104.054 75.9489C104.404 75.9489 104.807 75.9915 105.261 76.0767C105.721 76.1572 106.163 76.3253 106.589 76.581C107.02 76.8366 107.378 77.2225 107.662 77.7386C107.946 78.2547 108.088 78.946 108.088 79.8125V87H106.412V85.5227H106.327C106.213 85.7595 106.024 86.0128 105.759 86.2827C105.493 86.5526 105.141 86.7822 104.7 86.9716C104.26 87.161 103.723 87.2557 103.088 87.2557ZM103.344 85.75C104.007 85.75 104.565 85.6198 105.02 85.3594C105.479 85.099 105.825 84.7628 106.057 84.3509C106.294 83.9389 106.412 83.5057 106.412 83.0511V81.517C106.341 81.6023 106.185 81.6804 105.943 81.7514C105.706 81.8177 105.432 81.8769 105.119 81.929C104.812 81.9763 104.511 82.0189 104.217 82.0568C103.929 82.09 103.694 82.1184 103.514 82.142C103.079 82.1989 102.671 82.2912 102.293 82.419C101.919 82.5421 101.616 82.7292 101.384 82.9801C101.156 83.2263 101.043 83.5625 101.043 83.9886C101.043 84.571 101.258 85.0114 101.689 85.3097C102.125 85.6032 102.676 85.75 103.344 85.75ZM112.824 72.4545V87H111.147V72.4545H112.824Z" fill="black"/>
<path d="M24.2102 87V87.5H24.7102V87H24.2102ZM22.5341 87H22.0341V87.5H22.5341V87ZM22.5341 72.4545V71.9545H22.0341V72.4545H22.5341ZM24.2102 72.4545H24.7102V71.9545H24.2102V72.4545ZM24.2102 77.7955H23.7102V78.2955H24.2102V77.7955ZM24.3523 77.7955V78.2955H24.6745L24.8076 78.0021L24.3523 77.7955ZM25.5028 76.4531L25.7748 76.8727L25.7757 76.8721L25.5028 76.4531ZM29.5156 76.3963L29.2801 76.8374L29.2831 76.8389L29.5156 76.3963ZM30.8153 77.7528L30.3688 77.9778L30.3709 77.982L30.8153 77.7528ZM31.2841 87V87.5H31.7841V87H31.2841ZM29.608 87H29.108V87.5H29.608V87ZM28.9332 78.1719L28.5672 78.5125L28.5707 78.5162L28.9332 78.1719ZM25.6023 77.8026L25.3672 77.3612L25.3652 77.3623L25.6023 77.8026ZM24.5795 78.8182L24.144 78.5726L24.142 78.5762L24.5795 78.8182ZM23.7102 80.4375V87H24.7102V80.4375H23.7102ZM24.2102 86.5H22.5341V87.5H24.2102V86.5ZM23.0341 87V72.4545H22.0341V87H23.0341ZM22.5341 72.9545H24.2102V71.9545H22.5341V72.9545ZM23.7102 72.4545V77.7955H24.7102V72.4545H23.7102ZM24.2102 78.2955H24.3523V77.2955H24.2102V78.2955ZM24.8076 78.0021C25.0244 77.5243 25.3449 77.1513 25.7748 76.8727L25.2309 76.0335C24.638 76.4178 24.1915 76.9398 23.897 77.5888L24.8076 78.0021ZM25.7757 76.8721C26.1847 76.6057 26.7659 76.4489 27.5625 76.4489V75.4489C26.6451 75.4489 25.8532 75.6282 25.2299 76.0342L25.7757 76.8721ZM27.5625 76.4489C28.238 76.4489 28.8055 76.584 29.2801 76.8374L29.7511 75.9552C29.1083 75.612 28.3737 75.4489 27.5625 75.4489V76.4489ZM29.2831 76.8389C29.7417 77.0799 30.1038 77.4519 30.3688 77.9778L31.2619 77.5279C30.9113 76.8322 30.407 76.2998 29.7482 75.9537L29.2831 76.8389ZM30.3709 77.982C30.6358 78.4957 30.7841 79.1821 30.7841 80.0682H31.7841C31.7841 79.0793 31.6199 78.2221 31.2597 77.5237L30.3709 77.982ZM30.7841 80.0682V87H31.7841V80.0682H30.7841ZM31.2841 86.5H29.608V87.5H31.2841V86.5ZM30.108 87V80.1818H29.108V87H30.108ZM30.108 80.1818C30.108 79.2302 29.8596 78.421 29.2957 77.8275L28.5707 78.5162C28.9065 78.8697 29.108 79.4005 29.108 80.1818H30.108ZM29.2992 77.8312C28.7401 77.2304 27.9776 76.9545 27.0795 76.9545V77.9545C27.763 77.9545 28.2363 78.1569 28.5672 78.5125L29.2992 77.8312ZM27.0795 76.9545C26.4577 76.9545 25.8831 77.0865 25.3672 77.3612L25.8373 78.2439C26.1927 78.0546 26.6029 77.9545 27.0795 77.9545V76.9545ZM25.3652 77.3623C24.8473 77.6412 24.4392 78.049 24.144 78.5726L25.0151 79.0638C25.2218 78.6972 25.4955 78.4279 25.8393 78.2428L25.3652 77.3623ZM24.142 78.5762C23.8459 79.1115 23.7102 79.739 23.7102 80.4375H24.7102C24.7102 79.8671 24.8208 79.415 25.0171 79.0602L24.142 78.5762ZM36.19 86.5241L35.9221 86.9463L35.9233 86.9471L36.19 86.5241ZM34.457 84.5568L34.0078 84.7764L34.0088 84.7784L34.457 84.5568ZM34.457 78.6264L34.0083 78.4058L34.0073 78.4079L34.457 78.6264ZM36.19 76.652L35.9233 76.2291L35.9221 76.2298L36.19 76.652ZM41.3675 76.652L41.0996 77.0742L41.1009 77.0749L41.3675 76.652ZM43.1005 78.6264L42.6508 78.845L42.6518 78.847L43.1005 78.6264ZM43.1005 84.5568L42.6523 84.3352L42.6513 84.3373L43.1005 84.5568ZM41.3675 86.5241L41.1008 86.1012L41.0996 86.102L41.3675 86.5241ZM40.6289 85.1463L40.318 84.7548L40.318 84.7548L40.6289 85.1463ZM41.7013 83.6335L42.1701 83.8075L42.1701 83.8075L41.7013 83.6335ZM41.7013 79.5639L42.1705 79.3911L42.1705 79.3911L41.7013 79.5639ZM40.6289 78.0369L40.9422 77.6472L40.9422 77.6472L40.6289 78.0369ZM36.9357 78.0369L36.6224 77.6472L36.6224 77.6472L36.9357 78.0369ZM35.8633 79.5639L35.3941 79.3911L35.3941 79.3911L35.8633 79.5639ZM35.8633 83.6335L35.3945 83.8075L35.3945 83.8075L35.8633 83.6335ZM36.9357 85.1463L37.2467 84.7548L37.2467 84.7548L36.9357 85.1463ZM38.7823 86.7273C37.8801 86.7273 37.1108 86.5137 36.4567 86.1012L35.9233 86.9471C36.7559 87.4721 37.7148 87.7273 38.7823 87.7273V86.7273ZM36.4579 86.102C35.8024 85.686 35.2845 85.1023 34.9052 84.3352L34.0088 84.7784C34.4629 85.697 35.1003 86.4248 35.9221 86.9463L36.4579 86.102ZM34.9062 84.3373C34.5338 83.5752 34.3391 82.6682 34.3391 81.6023H33.3391C33.3391 82.7901 33.5564 83.8528 34.0078 84.7764L34.9062 84.3373ZM34.3391 81.6023C34.3391 80.5263 34.534 79.6118 34.9067 78.845L34.0073 78.4079C33.5562 79.3361 33.3391 80.4056 33.3391 81.6023H34.3391ZM34.9057 78.847C35.2852 78.0752 35.8031 77.4897 36.4579 77.0742L35.9221 76.2298C35.0996 76.7518 34.4622 77.4826 34.0083 78.4058L34.9057 78.847ZM36.4567 77.0749C37.1108 76.6624 37.8801 76.4489 38.7823 76.4489V75.4489C37.7148 75.4489 36.7559 75.704 35.9233 76.2291L36.4567 77.0749ZM38.7823 76.4489C39.6846 76.4489 40.4509 76.6624 41.0996 77.0742L41.6355 76.2298C40.8069 75.704 39.8498 75.4489 38.7823 75.4489V76.4489ZM41.1009 77.0749C41.7596 77.4903 42.2766 78.075 42.6508 78.845L43.5502 78.4079C43.1006 77.4828 42.4622 76.7511 41.6342 76.2291L41.1009 77.0749ZM42.6518 78.847C43.0285 79.6133 43.2255 80.527 43.2255 81.6023H44.2255C44.2255 80.4048 44.0058 79.3346 43.5492 78.4058L42.6518 78.847ZM43.2255 81.6023C43.2255 82.6674 43.0288 83.5737 42.6523 84.3352L43.5487 84.7784C44.0056 83.8543 44.2255 82.7909 44.2255 81.6023H43.2255ZM42.6513 84.3373C42.2773 85.1025 41.7603 85.6854 41.1009 86.1012L41.6342 86.9471C42.4615 86.4254 43.0999 85.6967 43.5497 84.7764L42.6513 84.3373ZM41.0996 86.102C40.4509 86.5137 39.6846 86.7273 38.7823 86.7273V87.7273C39.8498 87.7273 40.8069 87.4721 41.6355 86.9463L41.0996 86.102ZM38.7823 86.2216C39.6185 86.2216 40.3508 86.0056 40.9398 85.5379L40.318 84.7548C39.9411 85.054 39.4423 85.2216 38.7823 85.2216V86.2216ZM40.9398 85.5379C41.5 85.093 41.909 84.5109 42.1701 83.8075L41.2326 83.4595C41.0297 84.0061 40.7237 84.4326 40.318 84.7548L40.9398 85.5379ZM42.1701 83.8075C42.4246 83.1219 42.5494 82.3853 42.5494 81.6023H41.5494C41.5494 82.2776 41.4421 82.8952 41.2326 83.4595L42.1701 83.8075ZM42.5494 81.6023C42.5494 80.8192 42.4246 80.0808 42.1705 79.3911L41.2322 79.7368C41.4421 80.3066 41.5494 80.927 41.5494 81.6023H42.5494ZM42.1705 79.3911C41.9099 78.6836 41.5016 78.097 40.9422 77.6472L40.3156 78.4266C40.7221 78.7534 41.0288 79.1848 41.2322 79.7368L42.1705 79.3911ZM40.9422 77.6472C40.3531 77.1736 39.6199 76.9545 38.7823 76.9545V77.9545C39.4409 77.9545 39.9388 78.1237 40.3156 78.4266L40.9422 77.6472ZM38.7823 76.9545C37.9447 76.9545 37.2116 77.1736 36.6224 77.6472L37.249 78.4266C37.6258 78.1237 38.1237 77.9545 38.7823 77.9545V76.9545ZM36.6224 77.6472C36.063 78.097 35.6548 78.6836 35.3941 79.3911L36.3325 79.7368C36.5358 79.1848 36.8425 78.7534 37.249 78.4266L36.6224 77.6472ZM35.3941 79.3911C35.14 80.0808 35.0153 80.8192 35.0153 81.6023H36.0153C36.0153 80.927 36.1225 80.3066 36.3325 79.7368L35.3941 79.3911ZM35.0153 81.6023C35.0153 82.3853 35.14 83.1219 35.3945 83.8075L36.332 83.4595C36.1225 82.8952 36.0153 82.2776 36.0153 81.6023H35.0153ZM35.3945 83.8075C35.6556 84.5109 36.0646 85.093 36.6248 85.5379L37.2467 84.7548C36.841 84.4326 36.5349 84.0061 36.332 83.4595L35.3945 83.8075ZM36.6248 85.5379C37.2138 86.0056 37.9461 86.2216 38.7823 86.2216V85.2216C38.1223 85.2216 37.6235 85.054 37.2467 84.7548L36.6248 85.5379ZM46.2841 87H45.7841V87.5H46.2841V87ZM46.2841 76.0909V75.5909H45.7841V76.0909H46.2841ZM47.9034 76.0909H48.4034V75.5909H47.9034V76.0909ZM47.9034 77.7386H47.4034V78.2386H47.9034V77.7386ZM48.017 77.7386V78.2386H48.3657L48.4862 77.9115L48.017 77.7386ZM49.0966 76.4247L48.8254 76.0046L48.8254 76.0046L49.0966 76.4247ZM51.7386 75.9489H52.2386V75.4964L51.7884 75.4513L51.7386 75.9489ZM51.7386 77.6534L51.6174 78.1385L52.2386 78.2938V77.6534H51.7386ZM51.348 77.5895L51.2658 78.0829L51.2789 78.0847L51.348 77.5895ZM49.2955 77.8736L49.5292 78.3156L49.531 78.3146L49.2955 77.8736ZM48.3153 78.7827L47.8908 78.5186L47.8899 78.52L48.3153 78.7827ZM47.9602 87V87.5H48.4602V87H47.9602ZM46.7841 87V76.0909H45.7841V87H46.7841ZM46.2841 76.5909H47.9034V75.5909H46.2841V76.5909ZM47.4034 76.0909V77.7386H48.4034V76.0909H47.4034ZM47.9034 78.2386H48.017V77.2386H47.9034V78.2386ZM48.4862 77.9115C48.6446 77.4815 48.9305 77.1271 49.3677 76.8448L48.8254 76.0046C48.2211 76.3947 47.7872 76.9162 47.5479 77.5658L48.4862 77.9115ZM49.3677 76.8448C49.8033 76.5637 50.2953 76.4205 50.858 76.4205V75.4205C50.1138 75.4205 49.4316 75.6134 48.8254 76.0046L49.3677 76.8448ZM50.858 76.4205C50.9752 76.4205 51.1245 76.4227 51.3068 76.4274L51.3324 75.4277C51.1454 75.4229 50.9869 75.4205 50.858 75.4205V76.4205ZM51.3068 76.4274C51.4883 76.432 51.6131 76.4388 51.6889 76.4464L51.7884 75.4513C51.6748 75.44 51.5202 75.4325 51.3324 75.4277L51.3068 76.4274ZM51.2386 75.9489V77.6534H52.2386V75.9489H51.2386ZM51.8599 77.1683C51.772 77.1464 51.6132 77.1217 51.4171 77.0943L51.2789 78.0847C51.3787 78.0986 51.4579 78.1104 51.5176 78.1202C51.5475 78.1251 51.571 78.1292 51.589 78.1326C51.5979 78.1343 51.6048 78.1357 51.6099 78.1368C51.6152 78.1379 51.6175 78.1385 51.6174 78.1385L51.8599 77.1683ZM51.4302 77.0963C51.2016 77.0582 50.9632 77.0398 50.7159 77.0398V78.0398C50.9137 78.0398 51.0967 78.0545 51.2658 78.0827L51.4302 77.0963ZM50.7159 77.0398C50.1137 77.0398 49.5576 77.1667 49.0599 77.4325L49.531 78.3146C49.8667 78.1353 50.2576 78.0398 50.7159 78.0398V77.0398ZM49.0617 77.4316C48.5731 77.6899 48.1799 78.0537 47.8908 78.5186L48.7399 79.0467C48.9337 78.7351 49.1939 78.4929 49.5292 78.3156L49.0617 77.4316ZM47.8899 78.52C47.5999 78.9897 47.4602 79.5203 47.4602 80.0966H48.4602C48.4602 79.688 48.5573 79.3427 48.7408 79.0453L47.8899 78.52ZM47.4602 80.0966V87H48.4602V80.0966H47.4602ZM47.9602 86.5H46.2841V87.5H47.9602V86.5ZM53.7255 87H53.2255V87.5H53.7255V87ZM53.7255 76.0909V75.5909H53.2255V76.0909H53.7255ZM55.4016 76.0909H55.9016V75.5909H55.4016V76.0909ZM55.4016 87V87.5H55.9016V87H55.4016ZM53.7326 73.9389L53.3865 74.2998L53.3901 74.3032L53.7326 73.9389ZM53.7326 72.3338L53.3901 71.9695L53.3865 71.973L53.7326 72.3338ZM55.4158 72.3338L55.0697 72.6947L55.0734 72.6981L55.4158 72.3338ZM55.4158 73.9389L55.0734 73.5746L55.0697 73.5781L55.4158 73.9389ZM54.2255 87V76.0909H53.2255V87H54.2255ZM53.7255 76.5909H55.4016V75.5909H53.7255V76.5909ZM54.9016 76.0909V87H55.9016V76.0909H54.9016ZM55.4016 86.5H53.7255V87.5H55.4016V86.5ZM54.5778 73.7727C54.3775 73.7727 54.2185 73.7094 54.0751 73.5746L53.3901 74.3032C53.7202 74.6135 54.1246 74.7727 54.5778 74.7727V73.7727ZM54.0787 73.5781C53.9418 73.4468 53.8846 73.3083 53.8846 73.1364H52.8846C52.8846 73.5894 53.0594 73.986 53.3865 74.2998L54.0787 73.5781ZM53.8846 73.1364C53.8846 72.9644 53.9418 72.8259 54.0787 72.6946L53.3865 71.973C53.0594 72.2867 52.8846 72.6833 52.8846 73.1364H53.8846ZM54.0751 72.6981C54.2185 72.5633 54.3775 72.5 54.5778 72.5V71.5C54.1246 71.5 53.7202 71.6593 53.3901 71.9695L54.0751 72.6981ZM54.5778 72.5C54.7778 72.5 54.9325 72.563 55.0697 72.6946L55.762 71.973C55.4352 71.6595 55.0311 71.5 54.5778 71.5V72.5ZM55.0734 72.6981C55.2141 72.8304 55.271 72.9679 55.271 73.1364H56.271C56.271 72.6798 56.0911 72.2823 55.7583 71.9695L55.0734 72.6981ZM55.271 73.1364C55.271 73.3048 55.2141 73.4423 55.0734 73.5746L55.7583 74.3032C56.0911 73.9904 56.271 73.5929 56.271 73.1364H55.271ZM55.0697 73.5781C54.9325 73.7097 54.7778 73.7727 54.5778 73.7727V74.7727C55.0311 74.7727 55.4352 74.6132 55.762 74.2998L55.0697 73.5781ZM58.1591 87H57.6591V87.5H58.1591V87ZM58.1591 85.7216L57.7646 85.4144L57.6591 85.5499V85.7216H58.1591ZM64.3523 77.767L64.7468 78.0742L64.8523 77.9387V77.767H64.3523ZM64.3523 77.6534H64.8523V77.1534H64.3523V77.6534ZM58.358 77.6534H57.858V78.1534H58.358V77.6534ZM58.358 76.0909V75.5909H57.858V76.0909H58.358ZM66.5114 76.0909H67.0114V75.5909H66.5114V76.0909ZM66.5114 77.4261L66.9089 77.7293L67.0114 77.595V77.4261H66.5114ZM60.4886 85.3239L60.0911 85.0207L59.9886 85.155V85.3239H60.4886ZM60.4886 85.4375H59.9886V85.9375H60.4886V85.4375ZM66.7102 85.4375H67.2102V84.9375H66.7102V85.4375ZM66.7102 87V87.5H67.2102V87H66.7102ZM58.6591 87V85.7216H57.6591V87H58.6591ZM58.5536 86.0288L64.7468 78.0742L63.9577 77.4599L57.7646 85.4144L58.5536 86.0288ZM64.8523 77.767V77.6534H63.8523V77.767H64.8523ZM64.3523 77.1534H58.358V78.1534H64.3523V77.1534ZM58.858 77.6534V76.0909H57.858V77.6534H58.858ZM58.358 76.5909H66.5114V75.5909H58.358V76.5909ZM66.0114 76.0909V77.4261H67.0114V76.0909H66.0114ZM66.1138 77.1229L60.0911 85.0207L60.8862 85.6271L66.9089 77.7293L66.1138 77.1229ZM59.9886 85.3239V85.4375H60.9886V85.3239H59.9886ZM60.4886 85.9375H66.7102V84.9375H60.4886V85.9375ZM66.2102 85.4375V87H67.2102V85.4375H66.2102ZM66.7102 86.5H58.1591V87.5H66.7102V86.5ZM70.8189 86.5241L70.551 86.9463L70.5522 86.9471L70.8189 86.5241ZM69.0859 84.5568L68.6367 84.7764L68.6377 84.7784L69.0859 84.5568ZM69.0859 78.6264L68.6372 78.4058L68.6362 78.4079L69.0859 78.6264ZM70.8189 76.652L70.5522 76.2291L70.551 76.2298L70.8189 76.652ZM75.9964 76.652L75.7285 77.0742L75.7298 77.0749L75.9964 76.652ZM77.7294 78.6264L77.2797 78.845L77.2807 78.847L77.7294 78.6264ZM77.7294 84.5568L77.2812 84.3352L77.2802 84.3373L77.7294 84.5568ZM75.9964 86.5241L75.7298 86.1012L75.7285 86.102L75.9964 86.5241ZM75.2578 85.1463L74.9469 84.7548L74.9469 84.7548L75.2578 85.1463ZM76.3303 83.6335L76.799 83.8075L76.799 83.8075L76.3303 83.6335ZM76.3303 79.5639L76.7994 79.3911L76.7994 79.3911L76.3303 79.5639ZM75.2578 78.0369L75.5711 77.6472L75.5711 77.6472L75.2578 78.0369ZM71.5646 78.0369L71.2514 77.6472L71.2514 77.6472L71.5646 78.0369ZM70.4922 79.5639L70.023 79.3911L70.023 79.3911L70.4922 79.5639ZM70.4922 83.6335L70.0234 83.8075L70.0234 83.8075L70.4922 83.6335ZM71.5646 85.1463L71.8756 84.7548L71.8756 84.7548L71.5646 85.1463ZM73.4112 86.7273C72.509 86.7273 71.7397 86.5137 71.0856 86.1012L70.5522 86.9471C71.3848 87.4721 72.3437 87.7273 73.4112 87.7273V86.7273ZM71.0868 86.102C70.4313 85.686 69.9134 85.1023 69.5342 84.3352L68.6377 84.7784C69.0918 85.697 69.7292 86.4248 70.551 86.9463L71.0868 86.102ZM69.5352 84.3373C69.1627 83.5752 68.968 82.6682 68.968 81.6023H67.968C67.968 82.7901 68.1853 83.8528 68.6367 84.7764L69.5352 84.3373ZM68.968 81.6023C68.968 80.5263 69.1629 79.6118 69.5356 78.845L68.6362 78.4079C68.1851 79.3361 67.968 80.4056 67.968 81.6023H68.968ZM69.5346 78.847C69.9141 78.0752 70.432 77.4897 71.0868 77.0742L70.551 76.2298C69.7285 76.7518 69.0911 77.4826 68.6372 78.4058L69.5346 78.847ZM71.0856 77.0749C71.7397 76.6624 72.509 76.4489 73.4112 76.4489V75.4489C72.3437 75.4489 71.3848 75.704 70.5522 76.2291L71.0856 77.0749ZM73.4112 76.4489C74.3135 76.4489 75.0798 76.6624 75.7285 77.0742L76.2644 76.2298C75.4358 75.704 74.4787 75.4489 73.4112 75.4489V76.4489ZM75.7298 77.0749C76.3885 77.4903 76.9055 78.075 77.2797 78.845L78.1791 78.4079C77.7295 77.4828 77.0911 76.7511 76.2631 76.2291L75.7298 77.0749ZM77.2807 78.847C77.6574 79.6133 77.8544 80.527 77.8544 81.6023H78.8544C78.8544 80.4048 78.6347 79.3346 78.1781 78.4058L77.2807 78.847ZM77.8544 81.6023C77.8544 82.6674 77.6577 83.5737 77.2812 84.3352L78.1776 84.7784C78.6345 83.8543 78.8544 82.7909 78.8544 81.6023H77.8544ZM77.2802 84.3373C76.9062 85.1025 76.3892 85.6854 75.7298 86.1012L76.2631 86.9471C77.0904 86.4254 77.7288 85.6967 78.1786 84.7764L77.2802 84.3373ZM75.7285 86.102C75.0798 86.5137 74.3135 86.7273 73.4112 86.7273V87.7273C74.4787 87.7273 75.4358 87.4721 76.2644 86.9463L75.7285 86.102ZM73.4112 86.2216C74.2474 86.2216 74.9797 86.0056 75.5688 85.5379L74.9469 84.7548C74.57 85.054 74.0712 85.2216 73.4112 85.2216V86.2216ZM75.5688 85.5379C76.129 85.093 76.5379 84.5109 76.799 83.8075L75.8615 83.4595C75.6586 84.0061 75.3526 84.4326 74.9469 84.7548L75.5688 85.5379ZM76.799 83.8075C77.0535 83.1219 77.1783 82.3853 77.1783 81.6023H76.1783C76.1783 82.2776 76.071 82.8952 75.8615 83.4595L76.799 83.8075ZM77.1783 81.6023C77.1783 80.8192 77.0535 80.0808 76.7994 79.3911L75.8611 79.7368C76.071 80.3066 76.1783 80.927 76.1783 81.6023H77.1783ZM76.7994 79.3911C76.5388 78.6836 76.1305 78.097 75.5711 77.6472L74.9445 78.4266C75.351 78.7534 75.6577 79.1848 75.8611 79.7368L76.7994 79.3911ZM75.5711 77.6472C74.982 77.1736 74.2488 76.9545 73.4112 76.9545V77.9545C74.0698 77.9545 74.5677 78.1237 74.9445 78.4266L75.5711 77.6472ZM73.4112 76.9545C72.5736 76.9545 71.8405 77.1736 71.2514 77.6472L71.8779 78.4266C72.2547 78.1237 72.7526 77.9545 73.4112 77.9545V76.9545ZM71.2514 77.6472C70.6919 78.097 70.2837 78.6836 70.023 79.3911L70.9614 79.7368C71.1647 79.1848 71.4715 78.7534 71.8779 78.4266L71.2514 77.6472ZM70.023 79.3911C69.7689 80.0808 69.6442 80.8192 69.6442 81.6023H70.6442C70.6442 80.927 70.7514 80.3066 70.9614 79.7368L70.023 79.3911ZM69.6442 81.6023C69.6442 82.3853 69.7689 83.1219 70.0234 83.8075L70.9609 83.4595C70.7514 82.8952 70.6442 82.2776 70.6442 81.6023H69.6442ZM70.0234 83.8075C70.2845 84.5109 70.6935 85.093 71.2537 85.5379L71.8756 84.7548C71.4699 84.4326 71.1638 84.0061 70.9609 83.4595L70.0234 83.8075ZM71.2537 85.5379C71.8427 86.0056 72.575 86.2216 73.4112 86.2216V85.2216C72.7512 85.2216 72.2524 85.054 71.8756 84.7548L71.2537 85.5379ZM82.5891 87V87.5H83.0891V87H82.5891ZM80.913 87H80.413V87.5H80.913V87ZM80.913 76.0909V75.5909H80.413V76.0909H80.913ZM82.5323 76.0909H83.0323V75.5909H82.5323V76.0909ZM82.5323 77.7955H82.0323V78.2955H82.5323V77.7955ZM82.6744 77.7955V78.2955H82.9943L83.1283 78.005L82.6744 77.7955ZM83.8391 76.4602L84.1103 76.8803L84.113 76.8786L83.8391 76.4602ZM87.7951 76.4034L87.5551 76.8421L87.558 76.8436L87.7951 76.4034ZM89.0877 77.767L88.6412 77.992L88.6419 77.9934L89.0877 77.767ZM89.5494 87V87.5H90.0494V87H89.5494ZM87.8732 87H87.3732V87.5H87.8732V87ZM87.2056 78.179L86.8379 78.5178L86.8396 78.5196L87.2056 78.179ZM83.9386 77.8026L83.6974 77.3645L83.6953 77.3657L83.9386 77.8026ZM82.9513 78.8182L82.5119 78.5797L82.5119 78.5797L82.9513 78.8182ZM82.0891 80.4375V87H83.0891V80.4375H82.0891ZM82.5891 86.5H80.913V87.5H82.5891V86.5ZM81.413 87V76.0909H80.413V87H81.413ZM80.913 76.5909H82.5323V75.5909H80.913V76.5909ZM82.0323 76.0909V77.7955H83.0323V76.0909H82.0323ZM82.5323 78.2955H82.6744V77.2955H82.5323V78.2955ZM83.1283 78.005C83.3436 77.5386 83.6678 77.1659 84.1103 76.8803L83.568 76.0401C82.9688 76.4269 82.5165 76.9444 82.2204 77.5859L83.1283 78.005ZM84.113 76.8786C84.5299 76.6056 85.0987 76.4489 85.8562 76.4489V75.4489C84.9659 75.4489 84.19 75.633 83.5653 76.0419L84.113 76.8786ZM85.8562 76.4489C86.5253 76.4489 87.0863 76.5856 87.5551 76.8421L88.0351 75.9647C87.3959 75.6151 86.6644 75.4489 85.8562 75.4489V76.4489ZM87.558 76.8436C88.0139 77.0891 88.3753 77.4644 88.6412 77.992L89.5342 77.5421C89.1846 76.8481 88.6843 76.3143 88.0322 75.9632L87.558 76.8436ZM88.6419 77.9934C88.9035 78.5085 89.0494 79.1915 89.0494 80.0682H90.0494C90.0494 79.0888 89.8875 78.2377 89.5335 77.5407L88.6419 77.9934ZM89.0494 80.0682V87H90.0494V80.0682H89.0494ZM89.5494 86.5H87.8732V87.5H89.5494V86.5ZM88.3732 87V80.1818H87.3732V87H88.3732ZM88.3732 80.1818C88.3732 79.2389 88.1269 78.435 87.5716 77.8383L86.8396 78.5196C87.1744 78.8794 87.3732 79.4107 87.3732 80.1818H88.3732ZM87.5733 77.8401C87.0162 77.2357 86.2617 76.9545 85.3732 76.9545V77.9545C86.0378 77.9545 86.5048 78.1564 86.8379 78.5178L87.5733 77.8401ZM85.3732 76.9545C84.7635 76.9545 84.2007 77.0875 83.6974 77.3646L84.1797 78.2406C84.5192 78.0536 84.9129 77.9545 85.3732 77.9545V76.9545ZM83.6953 77.3657C83.1905 77.6468 82.7957 78.0566 82.5119 78.5797L83.3908 79.0566C83.59 78.6896 83.8533 78.4223 84.1818 78.2394L83.6953 77.3657ZM82.5119 78.5797C82.2219 79.1143 82.0891 79.7404 82.0891 80.4375H83.0891C83.0891 79.8656 83.1979 79.4122 83.3908 79.0566L82.5119 78.5797ZM97.3565 76.0909H97.8565V75.5909H97.3565V76.0909ZM97.3565 77.5114V78.0114H97.8565V77.5114H97.3565ZM91.7031 77.5114H91.2031V78.0114H91.7031V77.5114ZM91.7031 76.0909V75.5909H91.2031V76.0909H91.7031ZM93.3509 73.4773V72.9773H92.8509V73.4773H93.3509ZM95.027 73.4773H95.527V72.9773H95.027V73.4773ZM95.233 84.9403L94.8003 85.1913L94.8065 85.2014L95.233 84.9403ZM95.7727 85.4091L95.5993 85.8782L95.6116 85.8824L95.7727 85.4091ZM96.9304 85.4943L97.0094 85.988L97.019 85.9865L97.0285 85.9846L96.9304 85.4943ZM97.2145 85.4375L97.7021 85.3271L97.5945 84.8516L97.1164 84.9472L97.2145 85.4375ZM97.5554 86.9432L97.731 87.4113L98.1394 87.2582L98.0431 86.8328L97.5554 86.9432ZM97.0795 87.071L96.9771 86.5815L96.9663 86.584L97.0795 87.071ZM94.9134 86.8366L94.7072 87.2922L94.709 87.293L94.9134 86.8366ZM93.7912 85.9062L93.3824 86.1942L93.3846 86.1973L93.7912 85.9062ZM96.8565 76.0909V77.5114H97.8565V76.0909H96.8565ZM97.3565 77.0114H91.7031V78.0114H97.3565V77.0114ZM92.2031 77.5114V76.0909H91.2031V77.5114H92.2031ZM91.7031 76.5909H97.3565V75.5909H91.7031V76.5909ZM93.3509 73.9773H95.027V72.9773H93.3509V73.9773ZM94.527 73.4773V83.875H95.527V73.4773H94.527ZM94.527 83.875C94.527 84.3804 94.5974 84.8411 94.8004 85.1912L95.6655 84.6895C95.5939 84.5661 95.527 84.3165 95.527 83.875H94.527ZM94.8065 85.2014C94.9967 85.5121 95.2589 85.7522 95.5994 85.8781L95.9461 84.9401C95.851 84.905 95.7533 84.8326 95.6594 84.6793L94.8065 85.2014ZM95.6116 85.8824C95.8884 85.9767 96.1774 86.0227 96.4759 86.0227V85.0227C96.2818 85.0227 96.1021 84.993 95.9339 84.9358L95.6116 85.8824ZM96.4759 86.0227C96.6745 86.0227 96.8549 86.0128 97.0094 85.988L96.8514 85.0006C96.7691 85.0138 96.6466 85.0227 96.4759 85.0227V86.0227ZM97.0285 85.9846C97.1468 85.9609 97.2415 85.942 97.3125 85.9278L97.1164 84.9472C97.0454 84.9614 96.9507 84.9804 96.8323 85.004L97.0285 85.9846ZM96.7268 85.5479L97.0677 87.0536L98.0431 86.8328L97.7021 85.3271L96.7268 85.5479ZM97.3798 86.475C97.3009 86.5046 97.1707 86.5411 96.9771 86.5816L97.182 87.5604C97.3956 87.5157 97.5826 87.467 97.731 87.4113L97.3798 86.475ZM96.9663 86.584C96.8132 86.6196 96.5966 86.642 96.3054 86.642V87.642C96.6392 87.642 96.9387 87.6171 97.1928 87.558L96.9663 86.584ZM96.3054 86.642C95.906 86.642 95.5114 86.5567 95.1177 86.3803L94.709 87.293C95.2244 87.5238 95.7578 87.642 96.3054 87.642V86.642ZM95.1195 86.3811C94.7529 86.2152 94.4469 85.9632 94.1977 85.6152L93.3846 86.1973C93.7321 86.6826 94.1742 87.0509 94.7072 87.2922L95.1195 86.3811ZM94.1999 85.6183C93.9789 85.3046 93.8509 84.8864 93.8509 84.3295H92.8509C92.8509 85.0417 93.0164 85.6746 93.3825 86.1942L94.1999 85.6183ZM93.8509 84.3295V73.4773H92.8509V84.3295H93.8509ZM101.206 86.8651L100.993 87.3175L100.996 87.3189L101.206 86.8651ZM99.8636 85.7216L99.4464 85.9971L99.4476 85.9989L99.8636 85.7216ZM99.7358 82.3835L100.158 82.6513L100.16 82.649L99.7358 82.3835ZM102.087 80.9631L102.194 81.4515L102.197 81.4507L102.087 80.9631ZM103.599 80.6932L103.536 80.1973L103.535 80.1974L103.599 80.6932ZM105.212 80.5014L105.263 80.9988L105.268 80.9982L105.212 80.5014ZM106.121 80.267L105.876 79.8309L105.872 79.8336L106.121 80.267ZM105.837 78.0085L105.479 78.3577L105.481 78.3599L105.837 78.0085ZM102.229 77.9517L102.534 78.3477L102.534 78.3477L102.229 77.9517ZM101.27 79.0739L101.102 79.5447L101.531 79.6982L101.723 79.2844L101.27 79.0739ZM99.679 78.5057L99.2194 78.3087L99.0099 78.7976L99.5108 78.9766L99.679 78.5057ZM100.815 76.9574L101.123 77.3516L101.123 77.3512L100.815 76.9574ZM102.378 76.1761L102.504 76.66L102.507 76.6593L102.378 76.1761ZM105.261 76.0767L105.169 76.5682L105.175 76.5692L105.261 76.0767ZM106.589 76.581L106.332 77.0097L106.334 77.011L106.589 76.581ZM107.662 77.7386L107.224 77.9797L107.224 77.9798L107.662 77.7386ZM108.088 87V87.5H108.588V87H108.088ZM106.412 87H105.912V87.5H106.412V87ZM106.412 85.5227H106.912V85.0227H106.412V85.5227ZM106.327 85.5227V85.0227H106.012L105.876 85.3064L106.327 85.5227ZM105.759 86.2827L106.115 86.6331L106.115 86.6331L105.759 86.2827ZM104.7 86.9716L104.503 86.5123L104.503 86.5123L104.7 86.9716ZM105.02 85.3594L104.773 84.9244L104.771 84.9255L105.02 85.3594ZM106.057 84.3509L105.623 84.1017L105.621 84.1055L106.057 84.3509ZM106.412 81.517H106.912V80.136L106.028 81.197L106.412 81.517ZM105.943 81.7514L106.078 82.2329L106.084 82.2311L105.943 81.7514ZM105.119 81.929L105.195 82.4232L105.202 82.4222L105.119 81.929ZM104.217 82.0568L104.274 82.5536L104.281 82.5527L104.217 82.0568ZM103.514 82.142L103.579 82.6378L103.579 82.6378L103.514 82.142ZM102.293 82.419L102.449 82.894L102.453 82.8928L102.293 82.419ZM101.384 82.9801L101.016 82.6407L101.016 82.641L101.384 82.9801ZM101.689 85.3097L101.404 85.7208L101.409 85.7243L101.689 85.3097ZM103.088 86.7557C102.461 86.7557 101.906 86.6379 101.416 86.4112L100.996 87.3189C101.633 87.613 102.333 87.7557 103.088 87.7557V86.7557ZM101.419 86.4126C100.934 86.1846 100.558 85.8624 100.28 85.4442L99.4476 85.9989C99.8317 86.5751 100.351 87.0153 100.993 87.3175L101.419 86.4126ZM100.281 85.4461C100.013 85.0398 99.8665 84.5337 99.8665 83.9034H98.8665C98.8665 84.6936 99.0518 85.3996 99.4464 85.9971L100.281 85.4461ZM99.8665 83.9034C99.8665 83.3402 99.9778 82.9355 100.158 82.6513L99.3135 82.1158C99.0014 82.608 98.8665 83.2166 98.8665 83.9034H99.8665ZM100.16 82.649C100.359 82.33 100.624 82.082 100.961 81.9001L100.485 81.0203C99.9981 81.2835 99.6047 81.6511 99.3121 82.1181L100.16 82.649ZM100.961 81.9001C101.328 81.7016 101.738 81.5513 102.194 81.4515L101.98 80.4746C101.441 80.5927 100.942 80.7737 100.485 81.0203L100.961 81.9001ZM102.197 81.4507C102.684 81.3405 103.173 81.2532 103.664 81.189L103.535 80.1974C103.013 80.2657 102.493 80.3584 101.976 80.4754L102.197 81.4507ZM103.663 81.1891C104.324 81.1041 104.857 81.0408 105.263 80.9988L105.16 80.0041C104.742 80.0473 104.2 80.1118 103.536 80.1973L103.663 81.1891ZM105.268 80.9982C105.702 80.949 106.089 80.8621 106.37 80.7005L105.872 79.8336C105.774 79.8898 105.555 79.9592 105.155 80.0046L105.268 80.9982ZM106.365 80.7031C106.753 80.4855 106.912 80.1041 106.912 79.6989H105.912C105.912 79.7752 105.898 79.8075 105.894 79.8153C105.892 79.819 105.891 79.8203 105.89 79.821C105.89 79.8219 105.886 79.8255 105.876 79.831L106.365 80.7031ZM106.912 79.6989V79.642H105.912V79.6989H106.912ZM106.912 79.642C106.912 78.8488 106.693 78.1635 106.192 77.6571L105.481 78.3599C105.748 78.63 105.912 79.0338 105.912 79.642H106.912ZM106.195 77.6594C105.688 77.14 104.96 76.9261 104.111 76.9261V77.9261C104.806 77.9261 105.228 78.1006 105.479 78.3577L106.195 77.6594ZM104.111 76.9261C103.243 76.9261 102.494 77.1158 101.923 77.5557L102.534 78.3477C102.872 78.0869 103.378 77.9261 104.111 77.9261V76.9261ZM101.923 77.5557C101.424 77.9405 101.044 78.3738 100.816 78.8633L101.723 79.2844C101.865 78.9785 102.124 78.6637 102.534 78.3477L101.923 77.5557ZM101.438 78.603L99.8471 78.0348L99.5108 78.9766L101.102 79.5447L101.438 78.603ZM100.139 78.7026C100.396 78.1018 100.728 77.6596 101.123 77.3516L100.508 76.5631C99.9557 76.9938 99.5301 77.5838 99.2194 78.3087L100.139 78.7026ZM101.123 77.3512C101.55 77.0175 102.009 76.7888 102.504 76.66L102.252 75.6923C101.619 75.857 101.037 76.1492 100.507 76.5636L101.123 77.3512ZM102.507 76.6593C103.036 76.5182 103.551 76.4489 104.054 76.4489V75.4489C103.458 75.4489 102.856 75.5311 102.249 75.693L102.507 76.6593ZM104.054 76.4489C104.365 76.4489 104.736 76.4869 105.169 76.5681L105.354 75.5853C104.878 75.496 104.443 75.4489 104.054 75.4489V76.4489ZM105.175 76.5692C105.57 76.6384 105.955 76.7835 106.332 77.0097L106.847 76.1522C106.372 75.8671 105.871 75.676 105.348 75.5842L105.175 76.5692ZM106.334 77.011C106.676 77.2137 106.975 77.5279 107.224 77.9797L108.1 77.4975C107.78 76.9171 107.365 76.4596 106.845 76.151L106.334 77.011ZM107.224 77.9798C107.453 78.3953 107.588 78.9935 107.588 79.8125H108.588C108.588 78.8986 108.439 78.1142 108.1 77.4975L107.224 77.9798ZM107.588 79.8125V87H108.588V79.8125H107.588ZM108.088 86.5H106.412V87.5H108.088V86.5ZM106.912 87V85.5227H105.912V87H106.912ZM106.412 85.0227H106.327V86.0227H106.412V85.0227ZM105.876 85.3064C105.794 85.4769 105.644 85.6858 105.402 85.9323L106.115 86.6331C106.403 86.3397 106.632 86.042 106.777 85.7391L105.876 85.3064ZM105.402 85.9323C105.193 86.1453 104.899 86.3419 104.503 86.5123L104.898 87.4309C105.382 87.2225 105.794 86.9598 106.115 86.6331L105.402 85.9323ZM104.503 86.5123C104.141 86.6677 103.675 86.7557 103.088 86.7557V87.7557C103.77 87.7557 104.378 87.6543 104.898 87.4309L104.503 86.5123ZM103.344 86.25C104.071 86.25 104.721 86.107 105.268 85.7932L104.771 84.9255C104.41 85.1325 103.942 85.25 103.344 85.25V86.25ZM105.267 85.7943C105.795 85.4944 106.211 85.0963 106.492 84.5962L105.621 84.1055C105.439 84.4292 105.163 84.7035 104.773 84.9244L105.267 85.7943ZM106.49 84.6C106.769 84.1158 106.912 83.5971 106.912 83.0511H105.912C105.912 83.4142 105.819 83.762 105.623 84.1017L106.49 84.6ZM106.912 83.0511V81.517H105.912V83.0511H106.912ZM106.028 81.197C106.055 81.1649 106.066 81.1683 106.018 81.1923C105.975 81.2138 105.906 81.2413 105.802 81.2717L106.084 82.2311C106.222 82.1905 106.352 82.1435 106.465 82.0868C106.573 82.0327 106.698 81.9544 106.796 81.8371L106.028 81.197ZM105.808 81.2699C105.593 81.3302 105.337 81.3859 105.037 81.4358L105.202 82.4222C105.527 82.3679 105.82 82.3052 106.078 82.2329L105.808 81.2699ZM105.043 81.4348C104.739 81.4816 104.443 81.5236 104.153 81.5609L104.281 82.5527C104.579 82.5143 104.884 82.4711 105.195 82.4232L105.043 81.4348ZM104.16 81.5601C103.87 81.5934 103.633 81.6221 103.449 81.6463L103.579 82.6378C103.755 82.6146 103.987 82.5865 104.274 82.5536L104.16 81.5601ZM103.45 81.6462C102.985 81.7069 102.545 81.806 102.133 81.9453L102.453 82.8928C102.797 82.7764 103.173 82.6908 103.579 82.6378L103.45 81.6462ZM102.136 81.9441C101.694 82.0897 101.314 82.3185 101.016 82.6407L101.751 83.3195C101.917 83.1399 102.143 82.9946 102.449 82.894L102.136 81.9441ZM101.016 82.641C100.682 83.0027 100.543 83.4722 100.543 83.9886H101.543C101.543 83.6528 101.63 83.45 101.751 83.3193L101.016 82.641ZM100.543 83.9886C100.543 84.7138 100.822 85.3175 101.404 85.7208L101.974 84.8986C101.694 84.7052 101.543 84.4283 101.543 83.9886H100.543ZM101.409 85.7243C101.947 86.0868 102.603 86.25 103.344 86.25V85.25C102.749 85.25 102.302 85.1196 101.968 84.895L101.409 85.7243ZM112.824 72.4545H113.324V71.9545H112.824V72.4545ZM112.824 87V87.5H113.324V87H112.824ZM111.147 87H110.647V87.5H111.147V87ZM111.147 72.4545V71.9545H110.647V72.4545H111.147ZM112.324 72.4545V87H113.324V72.4545H112.324ZM112.824 86.5H111.147V87.5H112.824V86.5ZM111.647 87V72.4545H110.647V87H111.647ZM111.147 72.9545H112.824V71.9545H111.147V72.9545Z" fill="black"/>
</svg>
