<svg width="160" height="160" viewBox="0 0 160 160" fill="none" xmlns="http://www.w3.org/2000/svg">
<rect width="160" height="160" fill="#D9D9D9"/>
<path d="M46.5341 87V76.0909H48.2102V87H46.5341ZM47.3864 74.2727C47.0597 74.2727 46.7779 74.1615 46.5412 73.9389C46.3092 73.7164 46.1932 73.4489 46.1932 73.1364C46.1932 72.8239 46.3092 72.5563 46.5412 72.3338C46.7779 72.1113 47.0597 72 47.3864 72C47.7131 72 47.9924 72.1113 48.2244 72.3338C48.4612 72.5563 48.5795 72.8239 48.5795 73.1364C48.5795 73.4489 48.4612 73.7164 48.2244 73.9389C47.9924 74.1615 47.7131 74.2727 47.3864 74.2727ZM52.9563 80.4375V87H51.2802V76.0909H52.8995V77.7955H53.0415C53.2972 77.2415 53.6855 76.7964 54.2063 76.4602C54.7272 76.1193 55.3995 75.9489 56.2234 75.9489C56.962 75.9489 57.6083 76.1004 58.1623 76.4034C58.7163 76.7017 59.1471 77.1562 59.4549 77.767C59.7627 78.3731 59.9165 79.1402 59.9165 80.0682V87H58.2404V80.1818C58.2404 79.3248 58.0179 78.6572 57.5728 78.179C57.1277 77.696 56.5169 77.4545 55.7404 77.4545C55.2054 77.4545 54.7272 77.5705 54.3058 77.8026C53.8891 78.0346 53.56 78.3731 53.3185 78.8182C53.0771 79.2633 52.9563 79.803 52.9563 80.4375ZM70.7067 78.5341L69.201 78.9602C69.1063 78.7093 68.9666 78.4654 68.782 78.2287C68.602 77.9872 68.3558 77.7884 68.0433 77.6321C67.7308 77.4759 67.3307 77.3977 66.843 77.3977C66.1754 77.3977 65.6191 77.5516 65.174 77.8594C64.7337 78.1624 64.5135 78.5483 64.5135 79.017C64.5135 79.4337 64.665 79.7628 64.968 80.0043C65.2711 80.2457 65.7446 80.447 66.3885 80.608L68.0078 81.0057C68.9832 81.2424 69.71 81.6046 70.1882 82.0923C70.6664 82.5753 70.9055 83.1979 70.9055 83.9602C70.9055 84.5852 70.7256 85.1439 70.3658 85.6364C70.0107 86.1288 69.5135 86.517 68.8743 86.8011C68.2351 87.0852 67.4917 87.2273 66.6442 87.2273C65.5315 87.2273 64.6106 86.9858 63.8814 86.5028C63.1522 86.0199 62.6906 85.3144 62.4964 84.3864L64.0874 83.9886C64.2389 84.5758 64.5253 85.0161 64.9467 85.3097C65.3729 85.6032 65.9292 85.75 66.6158 85.75C67.397 85.75 68.0173 85.5843 68.4766 85.2528C68.9406 84.9167 69.1726 84.5142 69.1726 84.0455C69.1726 83.6667 69.04 83.3494 68.7749 83.0938C68.5097 82.8333 68.1025 82.6392 67.5533 82.5114L65.7351 82.0852C64.736 81.8485 64.0021 81.4815 63.5334 80.9844C63.0694 80.4825 62.8374 79.8551 62.8374 79.1023C62.8374 78.4867 63.0102 77.9422 63.3558 77.4688C63.7062 76.9953 64.1821 76.6236 64.7834 76.3537C65.3894 76.0838 66.076 75.9489 66.843 75.9489C67.9226 75.9489 68.7701 76.1856 69.3857 76.6591C70.0059 77.1326 70.4463 77.7576 70.7067 78.5341ZM73.4286 87V76.0909H75.1048V87H73.4286ZM74.2809 74.2727C73.9542 74.2727 73.6725 74.1615 73.4357 73.9389C73.2037 73.7164 73.0877 73.4489 73.0877 73.1364C73.0877 72.8239 73.2037 72.5563 73.4357 72.3338C73.6725 72.1113 73.9542 72 74.2809 72C74.6076 72 74.887 72.1113 75.119 72.3338C75.3557 72.5563 75.4741 72.8239 75.4741 73.1364C75.4741 73.4489 75.3557 73.7164 75.119 73.9389C74.887 74.1615 74.6076 74.2727 74.2809 74.2727ZM82.294 87.2273C81.3849 87.2273 80.5824 86.9976 79.8864 86.5384C79.1903 86.0743 78.6458 85.4209 78.2528 84.5781C77.8598 83.7306 77.6634 82.7292 77.6634 81.5739C77.6634 80.428 77.8598 79.4337 78.2528 78.5909C78.6458 77.7481 79.1927 77.0971 79.8935 76.6378C80.5942 76.1785 81.4039 75.9489 82.3224 75.9489C83.0327 75.9489 83.5938 76.0672 84.0057 76.304C84.4223 76.536 84.7396 76.8011 84.9574 77.0994C85.1799 77.393 85.3527 77.6345 85.4759 77.8239H85.6179V72.4545H87.294V87H85.6747V85.3239H85.4759C85.3527 85.5227 85.1776 85.7737 84.9503 86.0767C84.723 86.375 84.3987 86.6425 83.9773 86.8793C83.5559 87.1113 82.9948 87.2273 82.294 87.2273ZM82.5213 85.7216C83.1937 85.7216 83.7618 85.5464 84.2259 85.196C84.6899 84.8409 85.0426 84.3509 85.2841 83.7259C85.5256 83.0961 85.6463 82.3693 85.6463 81.5455C85.6463 80.7311 85.5279 80.0185 85.2912 79.4077C85.0545 78.7921 84.7041 78.3139 84.2401 77.973C83.776 77.6274 83.2031 77.4545 82.5213 77.4545C81.8111 77.4545 81.2192 77.6368 80.7457 78.0014C80.277 78.3613 79.9242 78.8513 79.6875 79.4716C79.4555 80.0871 79.3395 80.7784 79.3395 81.5455C79.3395 82.322 79.4579 83.0275 79.6946 83.6619C79.9361 84.2917 80.2912 84.7936 80.7599 85.1676C81.2334 85.5369 81.8205 85.7216 82.5213 85.7216ZM95.1705 87.2273C94.1193 87.2273 93.2126 86.9953 92.4503 86.5312C91.6927 86.0625 91.108 85.4091 90.696 84.571C90.2888 83.7282 90.0852 82.7481 90.0852 81.6307C90.0852 80.5133 90.2888 79.5284 90.696 78.6761C91.108 77.8191 91.6809 77.1515 92.4148 76.6733C93.1534 76.1903 94.0152 75.9489 95 75.9489C95.5682 75.9489 96.1293 76.0436 96.6832 76.233C97.2372 76.4223 97.7415 76.7301 98.196 77.1562C98.6506 77.5777 99.0128 78.1364 99.2827 78.8324C99.5526 79.5284 99.6875 80.3854 99.6875 81.4034V82.1136H91.2784V80.6648H97.983C97.983 80.0492 97.8598 79.5 97.6136 79.017C97.3722 78.5341 97.0265 78.1529 96.5767 77.8736C96.1316 77.5942 95.6061 77.4545 95 77.4545C94.3324 77.4545 93.7547 77.6203 93.267 77.9517C92.7841 78.2784 92.4124 78.7045 92.152 79.2301C91.8916 79.7557 91.7614 80.3191 91.7614 80.9205V81.8864C91.7614 82.7102 91.9034 83.4086 92.1875 83.9815C92.4763 84.5497 92.8764 84.983 93.3878 85.2812C93.8991 85.5748 94.4934 85.7216 95.1705 85.7216C95.6108 85.7216 96.0085 85.66 96.3636 85.5369C96.7235 85.4091 97.0336 85.2197 97.294 84.9688C97.5545 84.7131 97.7557 84.3958 97.8977 84.017L99.517 84.4716C99.3466 85.0208 99.0601 85.5038 98.6577 85.9205C98.2552 86.3324 97.758 86.6544 97.1662 86.8864C96.5743 87.1136 95.9091 87.2273 95.1705 87.2273Z" fill="black"/>
<path d="M46.5341 87H46.0341V87.5H46.5341V87ZM46.5341 76.0909V75.5909H46.0341V76.0909H46.5341ZM48.2102 76.0909H48.7102V75.5909H48.2102V76.0909ZM48.2102 87V87.5H48.7102V87H48.2102ZM46.5412 73.9389L46.1951 74.2998L46.1987 74.3032L46.5412 73.9389ZM46.5412 72.3338L46.1987 71.9695L46.1951 71.973L46.5412 72.3338ZM48.2244 72.3338L47.8783 72.6947L47.882 72.6981L48.2244 72.3338ZM48.2244 73.9389L47.882 73.5746L47.8783 73.5781L48.2244 73.9389ZM47.0341 87V76.0909H46.0341V87H47.0341ZM46.5341 76.5909H48.2102V75.5909H46.5341V76.5909ZM47.7102 76.0909V87H48.7102V76.0909H47.7102ZM48.2102 86.5H46.5341V87.5H48.2102V86.5ZM47.3864 73.7727C47.1861 73.7727 47.0271 73.7094 46.8836 73.5746L46.1987 74.3032C46.5288 74.6135 46.9332 74.7727 47.3864 74.7727V73.7727ZM46.8873 73.5781C46.7504 73.4468 46.6932 73.3083 46.6932 73.1364H45.6932C45.6932 73.5894 45.8679 73.986 46.1951 74.2998L46.8873 73.5781ZM46.6932 73.1364C46.6932 72.9644 46.7504 72.8259 46.8873 72.6946L46.1951 71.973C45.8679 72.2867 45.6932 72.6833 45.6932 73.1364H46.6932ZM46.8836 72.6981C47.0271 72.5633 47.1861 72.5 47.3864 72.5V71.5C46.9332 71.5 46.5288 71.6593 46.1987 71.9695L46.8836 72.6981ZM47.3864 72.5C47.5864 72.5 47.7411 72.563 47.8783 72.6946L48.5705 71.973C48.2438 71.6595 47.8397 71.5 47.3864 71.5V72.5ZM47.882 72.6981C48.0227 72.8304 48.0795 72.9679 48.0795 73.1364H49.0795C49.0795 72.6798 48.8997 72.2823 48.5669 71.9695L47.882 72.6981ZM48.0795 73.1364C48.0795 73.3048 48.0227 73.4423 47.882 73.5746L48.5669 74.3032C48.8997 73.9904 49.0795 73.5929 49.0795 73.1364H48.0795ZM47.8783 73.5781C47.7411 73.7097 47.5864 73.7727 47.3864 73.7727V74.7727C47.8397 74.7727 48.2438 74.6132 48.5705 74.2998L47.8783 73.5781ZM52.9563 87V87.5H53.4563V87H52.9563ZM51.2802 87H50.7802V87.5H51.2802V87ZM51.2802 76.0909V75.5909H50.7802V76.0909H51.2802ZM52.8995 76.0909H53.3995V75.5909H52.8995V76.0909ZM52.8995 77.7955H52.3995V78.2955H52.8995V77.7955ZM53.0415 77.7955V78.2955H53.3615L53.4955 78.005L53.0415 77.7955ZM54.2063 76.4602L54.4775 76.8803L54.4802 76.8786L54.2063 76.4602ZM58.1623 76.4034L57.9223 76.8421L57.9252 76.8436L58.1623 76.4034ZM59.4549 77.767L59.0084 77.992L59.0091 77.9934L59.4549 77.767ZM59.9165 87V87.5H60.4165V87H59.9165ZM58.2404 87H57.7404V87.5H58.2404V87ZM57.5728 78.179L57.2051 78.5178L57.2068 78.5196L57.5728 78.179ZM54.3058 77.8026L54.0646 77.3645L54.0625 77.3657L54.3058 77.8026ZM53.3185 78.8182L52.8791 78.5797L52.8791 78.5797L53.3185 78.8182ZM52.4563 80.4375V87H53.4563V80.4375H52.4563ZM52.9563 86.5H51.2802V87.5H52.9563V86.5ZM51.7802 87V76.0909H50.7802V87H51.7802ZM51.2802 76.5909H52.8995V75.5909H51.2802V76.5909ZM52.3995 76.0909V77.7955H53.3995V76.0909H52.3995ZM52.8995 78.2955H53.0415V77.2955H52.8995V78.2955ZM53.4955 78.005C53.7108 77.5386 54.035 77.1659 54.4775 76.8803L53.9352 76.0401C53.336 76.4269 52.8837 76.9444 52.5876 77.5859L53.4955 78.005ZM54.4802 76.8786C54.8971 76.6056 55.4659 76.4489 56.2234 76.4489V75.4489C55.3331 75.4489 54.5572 75.633 53.9325 76.0419L54.4802 76.8786ZM56.2234 76.4489C56.8924 76.4489 57.4535 76.5856 57.9223 76.8421L58.4022 75.9647C57.7631 75.6151 57.0316 75.4489 56.2234 75.4489V76.4489ZM57.9252 76.8436C58.3811 77.0891 58.7425 77.4644 59.0084 77.992L59.9014 77.5421C59.5518 76.8481 59.0515 76.3143 58.3993 75.9632L57.9252 76.8436ZM59.0091 77.9934C59.2707 78.5085 59.4165 79.1915 59.4165 80.0682H60.4165C60.4165 79.0888 60.2547 78.2377 59.9007 77.5407L59.0091 77.9934ZM59.4165 80.0682V87H60.4165V80.0682H59.4165ZM59.9165 86.5H58.2404V87.5H59.9165V86.5ZM58.7404 87V80.1818H57.7404V87H58.7404ZM58.7404 80.1818C58.7404 79.2389 58.4941 78.435 57.9388 77.8383L57.2068 78.5196C57.5416 78.8794 57.7404 79.4107 57.7404 80.1818H58.7404ZM57.9405 77.8401C57.3834 77.2357 56.6289 76.9545 55.7404 76.9545V77.9545C56.405 77.9545 56.872 78.1564 57.2051 78.5178L57.9405 77.8401ZM55.7404 76.9545C55.1307 76.9545 54.5679 77.0875 54.0646 77.3646L54.5469 78.2406C54.8864 78.0536 55.28 77.9545 55.7404 77.9545V76.9545ZM54.0625 77.3657C53.5577 77.6468 53.1629 78.0566 52.8791 78.5797L53.758 79.0566C53.9572 78.6896 54.2204 78.4223 54.549 78.2394L54.0625 77.3657ZM52.8791 78.5797C52.589 79.1143 52.4563 79.7404 52.4563 80.4375H53.4563C53.4563 79.8656 53.5651 79.4122 53.758 79.0566L52.8791 78.5797ZM70.7067 78.5341L70.8428 79.0152L71.3475 78.8724L71.1807 78.3751L70.7067 78.5341ZM69.201 78.9602L68.7332 79.1368L68.8953 79.5664L69.3372 79.4413L69.201 78.9602ZM68.782 78.2287L68.3809 78.5275L68.3877 78.5362L68.782 78.2287ZM68.0433 77.6321L68.2669 77.1849L68.2669 77.1849L68.0433 77.6321ZM65.174 77.8594L65.4575 78.2713L65.4584 78.2706L65.174 77.8594ZM64.968 80.0043L64.6564 80.3953L64.6564 80.3953L64.968 80.0043ZM66.3885 80.608L66.2672 81.093L66.2692 81.0935L66.3885 80.608ZM68.0078 81.0057L67.8885 81.4913L67.8899 81.4916L68.0078 81.0057ZM70.1882 82.0923L69.8312 82.4424L69.8329 82.4441L70.1882 82.0923ZM70.3658 85.6364L69.9621 85.3413L69.9602 85.3439L70.3658 85.6364ZM63.8814 86.5028L64.1575 86.086L64.1575 86.086L63.8814 86.5028ZM62.4964 84.3864L62.3752 83.9013L61.9086 84.0179L62.007 84.4887L62.4964 84.3864ZM64.0874 83.9886L64.5715 83.8637L64.4475 83.3832L63.9661 83.5036L64.0874 83.9886ZM64.9467 85.3097L64.6609 85.7199L64.6631 85.7214L64.9467 85.3097ZM68.4766 85.2528L68.7692 85.6583L68.7699 85.6577L68.4766 85.2528ZM68.7749 83.0938L68.4245 83.4505L68.4278 83.4537L68.7749 83.0938ZM67.5533 82.5114L67.4392 82.9982L67.4399 82.9983L67.5533 82.5114ZM65.7351 82.0852L65.6198 82.5718L65.621 82.572L65.7351 82.0852ZM63.5334 80.9844L63.1662 81.3238L63.1696 81.3274L63.5334 80.9844ZM63.3558 77.4688L62.9539 77.1713L62.952 77.1739L63.3558 77.4688ZM64.7834 76.3537L64.58 75.8969L64.5786 75.8975L64.7834 76.3537ZM69.3857 76.6591L69.0808 77.0554L69.0823 77.0565L69.3857 76.6591ZM70.5705 78.053L69.0648 78.4791L69.3372 79.4413L70.8428 79.0152L70.5705 78.053ZM69.6688 78.7837C69.5543 78.4804 69.3882 78.1929 69.1762 77.9212L68.3877 78.5362C68.545 78.7379 68.6583 78.9382 68.7332 79.1368L69.6688 78.7837ZM69.1829 77.93C68.9493 77.6165 68.6381 77.3705 68.2669 77.1849L67.8197 78.0793C68.0735 78.2062 68.2547 78.358 68.381 78.5274L69.1829 77.93ZM68.2669 77.1849C67.8631 76.983 67.3795 76.8977 66.843 76.8977V77.8977C67.282 77.8977 67.5986 77.9687 67.8197 78.0793L68.2669 77.1849ZM66.843 76.8977C66.0978 76.8977 65.436 77.0703 64.8896 77.4481L65.4584 78.2706C65.8021 78.0329 66.253 77.8977 66.843 77.8977V76.8977ZM64.8906 77.4475C64.3367 77.8286 64.0135 78.3586 64.0135 79.017H65.0135C65.0135 78.738 65.1306 78.4962 65.4575 78.2713L64.8906 77.4475ZM64.0135 79.017C64.0135 79.5728 64.2244 80.051 64.6564 80.3953L65.2796 79.6132C65.1056 79.4745 65.0135 79.2947 65.0135 79.017H64.0135ZM64.6564 80.3953C65.0419 80.7024 65.5965 80.9253 66.2672 81.093L66.5098 80.1229C65.8926 79.9686 65.5003 79.789 65.2796 79.6132L64.6564 80.3953ZM66.2692 81.0935L67.8886 81.4913L68.1271 80.5201L66.5078 80.1224L66.2692 81.0935ZM67.8899 81.4916C68.8145 81.716 69.4423 82.0458 69.8312 82.4424L70.5452 81.7423C69.9777 81.1635 69.1519 80.7689 68.1257 80.5198L67.8899 81.4916ZM69.8329 82.4441C70.2068 82.8217 70.4055 83.3122 70.4055 83.9602H71.4055C71.4055 83.0836 71.126 82.3288 70.5435 81.7405L69.8329 82.4441ZM70.4055 83.9602C70.4055 84.482 70.2577 84.9368 69.9621 85.3414L70.7695 85.9314C71.1935 85.3511 71.4055 84.6885 71.4055 83.9602H70.4055ZM69.9602 85.3439C69.6643 85.7542 69.2421 86.0905 68.6712 86.3442L69.0774 87.258C69.7849 86.9436 70.357 86.5033 70.7713 85.9288L69.9602 85.3439ZM68.6712 86.3442C68.108 86.5946 67.4363 86.7273 66.6442 86.7273V87.7273C67.5472 87.7273 68.3622 87.5759 69.0774 87.258L68.6712 86.3442ZM66.6442 86.7273C65.6031 86.7273 64.7851 86.5017 64.1575 86.086L63.6053 86.9197C64.436 87.4699 65.4599 87.7273 66.6442 87.7273V86.7273ZM64.1575 86.086C63.5478 85.6822 63.1555 85.0951 62.9859 84.284L62.007 84.4887C62.2256 85.5337 62.7567 86.3576 63.6053 86.9197L64.1575 86.086ZM62.6177 84.8714L64.2086 84.4737L63.9661 83.5036L62.3752 83.9013L62.6177 84.8714ZM63.6032 84.1136C63.7789 84.7945 64.1243 85.3461 64.6609 85.7199L65.2325 84.8994C64.9264 84.6861 64.6988 84.3571 64.5715 83.8637L63.6032 84.1136ZM64.6631 85.7214C65.196 86.0885 65.8605 86.25 66.6158 86.25V85.25C65.9979 85.25 65.5498 85.1179 65.2304 84.8979L64.6631 85.7214ZM66.6158 86.25C67.4631 86.25 68.1978 86.0706 68.7692 85.6583L68.184 84.8474C67.8368 85.0979 67.3309 85.25 66.6158 85.25V86.25ZM68.7699 85.6577C69.3313 85.251 69.6726 84.7108 69.6726 84.0455H68.6726C68.6726 84.3176 68.5499 84.5823 68.1832 84.8479L68.7699 85.6577ZM69.6726 84.0455C69.6726 83.5352 69.4879 83.0867 69.1219 82.7338L68.4278 83.4537C68.5921 83.6122 68.6726 83.7981 68.6726 84.0455H69.6726ZM69.1252 82.737C68.769 82.3871 68.2625 82.1631 67.6666 82.0244L67.4399 82.9983C67.9426 83.1153 68.2504 83.2795 68.4245 83.4505L69.1252 82.737ZM67.6674 82.0246L65.8492 81.5984L65.621 82.572L67.4392 82.9982L67.6674 82.0246ZM65.8504 81.5987C64.9017 81.3739 64.2731 81.0401 63.8972 80.6414L63.1696 81.3274C63.7312 81.923 64.5704 82.3231 65.6198 82.5718L65.8504 81.5987ZM63.9005 80.6449C63.5309 80.2451 63.3374 79.7431 63.3374 79.1023H62.3374C62.3374 79.9671 62.6079 80.7198 63.1662 81.3238L63.9005 80.6449ZM63.3374 79.1023C63.3374 78.5871 63.4798 78.147 63.7597 77.7636L62.952 77.1739C62.5406 77.7375 62.3374 78.3864 62.3374 79.1023H63.3374ZM63.7577 77.7662C64.0512 77.3695 64.4556 77.0489 64.9881 76.8099L64.5786 75.8975C63.9086 76.1983 63.3612 76.621 62.9539 77.1713L63.7577 77.7662ZM64.9868 76.8105C65.5196 76.5732 66.1352 76.4489 66.843 76.4489V75.4489C66.0168 75.4489 65.2593 75.5944 64.58 75.8969L64.9868 76.8105ZM66.843 76.4489C67.8545 76.4489 68.5811 76.671 69.0808 77.0554L69.6905 76.2628C68.9592 75.7002 67.9906 75.4489 66.843 75.4489V76.4489ZM69.0823 77.0565C69.619 77.4663 70.0023 78.0063 70.2326 78.6931L71.1807 78.3751C70.8902 77.5088 70.3928 76.7989 69.689 76.2617L69.0823 77.0565ZM73.4286 87H72.9286V87.5H73.4286V87ZM73.4286 76.0909V75.5909H72.9286V76.0909H73.4286ZM75.1048 76.0909H75.6048V75.5909H75.1048V76.0909ZM75.1048 87V87.5H75.6048V87H75.1048ZM73.4357 73.9389L73.0896 74.2998L73.0933 74.3032L73.4357 73.9389ZM73.4357 72.3338L73.0933 71.9695L73.0896 71.973L73.4357 72.3338ZM75.119 72.3338L74.7728 72.6947L74.7765 72.6981L75.119 72.3338ZM75.119 73.9389L74.7765 73.5746L74.7729 73.5781L75.119 73.9389ZM73.9286 87V76.0909H72.9286V87H73.9286ZM73.4286 76.5909H75.1048V75.5909H73.4286V76.5909ZM74.6048 76.0909V87H75.6048V76.0909H74.6048ZM75.1048 86.5H73.4286V87.5H75.1048V86.5ZM74.2809 73.7727C74.0807 73.7727 73.9216 73.7094 73.7782 73.5746L73.0933 74.3032C73.4233 74.6135 73.8277 74.7727 74.2809 74.7727V73.7727ZM73.7818 73.5781C73.645 73.4468 73.5877 73.3083 73.5877 73.1364H72.5877C72.5877 73.5894 72.7625 73.986 73.0896 74.2998L73.7818 73.5781ZM73.5877 73.1364C73.5877 72.9644 73.645 72.8259 73.7818 72.6946L73.0896 71.973C72.7625 72.2867 72.5877 72.6833 72.5877 73.1364H73.5877ZM73.7782 72.6981C73.9216 72.5633 74.0807 72.5 74.2809 72.5V71.5C73.8277 71.5 73.4233 71.6593 73.0933 71.9695L73.7782 72.6981ZM74.2809 72.5C74.4809 72.5 74.6356 72.563 74.7729 72.6946L75.4651 71.973C75.1383 71.6595 74.7343 71.5 74.2809 71.5V72.5ZM74.7765 72.6981C74.9172 72.8304 74.9741 72.9679 74.9741 73.1364H75.9741C75.9741 72.6798 75.7942 72.2823 75.4614 71.9695L74.7765 72.6981ZM74.9741 73.1364C74.9741 73.3048 74.9172 73.4423 74.7765 73.5746L75.4614 74.3032C75.7942 73.9904 75.9741 73.5929 75.9741 73.1364H74.9741ZM74.7729 73.5781C74.6356 73.7097 74.4809 73.7727 74.2809 73.7727V74.7727C74.7343 74.7727 75.1383 74.6132 75.4651 74.2998L74.7729 73.5781ZM79.8864 86.5384L79.609 86.9544L79.611 86.9557L79.8864 86.5384ZM78.2528 84.5781L77.7992 84.7885L77.7997 84.7894L78.2528 84.5781ZM78.2528 78.5909L77.7997 78.3796L77.7997 78.3796L78.2528 78.5909ZM79.8935 76.6378L79.6194 76.2196L79.6194 76.2196L79.8935 76.6378ZM84.0057 76.304L83.7565 76.7375L83.7624 76.7408L84.0057 76.304ZM84.9574 77.0994L84.5535 77.3943L84.5589 77.4015L84.9574 77.0994ZM85.4759 77.8239L85.0566 78.0964L85.2045 78.3239H85.4759V77.8239ZM85.6179 77.8239V78.3239H86.1179V77.8239H85.6179ZM85.6179 72.4545V71.9545H85.1179V72.4545H85.6179ZM87.294 72.4545H87.794V71.9545H87.294V72.4545ZM87.294 87V87.5H87.794V87H87.294ZM85.6747 87H85.1747V87.5H85.6747V87ZM85.6747 85.3239H86.1747V84.8239H85.6747V85.3239ZM85.4759 85.3239V84.8239H85.1973L85.0507 85.0607L85.4759 85.3239ZM84.9503 86.0767L85.348 86.3797L85.3503 86.3767L84.9503 86.0767ZM83.9773 86.8793L84.2184 87.3173L84.2222 87.3152L83.9773 86.8793ZM84.2259 85.196L84.5272 85.5951L84.5297 85.5931L84.2259 85.196ZM85.2841 83.7259L85.7505 83.9061L85.7509 83.9049L85.2841 83.7259ZM85.2912 79.4077L84.8245 79.5872L84.825 79.5884L85.2912 79.4077ZM84.2401 77.973L83.9414 78.374L83.944 78.376L84.2401 77.973ZM80.7457 78.0014L81.0502 78.398L81.0508 78.3976L80.7457 78.0014ZM79.6875 79.4716L79.2204 79.2933L79.2196 79.2952L79.6875 79.4716ZM79.6946 83.6619L79.2261 83.8367L79.2277 83.841L79.6946 83.6619ZM80.7599 85.1676L80.4481 85.5585L80.4524 85.5619L80.7599 85.1676ZM82.294 86.7273C81.4736 86.7273 80.7687 86.5215 80.1617 86.121L79.611 86.9557C80.3961 87.4737 81.2962 87.7273 82.294 87.7273V86.7273ZM80.1637 86.1223C79.5523 85.7147 79.0647 85.1361 78.706 84.3668L77.7997 84.7894C78.227 85.7058 78.8284 86.434 79.609 86.9544L80.1637 86.1223ZM78.7064 84.3678C78.3504 83.5998 78.1634 82.6733 78.1634 81.5739H77.1634C77.1634 82.785 77.3693 83.8613 77.7992 84.7885L78.7064 84.3678ZM78.1634 81.5739C78.1634 80.4845 78.3502 79.5653 78.706 78.8022L77.7997 78.3796C77.3695 79.3021 77.1634 80.3716 77.1634 81.5739H78.1634ZM78.706 78.8022C79.0641 78.0341 79.5529 77.4588 80.1675 77.056L79.6194 76.2196C78.8325 76.7353 78.2275 77.4621 77.7997 78.3796L78.706 78.8022ZM80.1675 77.056C80.7791 76.6552 81.4915 76.4489 82.3224 76.4489V75.4489C81.3163 75.4489 80.4094 75.7018 79.6194 76.2196L80.1675 77.056ZM82.3224 76.4489C82.9853 76.4489 83.4489 76.5607 83.7565 76.7375L84.2548 75.8705C83.7386 75.5738 83.08 75.4489 82.3224 75.4489V76.4489ZM83.7624 76.7408C84.1336 76.9475 84.3889 77.1688 84.5536 77.3943L85.3612 76.8046C85.0903 76.4335 84.7111 76.1245 84.2489 75.8671L83.7624 76.7408ZM84.5589 77.4015C84.7781 77.6906 84.9429 77.9213 85.0566 78.0964L85.8951 77.5514C85.7626 77.3476 85.5817 77.0954 85.3558 76.7974L84.5589 77.4015ZM85.4759 78.3239H85.6179V77.3239H85.4759V78.3239ZM86.1179 77.8239V72.4545H85.1179V77.8239H86.1179ZM85.6179 72.9545H87.294V71.9545H85.6179V72.9545ZM86.794 72.4545V87H87.794V72.4545H86.794ZM87.294 86.5H85.6747V87.5H87.294V86.5ZM86.1747 87V85.3239H85.1747V87H86.1747ZM85.6747 84.8239H85.4759V85.8239H85.6747V84.8239ZM85.0507 85.0607C84.9387 85.2416 84.7734 85.4793 84.5503 85.7767L85.3503 86.3767C85.5818 86.0681 85.7668 85.8038 85.901 85.587L85.0507 85.0607ZM84.5526 85.7737C84.3767 86.0045 84.1108 86.2308 83.7324 86.4433L84.2222 87.3152C84.6866 87.0543 85.0693 86.7455 85.348 86.3797L84.5526 85.7737ZM83.7361 86.4413C83.4147 86.6182 82.9464 86.7273 82.294 86.7273V87.7273C83.0432 87.7273 83.697 87.6043 84.2184 87.3173L83.7361 86.4413ZM82.5213 86.2216C83.2847 86.2216 83.9632 86.0209 84.5272 85.595L83.9246 84.797C83.5605 85.0719 83.1026 85.2216 82.5213 85.2216V86.2216ZM84.5297 85.5931C85.0771 85.1742 85.4808 84.6041 85.7505 83.9061L84.8177 83.5457C84.6044 84.0976 84.3027 84.5076 83.922 84.799L84.5297 85.5931ZM85.7509 83.9049C86.0186 83.2069 86.1463 82.4174 86.1463 81.5455H85.1463C85.1463 82.3213 85.0325 82.9853 84.8172 83.5468L85.7509 83.9049ZM86.1463 81.5455C86.1463 80.6838 86.0212 79.9075 85.7574 79.227L84.825 79.5884C85.0347 80.1294 85.1463 80.7784 85.1463 81.5455H86.1463ZM85.7579 79.2282C85.4919 78.5367 85.0879 77.9755 84.5361 77.5701L83.944 78.376C84.3202 78.6523 84.617 79.0476 84.8245 79.5872L85.7579 79.2282ZM84.5387 77.572C83.9738 77.1512 83.2909 76.9545 82.5213 76.9545V77.9545C83.1153 77.9545 83.5783 78.1036 83.9414 78.374L84.5387 77.572ZM82.5213 76.9545C81.7223 76.9545 81.0173 77.1613 80.4407 77.6053L81.0508 78.3976C81.4212 78.1124 81.8999 77.9545 82.5213 77.9545V76.9545ZM80.4413 77.6048C79.8904 78.0277 79.4859 78.5976 79.2204 79.2933L80.1546 79.6499C80.3626 79.1051 80.6636 78.6948 81.0502 78.398L80.4413 77.6048ZM79.2196 79.2952C78.9632 79.9757 78.8395 80.728 78.8395 81.5455H79.8395C79.8395 80.8288 79.9478 80.1986 80.1554 79.6479L79.2196 79.2952ZM78.8395 81.5455C78.8395 82.373 78.9657 83.1388 79.2262 83.8367L80.1631 83.4871C79.95 82.9161 79.8395 82.2709 79.8395 81.5455H78.8395ZM79.2277 83.841C79.497 84.5432 79.9014 85.1222 80.4481 85.5584L81.0718 84.7768C80.681 84.465 80.3751 84.0401 80.1615 83.4829L79.2277 83.841ZM80.4524 85.5619C81.0279 86.0108 81.7285 86.2216 82.5213 86.2216V85.2216C81.9126 85.2216 81.4389 85.0631 81.0675 84.7734L80.4524 85.5619ZM92.4503 86.5312L92.1872 86.9565L92.1903 86.9583L92.4503 86.5312ZM90.696 84.571L90.2458 84.7885L90.2473 84.7916L90.696 84.571ZM90.696 78.6761L90.2454 78.4595L90.2449 78.4606L90.696 78.6761ZM92.4148 76.6733L92.6877 77.0922L92.6884 77.0918L92.4148 76.6733ZM96.6832 76.233L96.845 75.7598L96.845 75.7598L96.6832 76.233ZM98.196 77.1562L97.854 77.521L97.8561 77.5229L98.196 77.1562ZM99.2827 78.8324L99.7489 78.6516L99.7489 78.6516L99.2827 78.8324ZM99.6875 82.1136V82.6136H100.188V82.1136H99.6875ZM91.2784 82.1136H90.7784V82.6136H91.2784V82.1136ZM91.2784 80.6648V80.1648H90.7784V80.6648H91.2784ZM97.983 80.6648V81.1648H98.483V80.6648H97.983ZM97.6136 79.017L97.1664 79.2407L97.1682 79.2441L97.6136 79.017ZM96.5767 77.8736L96.3109 78.2971L96.3129 78.2983L96.5767 77.8736ZM93.267 77.9517L93.5472 78.3658L93.5481 78.3652L93.267 77.9517ZM92.152 79.2301L91.704 79.0081L91.704 79.0081L92.152 79.2301ZM92.1875 83.9815L91.7395 84.2037L91.7418 84.2081L92.1875 83.9815ZM93.3878 85.2812L93.1358 85.7131L93.1389 85.7149L93.3878 85.2812ZM96.3636 85.5369L96.5274 86.0094L96.531 86.0081L96.3636 85.5369ZM97.294 84.9688L97.641 85.3288L97.6443 85.3255L97.294 84.9688ZM97.8977 84.017L98.0329 83.5357L97.5908 83.4116L97.4296 83.8415L97.8977 84.017ZM99.517 84.4716L99.9946 84.6198L100.147 84.1291L99.6522 83.9902L99.517 84.4716ZM98.6577 85.9205L99.0153 86.2699L99.0173 86.2678L98.6577 85.9205ZM97.1662 86.8864L97.3454 87.3531L97.3487 87.3519L97.1662 86.8864ZM95.1705 86.7273C94.1945 86.7273 93.3812 86.5126 92.7103 86.1042L92.1903 86.9583C93.0439 87.478 94.0441 87.7273 95.1705 87.7273V86.7273ZM92.7134 86.1061C92.0396 85.6892 91.5173 85.1085 91.1447 84.3505L90.2473 84.7916C90.6986 85.7097 91.3458 86.4358 92.1872 86.9564L92.7134 86.1061ZM91.1462 84.3535C90.7776 83.5904 90.5852 82.6872 90.5852 81.6307H89.5852C89.5852 82.809 89.8001 83.866 90.2458 84.7885L91.1462 84.3535ZM90.5852 81.6307C90.5852 80.5743 90.7775 79.6654 91.1472 78.8917L90.2449 78.4606C89.8002 79.3914 89.5852 80.4522 89.5852 81.6307H90.5852ZM91.1467 78.8927C91.5225 78.1109 92.037 77.5163 92.6877 77.0922L92.1418 76.2544C91.3248 76.7868 90.6934 77.5274 90.2454 78.4595L91.1467 78.8927ZM92.6884 77.0918C93.3364 76.6681 94.1007 76.4489 95 76.4489V75.4489C93.9296 75.4489 92.9704 75.7126 92.1411 76.2548L92.6884 77.0918ZM95 76.4489C95.5115 76.4489 96.018 76.5339 96.5215 76.7061L96.845 75.7598C96.2405 75.5532 95.6249 75.4489 95 75.4489V76.4489ZM96.5215 76.7061C97.0041 76.8711 97.4478 77.1402 97.8541 77.521L98.538 76.7915C98.0351 76.32 97.4703 75.9736 96.845 75.7598L96.5215 76.7061ZM97.8561 77.5229C98.2448 77.8833 98.5685 78.3736 98.8165 79.0132L99.7489 78.6516C99.4571 77.8991 99.0564 77.2721 98.536 76.7896L97.8561 77.5229ZM98.8165 79.0131C99.0575 79.6347 99.1875 80.4262 99.1875 81.4034H100.188C100.188 80.3446 100.048 79.4221 99.7489 78.6516L98.8165 79.0131ZM99.1875 81.4034V82.1136H100.188V81.4034H99.1875ZM99.6875 81.6136H91.2784V82.6136H99.6875V81.6136ZM91.7784 82.1136V80.6648H90.7784V82.1136H91.7784ZM91.2784 81.1648H97.983V80.1648H91.2784V81.1648ZM98.483 80.6648C98.483 79.9811 98.3458 79.3522 98.0591 78.79L97.1682 79.2441C97.3739 79.6478 97.483 80.1174 97.483 80.6648H98.483ZM98.0609 78.7934C97.7789 78.2295 97.3705 77.778 96.8405 77.4488L96.3129 78.2983C96.6825 78.5279 96.9654 78.8387 97.1664 79.2407L98.0609 78.7934ZM96.8425 77.4501C96.3062 77.1135 95.6854 76.9545 95 76.9545V77.9545C95.5267 77.9545 95.9571 78.075 96.3109 78.2971L96.8425 77.4501ZM95 76.9545C94.2459 76.9545 93.5672 77.1431 92.986 77.5382L93.5481 78.3652C93.9422 78.0974 94.4189 77.9545 95 77.9545V76.9545ZM92.9869 77.5376C92.4319 77.913 92.0025 78.4055 91.704 79.0081L92.6 79.4521C92.8223 79.0035 93.1363 78.6438 93.5472 78.3658L92.9869 77.5376ZM91.704 79.0081C91.4085 79.6045 91.2614 80.2441 91.2614 80.9205H92.2614C92.2614 80.3941 92.3747 79.9069 92.6 79.4521L91.704 79.0081ZM91.2614 80.9205V81.8864H92.2614V80.9205H91.2614ZM91.2614 81.8864C91.2614 82.7658 91.4128 83.5447 91.7395 84.2037L92.6355 83.7594C92.394 83.2725 92.2614 82.6546 92.2614 81.8864H91.2614ZM91.7418 84.2081C92.0707 84.8551 92.5351 85.3627 93.1358 85.7131L93.6397 84.8494C93.2177 84.6032 92.882 84.2444 92.6332 83.755L91.7418 84.2081ZM93.1389 85.7149C93.7366 86.058 94.4192 86.2216 95.1705 86.2216V85.2216C94.5676 85.2216 94.0617 85.0916 93.6367 84.8476L93.1389 85.7149ZM95.1705 86.2216C95.6572 86.2216 96.1115 86.1535 96.5274 86.0093L96.1999 85.0645C95.9056 85.1665 95.5644 85.2216 95.1705 85.2216V86.2216ZM96.531 86.0081C96.9541 85.8578 97.3265 85.6319 97.641 85.3288L96.9471 84.6087C96.7408 84.8075 96.4928 84.9604 96.1963 85.0658L96.531 86.0081ZM97.6443 85.3255C97.9622 85.0135 98.201 84.6322 98.3659 84.1926L97.4296 83.8415C97.3103 84.1595 97.1467 84.4127 96.9437 84.612L97.6443 85.3255ZM97.7626 84.4984L99.3819 84.953L99.6522 83.9902L98.0329 83.5357L97.7626 84.4984ZM99.0395 84.3234C98.8924 84.7974 98.6466 85.2122 98.298 85.5731L99.0173 86.2678C99.4737 85.7953 99.8008 85.2443 99.9946 84.6198L99.0395 84.3234ZM98.3 85.571C97.952 85.9273 97.5165 86.212 96.9837 86.4209L97.3487 87.3519C97.9996 87.0967 98.5584 86.7375 99.0153 86.2699L98.3 85.571ZM96.987 86.4196C96.4609 86.6216 95.8578 86.7273 95.1705 86.7273V87.7273C95.9604 87.7273 96.6878 87.6057 97.3454 87.3531L96.987 86.4196Z" fill="black"/>
</svg>
