<svg width="160" height="160" viewBox="0 0 160 160" fill="none" xmlns="http://www.w3.org/2000/svg">
<rect width="160" height="160" fill="#D9D9D9"/>
<path d="M50.9659 87.2273C49.9811 87.2273 49.117 86.9929 48.3736 86.5241C47.6349 86.0554 47.0573 85.3996 46.6406 84.5568C46.2287 83.714 46.0227 82.7292 46.0227 81.6023C46.0227 80.4659 46.2287 79.474 46.6406 78.6264C47.0573 77.7789 47.6349 77.1207 48.3736 76.652C49.117 76.1832 49.9811 75.9489 50.9659 75.9489C51.9508 75.9489 52.8125 76.1832 53.5511 76.652C54.2945 77.1207 54.8722 77.7789 55.2841 78.6264C55.7008 79.474 55.9091 80.4659 55.9091 81.6023C55.9091 82.7292 55.7008 83.714 55.2841 84.5568C54.8722 85.3996 54.2945 86.0554 53.5511 86.5241C52.8125 86.9929 51.9508 87.2273 50.9659 87.2273ZM50.9659 85.7216C51.714 85.7216 52.3295 85.5298 52.8125 85.1463C53.2955 84.7628 53.6529 84.2585 53.8849 83.6335C54.117 83.0085 54.233 82.3314 54.233 81.6023C54.233 80.8731 54.117 80.1937 53.8849 79.5639C53.6529 78.9342 53.2955 78.4252 52.8125 78.0369C52.3295 77.6487 51.714 77.4545 50.9659 77.4545C50.2178 77.4545 49.6023 77.6487 49.1193 78.0369C48.6364 78.4252 48.2789 78.9342 48.0469 79.5639C47.8149 80.1937 47.6989 80.8731 47.6989 81.6023C47.6989 82.3314 47.8149 83.0085 48.0469 83.6335C48.2789 84.2585 48.6364 84.7628 49.1193 85.1463C49.6023 85.5298 50.2178 85.7216 50.9659 85.7216ZM65.3427 82.5398V76.0909H67.0188V87H65.3427V85.1534H65.229C64.9734 85.7074 64.5756 86.1785 64.0359 86.5668C63.4961 86.9503 62.8143 87.142 61.9904 87.142C61.3086 87.142 60.7025 86.9929 60.1722 86.6946C59.6419 86.3916 59.2253 85.937 58.9222 85.331C58.6192 84.7202 58.4677 83.9508 58.4677 83.0227V76.0909H60.1438V82.9091C60.1438 83.7045 60.3664 84.339 60.8114 84.8125C61.2612 85.286 61.8342 85.5227 62.5302 85.5227C62.9469 85.5227 63.3706 85.4162 63.8015 85.2031C64.2371 84.9901 64.6017 84.6634 64.8952 84.223C65.1935 83.7827 65.3427 83.2216 65.3427 82.5398ZM74.8331 76.0909V77.5114H69.1797V76.0909H74.8331ZM70.8274 73.4773H72.5036V83.875C72.5036 84.3485 72.5722 84.7036 72.7095 84.9403C72.8516 85.1723 73.0315 85.3286 73.2493 85.4091C73.4718 85.4848 73.7062 85.5227 73.9524 85.5227C74.1371 85.5227 74.2886 85.5133 74.407 85.4943C74.5253 85.4706 74.62 85.4517 74.6911 85.4375L75.032 86.9432C74.9183 86.9858 74.7597 87.0284 74.5561 87.071C74.3525 87.1184 74.0945 87.142 73.782 87.142C73.3085 87.142 72.8445 87.0402 72.3899 86.8366C71.9401 86.633 71.5661 86.3229 71.2678 85.9062C70.9742 85.4896 70.8274 84.964 70.8274 84.3295V73.4773ZM84.8864 78.5341L83.3807 78.9602C83.286 78.7093 83.1463 78.4654 82.9616 78.2287C82.7817 77.9872 82.5355 77.7884 82.223 77.6321C81.9105 77.4759 81.5104 77.3977 81.0227 77.3977C80.3551 77.3977 79.7988 77.5516 79.3537 77.8594C78.9134 78.1624 78.6932 78.5483 78.6932 79.017C78.6932 79.4337 78.8447 79.7628 79.1477 80.0043C79.4508 80.2457 79.9242 80.447 80.5682 80.608L82.1875 81.0057C83.1629 81.2424 83.8897 81.6046 84.3679 82.0923C84.8461 82.5753 85.0852 83.1979 85.0852 83.9602C85.0852 84.5852 84.9053 85.1439 84.5455 85.6364C84.1903 86.1288 83.6932 86.517 83.054 86.8011C82.4148 87.0852 81.6714 87.2273 80.8239 87.2273C79.7112 87.2273 78.7902 86.9858 78.0611 86.5028C77.3319 86.0199 76.8703 85.3144 76.6761 84.3864L78.267 83.9886C78.4186 84.5758 78.705 85.0161 79.1264 85.3097C79.5526 85.6032 80.1089 85.75 80.7955 85.75C81.5767 85.75 82.197 85.5843 82.6562 85.2528C83.1203 84.9167 83.3523 84.5142 83.3523 84.0455C83.3523 83.6667 83.2197 83.3494 82.9545 83.0938C82.6894 82.8333 82.2822 82.6392 81.733 82.5114L79.9148 82.0852C78.9157 81.8485 78.1818 81.4815 77.7131 80.9844C77.2491 80.4825 77.017 79.8551 77.017 79.1023C77.017 78.4867 77.1899 77.9422 77.5355 77.4688C77.8859 76.9953 78.3617 76.6236 78.9631 76.3537C79.5691 76.0838 80.2557 75.9489 81.0227 75.9489C82.1023 75.9489 82.9498 76.1856 83.5653 76.6591C84.1856 77.1326 84.6259 77.7576 84.8864 78.5341ZM87.6083 87V76.0909H89.2844V87H87.6083ZM88.4606 74.2727C88.1339 74.2727 87.8522 74.1615 87.6154 73.9389C87.3834 73.7164 87.2674 73.4489 87.2674 73.1364C87.2674 72.8239 87.3834 72.5563 87.6154 72.3338C87.8522 72.1113 88.1339 72 88.4606 72C88.7873 72 89.0666 72.1113 89.2987 72.3338C89.5354 72.5563 89.6538 72.8239 89.6538 73.1364C89.6538 73.4489 89.5354 73.7164 89.2987 73.9389C89.0666 74.1615 88.7873 74.2727 88.4606 74.2727ZM96.4737 87.2273C95.5646 87.2273 94.7621 86.9976 94.0661 86.5384C93.37 86.0743 92.8255 85.4209 92.4325 84.5781C92.0395 83.7306 91.843 82.7292 91.843 81.5739C91.843 80.428 92.0395 79.4337 92.4325 78.5909C92.8255 77.7481 93.3724 77.0971 94.0732 76.6378C94.7739 76.1785 95.5836 75.9489 96.5021 75.9489C97.2124 75.9489 97.7734 76.0672 98.1854 76.304C98.602 76.536 98.9193 76.8011 99.1371 77.0994C99.3596 77.393 99.5324 77.6345 99.6555 77.8239H99.7976V72.4545H101.474V87H99.8544V85.3239H99.6555C99.5324 85.5227 99.3572 85.7737 99.13 86.0767C98.9027 86.375 98.5784 86.6425 98.157 86.8793C97.7356 87.1113 97.1745 87.2273 96.4737 87.2273ZM96.701 85.7216C97.3733 85.7216 97.9415 85.5464 98.4055 85.196C98.8696 84.8409 99.2223 84.3509 99.4638 83.7259C99.7053 83.0961 99.826 82.3693 99.826 81.5455C99.826 80.7311 99.7076 80.0185 99.4709 79.4077C99.2341 78.7921 98.8838 78.3139 98.4197 77.973C97.9557 77.6274 97.3828 77.4545 96.701 77.4545C95.9908 77.4545 95.3989 77.6368 94.9254 78.0014C94.4567 78.3613 94.1039 78.8513 93.8672 79.4716C93.6352 80.0871 93.5192 80.7784 93.5192 81.5455C93.5192 82.322 93.6375 83.0275 93.8743 83.6619C94.1158 84.2917 94.4709 84.7936 94.9396 85.1676C95.4131 85.5369 96.0002 85.7216 96.701 85.7216ZM109.35 87.2273C108.299 87.2273 107.392 86.9953 106.63 86.5312C105.872 86.0625 105.288 85.4091 104.876 84.571C104.469 83.7282 104.265 82.7481 104.265 81.6307C104.265 80.5133 104.469 79.5284 104.876 78.6761C105.288 77.8191 105.861 77.1515 106.594 76.6733C107.333 76.1903 108.195 75.9489 109.18 75.9489C109.748 75.9489 110.309 76.0436 110.863 76.233C111.417 76.4223 111.921 76.7301 112.376 77.1562C112.83 77.5777 113.192 78.1364 113.462 78.8324C113.732 79.5284 113.867 80.3854 113.867 81.4034V82.1136H105.458V80.6648H112.163C112.163 80.0492 112.04 79.5 111.793 79.017C111.552 78.5341 111.206 78.1529 110.756 77.8736C110.311 77.5942 109.786 77.4545 109.18 77.4545C108.512 77.4545 107.934 77.6203 107.447 77.9517C106.964 78.2784 106.592 78.7045 106.332 79.2301C106.071 79.7557 105.941 80.3191 105.941 80.9205V81.8864C105.941 82.7102 106.083 83.4086 106.367 83.9815C106.656 84.5497 107.056 84.983 107.567 85.2812C108.079 85.5748 108.673 85.7216 109.35 85.7216C109.79 85.7216 110.188 85.66 110.543 85.5369C110.903 85.4091 111.213 85.2197 111.474 84.9688C111.734 84.7131 111.935 84.3958 112.077 84.017L113.697 84.4716C113.526 85.0208 113.24 85.5038 112.837 85.9205C112.435 86.3324 111.938 86.6544 111.346 86.8864C110.754 87.1136 110.089 87.2273 109.35 87.2273Z" fill="black"/>
<path d="M48.3736 86.5241L48.1057 86.9463L48.1069 86.9471L48.3736 86.5241ZM46.6406 84.5568L46.1914 84.7764L46.1924 84.7784L46.6406 84.5568ZM46.6406 78.6264L46.1919 78.4058L46.1909 78.4079L46.6406 78.6264ZM48.3736 76.652L48.1069 76.2291L48.1057 76.2298L48.3736 76.652ZM53.5511 76.652L53.2832 77.0742L53.2844 77.0749L53.5511 76.652ZM55.2841 78.6264L54.8344 78.845L54.8354 78.847L55.2841 78.6264ZM55.2841 84.5568L54.8359 84.3352L54.8349 84.3373L55.2841 84.5568ZM53.5511 86.5241L53.2844 86.1012L53.2832 86.102L53.5511 86.5241ZM52.8125 85.1463L52.5016 84.7548L52.5016 84.7548L52.8125 85.1463ZM53.8849 83.6335L54.3537 83.8075L54.3537 83.8075L53.8849 83.6335ZM53.8849 79.5639L54.3541 79.3911L54.3541 79.3911L53.8849 79.5639ZM52.8125 78.0369L53.1258 77.6472L53.1258 77.6472L52.8125 78.0369ZM49.1193 78.0369L48.806 77.6472L48.806 77.6472L49.1193 78.0369ZM48.0469 79.5639L47.5777 79.3911L47.5777 79.3911L48.0469 79.5639ZM48.0469 83.6335L47.5781 83.8075L47.5781 83.8075L48.0469 83.6335ZM49.1193 85.1463L49.4303 84.7548L49.4303 84.7548L49.1193 85.1463ZM50.9659 86.7273C50.0637 86.7273 49.2944 86.5137 48.6403 86.1012L48.1069 86.9471C48.9395 87.4721 49.8984 87.7273 50.9659 87.7273V86.7273ZM48.6415 86.102C47.986 85.686 47.4681 85.1023 47.0888 84.3352L46.1924 84.7784C46.6465 85.697 47.2839 86.4248 48.1057 86.9463L48.6415 86.102ZM47.0898 84.3373C46.7174 83.5752 46.5227 82.6682 46.5227 81.6023H45.5227C45.5227 82.7901 45.74 83.8528 46.1914 84.7764L47.0898 84.3373ZM46.5227 81.6023C46.5227 80.5263 46.7176 79.6118 47.0903 78.845L46.1909 78.4079C45.7398 79.3361 45.5227 80.4056 45.5227 81.6023H46.5227ZM47.0893 78.847C47.4688 78.0752 47.9867 77.4897 48.6415 77.0742L48.1057 76.2298C47.2832 76.7518 46.6458 77.4826 46.1919 78.4058L47.0893 78.847ZM48.6403 77.0749C49.2944 76.6624 50.0637 76.4489 50.9659 76.4489V75.4489C49.8984 75.4489 48.9395 75.704 48.1069 76.2291L48.6403 77.0749ZM50.9659 76.4489C51.8682 76.4489 52.6345 76.6624 53.2832 77.0742L53.819 76.2298C52.9905 75.704 52.0334 75.4489 50.9659 75.4489V76.4489ZM53.2844 77.0749C53.9432 77.4903 54.4601 78.075 54.8344 78.845L55.7338 78.4079C55.2842 77.4828 54.6458 76.7511 53.8178 76.2291L53.2844 77.0749ZM54.8354 78.847C55.2121 79.6133 55.4091 80.527 55.4091 81.6023H56.4091C56.4091 80.4048 56.1894 79.3346 55.7328 78.4058L54.8354 78.847ZM55.4091 81.6023C55.4091 82.6674 55.2124 83.5737 54.8359 84.3352L55.7323 84.7784C56.1892 83.8543 56.4091 82.7909 56.4091 81.6023H55.4091ZM54.8349 84.3373C54.4609 85.1025 53.9439 85.6854 53.2844 86.1012L53.8178 86.9471C54.6451 86.4254 55.2835 85.6967 55.7333 84.7764L54.8349 84.3373ZM53.2832 86.102C52.6345 86.5137 51.8682 86.7273 50.9659 86.7273V87.7273C52.0334 87.7273 52.9905 87.4721 53.819 86.9463L53.2832 86.102ZM50.9659 86.2216C51.8021 86.2216 52.5344 86.0056 53.1234 85.5379L52.5016 84.7548C52.1247 85.054 51.6259 85.2216 50.9659 85.2216V86.2216ZM53.1234 85.5379C53.6836 85.093 54.0926 84.5109 54.3537 83.8075L53.4162 83.4595C53.2133 84.0061 52.9073 84.4326 52.5016 84.7548L53.1234 85.5379ZM54.3537 83.8075C54.6082 83.1219 54.733 82.3853 54.733 81.6023H53.733C53.733 82.2776 53.6257 82.8952 53.4162 83.4595L54.3537 83.8075ZM54.733 81.6023C54.733 80.8192 54.6082 80.0808 54.3541 79.3911L53.4158 79.7368C53.6257 80.3066 53.733 80.927 53.733 81.6023H54.733ZM54.3541 79.3911C54.0935 78.6836 53.6852 78.097 53.1258 77.6472L52.4992 78.4266C52.9057 78.7534 53.2124 79.1848 53.4158 79.7368L54.3541 79.3911ZM53.1258 77.6472C52.5367 77.1736 51.8035 76.9545 50.9659 76.9545V77.9545C51.6245 77.9545 52.1224 78.1237 52.4992 78.4266L53.1258 77.6472ZM50.9659 76.9545C50.1283 76.9545 49.3952 77.1736 48.806 77.6472L49.4326 78.4266C49.8094 78.1237 50.3073 77.9545 50.9659 77.9545V76.9545ZM48.806 77.6472C48.2466 78.097 47.8384 78.6836 47.5777 79.3911L48.516 79.7368C48.7194 79.1848 49.0261 78.7534 49.4326 78.4266L48.806 77.6472ZM47.5777 79.3911C47.3236 80.0808 47.1989 80.8192 47.1989 81.6023H48.1989C48.1989 80.927 48.3061 80.3066 48.516 79.7368L47.5777 79.3911ZM47.1989 81.6023C47.1989 82.3853 47.3236 83.1219 47.5781 83.8075L48.5156 83.4595C48.3061 82.8952 48.1989 82.2776 48.1989 81.6023H47.1989ZM47.5781 83.8075C47.8392 84.5109 48.2482 85.093 48.8084 85.5379L49.4303 84.7548C49.0245 84.4326 48.7185 84.0061 48.5156 83.4595L47.5781 83.8075ZM48.8084 85.5379C49.3974 86.0056 50.1297 86.2216 50.9659 86.2216V85.2216C50.3059 85.2216 49.8071 85.054 49.4303 84.7548L48.8084 85.5379ZM65.3427 76.0909V75.5909H64.8427V76.0909H65.3427ZM67.0188 76.0909H67.5188V75.5909H67.0188V76.0909ZM67.0188 87V87.5H67.5188V87H67.0188ZM65.3427 87H64.8427V87.5H65.3427V87ZM65.3427 85.1534H65.8427V84.6534H65.3427V85.1534ZM65.229 85.1534V84.6534H64.9091L64.7751 84.9439L65.229 85.1534ZM64.0359 86.5668L64.3255 86.9744L64.3278 86.9727L64.0359 86.5668ZM60.1722 86.6946L59.9242 87.1287L59.9271 87.1304L60.1722 86.6946ZM58.9222 85.331L58.4743 85.5532L58.475 85.5546L58.9222 85.331ZM58.4677 76.0909V75.5909H57.9677V76.0909H58.4677ZM60.1438 76.0909H60.6438V75.5909H60.1438V76.0909ZM60.8114 84.8125L60.4471 85.155L60.4489 85.1569L60.8114 84.8125ZM63.8015 85.2031L63.5818 84.754L63.5799 84.7549L63.8015 85.2031ZM64.8952 84.223L64.4813 83.9426L64.4792 83.9457L64.8952 84.223ZM65.8427 82.5398V76.0909H64.8427V82.5398H65.8427ZM65.3427 76.5909H67.0188V75.5909H65.3427V76.5909ZM66.5188 76.0909V87H67.5188V76.0909H66.5188ZM67.0188 86.5H65.3427V87.5H67.0188V86.5ZM65.8427 87V85.1534H64.8427V87H65.8427ZM65.3427 84.6534H65.229V85.6534H65.3427V84.6534ZM64.7751 84.9439C64.5587 85.4126 64.2201 85.8183 63.7439 86.1609L64.3278 86.9727C64.9312 86.5387 65.388 86.0022 65.683 85.3629L64.7751 84.9439ZM63.7463 86.1592C63.3098 86.4693 62.7361 86.642 61.9904 86.642V87.642C62.8925 87.642 63.6824 87.4313 64.3255 86.9744L63.7463 86.1592ZM61.9904 86.642C61.3839 86.642 60.8641 86.5101 60.4174 86.2588L59.9271 87.1304C60.5409 87.4757 61.2333 87.642 61.9904 87.642V86.642ZM60.4203 86.2605C59.985 86.0117 59.6333 85.6352 59.3694 85.1074L58.475 85.5546C58.8172 86.2389 59.2989 86.7714 59.9242 87.1287L60.4203 86.2605ZM59.3701 85.1087C59.1114 84.5873 58.9677 83.9001 58.9677 83.0227H57.9677C57.9677 84.0014 58.127 84.853 58.4743 85.5532L59.3701 85.1087ZM58.9677 83.0227V76.0909H57.9677V83.0227H58.9677ZM58.4677 76.5909H60.1438V75.5909H58.4677V76.5909ZM59.6438 76.0909V82.9091H60.6438V76.0909H59.6438ZM59.6438 82.9091C59.6438 83.8018 59.8963 84.569 60.4471 85.155L61.1757 84.47C60.8364 84.1091 60.6438 83.6073 60.6438 82.9091H59.6438ZM60.4489 85.1569C60.9999 85.7368 61.7072 86.0227 62.5302 86.0227V85.0227C61.9611 85.0227 61.5226 84.8352 61.1739 84.4681L60.4489 85.1569ZM62.5302 86.0227C63.0347 86.0227 63.5339 85.8932 64.0231 85.6513L63.5799 84.7549C63.2073 84.9392 62.859 85.0227 62.5302 85.0227V86.0227ZM64.0212 85.6523C64.5434 85.3968 64.9732 85.0074 65.3113 84.5004L64.4792 83.9457C64.2301 84.3193 63.9307 84.5833 63.5818 84.754L64.0212 85.6523ZM65.3092 84.5034C65.6775 83.9598 65.8427 83.2935 65.8427 82.5398H64.8427C64.8427 83.1497 64.7096 83.6055 64.4813 83.9426L65.3092 84.5034ZM74.8331 76.0909H75.3331V75.5909H74.8331V76.0909ZM74.8331 77.5114V78.0114H75.3331V77.5114H74.8331ZM69.1797 77.5114H68.6797V78.0114H69.1797V77.5114ZM69.1797 76.0909V75.5909H68.6797V76.0909H69.1797ZM70.8274 73.4773V72.9773H70.3274V73.4773H70.8274ZM72.5036 73.4773H73.0036V72.9773H72.5036V73.4773ZM72.7095 84.9403L72.2769 85.1913L72.2831 85.2014L72.7095 84.9403ZM73.2493 85.4091L73.0759 85.8782L73.0882 85.8824L73.2493 85.4091ZM74.407 85.4943L74.486 85.988L74.4955 85.9865L74.505 85.9846L74.407 85.4943ZM74.6911 85.4375L75.1787 85.3271L75.071 84.8516L74.593 84.9472L74.6911 85.4375ZM75.032 86.9432L75.2075 87.4113L75.6159 87.2582L75.5196 86.8328L75.032 86.9432ZM74.5561 87.071L74.4537 86.5815L74.4429 86.584L74.5561 87.071ZM72.3899 86.8366L72.1837 87.2922L72.1855 87.293L72.3899 86.8366ZM71.2678 85.9062L70.859 86.1942L70.8612 86.1973L71.2678 85.9062ZM74.3331 76.0909V77.5114H75.3331V76.0909H74.3331ZM74.8331 77.0114H69.1797V78.0114H74.8331V77.0114ZM69.6797 77.5114V76.0909H68.6797V77.5114H69.6797ZM69.1797 76.5909H74.8331V75.5909H69.1797V76.5909ZM70.8274 73.9773H72.5036V72.9773H70.8274V73.9773ZM72.0036 73.4773V83.875H73.0036V73.4773H72.0036ZM72.0036 83.875C72.0036 84.3804 72.074 84.8411 72.277 85.1912L73.142 84.6895C73.0705 84.5661 73.0036 84.3165 73.0036 83.875H72.0036ZM72.2831 85.2014C72.4733 85.5121 72.7354 85.7522 73.076 85.8781L73.4226 84.9401C73.3275 84.905 73.2298 84.8326 73.1359 84.6793L72.2831 85.2014ZM73.0882 85.8824C73.365 85.9767 73.654 86.0227 73.9524 86.0227V85.0227C73.7584 85.0227 73.5787 84.993 73.4104 84.9358L73.0882 85.8824ZM73.9524 86.0227C74.151 86.0227 74.3315 86.0128 74.486 85.988L74.328 85.0006C74.2457 85.0138 74.1231 85.0227 73.9524 85.0227V86.0227ZM74.505 85.9846C74.6234 85.9609 74.7181 85.942 74.7891 85.9278L74.593 84.9472C74.522 84.9614 74.4273 84.9804 74.3089 85.004L74.505 85.9846ZM74.2034 85.5479L74.5443 87.0536L75.5196 86.8328L75.1787 85.3271L74.2034 85.5479ZM74.8564 86.475C74.7775 86.5046 74.6473 86.5411 74.4537 86.5816L74.6585 87.5604C74.8721 87.5157 75.0592 87.467 75.2075 87.4113L74.8564 86.475ZM74.4429 86.584C74.2898 86.6196 74.0731 86.642 73.782 86.642V87.642C74.1158 87.642 74.4152 87.6171 74.6694 87.558L74.4429 86.584ZM73.782 86.642C73.3826 86.642 72.988 86.5567 72.5943 86.3803L72.1855 87.293C72.701 87.5238 73.2344 87.642 73.782 87.642V86.642ZM72.5961 86.3811C72.2295 86.2152 71.9235 85.9632 71.6743 85.6152L70.8612 86.1973C71.2086 86.6826 71.6507 87.0509 72.1837 87.2922L72.5961 86.3811ZM71.6765 85.6183C71.4555 85.3046 71.3274 84.8864 71.3274 84.3295H70.3274C70.3274 85.0417 70.4929 85.6746 70.859 86.1942L71.6765 85.6183ZM71.3274 84.3295V73.4773H70.3274V84.3295H71.3274ZM84.8864 78.5341L85.0225 79.0152L85.5272 78.8724L85.3604 78.3751L84.8864 78.5341ZM83.3807 78.9602L82.9129 79.1368L83.075 79.5664L83.5168 79.4413L83.3807 78.9602ZM82.9616 78.2287L82.5606 78.5275L82.5674 78.5362L82.9616 78.2287ZM82.223 77.6321L82.4466 77.1849L82.4466 77.1849L82.223 77.6321ZM79.3537 77.8594L79.6371 78.2713L79.6381 78.2706L79.3537 77.8594ZM79.1477 80.0043L78.8361 80.3953L78.8361 80.3953L79.1477 80.0043ZM80.5682 80.608L80.4469 81.093L80.4489 81.0935L80.5682 80.608ZM82.1875 81.0057L82.0682 81.4913L82.0696 81.4916L82.1875 81.0057ZM84.3679 82.0923L84.0109 82.4424L84.0126 82.4441L84.3679 82.0923ZM84.5455 85.6364L84.1418 85.3413L84.1399 85.3439L84.5455 85.6364ZM78.0611 86.5028L78.3372 86.086L78.3372 86.086L78.0611 86.5028ZM76.6761 84.3864L76.5549 83.9013L76.0882 84.0179L76.1867 84.4887L76.6761 84.3864ZM78.267 83.9886L78.7512 83.8637L78.6272 83.3832L78.1458 83.5036L78.267 83.9886ZM79.1264 85.3097L78.8406 85.7199L78.8428 85.7214L79.1264 85.3097ZM82.6562 85.2528L82.9488 85.6583L82.9496 85.6577L82.6562 85.2528ZM82.9545 83.0938L82.6042 83.4505L82.6075 83.4537L82.9545 83.0938ZM81.733 82.5114L81.6189 82.9982L81.6196 82.9983L81.733 82.5114ZM79.9148 82.0852L79.7995 82.5718L79.8007 82.572L79.9148 82.0852ZM77.7131 80.9844L77.3459 81.3238L77.3493 81.3274L77.7131 80.9844ZM77.5355 77.4688L77.1336 77.1713L77.1317 77.1739L77.5355 77.4688ZM78.9631 76.3537L78.7597 75.8969L78.7583 75.8975L78.9631 76.3537ZM83.5653 76.6591L83.2605 77.0554L83.262 77.0565L83.5653 76.6591ZM84.7502 78.053L83.2445 78.4791L83.5168 79.4413L85.0225 79.0152L84.7502 78.053ZM83.8485 78.7837C83.734 78.4804 83.5679 78.1929 83.3559 77.9212L82.5674 78.5362C82.7247 78.7379 82.8379 78.9382 82.9129 79.1368L83.8485 78.7837ZM83.3626 77.93C83.129 77.6165 82.8178 77.3705 82.4466 77.1849L81.9994 78.0793C82.2532 78.2062 82.4344 78.358 82.5607 78.5274L83.3626 77.93ZM82.4466 77.1849C82.0428 76.983 81.5591 76.8977 81.0227 76.8977V77.8977C81.4617 77.8977 81.7782 77.9687 81.9994 78.0793L82.4466 77.1849ZM81.0227 76.8977C80.2775 76.8977 79.6157 77.0703 79.0693 77.4481L79.6381 78.2706C79.9818 78.0329 80.4327 77.8977 81.0227 77.8977V76.8977ZM79.0702 77.4475C78.5164 77.8286 78.1932 78.3586 78.1932 79.017H79.1932C79.1932 78.738 79.3103 78.4962 79.6371 78.2713L79.0702 77.4475ZM78.1932 79.017C78.1932 79.5728 78.4041 80.051 78.8361 80.3953L79.4593 79.6132C79.2853 79.4745 79.1932 79.2947 79.1932 79.017H78.1932ZM78.8361 80.3953C79.2216 80.7024 79.7762 80.9253 80.4469 81.093L80.6894 80.1229C80.0723 79.9686 79.68 79.789 79.4593 79.6132L78.8361 80.3953ZM80.4489 81.0935L82.0682 81.4913L82.3068 80.5201L80.6874 80.1224L80.4489 81.0935ZM82.0696 81.4916C82.9942 81.716 83.622 82.0458 84.0109 82.4424L84.7249 81.7423C84.1574 81.1635 83.3316 80.7689 82.3054 80.5198L82.0696 81.4916ZM84.0126 82.4441C84.3865 82.8217 84.5852 83.3122 84.5852 83.9602H85.5852C85.5852 83.0836 85.3057 82.3288 84.7232 81.7405L84.0126 82.4441ZM84.5852 83.9602C84.5852 84.482 84.4374 84.9368 84.1418 85.3414L84.9492 85.9314C85.3732 85.3511 85.5852 84.6885 85.5852 83.9602H84.5852ZM84.1399 85.3439C83.844 85.7542 83.4217 86.0905 82.8509 86.3442L83.257 87.258C83.9646 86.9436 84.5367 86.5033 84.951 85.9288L84.1399 85.3439ZM82.8509 86.3442C82.2877 86.5946 81.6159 86.7273 80.8239 86.7273V87.7273C81.7269 87.7273 82.5419 87.5759 83.257 87.258L82.8509 86.3442ZM80.8239 86.7273C79.7828 86.7273 78.9648 86.5017 78.3372 86.086L77.785 86.9197C78.6157 87.4699 79.6396 87.7273 80.8239 87.7273V86.7273ZM78.3372 86.086C77.7275 85.6822 77.3352 85.0951 77.1655 84.284L76.1867 84.4887C76.4053 85.5337 76.9363 86.3576 77.785 86.9197L78.3372 86.086ZM76.7974 84.8714L78.3883 84.4737L78.1458 83.5036L76.5549 83.9013L76.7974 84.8714ZM77.7829 84.1136C77.9586 84.7945 78.304 85.3461 78.8406 85.7199L79.4122 84.8994C79.1061 84.6861 78.8785 84.3571 78.7512 83.8637L77.7829 84.1136ZM78.8428 85.7214C79.3757 86.0885 80.0402 86.25 80.7955 86.25V85.25C80.1776 85.25 79.7294 85.1179 79.4101 84.8979L78.8428 85.7214ZM80.7955 86.25C81.6428 86.25 82.3775 86.0706 82.9488 85.6583L82.3637 84.8474C82.0165 85.0979 81.5106 85.25 80.7955 85.25V86.25ZM82.9496 85.6577C83.511 85.251 83.8523 84.7108 83.8523 84.0455H82.8523C82.8523 84.3176 82.7296 84.5823 82.3629 84.8479L82.9496 85.6577ZM83.8523 84.0455C83.8523 83.5352 83.6676 83.0867 83.3016 82.7338L82.6075 83.4537C82.7718 83.6122 82.8523 83.7981 82.8523 84.0455H83.8523ZM83.3049 82.737C82.9487 82.3871 82.4422 82.1631 81.8463 82.0244L81.6196 82.9983C82.1222 83.1153 82.4301 83.2795 82.6042 83.4505L83.3049 82.737ZM81.8471 82.0246L80.0289 81.5984L79.8007 82.572L81.6189 82.9982L81.8471 82.0246ZM80.0301 81.5987C79.0813 81.3739 78.4528 81.0401 78.0769 80.6414L77.3493 81.3274C77.9108 81.923 78.7501 82.3231 79.7995 82.5718L80.0301 81.5987ZM78.0802 80.6449C77.7106 80.2451 77.517 79.7431 77.517 79.1023H76.517C76.517 79.9671 76.7875 80.7198 77.3459 81.3238L78.0802 80.6449ZM77.517 79.1023C77.517 78.5871 77.6594 78.147 77.9394 77.7636L77.1317 77.1739C76.7203 77.7375 76.517 78.3864 76.517 79.1023H77.517ZM77.9374 77.7662C78.2309 77.3695 78.6352 77.0489 79.1678 76.8099L78.7583 75.8975C78.0882 76.1983 77.5408 76.621 77.1336 77.1713L77.9374 77.7662ZM79.1665 76.8105C79.6993 76.5732 80.3149 76.4489 81.0227 76.4489V75.4489C80.1965 75.4489 79.439 75.5944 78.7597 75.8969L79.1665 76.8105ZM81.0227 76.4489C82.0342 76.4489 82.7608 76.671 83.2605 77.0554L83.8702 76.2628C83.1388 75.7002 82.1703 75.4489 81.0227 75.4489V76.4489ZM83.262 77.0565C83.7987 77.4663 84.182 78.0063 84.4123 78.6931L85.3604 78.3751C85.0699 77.5088 84.5725 76.7989 83.8687 76.2617L83.262 77.0565ZM87.6083 87H87.1083V87.5H87.6083V87ZM87.6083 76.0909V75.5909H87.1083V76.0909H87.6083ZM89.2844 76.0909H89.7844V75.5909H89.2844V76.0909ZM89.2844 87V87.5H89.7844V87H89.2844ZM87.6154 73.9389L87.2693 74.2998L87.273 74.3032L87.6154 73.9389ZM87.6154 72.3338L87.2729 71.9695L87.2693 71.973L87.6154 72.3338ZM89.2987 72.3338L88.9525 72.6947L88.9562 72.6981L89.2987 72.3338ZM89.2987 73.9389L88.9562 73.5746L88.9525 73.5781L89.2987 73.9389ZM88.1083 87V76.0909H87.1083V87H88.1083ZM87.6083 76.5909H89.2844V75.5909H87.6083V76.5909ZM88.7844 76.0909V87H89.7844V76.0909H88.7844ZM89.2844 86.5H87.6083V87.5H89.2844V86.5ZM88.4606 73.7727C88.2604 73.7727 88.1013 73.7094 87.9579 73.5746L87.273 74.3032C87.603 74.6135 88.0074 74.7727 88.4606 74.7727V73.7727ZM87.9615 73.5781C87.8246 73.4468 87.7674 73.3083 87.7674 73.1364H86.7674C86.7674 73.5894 86.9422 73.986 87.2693 74.2998L87.9615 73.5781ZM87.7674 73.1364C87.7674 72.9644 87.8246 72.8259 87.9615 72.6946L87.2693 71.973C86.9422 72.2867 86.7674 72.6833 86.7674 73.1364H87.7674ZM87.9579 72.6981C88.1013 72.5633 88.2604 72.5 88.4606 72.5V71.5C88.0074 71.5 87.603 71.6593 87.273 71.9695L87.9579 72.6981ZM88.4606 72.5C88.6606 72.5 88.8153 72.563 88.9525 72.6946L89.6448 71.973C89.318 71.6595 88.914 71.5 88.4606 71.5V72.5ZM88.9562 72.6981C89.0969 72.8304 89.1538 72.9679 89.1538 73.1364H90.1538C90.1538 72.6798 89.9739 72.2823 89.6411 71.9695L88.9562 72.6981ZM89.1538 73.1364C89.1538 73.3048 89.0969 73.4423 88.9562 73.5746L89.6411 74.3032C89.9739 73.9904 90.1538 73.5929 90.1538 73.1364H89.1538ZM88.9525 73.5781C88.8153 73.7097 88.6606 73.7727 88.4606 73.7727V74.7727C88.914 74.7727 89.318 74.6132 89.6448 74.2998L88.9525 73.5781ZM94.0661 86.5384L93.7887 86.9544L93.7907 86.9557L94.0661 86.5384ZM92.4325 84.5781L91.9789 84.7885L91.9794 84.7894L92.4325 84.5781ZM92.4325 78.5909L91.9794 78.3796L91.9794 78.3796L92.4325 78.5909ZM94.0732 76.6378L93.7991 76.2196L93.7991 76.2196L94.0732 76.6378ZM98.1854 76.304L97.9362 76.7375L97.9421 76.7408L98.1854 76.304ZM99.1371 77.0994L98.7332 77.3943L98.7386 77.4015L99.1371 77.0994ZM99.6555 77.8239L99.2363 78.0964L99.3842 78.3239H99.6555V77.8239ZM99.7976 77.8239V78.3239H100.298V77.8239H99.7976ZM99.7976 72.4545V71.9545H99.2976V72.4545H99.7976ZM101.474 72.4545H101.974V71.9545H101.474V72.4545ZM101.474 87V87.5H101.974V87H101.474ZM99.8544 87H99.3544V87.5H99.8544V87ZM99.8544 85.3239H100.354V84.8239H99.8544V85.3239ZM99.6555 85.3239V84.8239H99.377L99.2304 85.0607L99.6555 85.3239ZM99.13 86.0767L99.5277 86.3797L99.53 86.3767L99.13 86.0767ZM98.157 86.8793L98.3981 87.3173L98.4019 87.3152L98.157 86.8793ZM98.4055 85.196L98.7068 85.5951L98.7094 85.5931L98.4055 85.196ZM99.4638 83.7259L99.9302 83.9061L99.9306 83.9049L99.4638 83.7259ZM99.4709 79.4077L99.0042 79.5872L99.0047 79.5884L99.4709 79.4077ZM98.4197 77.973L98.121 78.374L98.1237 78.376L98.4197 77.973ZM94.9254 78.0014L95.2299 78.398L95.2305 78.3976L94.9254 78.0014ZM93.8672 79.4716L93.4001 79.2933L93.3993 79.2952L93.8672 79.4716ZM93.8743 83.6619L93.4058 83.8367L93.4074 83.841L93.8743 83.6619ZM94.9396 85.1676L94.6277 85.5585L94.6321 85.5619L94.9396 85.1676ZM96.4737 86.7273C95.6533 86.7273 94.9484 86.5215 94.3414 86.121L93.7907 86.9557C94.5758 87.4737 95.4759 87.7273 96.4737 87.7273V86.7273ZM94.3434 86.1223C93.7319 85.7147 93.2444 85.1361 92.8857 84.3668L91.9794 84.7894C92.4066 85.7058 93.0081 86.434 93.7887 86.9544L94.3434 86.1223ZM92.8861 84.3678C92.5301 83.5998 92.343 82.6733 92.343 81.5739H91.343C91.343 82.785 91.549 83.8613 91.9789 84.7885L92.8861 84.3678ZM92.343 81.5739C92.343 80.4845 92.5299 79.5653 92.8857 78.8022L91.9794 78.3796C91.5492 79.3021 91.343 80.3716 91.343 81.5739H92.343ZM92.8857 78.8022C93.2438 78.0341 93.7326 77.4588 94.3472 77.056L93.7991 76.2196C93.0122 76.7353 92.4072 77.4621 91.9794 78.3796L92.8857 78.8022ZM94.3472 77.056C94.9588 76.6552 95.6712 76.4489 96.5021 76.4489V75.4489C95.496 75.4489 94.5891 75.7018 93.7991 76.2196L94.3472 77.056ZM96.5021 76.4489C97.165 76.4489 97.6286 76.5607 97.9362 76.7375L98.4345 75.8705C97.9183 75.5738 97.2597 75.4489 96.5021 75.4489V76.4489ZM97.9421 76.7408C98.3133 76.9475 98.5686 77.1688 98.7333 77.3943L99.5409 76.8046C99.2699 76.4335 98.8908 76.1245 98.4286 75.8671L97.9421 76.7408ZM98.7386 77.4015C98.9578 77.6906 99.1226 77.9213 99.2363 78.0964L100.075 77.5514C99.9423 77.3476 99.7614 77.0954 99.5355 76.7974L98.7386 77.4015ZM99.6555 78.3239H99.7976V77.3239H99.6555V78.3239ZM100.298 77.8239V72.4545H99.2976V77.8239H100.298ZM99.7976 72.9545H101.474V71.9545H99.7976V72.9545ZM100.974 72.4545V87H101.974V72.4545H100.974ZM101.474 86.5H99.8544V87.5H101.474V86.5ZM100.354 87V85.3239H99.3544V87H100.354ZM99.8544 84.8239H99.6555V85.8239H99.8544V84.8239ZM99.2304 85.0607C99.1184 85.2416 98.953 85.4793 98.73 85.7767L99.53 86.3767C99.7614 86.0681 99.9465 85.8038 100.081 85.587L99.2304 85.0607ZM98.7323 85.7737C98.5564 86.0045 98.2905 86.2308 97.9121 86.4433L98.4019 87.3152C98.8663 87.0543 99.249 86.7455 99.5277 86.3797L98.7323 85.7737ZM97.9158 86.4413C97.5944 86.6182 97.1261 86.7273 96.4737 86.7273V87.7273C97.2229 87.7273 97.8767 87.6043 98.3981 87.3173L97.9158 86.4413ZM96.701 86.2216C97.4644 86.2216 98.1429 86.0209 98.7068 85.595L98.1042 84.797C97.7401 85.0719 97.2823 85.2216 96.701 85.2216V86.2216ZM98.7094 85.5931C99.2568 85.1742 99.6605 84.6041 99.9302 83.9061L98.9974 83.5457C98.7841 84.0976 98.4824 84.5076 98.1017 84.799L98.7094 85.5931ZM99.9306 83.9049C100.198 83.2069 100.326 82.4174 100.326 81.5455H99.326C99.326 82.3213 99.2122 82.9853 98.9969 83.5468L99.9306 83.9049ZM100.326 81.5455C100.326 80.6838 100.201 79.9075 99.9371 79.227L99.0047 79.5884C99.2144 80.1294 99.326 80.7784 99.326 81.5455H100.326ZM99.9376 79.2282C99.6716 78.5367 99.2676 77.9755 98.7158 77.5701L98.1237 78.376C98.4999 78.6523 98.7967 79.0476 99.0042 79.5872L99.9376 79.2282ZM98.7184 77.572C98.1534 77.1512 97.4706 76.9545 96.701 76.9545V77.9545C97.295 77.9545 97.758 78.1036 98.1211 78.374L98.7184 77.572ZM96.701 76.9545C95.9019 76.9545 95.1969 77.1613 94.6204 77.6053L95.2305 78.3976C95.6009 78.1124 96.0796 77.9545 96.701 77.9545V76.9545ZM94.621 77.6048C94.0701 78.0277 93.6656 78.5976 93.4001 79.2933L94.3343 79.6499C94.5423 79.1051 94.8433 78.6948 95.2299 78.398L94.621 77.6048ZM93.3993 79.2952C93.1429 79.9757 93.0192 80.728 93.0192 81.5455H94.0192C94.0192 80.8288 94.1275 80.1986 94.3351 79.6479L93.3993 79.2952ZM93.0192 81.5455C93.0192 82.373 93.1454 83.1388 93.4058 83.8367L94.3427 83.4871C94.1297 82.9161 94.0192 82.2709 94.0192 81.5455H93.0192ZM93.4074 83.841C93.6767 84.5432 94.0811 85.1222 94.6278 85.5584L95.2515 84.7768C94.8607 84.465 94.5548 84.0401 94.3411 83.4829L93.4074 83.841ZM94.6321 85.5619C95.2076 86.0108 95.9082 86.2216 96.701 86.2216V85.2216C96.0923 85.2216 95.6186 85.0631 95.2471 84.7734L94.6321 85.5619ZM106.63 86.5312L106.367 86.9565L106.37 86.9583L106.63 86.5312ZM104.876 84.571L104.425 84.7885L104.427 84.7916L104.876 84.571ZM104.876 78.6761L104.425 78.4595L104.425 78.4606L104.876 78.6761ZM106.594 76.6733L106.867 77.0922L106.868 77.0918L106.594 76.6733ZM110.863 76.233L111.025 75.7598L111.025 75.7598L110.863 76.233ZM112.376 77.1562L112.034 77.521L112.036 77.5229L112.376 77.1562ZM113.462 78.8324L113.929 78.6516L113.929 78.6516L113.462 78.8324ZM113.867 82.1136V82.6136H114.367V82.1136H113.867ZM105.458 82.1136H104.958V82.6136H105.458V82.1136ZM105.458 80.6648V80.1648H104.958V80.6648H105.458ZM112.163 80.6648V81.1648H112.663V80.6648H112.163ZM111.793 79.017L111.346 79.2407L111.348 79.2441L111.793 79.017ZM110.756 77.8736L110.491 78.2971L110.493 78.2983L110.756 77.8736ZM107.447 77.9517L107.727 78.3658L107.728 78.3652L107.447 77.9517ZM106.332 79.2301L105.884 79.0081L105.884 79.0081L106.332 79.2301ZM106.367 83.9815L105.919 84.2037L105.921 84.2081L106.367 83.9815ZM107.567 85.2812L107.316 85.7131L107.319 85.7149L107.567 85.2812ZM110.543 85.5369L110.707 86.0094L110.711 86.0081L110.543 85.5369ZM111.474 84.9688L111.821 85.3288L111.824 85.3255L111.474 84.9688ZM112.077 84.017L112.213 83.5357L111.77 83.4116L111.609 83.8415L112.077 84.017ZM113.697 84.4716L114.174 84.6198L114.327 84.1291L113.832 83.9902L113.697 84.4716ZM112.837 85.9205L113.195 86.2699L113.197 86.2678L112.837 85.9205ZM111.346 86.8864L111.525 87.3531L111.528 87.3519L111.346 86.8864ZM109.35 86.7273C108.374 86.7273 107.561 86.5126 106.89 86.1042L106.37 86.9583C107.224 87.478 108.224 87.7273 109.35 87.7273V86.7273ZM106.893 86.1061C106.219 85.6892 105.697 85.1085 105.324 84.3505L104.427 84.7916C104.878 85.7097 105.525 86.4358 106.367 86.9564L106.893 86.1061ZM105.326 84.3535C104.957 83.5904 104.765 82.6872 104.765 81.6307H103.765C103.765 82.809 103.98 83.866 104.426 84.7885L105.326 84.3535ZM104.765 81.6307C104.765 80.5743 104.957 79.6654 105.327 78.8917L104.425 78.4606C103.98 79.3914 103.765 80.4522 103.765 81.6307H104.765ZM105.326 78.8927C105.702 78.1109 106.217 77.5163 106.867 77.0922L106.321 76.2544C105.504 76.7868 104.873 77.5274 104.425 78.4595L105.326 78.8927ZM106.868 77.0918C107.516 76.6681 108.28 76.4489 109.18 76.4489V75.4489C108.109 75.4489 107.15 75.7126 106.321 76.2548L106.868 77.0918ZM109.18 76.4489C109.691 76.4489 110.198 76.5339 110.701 76.7061L111.025 75.7598C110.42 75.5532 109.805 75.4489 109.18 75.4489V76.4489ZM110.701 76.7061C111.184 76.8711 111.628 77.1402 112.034 77.521L112.718 76.7915C112.215 76.32 111.65 75.9736 111.025 75.7598L110.701 76.7061ZM112.036 77.5229C112.424 77.8833 112.748 78.3736 112.996 79.0132L113.929 78.6516C113.637 77.8991 113.236 77.2721 112.716 76.7896L112.036 77.5229ZM112.996 79.0131C113.237 79.6347 113.367 80.4262 113.367 81.4034H114.367C114.367 80.3446 114.227 79.4221 113.929 78.6516L112.996 79.0131ZM113.367 81.4034V82.1136H114.367V81.4034H113.367ZM113.867 81.6136H105.458V82.6136H113.867V81.6136ZM105.958 82.1136V80.6648H104.958V82.1136H105.958ZM105.458 81.1648H112.163V80.1648H105.458V81.1648ZM112.663 80.6648C112.663 79.9811 112.525 79.3522 112.239 78.79L111.348 79.2441C111.554 79.6478 111.663 80.1174 111.663 80.6648H112.663ZM112.241 78.7934C111.959 78.2295 111.55 77.778 111.02 77.4488L110.493 78.2983C110.862 78.5279 111.145 78.8387 111.346 79.2407L112.241 78.7934ZM111.022 77.4501C110.486 77.1135 109.865 76.9545 109.18 76.9545V77.9545C109.706 77.9545 110.137 78.075 110.491 78.2971L111.022 77.4501ZM109.18 76.9545C108.426 76.9545 107.747 77.1431 107.166 77.5382L107.728 78.3652C108.122 78.0974 108.599 77.9545 109.18 77.9545V76.9545ZM107.167 77.5376C106.612 77.913 106.182 78.4055 105.884 79.0081L106.78 79.4521C107.002 79.0035 107.316 78.6438 107.727 78.3658L107.167 77.5376ZM105.884 79.0081C105.588 79.6045 105.441 80.2441 105.441 80.9205H106.441C106.441 80.3941 106.554 79.9069 106.78 79.4521L105.884 79.0081ZM105.441 80.9205V81.8864H106.441V80.9205H105.441ZM105.441 81.8864C105.441 82.7658 105.592 83.5447 105.919 84.2037L106.815 83.7594C106.574 83.2725 106.441 82.6546 106.441 81.8864H105.441ZM105.921 84.2081C106.25 84.8551 106.715 85.3627 107.316 85.7131L107.819 84.8494C107.397 84.6032 107.062 84.2444 106.813 83.755L105.921 84.2081ZM107.319 85.7149C107.916 86.058 108.599 86.2216 109.35 86.2216V85.2216C108.747 85.2216 108.241 85.0916 107.816 84.8476L107.319 85.7149ZM109.35 86.2216C109.837 86.2216 110.291 86.1535 110.707 86.0093L110.38 85.0645C110.085 85.1665 109.744 85.2216 109.35 85.2216V86.2216ZM110.711 86.0081C111.134 85.8578 111.506 85.6319 111.821 85.3288L111.127 84.6087C110.92 84.8075 110.673 84.9604 110.376 85.0658L110.711 86.0081ZM111.824 85.3255C112.142 85.0135 112.381 84.6322 112.546 84.1926L111.609 83.8415C111.49 84.1595 111.326 84.4127 111.123 84.612L111.824 85.3255ZM111.942 84.4984L113.562 84.953L113.832 83.9902L112.213 83.5357L111.942 84.4984ZM113.219 84.3234C113.072 84.7974 112.826 85.2122 112.478 85.5731L113.197 86.2678C113.653 85.7953 113.98 85.2443 114.174 84.6198L113.219 84.3234ZM112.48 85.571C112.132 85.9273 111.696 86.212 111.163 86.4209L111.528 87.3519C112.179 87.0967 112.738 86.7375 113.195 86.2699L112.48 85.571ZM111.167 86.4196C110.641 86.6216 110.037 86.7273 109.35 86.7273V87.7273C110.14 87.7273 110.867 87.6057 111.525 87.3531L111.167 86.4196Z" fill="black"/>
</svg>
