<svg width="160" height="160" viewBox="0 0 160 160" fill="none" xmlns="http://www.w3.org/2000/svg">
<rect width="160" height="160" fill="#D9D9D9"/>
<path d="M42.0455 82.4545H43.9773L45.5966 84.5852L46.0227 85.1534L48.4375 88.3636H46.5057L44.9148 86.233L44.517 85.6932L42.0455 82.4545ZM49.0341 79.7273C49.0341 81.2614 48.7571 82.5871 48.2031 83.7045C47.6491 84.822 46.8892 85.6837 45.9233 86.2898C44.9574 86.8958 43.8542 87.1989 42.6136 87.1989C41.3731 87.1989 40.2699 86.8958 39.304 86.2898C38.3381 85.6837 37.5781 84.822 37.0241 83.7045C36.4702 82.5871 36.1932 81.2614 36.1932 79.7273C36.1932 78.1932 36.4702 76.8674 37.0241 75.75C37.5781 74.6326 38.3381 73.7708 39.304 73.1648C40.2699 72.5587 41.3731 72.2557 42.6136 72.2557C43.8542 72.2557 44.9574 72.5587 45.9233 73.1648C46.8892 73.7708 47.6491 74.6326 48.2031 75.75C48.7571 76.8674 49.0341 78.1932 49.0341 79.7273ZM47.3295 79.7273C47.3295 78.4678 47.1188 77.4048 46.6974 76.5384C46.2808 75.6719 45.715 75.0161 45 74.571C44.2898 74.1259 43.4943 73.9034 42.6136 73.9034C41.733 73.9034 40.9351 74.1259 40.2202 74.571C39.5099 75.0161 38.9441 75.6719 38.5227 76.5384C38.1061 77.4048 37.8977 78.4678 37.8977 79.7273C37.8977 80.9867 38.1061 82.0497 38.5227 82.9162C38.9441 83.7827 39.5099 84.4384 40.2202 84.8835C40.9351 85.3286 41.733 85.5511 42.6136 85.5511C43.4943 85.5511 44.2898 85.3286 45 84.8835C45.715 84.4384 46.2808 83.7827 46.6974 82.9162C47.1188 82.0497 47.3295 80.9867 47.3295 79.7273ZM58.6435 82.5398V76.0909H60.3196V87H58.6435V85.1534H58.5298C58.2741 85.7074 57.8764 86.1785 57.3366 86.5668C56.7969 86.9503 56.1151 87.142 55.2912 87.142C54.6094 87.142 54.0033 86.9929 53.473 86.6946C52.9427 86.3916 52.526 85.937 52.223 85.331C51.92 84.7202 51.7685 83.9508 51.7685 83.0227V76.0909H53.4446V82.9091C53.4446 83.7045 53.6671 84.339 54.1122 84.8125C54.562 85.286 55.1349 85.5227 55.831 85.5227C56.2476 85.5227 56.6714 85.4162 57.1023 85.2031C57.5379 84.9901 57.9025 84.6634 58.196 84.223C58.4943 83.7827 58.6435 83.2216 58.6435 82.5398ZM66.5998 87.2557C65.9085 87.2557 65.2811 87.1255 64.7177 86.8651C64.1542 86.5999 63.7068 86.2188 63.3754 85.7216C63.0439 85.2197 62.8782 84.6136 62.8782 83.9034C62.8782 83.2784 63.0013 82.7718 63.2475 82.3835C63.4937 81.9905 63.8228 81.6828 64.2347 81.4602C64.6467 81.2377 65.1012 81.072 65.5984 80.9631C66.1003 80.8494 66.6045 80.7595 67.1112 80.6932C67.774 80.608 68.3114 80.544 68.7234 80.5014C69.14 80.4541 69.4431 80.3759 69.6325 80.267C69.8266 80.1581 69.9237 79.9687 69.9237 79.6989V79.642C69.9237 78.9413 69.7319 78.3968 69.3484 78.0085C68.9696 77.6203 68.3943 77.4261 67.6225 77.4261C66.8223 77.4261 66.195 77.6013 65.7404 77.9517C65.2859 78.3021 64.9663 78.6761 64.7816 79.0739L63.1907 78.5057C63.4748 77.8428 63.8536 77.3267 64.3271 76.9574C64.8053 76.5833 65.3261 76.3229 65.8896 76.1761C66.4577 76.0246 67.0165 75.9489 67.5657 75.9489C67.9161 75.9489 68.3185 75.9915 68.7731 76.0767C69.2324 76.1572 69.6751 76.3253 70.1012 76.581C70.5321 76.8366 70.8896 77.2225 71.1737 77.7386C71.4577 78.2547 71.5998 78.946 71.5998 79.8125V87H69.9237V85.5227H69.8384C69.7248 85.7595 69.5354 86.0128 69.2702 86.2827C69.0051 86.5526 68.6523 86.7822 68.212 86.9716C67.7717 87.161 67.2343 87.2557 66.5998 87.2557ZM66.8555 85.75C67.5183 85.75 68.0771 85.6198 68.5316 85.3594C68.9909 85.099 69.3365 84.7628 69.5685 84.3509C69.8053 83.9389 69.9237 83.5057 69.9237 83.0511V81.517C69.8526 81.6023 69.6964 81.6804 69.4549 81.7514C69.2182 81.8177 68.9435 81.8769 68.631 81.929C68.3233 81.9763 68.0226 82.0189 67.729 82.0568C67.4402 82.09 67.2058 82.1184 67.0259 82.142C66.5903 82.1989 66.1831 82.2912 65.8043 82.419C65.4303 82.5421 65.1272 82.7292 64.8952 82.9801C64.668 83.2263 64.5543 83.5625 64.5543 83.9886C64.5543 84.571 64.7698 85.0114 65.2006 85.3097C65.6362 85.6032 66.1879 85.75 66.8555 85.75ZM78.7784 87.2273C77.8693 87.2273 77.0668 86.9976 76.3707 86.5384C75.6747 86.0743 75.1302 85.4209 74.7372 84.5781C74.3442 83.7306 74.1477 82.7292 74.1477 81.5739C74.1477 80.428 74.3442 79.4337 74.7372 78.5909C75.1302 77.7481 75.6771 77.0971 76.3778 76.6378C77.0786 76.1785 77.8883 75.9489 78.8068 75.9489C79.517 75.9489 80.0781 76.0672 80.4901 76.304C80.9067 76.536 81.224 76.8011 81.4418 77.0994C81.6643 77.393 81.8371 77.6345 81.9602 77.8239H82.1023V72.4545H83.7784V87H82.1591V85.3239H81.9602C81.8371 85.5227 81.6619 85.7737 81.4347 86.0767C81.2074 86.375 80.883 86.6425 80.4616 86.8793C80.0402 87.1113 79.4792 87.2273 78.7784 87.2273ZM79.0057 85.7216C79.678 85.7216 80.2462 85.5464 80.7102 85.196C81.1742 84.8409 81.527 84.3509 81.7685 83.7259C82.0099 83.0961 82.1307 82.3693 82.1307 81.5455C82.1307 80.7311 82.0123 80.0185 81.7756 79.4077C81.5388 78.7921 81.1884 78.3139 80.7244 77.973C80.2604 77.6274 79.6875 77.4545 79.0057 77.4545C78.2955 77.4545 77.7036 77.6368 77.2301 78.0014C76.7614 78.3613 76.4086 78.8513 76.1719 79.4716C75.9399 80.0871 75.8239 80.7784 75.8239 81.5455C75.8239 82.322 75.9422 83.0275 76.179 83.6619C76.4205 84.2917 76.7756 84.7936 77.2443 85.1676C77.7178 85.5369 78.3049 85.7216 79.0057 85.7216ZM87.081 87V76.0909H88.7003V77.7386H88.8139C89.0128 77.1989 89.3726 76.7609 89.8935 76.4247C90.4143 76.0885 91.0014 75.9205 91.6548 75.9205C91.7779 75.9205 91.9318 75.9228 92.1165 75.9276C92.3011 75.9323 92.4408 75.9394 92.5355 75.9489V77.6534C92.4787 77.6392 92.3485 77.6179 92.1449 77.5895C91.946 77.5563 91.7353 77.5398 91.5128 77.5398C90.9825 77.5398 90.509 77.651 90.0923 77.8736C89.6804 78.0914 89.3537 78.3944 89.1122 78.7827C88.8755 79.1662 88.7571 79.6042 88.7571 80.0966V87H87.081ZM97.7326 87.2557C97.0413 87.2557 96.4139 87.1255 95.8505 86.8651C95.2871 86.5999 94.8396 86.2188 94.5082 85.7216C94.1767 85.2197 94.011 84.6136 94.011 83.9034C94.011 83.2784 94.1341 82.7718 94.3803 82.3835C94.6265 81.9905 94.9556 81.6828 95.3675 81.4602C95.7795 81.2377 96.234 81.072 96.7312 80.9631C97.2331 80.8494 97.7373 80.7595 98.244 80.6932C98.9068 80.608 99.4442 80.544 99.8562 80.5014C100.273 80.4541 100.576 80.3759 100.765 80.267C100.959 80.1581 101.056 79.9687 101.056 79.6989V79.642C101.056 78.9413 100.865 78.3968 100.481 78.0085C100.102 77.6203 99.5271 77.4261 98.7553 77.4261C97.9551 77.4261 97.3278 77.6013 96.8732 77.9517C96.4187 78.3021 96.0991 78.6761 95.9144 79.0739L94.3235 78.5057C94.6076 77.8428 94.9864 77.3267 95.4599 76.9574C95.9381 76.5833 96.4589 76.3229 97.0224 76.1761C97.5906 76.0246 98.1493 75.9489 98.6985 75.9489C99.0489 75.9489 99.4513 75.9915 99.9059 76.0767C100.365 76.1572 100.808 76.3253 101.234 76.581C101.665 76.8366 102.022 77.2225 102.306 77.7386C102.591 78.2547 102.733 78.946 102.733 79.8125V87H101.056V85.5227H100.971C100.858 85.7595 100.668 86.0128 100.403 86.2827C100.138 86.5526 99.7852 86.7822 99.3448 86.9716C98.9045 87.161 98.3671 87.2557 97.7326 87.2557ZM97.9883 85.75C98.6512 85.75 99.2099 85.6198 99.6644 85.3594C100.124 85.099 100.469 84.7628 100.701 84.3509C100.938 83.9389 101.056 83.5057 101.056 83.0511V81.517C100.985 81.6023 100.829 81.6804 100.588 81.7514C100.351 81.8177 100.076 81.8769 99.7638 81.929C99.4561 81.9763 99.1554 82.0189 98.8619 82.0568C98.573 82.09 98.3387 82.1184 98.1587 82.142C97.7231 82.1989 97.3159 82.2912 96.9371 82.419C96.5631 82.5421 96.2601 82.7292 96.0281 82.9801C95.8008 83.2263 95.6871 83.5625 95.6871 83.9886C95.6871 84.571 95.9026 85.0114 96.3335 85.3097C96.7691 85.6032 97.3207 85.75 97.9883 85.75ZM107.468 80.4375V87H105.792V76.0909H107.411V77.7955H107.553C107.809 77.2415 108.197 76.7964 108.718 76.4602C109.239 76.1193 109.911 75.9489 110.735 75.9489C111.474 75.9489 112.12 76.1004 112.674 76.4034C113.228 76.7017 113.659 77.1562 113.967 77.767C114.274 78.3731 114.428 79.1402 114.428 80.0682V87H112.752V80.1818C112.752 79.3248 112.53 78.6572 112.085 78.179C111.639 77.696 111.029 77.4545 110.252 77.4545C109.717 77.4545 109.239 77.5705 108.817 77.8026C108.401 78.0346 108.072 78.3731 107.83 78.8182C107.589 79.2633 107.468 79.803 107.468 80.4375ZM122.235 76.0909V77.5114H116.582V76.0909H122.235ZM118.23 73.4773H119.906V83.875C119.906 84.3485 119.975 84.7036 120.112 84.9403C120.254 85.1723 120.434 85.3286 120.652 85.4091C120.874 85.4848 121.109 85.5227 121.355 85.5227C121.539 85.5227 121.691 85.5133 121.809 85.4943C121.928 85.4706 122.022 85.4517 122.093 85.4375L122.434 86.9432C122.321 86.9858 122.162 87.0284 121.958 87.071C121.755 87.1184 121.497 87.142 121.184 87.142C120.711 87.142 120.247 87.0402 119.792 86.8366C119.342 86.633 118.968 86.3229 118.67 85.9062C118.377 85.4896 118.23 84.964 118.23 84.3295V73.4773Z" fill="black"/>
<path d="M42.0455 82.4545V81.9545H41.0349L41.648 82.7579L42.0455 82.4545ZM43.9773 82.4545L44.3754 82.152L44.2253 81.9545H43.9773V82.4545ZM45.5966 84.5852L45.9966 84.2852L45.9947 84.2827L45.5966 84.5852ZM46.0227 85.1534L45.6227 85.4534L45.6232 85.454L46.0227 85.1534ZM48.4375 88.3636V88.8636H49.4393L48.8371 88.0631L48.4375 88.3636ZM46.5057 88.3636L46.105 88.6628L46.255 88.8636H46.5057V88.3636ZM44.9148 86.233L44.5122 86.5296L44.5141 86.5321L44.9148 86.233ZM44.517 85.6932L44.9196 85.3965L44.9145 85.3898L44.517 85.6932ZM48.2031 83.7045L47.7552 83.4825L47.7552 83.4825L48.2031 83.7045ZM45.9233 86.2898L46.189 86.7133L46.189 86.7133L45.9233 86.2898ZM39.304 86.2898L39.0382 86.7133L39.0382 86.7133L39.304 86.2898ZM37.0241 83.7045L37.4721 83.4825L37.4721 83.4825L37.0241 83.7045ZM37.0241 75.75L36.5762 75.5279L37.0241 75.75ZM45.9233 73.1648L46.189 72.7412L46.189 72.7412L45.9233 73.1648ZM48.2031 75.75L47.7552 75.9721L47.7552 75.9721L48.2031 75.75ZM46.6974 76.5384L46.2468 76.755L46.2478 76.757L46.6974 76.5384ZM45 74.571L44.7345 74.9947L44.7358 74.9955L45 74.571ZM40.2202 74.571L39.9559 74.1465L39.9547 74.1473L40.2202 74.571ZM38.5227 76.5384L38.0731 76.3197L38.0721 76.3217L38.5227 76.5384ZM38.5227 82.9162L38.0721 83.1329L38.0731 83.1349L38.5227 82.9162ZM40.2202 84.8835L39.9547 85.3072L39.9559 85.308L40.2202 84.8835ZM45 84.8835L44.7358 84.459L44.7345 84.4598L45 84.8835ZM46.6974 82.9162L46.2478 82.6975L46.2468 82.6995L46.6974 82.9162ZM42.0455 82.9545H43.9773V81.9545H42.0455V82.9545ZM43.5792 82.7571L45.1985 84.8878L45.9947 84.2827L44.3754 82.152L43.5792 82.7571ZM45.1966 84.8852L45.6227 85.4534L46.4227 84.8534L45.9966 84.2852L45.1966 84.8852ZM45.6232 85.454L48.0379 88.6642L48.8371 88.0631L46.4223 84.8528L45.6232 85.454ZM48.4375 87.8636H46.5057V88.8636H48.4375V87.8636ZM46.9063 88.0645L45.3154 85.9338L44.5141 86.5321L46.105 88.6628L46.9063 88.0645ZM45.3173 85.9364L44.9196 85.3966L44.1145 85.9898L44.5122 86.5296L45.3173 85.9364ZM44.9145 85.3898L42.4429 82.1512L41.648 82.7579L44.1196 85.9965L44.9145 85.3898ZM48.5341 79.7273C48.5341 81.2017 48.2679 82.4481 47.7552 83.4825L48.6511 83.9266C49.2463 82.7261 49.5341 81.321 49.5341 79.7273H48.5341ZM47.7552 83.4825C47.2382 84.5252 46.538 85.3138 45.6576 85.8662L46.189 86.7133C47.2404 86.0536 48.0601 85.1187 48.6511 83.9266L47.7552 83.4825ZM45.6576 85.8662C44.7782 86.418 43.7687 86.6989 42.6136 86.6989V87.6989C43.9396 87.6989 45.1365 87.3737 46.189 86.7133L45.6576 85.8662ZM42.6136 86.6989C41.4585 86.6989 40.449 86.418 39.5697 85.8662L39.0382 86.7133C40.0907 87.3737 41.2877 87.6989 42.6136 87.6989V86.6989ZM39.5697 85.8662C38.6892 85.3138 37.9891 84.5252 37.4721 83.4825L36.5762 83.9266C37.1672 85.1187 37.9869 86.0536 39.0382 86.7133L39.5697 85.8662ZM37.4721 83.4825C36.9593 82.4481 36.6932 81.2017 36.6932 79.7273H35.6932C35.6932 81.321 35.981 82.7261 36.5762 83.9266L37.4721 83.4825ZM36.6932 79.7273C36.6932 78.2528 36.9593 77.0064 37.4721 75.9721L36.5762 75.5279C35.981 76.7284 35.6932 78.1335 35.6932 79.7273H36.6932ZM37.4721 75.9721C37.9891 74.9293 38.6892 74.1408 39.5697 73.5883L39.0382 72.7412C37.9869 73.4009 37.1672 74.3358 36.5762 75.5279L37.4721 75.9721ZM39.5697 73.5883C40.449 73.0366 41.4585 72.7557 42.6136 72.7557V71.7557C41.2877 71.7557 40.0907 72.0808 39.0382 72.7412L39.5697 73.5883ZM42.6136 72.7557C43.7687 72.7557 44.7782 73.0366 45.6576 73.5883L46.189 72.7412C45.1365 72.0808 43.9396 71.7557 42.6136 71.7557V72.7557ZM45.6576 73.5883C46.538 74.1408 47.2382 74.9293 47.7552 75.9721L48.6511 75.5279C48.0601 74.3358 47.2404 73.4009 46.189 72.7412L45.6576 73.5883ZM47.7552 75.9721C48.2679 77.0064 48.5341 78.2528 48.5341 79.7273H49.5341C49.5341 78.1335 49.2463 76.7284 48.6511 75.5279L47.7552 75.9721ZM47.8295 79.7273C47.8295 78.4144 47.6102 77.2719 47.1471 76.3197L46.2478 76.757C46.6275 77.5378 46.8295 78.5212 46.8295 79.7273H47.8295ZM47.1481 76.3217C46.6962 75.3821 46.0707 74.6486 45.2642 74.1466L44.7358 74.9955C45.3592 75.3836 45.8653 75.9617 46.2468 76.755L47.1481 76.3217ZM45.2655 74.1473C44.4716 73.6498 43.5832 73.4034 42.6136 73.4034V74.4034C43.4054 74.4034 44.108 74.6021 44.7345 74.9947L45.2655 74.1473ZM42.6136 73.4034C41.644 73.4034 40.7539 73.6498 39.9559 74.1466L40.4844 74.9955C41.1164 74.6021 41.8219 74.4034 42.6136 74.4034V73.4034ZM39.9547 74.1473C39.1538 74.6492 38.5292 75.3818 38.0731 76.3197L38.9724 76.757C39.3591 75.9619 39.8661 75.383 40.4857 74.9947L39.9547 74.1473ZM38.0721 76.3217C37.6145 77.2733 37.3977 78.4151 37.3977 79.7273H38.3977C38.3977 78.5205 38.5976 77.5363 38.9733 76.755L38.0721 76.3217ZM37.3977 79.7273C37.3977 81.0395 37.6145 82.1812 38.0721 83.1329L38.9733 82.6995C38.5976 81.9182 38.3977 80.934 38.3977 79.7273H37.3977ZM38.0731 83.1349C38.5292 84.0727 39.1538 84.8053 39.9547 85.3072L40.4857 84.4598C39.8661 84.0716 39.3591 83.4926 38.9724 82.6975L38.0731 83.1349ZM39.9559 85.308C40.7539 85.8047 41.644 86.0511 42.6136 86.0511V85.0511C41.8219 85.0511 41.1164 84.8524 40.4844 84.4591L39.9559 85.308ZM42.6136 86.0511C43.5832 86.0511 44.4716 85.8047 45.2655 85.3072L44.7345 84.4598C44.108 84.8525 43.4054 85.0511 42.6136 85.0511V86.0511ZM45.2642 85.308C46.0707 84.8059 46.6962 84.0725 47.1481 83.1329L46.2468 82.6995C45.8653 83.4929 45.3592 84.071 44.7358 84.4591L45.2642 85.308ZM47.1471 83.1349C47.6102 82.1827 47.8295 81.0402 47.8295 79.7273H46.8295C46.8295 80.9333 46.6275 81.9168 46.2478 82.6975L47.1471 83.1349ZM58.6435 76.0909V75.5909H58.1435V76.0909H58.6435ZM60.3196 76.0909H60.8196V75.5909H60.3196V76.0909ZM60.3196 87V87.5H60.8196V87H60.3196ZM58.6435 87H58.1435V87.5H58.6435V87ZM58.6435 85.1534H59.1435V84.6534H58.6435V85.1534ZM58.5298 85.1534V84.6534H58.2099L58.0759 84.9439L58.5298 85.1534ZM57.3366 86.5668L57.6263 86.9744L57.6286 86.9727L57.3366 86.5668ZM53.473 86.6946L53.2249 87.1287L53.2279 87.1304L53.473 86.6946ZM52.223 85.331L51.7751 85.5532L51.7758 85.5546L52.223 85.331ZM51.7685 76.0909V75.5909H51.2685V76.0909H51.7685ZM53.4446 76.0909H53.9446V75.5909H53.4446V76.0909ZM54.1122 84.8125L53.7479 85.155L53.7497 85.1569L54.1122 84.8125ZM57.1023 85.2031L56.8826 84.754L56.8806 84.7549L57.1023 85.2031ZM58.196 84.223L57.7821 83.9426L57.78 83.9457L58.196 84.223ZM59.1435 82.5398V76.0909H58.1435V82.5398H59.1435ZM58.6435 76.5909H60.3196V75.5909H58.6435V76.5909ZM59.8196 76.0909V87H60.8196V76.0909H59.8196ZM60.3196 86.5H58.6435V87.5H60.3196V86.5ZM59.1435 87V85.1534H58.1435V87H59.1435ZM58.6435 84.6534H58.5298V85.6534H58.6435V84.6534ZM58.0759 84.9439C57.8595 85.4126 57.5209 85.8183 57.0447 86.1609L57.6286 86.9727C58.232 86.5387 58.6888 86.0022 58.9838 85.3629L58.0759 84.9439ZM57.047 86.1592C56.6106 86.4693 56.0369 86.642 55.2912 86.642V87.642C56.1932 87.642 56.9832 87.4313 57.6263 86.9744L57.047 86.1592ZM55.2912 86.642C54.6847 86.642 54.1649 86.5101 53.7181 86.2588L53.2279 87.1304C53.8417 87.4757 54.5341 87.642 55.2912 87.642V86.642ZM53.7211 86.2605C53.2857 86.0117 52.9341 85.6352 52.6702 85.1074L51.7758 85.5546C52.118 86.2389 52.5997 86.7714 53.2249 87.1287L53.7211 86.2605ZM52.6709 85.1087C52.4122 84.5873 52.2685 83.9001 52.2685 83.0227H51.2685C51.2685 84.0014 51.4277 84.853 51.7751 85.5532L52.6709 85.1087ZM52.2685 83.0227V76.0909H51.2685V83.0227H52.2685ZM51.7685 76.5909H53.4446V75.5909H51.7685V76.5909ZM52.9446 76.0909V82.9091H53.9446V76.0909H52.9446ZM52.9446 82.9091C52.9446 83.8018 53.1971 84.569 53.7479 85.155L54.4765 84.47C54.1372 84.1091 53.9446 83.6073 53.9446 82.9091H52.9446ZM53.7497 85.1569C54.3006 85.7368 55.008 86.0227 55.831 86.0227V85.0227C55.2619 85.0227 54.8234 84.8352 54.4747 84.4681L53.7497 85.1569ZM55.831 86.0227C56.3355 86.0227 56.8347 85.8932 57.3239 85.6513L56.8806 84.7549C56.5081 84.9392 56.1597 85.0227 55.831 85.0227V86.0227ZM57.322 85.6523C57.8442 85.3968 58.274 85.0074 58.612 84.5004L57.78 83.9457C57.5309 84.3193 57.2315 84.5833 56.8826 84.754L57.322 85.6523ZM58.61 84.5034C58.9782 83.9598 59.1435 83.2935 59.1435 82.5398H58.1435C58.1435 83.1497 58.0104 83.6055 57.7821 83.9426L58.61 84.5034ZM64.7177 86.8651L64.5048 87.3175L64.5079 87.3189L64.7177 86.8651ZM63.3754 85.7216L62.9581 85.9971L62.9593 85.9989L63.3754 85.7216ZM63.2475 82.3835L63.6698 82.6513L63.6712 82.649L63.2475 82.3835ZM65.5984 80.9631L65.7054 81.4515L65.7088 81.4507L65.5984 80.9631ZM67.1112 80.6932L67.0474 80.1973L67.0463 80.1974L67.1112 80.6932ZM68.7234 80.5014L68.7748 80.9988L68.7798 80.9982L68.7234 80.5014ZM69.6325 80.267L69.3878 79.8309L69.3832 79.8336L69.6325 80.267ZM69.3484 78.0085L68.9905 78.3577L68.9927 78.3599L69.3484 78.0085ZM65.7404 77.9517L66.0457 78.3477L66.0457 78.3477L65.7404 77.9517ZM64.7816 79.0739L64.6134 79.5447L65.043 79.6982L65.2351 79.2844L64.7816 79.0739ZM63.1907 78.5057L62.7311 78.3087L62.5216 78.7976L63.0225 78.9766L63.1907 78.5057ZM64.3271 76.9574L64.6346 77.3516L64.6351 77.3512L64.3271 76.9574ZM65.8896 76.1761L66.0156 76.66L66.0184 76.6593L65.8896 76.1761ZM68.7731 76.0767L68.6809 76.5682L68.6868 76.5692L68.7731 76.0767ZM70.1012 76.581L69.844 77.0097L69.846 77.011L70.1012 76.581ZM71.1737 77.7386L70.7356 77.9797L70.7356 77.9798L71.1737 77.7386ZM71.5998 87V87.5H72.0998V87H71.5998ZM69.9237 87H69.4237V87.5H69.9237V87ZM69.9237 85.5227H70.4237V85.0227H69.9237V85.5227ZM69.8384 85.5227V85.0227H69.5238L69.3877 85.3064L69.8384 85.5227ZM69.2702 86.2827L69.6269 86.6331L69.6269 86.6331L69.2702 86.2827ZM68.212 86.9716L68.0144 86.5123L68.0144 86.5123L68.212 86.9716ZM68.5316 85.3594L68.285 84.9244L68.283 84.9255L68.5316 85.3594ZM69.5685 84.3509L69.135 84.1017L69.1329 84.1055L69.5685 84.3509ZM69.9237 81.517H70.4237V80.136L69.5395 81.197L69.9237 81.517ZM69.4549 81.7514L69.5897 82.2329L69.596 82.2311L69.4549 81.7514ZM68.631 81.929L68.7071 82.4232L68.7132 82.4222L68.631 81.929ZM67.729 82.0568L67.7861 82.5536L67.793 82.5527L67.729 82.0568ZM67.0259 82.142L67.0906 82.6378L67.0912 82.6378L67.0259 82.142ZM65.8043 82.419L65.9606 82.894L65.9642 82.8928L65.8043 82.419ZM64.8952 82.9801L64.5281 82.6407L64.5278 82.641L64.8952 82.9801ZM65.2006 85.3097L64.916 85.7208L64.9212 85.7243L65.2006 85.3097ZM66.5998 86.7557C65.9726 86.7557 65.418 86.6379 64.9275 86.4112L64.5079 87.3189C65.1442 87.613 65.8444 87.7557 66.5998 87.7557V86.7557ZM64.9306 86.4126C64.4459 86.1846 64.0701 85.8624 63.7914 85.4442L62.9593 85.9989C63.3435 86.5751 63.8626 87.0153 64.5048 87.3175L64.9306 86.4126ZM63.7926 85.4461C63.5243 85.0398 63.3782 84.5337 63.3782 83.9034H62.3782C62.3782 84.6936 62.5635 85.3996 62.9581 85.9971L63.7926 85.4461ZM63.3782 83.9034C63.3782 83.3402 63.4895 82.9355 63.6698 82.6513L62.8253 82.1158C62.5131 82.608 62.3782 83.2166 62.3782 83.9034H63.3782ZM63.6712 82.649C63.8711 82.33 64.1357 82.082 64.4724 81.9001L63.9971 81.0203C63.5099 81.2835 63.1164 81.6511 62.8238 82.1181L63.6712 82.649ZM64.4724 81.9001C64.8398 81.7016 65.2499 81.5513 65.7054 81.4515L65.4914 80.4746C64.9526 80.5927 64.4535 80.7737 63.9971 81.0203L64.4724 81.9001ZM65.7088 81.4507C66.1957 81.3405 66.6848 81.2532 67.176 81.189L67.0463 80.1974C66.5242 80.2657 66.0048 80.3584 65.488 80.4754L65.7088 81.4507ZM67.1749 81.1891C67.8358 81.1041 68.3687 81.0408 68.7748 80.9988L68.6719 80.0041C68.2542 80.0473 67.7122 80.1118 67.0474 80.1973L67.1749 81.1891ZM68.7798 80.9982C69.2134 80.949 69.6007 80.8621 69.8817 80.7005L69.3832 79.8336C69.2855 79.8898 69.0667 79.9592 68.6669 80.0046L68.7798 80.9982ZM69.8771 80.7031C70.265 80.4855 70.4237 80.1041 70.4237 79.6989H69.4237C69.4237 79.7752 69.4099 79.8075 69.4059 79.8153C69.404 79.819 69.4028 79.8203 69.4021 79.821C69.4012 79.8219 69.3975 79.8255 69.3878 79.831L69.8771 80.7031ZM70.4237 79.6989V79.642H69.4237V79.6989H70.4237ZM70.4237 79.642C70.4237 78.8488 70.2043 78.1635 69.7041 77.6571L68.9927 78.3599C69.2595 78.63 69.4237 79.0338 69.4237 79.642H70.4237ZM69.7063 77.6594C69.1995 77.14 68.4713 76.9261 67.6225 76.9261V77.9261C68.3172 77.9261 68.7396 78.1006 68.9905 78.3577L69.7063 77.6594ZM67.6225 76.9261C66.7546 76.9261 66.0059 77.1158 65.4352 77.5557L66.0457 78.3477C66.3841 78.0869 66.8901 77.9261 67.6225 77.9261V76.9261ZM65.4352 77.5557C64.936 77.9405 64.5554 78.3738 64.3281 78.8633L65.2351 79.2844C65.3771 78.9785 65.6358 78.6637 66.0457 78.3477L65.4352 77.5557ZM64.9498 78.603L63.3589 78.0348L63.0225 78.9766L64.6134 79.5447L64.9498 78.603ZM63.6503 78.7026C63.9078 78.1018 64.2398 77.6596 64.6346 77.3516L64.0195 76.5631C63.4674 76.9938 63.0418 77.5838 62.7311 78.3087L63.6503 78.7026ZM64.6351 77.3512C65.0618 77.0175 65.5212 76.7888 66.0156 76.66L65.7635 75.6923C65.1311 75.857 64.5488 76.1492 64.019 76.5636L64.6351 77.3512ZM66.0184 76.6593C66.5475 76.5182 67.0629 76.4489 67.5657 76.4489V75.4489C66.97 75.4489 66.368 75.5311 65.7607 75.693L66.0184 76.6593ZM67.5657 76.4489C67.8772 76.4489 68.2478 76.4869 68.6809 76.5681L68.8652 75.5853C68.3893 75.496 67.955 75.4489 67.5657 75.4489V76.4489ZM68.6868 76.5692C69.0818 76.6384 69.4669 76.7835 69.844 77.0097L70.3585 76.1522C69.8832 75.8671 69.383 75.676 68.8594 75.5842L68.6868 76.5692ZM69.846 77.011C70.1877 77.2137 70.4869 77.5279 70.7356 77.9797L71.6117 77.4975C71.2922 76.9171 70.8765 76.4596 70.3564 76.151L69.846 77.011ZM70.7356 77.9798C70.9644 78.3953 71.0998 78.9935 71.0998 79.8125H72.0998C72.0998 78.8986 71.9511 78.1142 71.6117 77.4975L70.7356 77.9798ZM71.0998 79.8125V87H72.0998V79.8125H71.0998ZM71.5998 86.5H69.9237V87.5H71.5998V86.5ZM70.4237 87V85.5227H69.4237V87H70.4237ZM69.9237 85.0227H69.8384V86.0227H69.9237V85.0227ZM69.3877 85.3064C69.3058 85.4769 69.1557 85.6858 68.9136 85.9323L69.6269 86.6331C69.9151 86.3397 70.1438 86.042 70.2892 85.7391L69.3877 85.3064ZM68.9136 85.9323C68.7043 86.1453 68.4105 86.3419 68.0144 86.5123L68.4096 87.4309C68.8942 87.2225 69.3059 86.9598 69.6269 86.6331L68.9136 85.9323ZM68.0144 86.5123C67.6532 86.6677 67.1872 86.7557 66.5998 86.7557V87.7557C67.2813 87.7557 67.8901 87.6543 68.4096 87.4309L68.0144 86.5123ZM66.8555 86.25C67.5828 86.25 68.2324 86.107 68.7802 85.7932L68.283 84.9255C67.9217 85.1325 67.4539 85.25 66.8555 85.25V86.25ZM68.7782 85.7943C69.3071 85.4944 69.7225 85.0963 70.0042 84.5962L69.1329 84.1055C68.9505 84.4292 68.6747 84.7035 68.285 84.9244L68.7782 85.7943ZM70.002 84.6C70.2803 84.1158 70.4237 83.5971 70.4237 83.0511H69.4237C69.4237 83.4142 69.3303 83.762 69.135 84.1017L70.002 84.6ZM70.4237 83.0511V81.517H69.4237V83.0511H70.4237ZM69.5395 81.197C69.5663 81.1649 69.5776 81.1683 69.5296 81.1923C69.4867 81.2138 69.4174 81.2413 69.3138 81.2717L69.596 82.2311C69.7339 82.1905 69.8634 82.1435 69.9768 82.0868C70.085 82.0327 70.21 81.9544 70.3078 81.8371L69.5395 81.197ZM69.3201 81.2699C69.1048 81.3302 68.8484 81.3859 68.5488 81.4358L68.7132 82.4222C69.0387 82.3679 69.3316 82.3052 69.5897 82.2329L69.3201 81.2699ZM68.555 81.4348C68.251 81.4816 67.9544 81.5236 67.6651 81.5609L67.793 82.5527C68.0908 82.5143 68.3955 82.4711 68.7071 82.4232L68.555 81.4348ZM67.672 81.5601C67.3819 81.5934 67.1445 81.6221 66.9607 81.6463L67.0912 82.6378C67.2672 82.6146 67.4986 82.5865 67.7861 82.5536L67.672 81.5601ZM66.9613 81.6462C66.4964 81.7069 66.057 81.806 65.6444 81.9453L65.9642 82.8928C66.3092 82.7764 66.6842 82.6908 67.0906 82.6378L66.9613 81.6462ZM65.648 81.9441C65.2057 82.0897 64.826 82.3185 64.5281 82.6407L65.2624 83.3195C65.4285 83.1399 65.6548 82.9946 65.9606 82.894L65.648 81.9441ZM64.5278 82.641C64.194 83.0027 64.0543 83.4722 64.0543 83.9886H65.0543C65.0543 83.6528 65.142 83.45 65.2626 83.3193L64.5278 82.641ZM64.0543 83.9886C64.0543 84.7138 64.3336 85.3175 64.916 85.7208L65.4852 84.8986C65.2059 84.7052 65.0543 84.4283 65.0543 83.9886H64.0543ZM64.9212 85.7243C65.4592 86.0868 66.1152 86.25 66.8555 86.25V85.25C66.2605 85.25 65.8133 85.1196 65.4801 84.895L64.9212 85.7243ZM76.3707 86.5384L76.0934 86.9544L76.0954 86.9557L76.3707 86.5384ZM74.7372 84.5781L74.2836 84.7885L74.2841 84.7894L74.7372 84.5781ZM74.7372 78.5909L74.2841 78.3796L74.2841 78.3796L74.7372 78.5909ZM76.3778 76.6378L76.1038 76.2196L76.1038 76.2196L76.3778 76.6378ZM80.4901 76.304L80.2409 76.7375L80.2468 76.7408L80.4901 76.304ZM81.4418 77.0994L81.0379 77.3943L81.0433 77.4015L81.4418 77.0994ZM81.9602 77.8239L81.541 78.0964L81.6889 78.3239H81.9602V77.8239ZM82.1023 77.8239V78.3239H82.6023V77.8239H82.1023ZM82.1023 72.4545V71.9545H81.6023V72.4545H82.1023ZM83.7784 72.4545H84.2784V71.9545H83.7784V72.4545ZM83.7784 87V87.5H84.2784V87H83.7784ZM82.1591 87H81.6591V87.5H82.1591V87ZM82.1591 85.3239H82.6591V84.8239H82.1591V85.3239ZM81.9602 85.3239V84.8239H81.6817L81.5351 85.0607L81.9602 85.3239ZM81.4347 86.0767L81.8324 86.3797L81.8347 86.3767L81.4347 86.0767ZM80.4616 86.8793L80.7028 87.3173L80.7065 87.3152L80.4616 86.8793ZM80.7102 85.196L81.0115 85.5951L81.0141 85.5931L80.7102 85.196ZM81.7685 83.7259L82.2349 83.9061L82.2353 83.9049L81.7685 83.7259ZM81.7756 79.4077L81.3089 79.5872L81.3094 79.5884L81.7756 79.4077ZM80.7244 77.973L80.4257 78.374L80.4284 78.376L80.7244 77.973ZM77.2301 78.0014L77.5346 78.398L77.5352 78.3976L77.2301 78.0014ZM76.1719 79.4716L75.7047 79.2933L75.704 79.2952L76.1719 79.4716ZM76.179 83.6619L75.7105 83.8367L75.7121 83.841L76.179 83.6619ZM77.2443 85.1676L76.9324 85.5585L76.9368 85.5619L77.2443 85.1676ZM78.7784 86.7273C77.958 86.7273 77.2531 86.5215 76.6461 86.121L76.0954 86.9557C76.8805 87.4737 77.7806 87.7273 78.7784 87.7273V86.7273ZM76.6481 86.1223C76.0366 85.7147 75.5491 85.1361 75.1904 84.3668L74.2841 84.7894C74.7113 85.7058 75.3128 86.434 76.0934 86.9544L76.6481 86.1223ZM75.1908 84.3678C74.8347 83.5998 74.6477 82.6733 74.6477 81.5739H73.6477C73.6477 82.785 73.8537 83.8613 74.2836 84.7885L75.1908 84.3678ZM74.6477 81.5739C74.6477 80.4845 74.8345 79.5653 75.1904 78.8022L74.2841 78.3796C73.8539 79.3021 73.6477 80.3716 73.6477 81.5739H74.6477ZM75.1904 78.8022C75.5485 78.0341 76.0373 77.4588 76.6519 77.056L76.1038 76.2196C75.3169 76.7353 74.7119 77.4621 74.2841 78.3796L75.1904 78.8022ZM76.6519 77.056C77.2634 76.6552 77.9759 76.4489 78.8068 76.4489V75.4489C77.8006 75.4489 76.8938 75.7018 76.1038 76.2196L76.6519 77.056ZM78.8068 76.4489C79.4697 76.4489 79.9333 76.5607 80.2409 76.7375L80.7392 75.8705C80.223 75.5738 79.5644 75.4489 78.8068 75.4489V76.4489ZM80.2468 76.7408C80.618 76.9475 80.8733 77.1688 81.0379 77.3943L81.8456 76.8046C81.5746 76.4335 81.1954 76.1245 80.7333 75.8671L80.2468 76.7408ZM81.0433 77.4015C81.2625 77.6906 81.4272 77.9213 81.541 78.0964L82.3794 77.5514C82.247 77.3476 82.0661 77.0954 81.8402 76.7974L81.0433 77.4015ZM81.9602 78.3239H82.1023V77.3239H81.9602V78.3239ZM82.6023 77.8239V72.4545H81.6023V77.8239H82.6023ZM82.1023 72.9545H83.7784V71.9545H82.1023V72.9545ZM83.2784 72.4545V87H84.2784V72.4545H83.2784ZM83.7784 86.5H82.1591V87.5H83.7784V86.5ZM82.6591 87V85.3239H81.6591V87H82.6591ZM82.1591 84.8239H81.9602V85.8239H82.1591V84.8239ZM81.5351 85.0607C81.4231 85.2416 81.2577 85.4793 81.0347 85.7767L81.8347 86.3767C82.0661 86.0681 82.2512 85.8038 82.3854 85.587L81.5351 85.0607ZM81.0369 85.7737C80.8611 86.0045 80.5951 86.2308 80.2167 86.4433L80.7065 87.3152C81.171 87.0543 81.5537 86.7455 81.8324 86.3797L81.0369 85.7737ZM80.2205 86.4413C79.8991 86.6182 79.4308 86.7273 78.7784 86.7273V87.7273C79.5276 87.7273 80.1814 87.6043 80.7028 87.3173L80.2205 86.4413ZM79.0057 86.2216C79.7691 86.2216 80.4476 86.0209 81.0115 85.595L80.4089 84.797C80.0448 85.0719 79.587 85.2216 79.0057 85.2216V86.2216ZM81.0141 85.5931C81.5614 85.1742 81.9652 84.6041 82.2349 83.9061L81.3021 83.5457C81.0888 84.0976 80.787 84.5076 80.4064 84.799L81.0141 85.5931ZM82.2353 83.9049C82.503 83.2069 82.6307 82.4174 82.6307 81.5455H81.6307C81.6307 82.3213 81.5169 82.9853 81.3016 83.5468L82.2353 83.9049ZM82.6307 81.5455C82.6307 80.6838 82.5056 79.9075 82.2418 79.227L81.3094 79.5884C81.5191 80.1294 81.6307 80.7784 81.6307 81.5455H82.6307ZM82.2422 79.2282C81.9763 78.5367 81.5723 77.9755 81.0205 77.5701L80.4284 78.376C80.8046 78.6523 81.1014 79.0476 81.3089 79.5872L82.2422 79.2282ZM81.0231 77.572C80.4581 77.1512 79.7753 76.9545 79.0057 76.9545V77.9545C79.5997 77.9545 80.0627 78.1036 80.4257 78.374L81.0231 77.572ZM79.0057 76.9545C78.2066 76.9545 77.5016 77.1613 76.9251 77.6053L77.5352 78.3976C77.9056 78.1124 78.3843 77.9545 79.0057 77.9545V76.9545ZM76.9256 77.6048C76.3747 78.0277 75.9703 78.5976 75.7047 79.2933L76.639 79.6499C76.8469 79.1051 77.148 78.6948 77.5346 78.398L76.9256 77.6048ZM75.704 79.2952C75.4475 79.9757 75.3239 80.728 75.3239 81.5455H76.3239C76.3239 80.8288 76.4322 80.1986 76.6397 79.6479L75.704 79.2952ZM75.3239 81.5455C75.3239 82.373 75.4501 83.1388 75.7105 83.8367L76.6474 83.4871C76.4344 82.9161 76.3239 82.2709 76.3239 81.5455H75.3239ZM75.7121 83.841C75.9814 84.5432 76.3857 85.1222 76.9325 85.5584L77.5562 84.7768C77.1654 84.465 76.8595 84.0401 76.6458 83.4829L75.7121 83.841ZM76.9368 85.5619C77.5123 86.0108 78.2129 86.2216 79.0057 86.2216V85.2216C78.397 85.2216 77.9233 85.0631 77.5518 84.7734L76.9368 85.5619ZM87.081 87H86.581V87.5H87.081V87ZM87.081 76.0909V75.5909H86.581V76.0909H87.081ZM88.7003 76.0909H89.2003V75.5909H88.7003V76.0909ZM88.7003 77.7386H88.2003V78.2386H88.7003V77.7386ZM88.8139 77.7386V78.2386H89.1626L89.2831 77.9115L88.8139 77.7386ZM89.8935 76.4247L89.6223 76.0046L89.6223 76.0046L89.8935 76.4247ZM92.5355 75.9489H93.0355V75.4964L92.5853 75.4513L92.5355 75.9489ZM92.5355 77.6534L92.4142 78.1385L93.0355 78.2938V77.6534H92.5355ZM92.1449 77.5895L92.0627 78.0829L92.0758 78.0847L92.1449 77.5895ZM90.0923 77.8736L90.326 78.3156L90.3279 78.3146L90.0923 77.8736ZM89.1122 78.7827L88.6876 78.5186L88.6867 78.52L89.1122 78.7827ZM88.7571 87V87.5H89.2571V87H88.7571ZM87.581 87V76.0909H86.581V87H87.581ZM87.081 76.5909H88.7003V75.5909H87.081V76.5909ZM88.2003 76.0909V77.7386H89.2003V76.0909H88.2003ZM88.7003 78.2386H88.8139V77.2386H88.7003V78.2386ZM89.2831 77.9115C89.4415 77.4815 89.7273 77.1271 90.1646 76.8448L89.6223 76.0046C89.0179 76.3947 88.5841 76.9162 88.3447 77.5658L89.2831 77.9115ZM90.1646 76.8448C90.6002 76.5637 91.0921 76.4205 91.6548 76.4205V75.4205C90.9107 75.4205 90.2284 75.6134 89.6223 76.0046L90.1646 76.8448ZM91.6548 76.4205C91.7721 76.4205 91.9214 76.4227 92.1037 76.4274L92.1293 75.4277C91.9422 75.4229 91.7837 75.4205 91.6548 75.4205V76.4205ZM92.1037 76.4274C92.2851 76.432 92.4099 76.4388 92.4858 76.4464L92.5853 75.4513C92.4717 75.44 92.3171 75.4325 92.1293 75.4277L92.1037 76.4274ZM92.0355 75.9489V77.6534H93.0355V75.9489H92.0355ZM92.6568 77.1683C92.5689 77.1464 92.4101 77.1217 92.214 77.0943L92.0758 78.0847C92.1756 78.0986 92.2548 78.1104 92.3145 78.1202C92.3443 78.1251 92.3679 78.1292 92.3859 78.1326C92.3948 78.1343 92.4017 78.1357 92.4068 78.1368C92.4121 78.1379 92.4143 78.1385 92.4142 78.1385L92.6568 77.1683ZM92.2271 77.0963C91.9984 77.0582 91.7601 77.0398 91.5128 77.0398V78.0398C91.7106 78.0398 91.8936 78.0545 92.0627 78.0827L92.2271 77.0963ZM91.5128 77.0398C90.9105 77.0398 90.3544 77.1667 89.8568 77.4325L90.3279 78.3146C90.6636 78.1353 91.0544 78.0398 91.5128 78.0398V77.0398ZM89.8586 77.4316C89.37 77.6899 88.9768 78.0537 88.6876 78.5186L89.5368 79.0467C89.7306 78.7351 89.9908 78.4929 90.326 78.3156L89.8586 77.4316ZM88.6867 78.52C88.3968 78.9897 88.2571 79.5203 88.2571 80.0966H89.2571C89.2571 79.688 89.3541 79.3427 89.5377 79.0453L88.6867 78.52ZM88.2571 80.0966V87H89.2571V80.0966H88.2571ZM88.7571 86.5H87.081V87.5H88.7571V86.5ZM95.8505 86.8651L95.6376 87.3175L95.6407 87.3189L95.8505 86.8651ZM94.5082 85.7216L94.0909 85.9971L94.0921 85.9989L94.5082 85.7216ZM94.3803 82.3835L94.8026 82.6513L94.804 82.649L94.3803 82.3835ZM96.7312 80.9631L96.8382 81.4515L96.8416 81.4507L96.7312 80.9631ZM98.244 80.6932L98.1802 80.1973L98.1791 80.1974L98.244 80.6932ZM99.8562 80.5014L99.9076 80.9988L99.9126 80.9982L99.8562 80.5014ZM100.765 80.267L100.521 79.8309L100.516 79.8336L100.765 80.267ZM100.481 78.0085L100.123 78.3577L100.125 78.3599L100.481 78.0085ZM96.8732 77.9517L97.1785 78.3477L97.1785 78.3477L96.8732 77.9517ZM95.9144 79.0739L95.7462 79.5447L96.1758 79.6982L96.3679 79.2844L95.9144 79.0739ZM94.3235 78.5057L93.8639 78.3087L93.6544 78.7976L94.1553 78.9766L94.3235 78.5057ZM95.4599 76.9574L95.7674 77.3516L95.7679 77.3512L95.4599 76.9574ZM97.0224 76.1761L97.1484 76.66L97.1512 76.6593L97.0224 76.1761ZM99.9059 76.0767L99.8137 76.5682L99.8196 76.5692L99.9059 76.0767ZM101.234 76.581L100.977 77.0097L100.979 77.011L101.234 76.581ZM102.306 77.7386L101.868 77.9797L101.868 77.9798L102.306 77.7386ZM102.733 87V87.5H103.233V87H102.733ZM101.056 87H100.556V87.5H101.056V87ZM101.056 85.5227H101.556V85.0227H101.056V85.5227ZM100.971 85.5227V85.0227H100.657L100.52 85.3064L100.971 85.5227ZM100.403 86.2827L100.76 86.6331L100.76 86.6331L100.403 86.2827ZM99.3448 86.9716L99.1473 86.5123L99.1473 86.5123L99.3448 86.9716ZM99.6644 85.3594L99.4178 84.9244L99.4159 84.9255L99.6644 85.3594ZM100.701 84.3509L100.268 84.1017L100.266 84.1055L100.701 84.3509ZM101.056 81.517H101.556V80.136L100.672 81.197L101.056 81.517ZM100.588 81.7514L100.723 82.2329L100.729 82.2311L100.588 81.7514ZM99.7638 81.929L99.8399 82.4232L99.846 82.4222L99.7638 81.929ZM98.8619 82.0568L98.9189 82.5536L98.9258 82.5527L98.8619 82.0568ZM98.1587 82.142L98.2234 82.6378L98.224 82.6378L98.1587 82.142ZM96.9371 82.419L97.0935 82.894L97.097 82.8928L96.9371 82.419ZM96.0281 82.9801L95.6609 82.6407L95.6607 82.641L96.0281 82.9801ZM96.3335 85.3097L96.0488 85.7208L96.054 85.7243L96.3335 85.3097ZM97.7326 86.7557C97.1055 86.7557 96.5508 86.6379 96.0603 86.4112L95.6407 87.3189C96.2771 87.613 96.9772 87.7557 97.7326 87.7557V86.7557ZM96.0634 86.4126C95.5787 86.1846 95.2029 85.8624 94.9242 85.4442L94.0921 85.9989C94.4763 86.5751 94.9954 87.0153 95.6376 87.3175L96.0634 86.4126ZM94.9254 85.4461C94.6571 85.0398 94.511 84.5337 94.511 83.9034H93.511C93.511 84.6936 93.6964 85.3996 94.0909 85.9971L94.9254 85.4461ZM94.511 83.9034C94.511 83.3402 94.6223 82.9355 94.8026 82.6513L93.9581 82.1158C93.6459 82.608 93.511 83.2166 93.511 83.9034H94.511ZM94.804 82.649C95.0039 82.33 95.2686 82.082 95.6052 81.9001L95.1299 81.0203C94.6427 81.2835 94.2492 81.6511 93.9566 82.1181L94.804 82.649ZM95.6052 81.9001C95.9726 81.7016 96.3827 81.5513 96.8382 81.4515L96.6242 80.4746C96.0854 80.5927 95.5863 80.7737 95.1299 81.0203L95.6052 81.9001ZM96.8416 81.4507C97.3285 81.3405 97.8176 81.2532 98.3088 81.189L98.1791 80.1974C97.6571 80.2657 97.1376 80.3584 96.6208 80.4754L96.8416 81.4507ZM98.3077 81.1891C98.9687 81.1041 99.5015 81.0408 99.9076 80.9988L99.8047 80.0041C99.387 80.0473 98.845 80.1118 98.1802 80.1973L98.3077 81.1891ZM99.9126 80.9982C100.346 80.949 100.733 80.8621 101.015 80.7005L100.516 79.8336C100.418 79.8898 100.199 79.9592 99.7997 80.0046L99.9126 80.9982ZM101.01 80.7031C101.398 80.4855 101.556 80.1041 101.556 79.6989H100.556C100.556 79.7752 100.543 79.8075 100.539 79.8153C100.537 79.819 100.536 79.8203 100.535 79.821C100.534 79.8219 100.53 79.8255 100.521 79.831L101.01 80.7031ZM101.556 79.6989V79.642H100.556V79.6989H101.556ZM101.556 79.642C101.556 78.8488 101.337 78.1635 100.837 77.6571L100.125 78.3599C100.392 78.63 100.556 79.0338 100.556 79.642H101.556ZM100.839 77.6594C100.332 77.14 99.6042 76.9261 98.7553 76.9261V77.9261C99.4501 77.9261 99.8724 78.1006 100.123 78.3577L100.839 77.6594ZM98.7553 76.9261C97.8874 76.9261 97.1387 77.1158 96.568 77.5557L97.1785 78.3477C97.5169 78.0869 98.0229 77.9261 98.7553 77.9261V76.9261ZM96.568 77.5557C96.0688 77.9405 95.6882 78.3738 95.4609 78.8633L96.3679 79.2844C96.51 78.9785 96.7686 78.6637 97.1785 78.3477L96.568 77.5557ZM96.0826 78.603L94.4917 78.0348L94.1553 78.9766L95.7462 79.5447L96.0826 78.603ZM94.7831 78.7026C95.0406 78.1018 95.3726 77.6596 95.7674 77.3516L95.1524 76.5631C94.6002 76.9938 94.1746 77.5838 93.8639 78.3087L94.7831 78.7026ZM95.7679 77.3512C96.1946 77.0175 96.654 76.7888 97.1484 76.66L96.8963 75.6923C96.2639 75.857 95.6816 76.1492 95.1518 76.5636L95.7679 77.3512ZM97.1512 76.6593C97.6803 76.5182 98.1957 76.4489 98.6985 76.4489V75.4489C98.1028 75.4489 97.5008 75.5311 96.8935 75.693L97.1512 76.6593ZM98.6985 76.4489C99.01 76.4489 99.3806 76.4869 99.8138 76.5681L99.998 75.5853C99.5221 75.496 99.0878 75.4489 98.6985 75.4489V76.4489ZM99.8196 76.5692C100.215 76.6384 100.6 76.7835 100.977 77.0097L101.491 76.1522C101.016 75.8671 100.516 75.676 99.9922 75.5842L99.8196 76.5692ZM100.979 77.011C101.32 77.2137 101.62 77.5279 101.868 77.9797L102.744 77.4975C102.425 76.9171 102.009 76.4596 101.489 76.151L100.979 77.011ZM101.868 77.9798C102.097 78.3953 102.233 78.9935 102.233 79.8125H103.233C103.233 78.8986 103.084 78.1142 102.744 77.4975L101.868 77.9798ZM102.233 79.8125V87H103.233V79.8125H102.233ZM102.733 86.5H101.056V87.5H102.733V86.5ZM101.556 87V85.5227H100.556V87H101.556ZM101.056 85.0227H100.971V86.0227H101.056V85.0227ZM100.52 85.3064C100.439 85.4769 100.288 85.6858 100.046 85.9323L100.76 86.6331C101.048 86.3397 101.277 86.042 101.422 85.7391L100.52 85.3064ZM100.046 85.9323C99.8371 86.1453 99.5433 86.3419 99.1473 86.5123L99.5424 87.4309C100.027 87.2225 100.439 86.9598 100.76 86.6331L100.046 85.9323ZM99.1473 86.5123C98.786 86.6677 98.32 86.7557 97.7326 86.7557V87.7557C98.4141 87.7557 99.0229 87.6543 99.5424 87.4309L99.1473 86.5123ZM97.9883 86.25C98.7156 86.25 99.3652 86.107 99.913 85.7932L99.4159 84.9255C99.0545 85.1325 98.5867 85.25 97.9883 85.25V86.25ZM99.911 85.7943C100.44 85.4944 100.855 85.0963 101.137 84.5962L100.266 84.1055C100.083 84.4292 99.8075 84.7035 99.4178 84.9244L99.911 85.7943ZM101.135 84.6C101.413 84.1158 101.556 83.5971 101.556 83.0511H100.556C100.556 83.4142 100.463 83.762 100.268 84.1017L101.135 84.6ZM101.556 83.0511V81.517H100.556V83.0511H101.556ZM100.672 81.197C100.699 81.1649 100.71 81.1683 100.662 81.1923C100.62 81.2138 100.55 81.2413 100.447 81.2717L100.729 82.2311C100.867 82.1905 100.996 82.1435 101.11 82.0868C101.218 82.0327 101.343 81.9544 101.441 81.8371L100.672 81.197ZM100.453 81.2699C100.238 81.3302 99.9812 81.3859 99.6816 81.4358L99.846 82.4222C100.172 82.3679 100.464 82.3052 100.723 82.2329L100.453 81.2699ZM99.6878 81.4348C99.3839 81.4816 99.0872 81.5236 98.7979 81.5609L98.9258 82.5527C99.2236 82.5143 99.5283 82.4711 99.8399 82.4232L99.6878 81.4348ZM98.8049 81.5601C98.5147 81.5934 98.2773 81.6221 98.0935 81.6463L98.224 82.6378C98.4 82.6146 98.6314 82.5865 98.9189 82.5536L98.8049 81.5601ZM98.0941 81.6462C97.6292 81.7069 97.1899 81.806 96.7773 81.9453L97.097 82.8928C97.442 82.7764 97.817 82.6908 98.2234 82.6378L98.0941 81.6462ZM96.7808 81.9441C96.3385 82.0897 95.9588 82.3185 95.6609 82.6407L96.3952 83.3195C96.5613 83.1399 96.7876 82.9946 97.0935 82.894L96.7808 81.9441ZM95.6607 82.641C95.3268 83.0027 95.1871 83.4722 95.1871 83.9886H96.1871C96.1871 83.6528 96.2748 83.45 96.3955 83.3193L95.6607 82.641ZM95.1871 83.9886C95.1871 84.7138 95.4664 85.3175 96.0488 85.7208L96.6181 84.8986C96.3387 84.7052 96.1871 84.4283 96.1871 83.9886H95.1871ZM96.054 85.7243C96.592 86.0868 97.248 86.25 97.9883 86.25V85.25C97.3933 85.25 96.9461 85.1196 96.6129 84.895L96.054 85.7243ZM107.468 87V87.5H107.968V87H107.468ZM105.792 87H105.292V87.5H105.792V87ZM105.792 76.0909V75.5909H105.292V76.0909H105.792ZM107.411 76.0909H107.911V75.5909H107.411V76.0909ZM107.411 77.7955H106.911V78.2955H107.411V77.7955ZM107.553 77.7955V78.2955H107.873L108.007 78.005L107.553 77.7955ZM108.718 76.4602L108.989 76.8803L108.992 76.8786L108.718 76.4602ZM112.674 76.4034L112.434 76.8421L112.437 76.8436L112.674 76.4034ZM113.967 77.767L113.52 77.992L113.521 77.9934L113.967 77.767ZM114.428 87V87.5H114.928V87H114.428ZM112.752 87H112.252V87.5H112.752V87ZM112.085 78.179L111.717 78.5178L111.719 78.5196L112.085 78.179ZM108.817 77.8026L108.576 77.3645L108.574 77.3657L108.817 77.8026ZM107.83 78.8182L107.391 78.5797L107.391 78.5797L107.83 78.8182ZM106.968 80.4375V87H107.968V80.4375H106.968ZM107.468 86.5H105.792V87.5H107.468V86.5ZM106.292 87V76.0909H105.292V87H106.292ZM105.792 76.5909H107.411V75.5909H105.792V76.5909ZM106.911 76.0909V77.7955H107.911V76.0909H106.911ZM107.411 78.2955H107.553V77.2955H107.411V78.2955ZM108.007 78.005C108.223 77.5386 108.547 77.1659 108.989 76.8803L108.447 76.0401C107.848 76.4269 107.395 76.9444 107.099 77.5859L108.007 78.005ZM108.992 76.8786C109.409 76.6056 109.978 76.4489 110.735 76.4489V75.4489C109.845 75.4489 109.069 75.633 108.444 76.0419L108.992 76.8786ZM110.735 76.4489C111.404 76.4489 111.965 76.5856 112.434 76.8421L112.914 75.9647C112.275 75.6151 111.543 75.4489 110.735 75.4489V76.4489ZM112.437 76.8436C112.893 77.0891 113.254 77.4644 113.52 77.992L114.413 77.5421C114.063 76.8481 113.563 76.3143 112.911 75.9632L112.437 76.8436ZM113.521 77.9934C113.782 78.5085 113.928 79.1915 113.928 80.0682H114.928C114.928 79.0888 114.766 78.2377 114.412 77.5407L113.521 77.9934ZM113.928 80.0682V87H114.928V80.0682H113.928ZM114.428 86.5H112.752V87.5H114.428V86.5ZM113.252 87V80.1818H112.252V87H113.252ZM113.252 80.1818C113.252 79.2389 113.006 78.435 112.451 77.8383L111.719 78.5196C112.053 78.8794 112.252 79.4107 112.252 80.1818H113.252ZM112.452 77.8401C111.895 77.2357 111.141 76.9545 110.252 76.9545V77.9545C110.917 77.9545 111.384 78.1564 111.717 78.5178L112.452 77.8401ZM110.252 76.9545C109.642 76.9545 109.08 77.0875 108.576 77.3646L109.059 78.2406C109.398 78.0536 109.792 77.9545 110.252 77.9545V76.9545ZM108.574 77.3657C108.069 77.6468 107.675 78.0566 107.391 78.5797L108.27 79.0566C108.469 78.6896 108.732 78.4223 109.061 78.2394L108.574 77.3657ZM107.391 78.5797C107.101 79.1143 106.968 79.7404 106.968 80.4375H107.968C107.968 79.8656 108.077 79.4122 108.27 79.0566L107.391 78.5797ZM122.235 76.0909H122.735V75.5909H122.235V76.0909ZM122.235 77.5114V78.0114H122.735V77.5114H122.235ZM116.582 77.5114H116.082V78.0114H116.582V77.5114ZM116.582 76.0909V75.5909H116.082V76.0909H116.582ZM118.23 73.4773V72.9773H117.73V73.4773H118.23ZM119.906 73.4773H120.406V72.9773H119.906V73.4773ZM120.112 84.9403L119.679 85.1913L119.685 85.2014L120.112 84.9403ZM120.652 85.4091L120.478 85.8782L120.491 85.8824L120.652 85.4091ZM121.809 85.4943L121.888 85.988L121.898 85.9865L121.907 85.9846L121.809 85.4943ZM122.093 85.4375L122.581 85.3271L122.473 84.8516L121.995 84.9472L122.093 85.4375ZM122.434 86.9432L122.61 87.4113L123.018 87.2582L122.922 86.8328L122.434 86.9432ZM121.958 87.071L121.856 86.5815L121.845 86.584L121.958 87.071ZM119.792 86.8366L119.586 87.2922L119.588 87.293L119.792 86.8366ZM118.67 85.9062L118.261 86.1942L118.264 86.1973L118.67 85.9062ZM121.735 76.0909V77.5114H122.735V76.0909H121.735ZM122.235 77.0114H116.582V78.0114H122.235V77.0114ZM117.082 77.5114V76.0909H116.082V77.5114H117.082ZM116.582 76.5909H122.235V75.5909H116.582V76.5909ZM118.23 73.9773H119.906V72.9773H118.23V73.9773ZM119.406 73.4773V83.875H120.406V73.4773H119.406ZM119.406 83.875C119.406 84.3804 119.476 84.8411 119.679 85.1912L120.544 84.6895C120.473 84.5661 120.406 84.3165 120.406 83.875H119.406ZM119.685 85.2014C119.876 85.5121 120.138 85.7522 120.478 85.8781L120.825 84.9401C120.73 84.905 120.632 84.8326 120.538 84.6793L119.685 85.2014ZM120.491 85.8824C120.767 85.9767 121.056 86.0227 121.355 86.0227V85.0227C121.161 85.0227 120.981 84.993 120.813 84.9358L120.491 85.8824ZM121.355 86.0227C121.553 86.0227 121.734 86.0128 121.888 85.988L121.73 85.0006C121.648 85.0138 121.525 85.0227 121.355 85.0227V86.0227ZM121.907 85.9846C122.026 85.9609 122.12 85.942 122.191 85.9278L121.995 84.9472C121.924 84.9614 121.83 84.9804 121.711 85.004L121.907 85.9846ZM121.606 85.5479L121.947 87.0536L122.922 86.8328L122.581 85.3271L121.606 85.5479ZM122.259 86.475C122.18 86.5046 122.05 86.5411 121.856 86.5816L122.061 87.5604C122.274 87.5157 122.462 87.467 122.61 87.4113L122.259 86.475ZM121.845 86.584C121.692 86.6196 121.475 86.642 121.184 86.642V87.642C121.518 87.642 121.818 87.6171 122.072 87.558L121.845 86.584ZM121.184 86.642C120.785 86.642 120.39 86.5567 119.997 86.3803L119.588 87.293C120.103 87.5238 120.637 87.642 121.184 87.642V86.642ZM119.998 86.3811C119.632 86.2152 119.326 85.9632 119.077 85.6152L118.264 86.1973C118.611 86.6826 119.053 87.0509 119.586 87.2922L119.998 86.3811ZM119.079 85.6183C118.858 85.3046 118.73 84.8864 118.73 84.3295H117.73C117.73 85.0417 117.895 85.6746 118.261 86.1942L119.079 85.6183ZM118.73 84.3295V73.4773H117.73V84.3295H118.73Z" fill="black"/>
</svg>
