<svg width="160" height="160" viewBox="0 0 160 160" fill="none" xmlns="http://www.w3.org/2000/svg">
<circle cx="63.9999" cy="96" r="6" fill="#C83434"/>
<circle cx="31.9999" cy="96" r="6" fill="#C83434"/>
<circle cx="31.9999" cy="128" r="6" fill="#C83434"/>
<circle cx="63.9999" cy="128" r="6" fill="#C83434"/>
<circle cx="128" cy="96" r="6" fill="#C83434"/>
<circle cx="96" cy="96" r="6" fill="#C83434"/>
<circle cx="96" cy="128" r="6" fill="#C83434"/>
<circle cx="128" cy="128" r="6" fill="#C83434"/>
<circle cx="128" cy="32" r="6" fill="#C83434"/>
<circle cx="96" cy="32" r="6" fill="#C83434"/>
<circle cx="96" cy="64" r="6" fill="#C83434"/>
<circle cx="128" cy="64" r="6" fill="#C83434"/>
<circle cx="63.9999" cy="32" r="6" fill="#C83434"/>
<circle cx="31.9999" cy="32" r="6" fill="#C83434"/>
<circle cx="31.9999" cy="64" r="6" fill="#C83434"/>
<circle cx="63.9999" cy="64" r="6" fill="#C83434"/>
<rect width="6" height="20" transform="matrix(-0.707107 0.707107 0.707107 0.707107 19.0502 14.8076)" fill="#C83434"/>
<rect width="6" height="20" transform="matrix(-0.707107 0.707107 0.707107 0.707107 51.0502 14.8076)" fill="#C83434"/>
<rect width="6" height="20" transform="matrix(0.707107 0.707107 0.707107 -0.707107 94.8076 28.9498)" fill="#C83434"/>
<rect width="6" height="20" transform="matrix(0.707107 0.707107 0.707107 -0.707107 126.808 28.9498)" fill="#C83434"/>
<rect width="6" height="20" transform="matrix(0.707107 0.707107 0.707107 -0.707107 126.808 60.9498)" fill="#C83434"/>
<rect width="6" height="20" transform="matrix(0.707107 0.707107 0.707107 -0.707107 94.8076 60.9498)" fill="#C83434"/>
<rect width="6" height="20" transform="matrix(-0.707107 0.707107 0.707107 0.707107 51.0502 46.8076)" fill="#C83434"/>
<rect width="6" height="20" transform="matrix(-0.707107 0.707107 0.707107 0.707107 19.0502 46.8076)" fill="#C83434"/>
<rect width="6" height="20" transform="matrix(0.707107 0.707107 0.707107 -0.707107 14.8076 108.95)" fill="#C83434"/>
<rect width="6" height="20" transform="matrix(0.707107 0.707107 0.707107 -0.707107 46.8076 108.95)" fill="#C83434"/>
<rect width="6" height="20" transform="matrix(0.707107 0.707107 0.707107 -0.707107 46.8076 140.95)" fill="#C83434"/>
<rect width="6" height="20" transform="matrix(0.707107 0.707107 0.707107 -0.707107 14.8075 140.95)" fill="#C83434"/>
<rect width="6" height="20" transform="matrix(-0.707107 0.707107 0.707107 0.707107 99.0502 94.8076)" fill="#C83434"/>
<rect width="6" height="20" transform="matrix(-0.707107 0.707107 0.707107 0.707107 131.05 94.8076)" fill="#C83434"/>
<rect width="6" height="20" transform="matrix(-0.707107 0.707107 0.707107 0.707107 131.05 126.808)" fill="#C83434"/>
<rect width="6" height="20" transform="matrix(-0.707107 0.707107 0.707107 0.707107 99.0502 126.808)" fill="#C83434"/>
<circle cx="15.9999" cy="16" r="7" fill="#57ACDC"/>
<circle cx="15.9999" cy="16" r="4" fill="#496989"/>
<circle cx="47.9999" cy="16" r="7" fill="#57ACDC"/>
<circle cx="47.9999" cy="16" r="4" fill="#496989"/>
<circle cx="112" cy="16" r="7" fill="#57ACDC"/>
<circle cx="112" cy="16" r="4" fill="#496989"/>
<circle cx="144" cy="16" r="7" fill="#57ACDC"/>
<circle cx="144" cy="16" r="4" fill="#496989"/>
<circle cx="112" cy="48" r="7" fill="#57ACDC"/>
<circle cx="112" cy="48" r="4" fill="#496989"/>
<circle cx="144" cy="48" r="7" fill="#57ACDC"/>
<circle cx="144" cy="48" r="4" fill="#496989"/>
<circle cx="15.9999" cy="48" r="7" fill="#57ACDC"/>
<circle cx="15.9999" cy="48" r="4" fill="#496989"/>
<circle cx="47.9999" cy="48" r="7" fill="#57ACDC"/>
<circle cx="47.9999" cy="48" r="4" fill="#496989"/>
<circle cx="112" cy="112" r="7" fill="#57ACDC"/>
<circle cx="144" cy="112" r="7" fill="#57ACDC"/>
<circle cx="144" cy="144" r="7" fill="#57ACDC"/>
<circle cx="112" cy="144" r="7" fill="#57ACDC"/>
<circle cx="47.9999" cy="112" r="7" fill="#57ACDC"/>
<circle cx="15.9999" cy="112" r="7" fill="#57ACDC"/>
<circle cx="15.9999" cy="144" r="7" fill="#57ACDC"/>
<circle cx="47.9999" cy="144" r="7" fill="#57ACDC"/>
<circle cx="15.9999" cy="112" r="4" fill="#496989"/>
<circle cx="47.9999" cy="112" r="4" fill="#496989"/>
<circle cx="112" cy="112" r="4" fill="#496989"/>
<circle cx="144" cy="112" r="4" fill="#496989"/>
<circle cx="15.9999" cy="144" r="4" fill="#496989"/>
<circle cx="47.9999" cy="144" r="4" fill="#496989"/>
<circle cx="112" cy="144" r="4" fill="#496989"/>
<circle cx="144" cy="144" r="4" fill="#496989"/>
<rect x="0.999939" y="1.00002" width="4" height="158" fill="#F2EDA1"/>
<rect x="155" y="1.00002" width="4" height="158" fill="#F2EDA1"/>
<rect x="0.999939" y="5.00002" width="4" height="158" transform="rotate(-90 0.999939 5.00002)" fill="#F2EDA1"/>
<rect x="0.999939" y="159" width="4" height="158" transform="rotate(-90 0.999939 159)" fill="#F2EDA1"/>
<rect x="3.82837" y="10.8995" width="4" height="10" rx="2" transform="rotate(-135 3.82837 10.8995)" fill="#F2EDA1"/>
</svg>
