<svg width="160" height="160" viewBox="0 0 160 160" fill="none" xmlns="http://www.w3.org/2000/svg">
<rect width="160" height="160" fill="#D9D9D9"/>
<path d="M40.9659 74.017V72.4545H51.875V74.017H47.3011V87H45.5398V74.017H40.9659ZM57.2159 87.2273C56.2311 87.2273 55.367 86.9929 54.6236 86.5241C53.8849 86.0554 53.3073 85.3996 52.8906 84.5568C52.4787 83.714 52.2727 82.7292 52.2727 81.6023C52.2727 80.4659 52.4787 79.474 52.8906 78.6264C53.3073 77.7789 53.8849 77.1207 54.6236 76.652C55.367 76.1832 56.2311 75.9489 57.2159 75.9489C58.2008 75.9489 59.0625 76.1832 59.8011 76.652C60.5445 77.1207 61.1222 77.7789 61.5341 78.6264C61.9508 79.474 62.1591 80.4659 62.1591 81.6023C62.1591 82.7292 61.9508 83.714 61.5341 84.5568C61.1222 85.3996 60.5445 86.0554 59.8011 86.5241C59.0625 86.9929 58.2008 87.2273 57.2159 87.2273ZM57.2159 85.7216C57.964 85.7216 58.5795 85.5298 59.0625 85.1463C59.5455 84.7628 59.9029 84.2585 60.1349 83.6335C60.367 83.0085 60.483 82.3314 60.483 81.6023C60.483 80.8731 60.367 80.1937 60.1349 79.5639C59.9029 78.9342 59.5455 78.4252 59.0625 78.0369C58.5795 77.6487 57.964 77.4545 57.2159 77.4545C56.4678 77.4545 55.8523 77.6487 55.3693 78.0369C54.8864 78.4252 54.5289 78.9342 54.2969 79.5639C54.0649 80.1937 53.9489 80.8731 53.9489 81.6023C53.9489 82.3314 54.0649 83.0085 54.2969 83.6335C54.5289 84.2585 54.8864 84.7628 55.3693 85.1463C55.8523 85.5298 56.4678 85.7216 57.2159 85.7216ZM64.7177 91.0909V76.0909H66.337V77.8239H66.5359C66.659 77.6345 66.8294 77.393 67.0472 77.0994C67.2698 76.8011 67.587 76.536 67.9989 76.304C68.4156 76.0672 68.979 75.9489 69.6893 75.9489C70.6078 75.9489 71.4175 76.1785 72.1183 76.6378C72.819 77.0971 73.3659 77.7481 73.7589 78.5909C74.1519 79.4337 74.3484 80.428 74.3484 81.5739C74.3484 82.7292 74.1519 83.7306 73.7589 84.5781C73.3659 85.4209 72.8214 86.0743 72.1254 86.5384C71.4293 86.9976 70.6268 87.2273 69.7177 87.2273C69.0169 87.2273 68.4558 87.1113 68.0344 86.8793C67.613 86.6425 67.2887 86.375 67.0614 86.0767C66.8342 85.7737 66.659 85.5227 66.5359 85.3239H66.3938V91.0909H64.7177ZM66.3654 81.5455C66.3654 82.3693 66.4862 83.0961 66.7276 83.7259C66.9691 84.3509 67.3219 84.8409 67.7859 85.196C68.2499 85.5464 68.8181 85.7216 69.4904 85.7216C70.1912 85.7216 70.7759 85.5369 71.2447 85.1676C71.7182 84.7936 72.0733 84.2917 72.31 83.6619C72.5515 83.0275 72.6722 82.322 72.6722 81.5455C72.6722 80.7784 72.5539 80.0871 72.3171 79.4716C72.0851 78.8513 71.7324 78.3613 71.2589 78.0014C70.7901 77.6368 70.2006 77.4545 69.4904 77.4545C68.8086 77.4545 68.2357 77.6274 67.7717 77.973C67.3076 78.3139 66.9573 78.7921 66.7205 79.4077C66.4838 80.0185 66.3654 80.7311 66.3654 81.5455ZM82.7575 87V72.4545H84.5188V85.4375H91.2802V87H82.7575ZM98.354 87.2273C97.3029 87.2273 96.3962 86.9953 95.6339 86.5312C94.8763 86.0625 94.2915 85.4091 93.8796 84.571C93.4724 83.7282 93.2688 82.7481 93.2688 81.6307C93.2688 80.5133 93.4724 79.5284 93.8796 78.6761C94.2915 77.8191 94.8645 77.1515 95.5984 76.6733C96.337 76.1903 97.1987 75.9489 98.1836 75.9489C98.7518 75.9489 99.3129 76.0436 99.8668 76.233C100.421 76.4223 100.925 76.7301 101.38 77.1562C101.834 77.5777 102.196 78.1364 102.466 78.8324C102.736 79.5284 102.871 80.3854 102.871 81.4034V82.1136H94.462V80.6648H101.167C101.167 80.0492 101.043 79.5 100.797 79.017C100.556 78.5341 100.21 78.1529 99.7603 77.8736C99.3152 77.5942 98.7897 77.4545 98.1836 77.4545C97.516 77.4545 96.9383 77.6203 96.4506 77.9517C95.9677 78.2784 95.596 78.7045 95.3356 79.2301C95.0752 79.7557 94.945 80.3191 94.945 80.9205V81.8864C94.945 82.7102 95.087 83.4086 95.3711 83.9815C95.6599 84.5497 96.06 84.983 96.5714 85.2812C97.0827 85.5748 97.677 85.7216 98.354 85.7216C98.7944 85.7216 99.1921 85.66 99.5472 85.5369C99.9071 85.4091 100.217 85.2197 100.478 84.9688C100.738 84.7131 100.939 84.3958 101.081 84.017L102.701 84.4716C102.53 85.0208 102.244 85.5038 101.841 85.9205C101.439 86.3324 100.942 86.6544 100.35 86.8864C99.7579 87.1136 99.0927 87.2273 98.354 87.2273ZM110.279 76.0909V77.5114H104.398V76.0909H110.279ZM106.159 87V74.5852C106.159 73.9602 106.306 73.4394 106.6 73.0227C106.893 72.6061 107.275 72.2936 107.743 72.0852C108.212 71.8769 108.707 71.7727 109.228 71.7727C109.64 71.7727 109.976 71.8059 110.236 71.8722C110.497 71.9384 110.691 72 110.819 72.0568L110.336 73.5057C110.25 73.4773 110.132 73.4418 109.98 73.3991C109.834 73.3565 109.64 73.3352 109.398 73.3352C108.844 73.3352 108.444 73.4749 108.198 73.7543C107.956 74.0336 107.836 74.4432 107.836 74.983V87H106.159ZM117.372 76.0909V77.5114H111.719V76.0909H117.372ZM113.366 73.4773H115.043V83.875C115.043 84.3485 115.111 84.7036 115.249 84.9403C115.391 85.1723 115.571 85.3286 115.788 85.4091C116.011 85.4848 116.245 85.5227 116.491 85.5227C116.676 85.5227 116.828 85.5133 116.946 85.4943C117.064 85.4706 117.159 85.4517 117.23 85.4375L117.571 86.9432C117.457 86.9858 117.299 87.0284 117.095 87.071C116.892 87.1184 116.634 87.142 116.321 87.142C115.848 87.142 115.384 87.0402 114.929 86.8366C114.479 86.633 114.105 86.3229 113.807 85.9062C113.513 85.4896 113.366 84.964 113.366 84.3295V73.4773Z" fill="black"/>
<path d="M40.9659 74.017H40.4659V74.517H40.9659V74.017ZM40.9659 72.4545V71.9545H40.4659V72.4545H40.9659ZM51.875 72.4545H52.375V71.9545H51.875V72.4545ZM51.875 74.017V74.517H52.375V74.017H51.875ZM47.3011 74.017V73.517H46.8011V74.017H47.3011ZM47.3011 87V87.5H47.8011V87H47.3011ZM45.5398 87H45.0398V87.5H45.5398V87ZM45.5398 74.017H46.0398V73.517H45.5398V74.017ZM41.4659 74.017V72.4545H40.4659V74.017H41.4659ZM40.9659 72.9545H51.875V71.9545H40.9659V72.9545ZM51.375 72.4545V74.017H52.375V72.4545H51.375ZM51.875 73.517H47.3011V74.517H51.875V73.517ZM46.8011 74.017V87H47.8011V74.017H46.8011ZM47.3011 86.5H45.5398V87.5H47.3011V86.5ZM46.0398 87V74.017H45.0398V87H46.0398ZM45.5398 73.517H40.9659V74.517H45.5398V73.517ZM54.6236 86.5241L54.3557 86.9463L54.3569 86.9471L54.6236 86.5241ZM52.8906 84.5568L52.4414 84.7764L52.4424 84.7784L52.8906 84.5568ZM52.8906 78.6264L52.4419 78.4058L52.4409 78.4079L52.8906 78.6264ZM54.6236 76.652L54.3569 76.2291L54.3557 76.2298L54.6236 76.652ZM59.8011 76.652L59.5332 77.0742L59.5344 77.0749L59.8011 76.652ZM61.5341 78.6264L61.0844 78.845L61.0854 78.847L61.5341 78.6264ZM61.5341 84.5568L61.0859 84.3352L61.0849 84.3373L61.5341 84.5568ZM59.8011 86.5241L59.5344 86.1012L59.5332 86.102L59.8011 86.5241ZM59.0625 85.1463L58.7516 84.7548L58.7516 84.7548L59.0625 85.1463ZM60.1349 83.6335L60.6037 83.8075L60.6037 83.8075L60.1349 83.6335ZM60.1349 79.5639L60.6041 79.3911L60.6041 79.3911L60.1349 79.5639ZM59.0625 78.0369L59.3758 77.6472L59.3758 77.6472L59.0625 78.0369ZM55.3693 78.0369L55.056 77.6472L55.056 77.6472L55.3693 78.0369ZM54.2969 79.5639L53.8277 79.3911L53.8277 79.3911L54.2969 79.5639ZM54.2969 83.6335L53.8281 83.8075L53.8281 83.8075L54.2969 83.6335ZM55.3693 85.1463L55.6803 84.7548L55.6803 84.7548L55.3693 85.1463ZM57.2159 86.7273C56.3137 86.7273 55.5444 86.5137 54.8903 86.1012L54.3569 86.9471C55.1895 87.4721 56.1484 87.7273 57.2159 87.7273V86.7273ZM54.8915 86.102C54.236 85.686 53.7181 85.1023 53.3388 84.3352L52.4424 84.7784C52.8965 85.697 53.5339 86.4248 54.3557 86.9463L54.8915 86.102ZM53.3398 84.3373C52.9674 83.5752 52.7727 82.6682 52.7727 81.6023H51.7727C51.7727 82.7901 51.99 83.8528 52.4414 84.7764L53.3398 84.3373ZM52.7727 81.6023C52.7727 80.5263 52.9676 79.6118 53.3403 78.845L52.4409 78.4079C51.9898 79.3361 51.7727 80.4056 51.7727 81.6023H52.7727ZM53.3393 78.847C53.7188 78.0752 54.2367 77.4897 54.8915 77.0742L54.3557 76.2298C53.5332 76.7518 52.8958 77.4826 52.4419 78.4058L53.3393 78.847ZM54.8903 77.0749C55.5444 76.6624 56.3137 76.4489 57.2159 76.4489V75.4489C56.1484 75.4489 55.1895 75.704 54.3569 76.2291L54.8903 77.0749ZM57.2159 76.4489C58.1182 76.4489 58.8845 76.6624 59.5332 77.0742L60.069 76.2298C59.2405 75.704 58.2834 75.4489 57.2159 75.4489V76.4489ZM59.5344 77.0749C60.1932 77.4903 60.7101 78.075 61.0844 78.845L61.9838 78.4079C61.5342 77.4828 60.8958 76.7511 60.0678 76.2291L59.5344 77.0749ZM61.0854 78.847C61.4621 79.6133 61.6591 80.527 61.6591 81.6023H62.6591C62.6591 80.4048 62.4394 79.3346 61.9828 78.4058L61.0854 78.847ZM61.6591 81.6023C61.6591 82.6674 61.4624 83.5737 61.0859 84.3352L61.9823 84.7784C62.4392 83.8543 62.6591 82.7909 62.6591 81.6023H61.6591ZM61.0849 84.3373C60.7109 85.1025 60.1939 85.6854 59.5344 86.1012L60.0678 86.9471C60.8951 86.4254 61.5335 85.6967 61.9833 84.7764L61.0849 84.3373ZM59.5332 86.102C58.8845 86.5137 58.1182 86.7273 57.2159 86.7273V87.7273C58.2834 87.7273 59.2405 87.4721 60.069 86.9463L59.5332 86.102ZM57.2159 86.2216C58.0521 86.2216 58.7844 86.0056 59.3734 85.5379L58.7516 84.7548C58.3747 85.054 57.8759 85.2216 57.2159 85.2216V86.2216ZM59.3734 85.5379C59.9336 85.093 60.3426 84.5109 60.6037 83.8075L59.6662 83.4595C59.4633 84.0061 59.1573 84.4326 58.7516 84.7548L59.3734 85.5379ZM60.6037 83.8075C60.8582 83.1219 60.983 82.3853 60.983 81.6023H59.983C59.983 82.2776 59.8757 82.8952 59.6662 83.4595L60.6037 83.8075ZM60.983 81.6023C60.983 80.8192 60.8582 80.0808 60.6041 79.3911L59.6658 79.7368C59.8757 80.3066 59.983 80.927 59.983 81.6023H60.983ZM60.6041 79.3911C60.3435 78.6836 59.9352 78.097 59.3758 77.6472L58.7492 78.4266C59.1557 78.7534 59.4624 79.1848 59.6658 79.7368L60.6041 79.3911ZM59.3758 77.6472C58.7867 77.1736 58.0535 76.9545 57.2159 76.9545V77.9545C57.8745 77.9545 58.3724 78.1237 58.7492 78.4266L59.3758 77.6472ZM57.2159 76.9545C56.3783 76.9545 55.6452 77.1736 55.056 77.6472L55.6826 78.4266C56.0594 78.1237 56.5573 77.9545 57.2159 77.9545V76.9545ZM55.056 77.6472C54.4966 78.097 54.0884 78.6836 53.8277 79.3911L54.766 79.7368C54.9694 79.1848 55.2761 78.7534 55.6826 78.4266L55.056 77.6472ZM53.8277 79.3911C53.5736 80.0808 53.4489 80.8192 53.4489 81.6023H54.4489C54.4489 80.927 54.5561 80.3066 54.766 79.7368L53.8277 79.3911ZM53.4489 81.6023C53.4489 82.3853 53.5736 83.1219 53.8281 83.8075L54.7656 83.4595C54.5561 82.8952 54.4489 82.2776 54.4489 81.6023H53.4489ZM53.8281 83.8075C54.0892 84.5109 54.4982 85.093 55.0584 85.5379L55.6803 84.7548C55.2745 84.4326 54.9685 84.0061 54.7656 83.4595L53.8281 83.8075ZM55.0584 85.5379C55.6474 86.0056 56.3797 86.2216 57.2159 86.2216V85.2216C56.5559 85.2216 56.0571 85.054 55.6803 84.7548L55.0584 85.5379ZM64.7177 91.0909H64.2177V91.5909H64.7177V91.0909ZM64.7177 76.0909V75.5909H64.2177V76.0909H64.7177ZM66.337 76.0909H66.837V75.5909H66.337V76.0909ZM66.337 77.8239H65.837V78.3239H66.337V77.8239ZM66.5359 77.8239V78.3239H66.8072L66.9551 78.0964L66.5359 77.8239ZM67.0472 77.0994L66.6465 76.8004L66.6457 76.8015L67.0472 77.0994ZM67.9989 76.304L68.2443 76.7396L68.2459 76.7387L67.9989 76.304ZM72.1183 76.6378L72.3923 76.2196L72.3923 76.2196L72.1183 76.6378ZM73.7589 78.5909L74.212 78.3796L74.212 78.3796L73.7589 78.5909ZM73.7589 84.5781L74.212 84.7894L74.2125 84.7885L73.7589 84.5781ZM72.1254 86.5384L72.4007 86.9557L72.4027 86.9544L72.1254 86.5384ZM68.0344 86.8793L67.7895 87.3152L67.7933 87.3173L68.0344 86.8793ZM67.0614 86.0767L66.6614 86.3767L66.6637 86.3797L67.0614 86.0767ZM66.5359 85.3239L66.961 85.0607L66.8144 84.8239H66.5359V85.3239ZM66.3938 85.3239V84.8239H65.8938V85.3239H66.3938ZM66.3938 91.0909V91.5909H66.8938V91.0909H66.3938ZM66.7276 83.7259L66.2608 83.9049L66.2612 83.9061L66.7276 83.7259ZM67.7859 85.196L67.482 85.5931L67.4846 85.595L67.7859 85.196ZM71.2447 85.1676L71.5541 85.5604L71.5546 85.56L71.2447 85.1676ZM72.31 83.6619L71.8427 83.4841L71.842 83.486L72.31 83.6619ZM72.3171 79.4716L71.8488 79.6468L71.8504 79.6511L72.3171 79.4716ZM71.2589 78.0014L70.9519 78.3961L70.9563 78.3995L71.2589 78.0014ZM67.7717 77.973L68.0677 78.376L68.0704 78.374L67.7717 77.973ZM66.7205 79.4077L67.1867 79.5884L67.1872 79.5872L66.7205 79.4077ZM65.2177 91.0909V76.0909H64.2177V91.0909H65.2177ZM64.7177 76.5909H66.337V75.5909H64.7177V76.5909ZM65.837 76.0909V77.8239H66.837V76.0909H65.837ZM66.337 78.3239H66.5359V77.3239H66.337V78.3239ZM66.9551 78.0964C67.0702 77.9192 67.2339 77.687 67.4488 77.3974L66.6457 76.8015C66.425 77.099 66.2477 77.3497 66.1166 77.5514L66.9551 78.0964ZM67.448 77.3984C67.6192 77.1689 67.8773 76.9463 68.2443 76.7396L67.7536 75.8683C67.2967 76.1256 66.9204 76.4333 66.6465 76.8004L67.448 77.3984ZM68.2459 76.7387C68.5596 76.5605 69.0269 76.4489 69.6893 76.4489V75.4489C68.9312 75.4489 68.2716 75.574 67.7519 75.8692L68.2459 76.7387ZM69.6893 76.4489C70.5202 76.4489 71.2327 76.6552 71.8442 77.056L72.3923 76.2196C71.6023 75.7018 70.6955 75.4489 69.6893 75.4489V76.4489ZM71.8442 77.056C72.4588 77.4588 72.9476 78.0341 73.3057 78.8022L74.212 78.3796C73.7842 77.4621 73.1792 76.7353 72.3923 76.2196L71.8442 77.056ZM73.3057 78.8022C73.6616 79.5653 73.8484 80.4845 73.8484 81.5739H74.8484C74.8484 80.3716 74.6422 79.3021 74.212 78.3796L73.3057 78.8022ZM73.8484 81.5739C73.8484 82.6733 73.6614 83.5998 73.3053 84.3678L74.2125 84.7885C74.6424 83.8613 74.8484 82.785 74.8484 81.5739H73.8484ZM73.3057 84.3668C72.947 85.1361 72.4595 85.7147 71.848 86.1223L72.4027 86.9544C73.1833 86.434 73.7848 85.7058 74.212 84.7894L73.3057 84.3668ZM71.85 86.121C71.243 86.5215 70.5381 86.7273 69.7177 86.7273V87.7273C70.7155 87.7273 71.6156 87.4737 72.4007 86.9557L71.85 86.121ZM69.7177 86.7273C69.0653 86.7273 68.597 86.6182 68.2756 86.4413L67.7933 87.3173C68.3147 87.6043 68.9685 87.7273 69.7177 87.7273V86.7273ZM68.2793 86.4433C67.9009 86.2308 67.635 86.0045 67.4592 85.7737L66.6637 86.3797C66.9424 86.7455 67.3251 87.0543 67.7895 87.3152L68.2793 86.4433ZM67.4614 85.7767C67.2384 85.4793 67.073 85.2416 66.961 85.0607L66.1107 85.587C66.2449 85.8038 66.43 86.0681 66.6614 86.3767L67.4614 85.7767ZM66.5359 84.8239H66.3938V85.8239H66.5359V84.8239ZM65.8938 85.3239V91.0909H66.8938V85.3239H65.8938ZM66.3938 90.5909H64.7177V91.5909H66.3938V90.5909ZM65.8654 81.5455C65.8654 82.4174 65.9931 83.2069 66.2608 83.9049L67.1945 83.5468C66.9792 82.9853 66.8654 82.3213 66.8654 81.5455H65.8654ZM66.2612 83.9061C66.5309 84.6041 66.9347 85.1742 67.482 85.5931L68.0897 84.799C67.7091 84.5076 67.4073 84.0976 67.194 83.5457L66.2612 83.9061ZM67.4846 85.595C68.0485 86.0209 68.727 86.2216 69.4904 86.2216V85.2216C68.9091 85.2216 68.4513 85.0719 68.0872 84.797L67.4846 85.595ZM69.4904 86.2216C70.2831 86.2216 70.9824 86.0108 71.5541 85.5604L70.9352 84.7749C70.5694 85.0631 70.0993 85.2216 69.4904 85.2216V86.2216ZM71.5546 85.56C72.1075 85.1232 72.5131 84.5427 72.778 83.8379L71.842 83.486C71.6335 84.0406 71.3288 84.4639 70.9347 84.7753L71.5546 85.56ZM72.7773 83.8398C73.0433 83.141 73.1722 82.3741 73.1722 81.5455H72.1722C72.1722 82.2698 72.0597 82.914 71.8427 83.4841L72.7773 83.8398ZM73.1722 81.5455C73.1722 80.7269 73.0458 79.9734 72.7838 79.2921L71.8504 79.6511C72.0619 80.2008 72.1722 80.8299 72.1722 81.5455H73.1722ZM72.7854 79.2964C72.5242 78.5981 72.1185 78.0267 71.5614 77.6033L70.9563 78.3995C71.3463 78.6958 71.646 79.1046 71.8488 79.6468L72.7854 79.2964ZM71.5658 77.6067C70.9931 77.1612 70.2893 76.9545 69.4904 76.9545V77.9545C70.112 77.9545 70.5872 78.1124 70.9519 78.3961L71.5658 77.6067ZM69.4904 76.9545C68.7208 76.9545 68.038 77.1512 67.473 77.572L68.0704 78.374C68.4334 78.1036 68.8964 77.9545 69.4904 77.9545V76.9545ZM67.4756 77.5701C66.9238 77.9755 66.5198 78.5367 66.2539 79.2282L67.1872 79.5872C67.3947 79.0476 67.6915 78.6523 68.0677 78.376L67.4756 77.5701ZM66.2543 79.227C65.9905 79.9075 65.8654 80.6838 65.8654 81.5455H66.8654C66.8654 80.7784 66.977 80.1294 67.1867 79.5884L66.2543 79.227ZM82.7575 87H82.2575V87.5H82.7575V87ZM82.7575 72.4545V71.9545H82.2575V72.4545H82.7575ZM84.5188 72.4545H85.0188V71.9545H84.5188V72.4545ZM84.5188 85.4375H84.0188V85.9375H84.5188V85.4375ZM91.2802 85.4375H91.7802V84.9375H91.2802V85.4375ZM91.2802 87V87.5H91.7802V87H91.2802ZM83.2575 87V72.4545H82.2575V87H83.2575ZM82.7575 72.9545H84.5188V71.9545H82.7575V72.9545ZM84.0188 72.4545V85.4375H85.0188V72.4545H84.0188ZM84.5188 85.9375H91.2802V84.9375H84.5188V85.9375ZM90.7802 85.4375V87H91.7802V85.4375H90.7802ZM91.2802 86.5H82.7575V87.5H91.2802V86.5ZM95.6339 86.5312L95.3708 86.9565L95.3739 86.9583L95.6339 86.5312ZM93.8796 84.571L93.4294 84.7885L93.4309 84.7916L93.8796 84.571ZM93.8796 78.6761L93.429 78.4595L93.4285 78.4606L93.8796 78.6761ZM95.5984 76.6733L95.8713 77.0922L95.872 77.0918L95.5984 76.6733ZM99.8668 76.233L100.029 75.7598L100.029 75.7598L99.8668 76.233ZM101.38 77.1562L101.038 77.521L101.04 77.5229L101.38 77.1562ZM102.466 78.8324L102.932 78.6516L102.932 78.6516L102.466 78.8324ZM102.871 82.1136V82.6136H103.371V82.1136H102.871ZM94.462 82.1136H93.962V82.6136H94.462V82.1136ZM94.462 80.6648V80.1648H93.962V80.6648H94.462ZM101.167 80.6648V81.1648H101.667V80.6648H101.167ZM100.797 79.017L100.35 79.2407L100.352 79.2441L100.797 79.017ZM99.7603 77.8736L99.4945 78.2971L99.4965 78.2983L99.7603 77.8736ZM96.4506 77.9517L96.7308 78.3658L96.7317 78.3652L96.4506 77.9517ZM95.3356 79.2301L94.8876 79.0081L94.8876 79.0081L95.3356 79.2301ZM95.3711 83.9815L94.9231 84.2037L94.9254 84.2081L95.3711 83.9815ZM96.5714 85.2812L96.3194 85.7131L96.3224 85.7149L96.5714 85.2812ZM99.5472 85.5369L99.711 86.0094L99.7146 86.0081L99.5472 85.5369ZM100.478 84.9688L100.825 85.3288L100.828 85.3255L100.478 84.9688ZM101.081 84.017L101.216 83.5357L100.774 83.4116L100.613 83.8415L101.081 84.017ZM102.701 84.4716L103.178 84.6198L103.33 84.1291L102.836 83.9902L102.701 84.4716ZM101.841 85.9205L102.199 86.2699L102.201 86.2678L101.841 85.9205ZM100.35 86.8864L100.529 87.3531L100.532 87.3519L100.35 86.8864ZM98.354 86.7273C97.3781 86.7273 96.5648 86.5126 95.8939 86.1042L95.3739 86.9583C96.2275 87.478 97.2277 87.7273 98.354 87.7273V86.7273ZM95.897 86.1061C95.2232 85.6892 94.7009 85.1085 94.3283 84.3505L93.4309 84.7916C93.8822 85.7097 94.5294 86.4358 95.3708 86.9564L95.897 86.1061ZM94.3298 84.3535C93.9611 83.5904 93.7688 82.6872 93.7688 81.6307H92.7688C92.7688 82.809 92.9837 83.866 93.4294 84.7885L94.3298 84.3535ZM93.7688 81.6307C93.7688 80.5743 93.9611 79.6654 94.3308 78.8917L93.4285 78.4606C92.9837 79.3914 92.7688 80.4522 92.7688 81.6307H93.7688ZM94.3303 78.8927C94.7061 78.1109 95.2206 77.5163 95.8713 77.0922L95.3254 76.2544C94.5084 76.7868 93.877 77.5274 93.429 78.4595L94.3303 78.8927ZM95.872 77.0918C96.52 76.6681 97.2843 76.4489 98.1836 76.4489V75.4489C97.1132 75.4489 96.154 75.7126 95.3247 76.2548L95.872 77.0918ZM98.1836 76.4489C98.6951 76.4489 99.2016 76.5339 99.7051 76.7061L100.029 75.7598C99.4241 75.5532 98.8085 75.4489 98.1836 75.4489V76.4489ZM99.7051 76.7061C100.188 76.8711 100.631 77.1402 101.038 77.521L101.722 76.7915C101.219 76.32 100.654 75.9736 100.029 75.7598L99.7051 76.7061ZM101.04 77.5229C101.428 77.8833 101.752 78.3736 102 79.0132L102.932 78.6516C102.641 77.8991 102.24 77.2721 101.72 76.7896L101.04 77.5229ZM102 79.0131C102.241 79.6347 102.371 80.4262 102.371 81.4034H103.371C103.371 80.3446 103.231 79.4221 102.932 78.6516L102 79.0131ZM102.371 81.4034V82.1136H103.371V81.4034H102.371ZM102.871 81.6136H94.462V82.6136H102.871V81.6136ZM94.962 82.1136V80.6648H93.962V82.1136H94.962ZM94.462 81.1648H101.167V80.1648H94.462V81.1648ZM101.667 80.6648C101.667 79.9811 101.529 79.3522 101.243 78.79L100.352 79.2441C100.558 79.6478 100.667 80.1174 100.667 80.6648H101.667ZM101.244 78.7934C100.962 78.2295 100.554 77.778 100.024 77.4488L99.4965 78.2983C99.8661 78.5279 100.149 78.8387 100.35 79.2407L101.244 78.7934ZM100.026 77.4501C99.4898 77.1135 98.869 76.9545 98.1836 76.9545V77.9545C98.7103 77.9545 99.1407 78.075 99.4945 78.2971L100.026 77.4501ZM98.1836 76.9545C97.4295 76.9545 96.7508 77.1431 96.1696 77.5382L96.7317 78.3652C97.1258 78.0974 97.6025 77.9545 98.1836 77.9545V76.9545ZM96.1705 77.5376C95.6155 77.913 95.1861 78.4055 94.8876 79.0081L95.7836 79.4521C96.0059 79.0035 96.3199 78.6438 96.7308 78.3658L96.1705 77.5376ZM94.8876 79.0081C94.5921 79.6045 94.445 80.2441 94.445 80.9205H95.445C95.445 80.3941 95.5583 79.9069 95.7836 79.4521L94.8876 79.0081ZM94.445 80.9205V81.8864H95.445V80.9205H94.445ZM94.445 81.8864C94.445 82.7658 94.5964 83.5447 94.9231 84.2037L95.819 83.7594C95.5776 83.2725 95.445 82.6546 95.445 81.8864H94.445ZM94.9254 84.2081C95.2542 84.8551 95.7187 85.3627 96.3194 85.7131L96.8233 84.8494C96.4013 84.6032 96.0656 84.2444 95.8168 83.755L94.9254 84.2081ZM96.3224 85.7149C96.9202 86.058 97.6028 86.2216 98.354 86.2216V85.2216C97.7512 85.2216 97.2453 85.0916 96.8203 84.8476L96.3224 85.7149ZM98.354 86.2216C98.8408 86.2216 99.2951 86.1535 99.711 86.0093L99.3835 85.0645C99.0892 85.1665 98.748 85.2216 98.354 85.2216V86.2216ZM99.7146 86.0081C100.138 85.8578 100.51 85.6319 100.825 85.3288L100.131 84.6087C99.9244 84.8075 99.6764 84.9604 99.3798 85.0658L99.7146 86.0081ZM100.828 85.3255C101.146 85.0135 101.385 84.6322 101.549 84.1926L100.613 83.8415C100.494 84.1595 100.33 84.4127 100.127 84.612L100.828 85.3255ZM100.946 84.4984L102.566 84.953L102.836 83.9902L101.216 83.5357L100.946 84.4984ZM102.223 84.3234C102.076 84.7974 101.83 85.2122 101.482 85.5731L102.201 86.2678C102.657 85.7953 102.984 85.2443 103.178 84.6198L102.223 84.3234ZM101.484 85.571C101.136 85.9273 100.7 86.212 100.167 86.4209L100.532 87.3519C101.183 87.0967 101.742 86.7375 102.199 86.2699L101.484 85.571ZM100.171 86.4196C99.6445 86.6216 99.0414 86.7273 98.354 86.7273V87.7273C99.144 87.7273 99.8714 87.6057 100.529 87.3531L100.171 86.4196ZM110.279 76.0909H110.779V75.5909H110.279V76.0909ZM110.279 77.5114V78.0114H110.779V77.5114H110.279ZM104.398 77.5114H103.898V78.0114H104.398V77.5114ZM104.398 76.0909V75.5909H103.898V76.0909H104.398ZM106.159 87H105.659V87.5H106.159V87ZM106.6 73.0227L106.191 72.7347L106.191 72.7347L106.6 73.0227ZM107.743 72.0852L107.54 71.6283L107.54 71.6283L107.743 72.0852ZM110.236 71.8722L110.113 72.3567L110.113 72.3567L110.236 71.8722ZM110.819 72.0568L111.293 72.2149L111.436 71.7843L111.022 71.5999L110.819 72.0568ZM110.336 73.5057L110.177 73.98L110.652 74.1381L110.81 73.6638L110.336 73.5057ZM109.98 73.3991L109.841 73.8793L109.845 73.8805L109.98 73.3991ZM108.198 73.7543L107.823 73.4236L107.82 73.4273L108.198 73.7543ZM107.836 87V87.5H108.336V87H107.836ZM109.779 76.0909V77.5114H110.779V76.0909H109.779ZM110.279 77.0114H104.398V78.0114H110.279V77.0114ZM104.898 77.5114V76.0909H103.898V77.5114H104.898ZM104.398 76.5909H110.279V75.5909H104.398V76.5909ZM106.659 87V74.5852H105.659V87H106.659ZM106.659 74.5852C106.659 74.0397 106.787 73.6256 107.009 73.3107L106.191 72.7347C105.826 73.2532 105.659 73.8808 105.659 74.5852H106.659ZM107.009 73.3107C107.25 72.9684 107.56 72.714 107.946 72.5421L107.54 71.6283C106.989 71.8731 106.537 72.2437 106.191 72.7347L107.009 73.3107ZM107.946 72.5421C108.35 72.3627 108.776 72.2727 109.228 72.2727V71.2727C108.638 71.2727 108.074 71.3911 107.54 71.6283L107.946 72.5421ZM109.228 72.2727C109.618 72.2727 109.908 72.3046 110.113 72.3567L110.359 71.3876C110.043 71.3072 109.662 71.2727 109.228 71.2727V72.2727ZM110.113 72.3567C110.366 72.4211 110.527 72.4745 110.615 72.5137L111.022 71.5999C110.854 71.5255 110.627 71.4557 110.359 71.3876L110.113 72.3567ZM110.344 71.8987L109.861 73.3476L110.81 73.6638L111.293 72.2149L110.344 71.8987ZM110.494 73.0313C110.397 72.9992 110.27 72.9612 110.116 72.9178L109.845 73.8805C109.994 73.9223 110.103 73.9553 110.177 73.98L110.494 73.0313ZM110.12 72.919C109.909 72.8579 109.663 72.8352 109.398 72.8352V73.8352C109.616 73.8352 109.758 73.8552 109.841 73.8793L110.12 72.919ZM109.398 72.8352C108.771 72.8352 108.202 72.9929 107.823 73.4237L108.573 74.0849C108.686 73.9569 108.917 73.8352 109.398 73.8352V72.8352ZM107.82 73.4273C107.47 73.8315 107.336 74.3773 107.336 74.983H108.336C108.336 74.5091 108.442 74.2358 108.576 74.0812L107.82 73.4273ZM107.336 74.983V87H108.336V74.983H107.336ZM107.836 86.5H106.159V87.5H107.836V86.5ZM117.372 76.0909H117.872V75.5909H117.372V76.0909ZM117.372 77.5114V78.0114H117.872V77.5114H117.372ZM111.719 77.5114H111.219V78.0114H111.719V77.5114ZM111.719 76.0909V75.5909H111.219V76.0909H111.719ZM113.366 73.4773V72.9773H112.866V73.4773H113.366ZM115.043 73.4773H115.543V72.9773H115.043V73.4773ZM115.249 84.9403L114.816 85.1913L114.822 85.2014L115.249 84.9403ZM115.788 85.4091L115.615 85.8782L115.627 85.8824L115.788 85.4091ZM116.946 85.4943L117.025 85.988L117.035 85.9865L117.044 85.9846L116.946 85.4943ZM117.23 85.4375L117.718 85.3271L117.61 84.8516L117.132 84.9472L117.23 85.4375ZM117.571 86.9432L117.747 87.4113L118.155 87.2582L118.059 86.8328L117.571 86.9432ZM117.095 87.071L116.993 86.5815L116.982 86.584L117.095 87.071ZM114.929 86.8366L114.723 87.2922L114.725 87.293L114.929 86.8366ZM113.807 85.9062L113.398 86.1942L113.4 86.1973L113.807 85.9062ZM116.872 76.0909V77.5114H117.872V76.0909H116.872ZM117.372 77.0114H111.719V78.0114H117.372V77.0114ZM112.219 77.5114V76.0909H111.219V77.5114H112.219ZM111.719 76.5909H117.372V75.5909H111.719V76.5909ZM113.366 73.9773H115.043V72.9773H113.366V73.9773ZM114.543 73.4773V83.875H115.543V73.4773H114.543ZM114.543 83.875C114.543 84.3804 114.613 84.8411 114.816 85.1912L115.681 84.6895C115.61 84.5661 115.543 84.3165 115.543 83.875H114.543ZM114.822 85.2014C115.012 85.5121 115.275 85.7522 115.615 85.8781L115.962 84.9401C115.867 84.905 115.769 84.8326 115.675 84.6793L114.822 85.2014ZM115.627 85.8824C115.904 85.9767 116.193 86.0227 116.491 86.0227V85.0227C116.297 85.0227 116.118 84.993 115.949 84.9358L115.627 85.8824ZM116.491 86.0227C116.69 86.0227 116.871 86.0128 117.025 85.988L116.867 85.0006C116.785 85.0138 116.662 85.0227 116.491 85.0227V86.0227ZM117.044 85.9846C117.162 85.9609 117.257 85.942 117.328 85.9278L117.132 84.9472C117.061 84.9614 116.966 84.9804 116.848 85.004L117.044 85.9846ZM116.742 85.5479L117.083 87.0536L118.059 86.8328L117.718 85.3271L116.742 85.5479ZM117.395 86.475C117.317 86.5046 117.186 86.5411 116.993 86.5816L117.198 87.5604C117.411 87.5157 117.598 87.467 117.747 87.4113L117.395 86.475ZM116.982 86.584C116.829 86.6196 116.612 86.642 116.321 86.642V87.642C116.655 87.642 116.954 87.6171 117.208 87.558L116.982 86.584ZM116.321 86.642C115.922 86.642 115.527 86.5567 115.133 86.3803L114.725 87.293C115.24 87.5238 115.773 87.642 116.321 87.642V86.642ZM115.135 86.3811C114.769 86.2152 114.463 85.9632 114.213 85.6152L113.4 86.1973C113.748 86.6826 114.19 87.0509 114.723 87.2922L115.135 86.3811ZM114.216 85.6183C113.995 85.3046 113.866 84.8864 113.866 84.3295H112.866C112.866 85.0417 113.032 85.6746 113.398 86.1942L114.216 85.6183ZM113.866 84.3295V73.4773H112.866V84.3295H113.866Z" fill="black"/>
</svg>
