<svg width="144" height="144" viewBox="0 0 144 144" fill="none" xmlns="http://www.w3.org/2000/svg">
<ellipse cx="62" cy="81.4605" rx="4" ry="3.97368" fill="#C83434"/>
<ellipse cx="82" cy="81.4605" rx="4" ry="3.97368" fill="#C83434"/>
<ellipse cx="102" cy="81.4605" rx="4" ry="3.97368" fill="#C83434"/>
<ellipse cx="122" cy="81.4605" rx="4" ry="3.97368" fill="#C83434"/>
<ellipse cx="42" cy="81.4605" rx="4" ry="3.97368" fill="#C83434"/>
<ellipse cx="22" cy="81.4605" rx="4" ry="3.97368" fill="#C83434"/>
<ellipse cx="62" cy="61.5921" rx="4" ry="3.97368" fill="#C83434"/>
<ellipse cx="82" cy="61.5921" rx="4" ry="3.97368" fill="#C83434"/>
<ellipse cx="102" cy="61.5921" rx="4" ry="3.97368" fill="#C83434"/>
<ellipse cx="122" cy="61.5921" rx="4" ry="3.97368" fill="#C83434"/>
<ellipse cx="42" cy="61.5921" rx="4" ry="3.97368" fill="#C83434"/>
<ellipse cx="22" cy="61.5921" rx="4" ry="3.97368" fill="#C83434"/>
<ellipse cx="62" cy="41.7237" rx="4" ry="3.97368" fill="#C83434"/>
<ellipse cx="82" cy="41.7237" rx="4" ry="3.97368" fill="#C83434"/>
<ellipse cx="102" cy="41.7237" rx="4" ry="3.97368" fill="#C83434"/>
<ellipse cx="122" cy="41.7237" rx="4" ry="3.97368" fill="#C83434"/>
<ellipse cx="42" cy="41.7237" rx="4" ry="3.97368" fill="#C83434"/>
<ellipse cx="22" cy="41.7237" rx="4" ry="3.97368" fill="#C83434"/>
<ellipse cx="62" cy="21.8553" rx="4" ry="3.97368" fill="#C83434"/>
<ellipse cx="82" cy="21.8553" rx="4" ry="3.97368" fill="#C83434"/>
<ellipse cx="102" cy="21.8553" rx="4" ry="3.97368" fill="#C83434"/>
<ellipse cx="122" cy="21.8553" rx="4" ry="3.97368" fill="#C83434"/>
<ellipse cx="42" cy="21.8553" rx="4" ry="3.97368" fill="#C83434"/>
<ellipse cx="22" cy="21.8553" rx="4" ry="3.97368" fill="#C83434"/>
<ellipse cx="62" cy="101.329" rx="4" ry="3.97368" fill="#C83434"/>
<ellipse cx="82" cy="101.329" rx="4" ry="3.97368" fill="#C83434"/>
<ellipse cx="102" cy="101.329" rx="4" ry="3.97368" fill="#C83434"/>
<ellipse cx="122" cy="101.329" rx="4" ry="3.97368" fill="#C83434"/>
<ellipse cx="42" cy="101.329" rx="4" ry="3.97368" fill="#C83434"/>
<ellipse cx="22" cy="101.329" rx="4" ry="3.97368" fill="#C83434"/>
<ellipse cx="62" cy="121.197" rx="4" ry="3.97368" fill="#C83434"/>
<ellipse cx="82" cy="121.197" rx="4" ry="3.97368" fill="#C83434"/>
<ellipse cx="102" cy="121.197" rx="4" ry="3.97368" fill="#C83434"/>
<ellipse cx="122" cy="121.197" rx="4" ry="3.97368" fill="#C83434"/>
<ellipse cx="42" cy="121.197" rx="4" ry="3.97368" fill="#C83434"/>
<ellipse cx="22" cy="121.197" rx="4" ry="3.97368" fill="#C83434"/>
<rect width="3.98686" height="9.96716" transform="matrix(0.709437 -0.704769 -0.709437 -0.704769 19.1213 21.8054)" fill="#C83434"/>
<rect width="3.98686" height="9.96716" transform="matrix(0.709437 -0.704769 -0.709437 -0.704769 39.1213 21.8054)" fill="#C83434"/>
<rect width="3.98686" height="9.96716" transform="matrix(0.709437 -0.704769 -0.709437 -0.704769 59.1213 21.8054)" fill="#C83434"/>
<rect width="3.98686" height="9.96716" transform="matrix(0.709437 -0.704769 -0.709437 -0.704769 19.1213 41.6738)" fill="#C83434"/>
<rect width="3.98686" height="9.96716" transform="matrix(0.709437 -0.704769 -0.709437 -0.704769 39.1213 41.6738)" fill="#C83434"/>
<rect width="3.98686" height="9.96716" transform="matrix(0.709437 -0.704769 -0.709437 -0.704769 59.1213 41.6738)" fill="#C83434"/>
<rect width="3.98686" height="9.96716" transform="matrix(0.709437 -0.704769 -0.709437 -0.704769 19.1213 61.5422)" fill="#C83434"/>
<rect width="3.98686" height="9.96716" transform="matrix(0.709437 -0.704769 -0.709437 -0.704769 39.1213 61.5422)" fill="#C83434"/>
<rect width="3.98686" height="9.96716" transform="matrix(0.709437 -0.704769 -0.709437 -0.704769 59.1213 61.5422)" fill="#C83434"/>
<rect width="3.98686" height="9.96716" transform="matrix(0.709437 -0.704769 -0.709437 -0.704769 79.1213 21.8054)" fill="#C83434"/>
<rect width="3.98686" height="9.96716" transform="matrix(0.709437 -0.704769 -0.709437 -0.704769 99.1213 21.8054)" fill="#C83434"/>
<rect width="3.98686" height="9.96716" transform="matrix(0.709437 -0.704769 -0.709437 -0.704769 119.121 21.8054)" fill="#C83434"/>
<path d="M79.1213 41.6738L81.9498 38.8639L74.8787 31.8394L72.0503 34.6492L79.1213 41.6738Z" fill="#C83434"/>
<path d="M99.1213 41.6738L101.95 38.8639L94.8787 31.8394L92.0503 34.6492L99.1213 41.6738Z" fill="#C83434"/>
<path d="M119.121 41.6738L121.95 38.8639L114.879 31.8394L112.05 34.6492L119.121 41.6738Z" fill="#C83434"/>
<rect width="3.98686" height="9.96716" transform="matrix(0.709437 -0.704769 -0.709437 -0.704769 79.1213 61.5422)" fill="#C83434"/>
<path d="M99.6213 61.5422L102.45 58.7324L95.3787 51.7078L92.5503 54.5176L99.6213 61.5422Z" fill="#C83434"/>
<rect width="3.98686" height="9.96716" transform="matrix(0.709437 -0.704769 -0.709437 -0.704769 119.121 61.5422)" fill="#C83434"/>
<rect width="3.98686" height="9.96716" transform="matrix(0.709437 -0.704769 -0.709437 -0.704769 19.1213 81.4106)" fill="#C83434"/>
<rect width="3.98686" height="9.96716" transform="matrix(0.709437 -0.704769 -0.709437 -0.704769 39.1213 81.4106)" fill="#C83434"/>
<path d="M59.1213 81.4106L61.9498 78.6008L54.8787 71.5763L52.0503 74.3861L59.1213 81.4106Z" fill="#C83434"/>
<rect width="3.98686" height="9.96716" transform="matrix(0.709437 -0.704769 -0.709437 -0.704769 19.1213 101.279)" fill="#C83434"/>
<rect width="3.98686" height="9.96716" transform="matrix(0.709437 -0.704769 -0.709437 -0.704769 39.1213 101.279)" fill="#C83434"/>
<rect width="3.98686" height="9.96716" transform="matrix(0.709437 -0.704769 -0.709437 -0.704769 59.1213 101.279)" fill="#C83434"/>
<rect width="3.98686" height="9.96716" transform="matrix(0.709437 -0.704769 -0.709437 -0.704769 19.1213 121.147)" fill="#C83434"/>
<rect width="3.98686" height="9.96716" transform="matrix(0.709437 -0.704769 -0.709437 -0.704769 39.1213 121.147)" fill="#C83434"/>
<rect width="3.98686" height="9.96716" transform="matrix(0.709437 -0.704769 -0.709437 -0.704769 59.1213 121.147)" fill="#C83434"/>
<rect width="3.98686" height="9.96716" transform="matrix(0.709437 -0.704769 -0.709437 -0.704769 79.1213 121.147)" fill="#C83434"/>
<rect width="3.98686" height="9.96716" transform="matrix(0.709437 -0.704769 -0.709437 -0.704769 99.1213 121.147)" fill="#C83434"/>
<rect width="3.98686" height="9.96716" transform="matrix(0.709437 -0.704769 -0.709437 -0.704769 119.121 121.147)" fill="#C83434"/>
<rect width="3.98686" height="9.96716" transform="matrix(0.709437 -0.704769 -0.709437 -0.704769 79.1213 101.279)" fill="#C83434"/>
<rect width="3.98686" height="9.96716" transform="matrix(0.709437 -0.704769 -0.709437 -0.704769 99.1213 101.279)" fill="#C83434"/>
<rect width="3.98686" height="9.96716" transform="matrix(0.709437 -0.704769 -0.709437 -0.704769 119.121 101.279)" fill="#C83434"/>
<rect width="3.98686" height="9.96716" transform="matrix(0.709437 -0.704769 -0.709437 -0.704769 79.1213 81.4106)" fill="#C83434"/>
<rect width="3.98686" height="9.96716" transform="matrix(0.709437 -0.704769 -0.709437 -0.704769 99.1213 81.4106)" fill="#C83434"/>
<rect width="3.98686" height="9.96716" transform="matrix(0.709437 -0.704769 -0.709437 -0.704769 119.121 81.4106)" fill="#C83434"/>
<ellipse cx="12" cy="11.921" rx="5" ry="4.96711" fill="#57ACDC"/>
<ellipse cx="12" cy="11.9211" rx="3" ry="2.98026" fill="#496989"/>
<ellipse cx="32" cy="11.921" rx="5" ry="4.96711" fill="#57ACDC"/>
<ellipse cx="32" cy="11.9211" rx="3" ry="2.98026" fill="#496989"/>
<ellipse cx="52" cy="11.921" rx="5" ry="4.96711" fill="#57ACDC"/>
<ellipse cx="52" cy="11.9211" rx="3" ry="2.98026" fill="#496989"/>
<ellipse cx="12" cy="31.7895" rx="5" ry="4.96711" fill="#57ACDC"/>
<ellipse cx="32" cy="31.9671" rx="5" ry="4.96711" fill="#57ACDC"/>
<ellipse cx="12" cy="31.7895" rx="3" ry="2.98026" fill="#496989"/>
<ellipse cx="32" cy="31.7895" rx="3" ry="2.98026" fill="#496989"/>
<ellipse cx="52" cy="31.7895" rx="5" ry="4.96711" fill="#57ACDC"/>
<ellipse cx="52" cy="31.7895" rx="3" ry="2.98026" fill="#496989"/>
<ellipse cx="12" cy="51.6579" rx="5" ry="4.96711" fill="#57ACDC"/>
<ellipse cx="12" cy="51.6579" rx="3" ry="2.98026" fill="#496989"/>
<ellipse cx="32" cy="51.6579" rx="5" ry="4.96711" fill="#57ACDC"/>
<ellipse cx="32" cy="51.6579" rx="3" ry="2.98026" fill="#496989"/>
<ellipse cx="52" cy="51.6579" rx="5" ry="4.96711" fill="#57ACDC"/>
<ellipse cx="52" cy="51.6579" rx="3" ry="2.98026" fill="#496989"/>
<ellipse cx="12" cy="91.3947" rx="5" ry="4.96711" fill="#57ACDC"/>
<ellipse cx="12" cy="91.3948" rx="3" ry="2.98026" fill="#496989"/>
<ellipse cx="32" cy="91.3947" rx="5" ry="4.96711" fill="#57ACDC"/>
<ellipse cx="32" cy="91.3948" rx="3" ry="2.98026" fill="#496989"/>
<ellipse cx="52" cy="91.3947" rx="5" ry="4.96711" fill="#57ACDC"/>
<ellipse cx="52" cy="91.3948" rx="3" ry="2.98026" fill="#496989"/>
<ellipse cx="12" cy="111.263" rx="5" ry="4.96711" fill="#57ACDC"/>
<ellipse cx="12" cy="111.263" rx="3" ry="2.98026" fill="#496989"/>
<ellipse cx="32" cy="111.263" rx="5" ry="4.96711" fill="#57ACDC"/>
<ellipse cx="32" cy="111.263" rx="3" ry="2.98026" fill="#496989"/>
<ellipse cx="52" cy="111.263" rx="5" ry="4.96711" fill="#57ACDC"/>
<ellipse cx="52" cy="111.263" rx="3" ry="2.98026" fill="#496989"/>
<ellipse cx="92" cy="111.263" rx="5" ry="4.96711" fill="#57ACDC"/>
<ellipse cx="92" cy="111.263" rx="3" ry="2.98026" fill="#496989"/>
<ellipse cx="112" cy="111.263" rx="5" ry="4.96711" fill="#57ACDC"/>
<ellipse cx="112" cy="111.263" rx="3" ry="2.98026" fill="#496989"/>
<ellipse cx="92" cy="91.3947" rx="5" ry="4.96711" fill="#57ACDC"/>
<ellipse cx="92" cy="91.3948" rx="3" ry="2.98026" fill="#496989"/>
<ellipse cx="112" cy="91.3947" rx="5" ry="4.96711" fill="#57ACDC"/>
<ellipse cx="112" cy="91.3948" rx="3" ry="2.98026" fill="#496989"/>
<ellipse cx="92" cy="51.6579" rx="5" ry="4.96711" fill="#57ACDC"/>
<ellipse cx="92" cy="51.6579" rx="3" ry="2.98026" fill="#496989"/>
<ellipse cx="92" cy="71.5263" rx="5" ry="4.96711" fill="#57ACDC"/>
<ellipse cx="92" cy="71.5263" rx="3" ry="2.98026" fill="#496989"/>
<ellipse cx="72" cy="71.5263" rx="5" ry="4.96711" fill="#57ACDC"/>
<ellipse cx="72" cy="71.5263" rx="3" ry="2.98026" fill="#496989"/>
<ellipse cx="52" cy="71.5263" rx="5" ry="4.96711" fill="#57ACDC"/>
<ellipse cx="52" cy="71.5263" rx="3" ry="2.98026" fill="#496989"/>
<ellipse cx="32" cy="71.5263" rx="5" ry="4.96711" fill="#57ACDC"/>
<ellipse cx="32" cy="71.5263" rx="3" ry="2.98026" fill="#496989"/>
<ellipse cx="12" cy="71.5263" rx="5" ry="4.96711" fill="#57ACDC"/>
<ellipse cx="12" cy="71.5263" rx="3" ry="2.98026" fill="#496989"/>
<ellipse cx="72" cy="91.3947" rx="5" ry="4.96711" fill="#57ACDC"/>
<ellipse cx="72" cy="91.3948" rx="3" ry="2.98026" fill="#496989"/>
<ellipse cx="72" cy="111.263" rx="5" ry="4.96711" fill="#57ACDC"/>
<ellipse cx="72" cy="111.263" rx="3" ry="2.98026" fill="#496989"/>
<ellipse cx="112" cy="51.6579" rx="5" ry="4.96711" fill="#57ACDC"/>
<ellipse cx="112" cy="51.6579" rx="3" ry="2.98026" fill="#496989"/>
<ellipse cx="112" cy="71.5263" rx="5" ry="4.96711" fill="#57ACDC"/>
<ellipse cx="112" cy="71.5263" rx="3" ry="2.98026" fill="#496989"/>
<ellipse cx="92" cy="31.7895" rx="5" ry="4.96711" fill="#57ACDC"/>
<ellipse cx="92" cy="31.7895" rx="3" ry="2.98026" fill="#496989"/>
<ellipse cx="112" cy="31.7895" rx="5" ry="4.96711" fill="#57ACDC"/>
<ellipse cx="112" cy="31.7895" rx="3" ry="2.98026" fill="#496989"/>
<ellipse cx="92" cy="11.921" rx="5" ry="4.96711" fill="#57ACDC"/>
<ellipse cx="92" cy="11.9211" rx="3" ry="2.98026" fill="#496989"/>
<ellipse cx="112" cy="11.921" rx="5" ry="4.96711" fill="#57ACDC"/>
<ellipse cx="112" cy="11.9211" rx="3" ry="2.98026" fill="#496989"/>
<ellipse cx="72" cy="11.921" rx="5" ry="4.96711" fill="#57ACDC"/>
<ellipse cx="72" cy="11.9211" rx="3" ry="2.98026" fill="#496989"/>
<ellipse cx="72" cy="31.7895" rx="5" ry="4.96711" fill="#57ACDC"/>
<ellipse cx="72" cy="31.7895" rx="3" ry="2.98026" fill="#496989"/>
<ellipse cx="72" cy="51.6579" rx="5" ry="4.96711" fill="#57ACDC"/>
<ellipse cx="72" cy="51.6579" rx="3" ry="2.98026" fill="#496989"/>
<rect x="1" y="0.993408" width="4" height="141.066" fill="#F2EDA1"/>
<rect x="139" y="0.993408" width="4" height="141.066" fill="#F2EDA1"/>
<rect x="1" y="4.9671" width="3.97368" height="142" transform="rotate(-90 1 4.9671)" fill="#F2EDA1"/>
<rect x="1" y="142.974" width="3.97368" height="142" transform="rotate(-90 1 142.974)" fill="#F2EDA1"/>
</svg>
