<svg width="160" height="160" viewBox="0 0 160 160" fill="none" xmlns="http://www.w3.org/2000/svg">
<rect width="160" height="160" fill="#D9D9D9"/>
<path d="M35.9659 74.017V72.4545H46.875V74.017H42.3011V87H40.5398V74.017H35.9659ZM52.2159 87.2273C51.2311 87.2273 50.367 86.9929 49.6236 86.5241C48.8849 86.0554 48.3073 85.3996 47.8906 84.5568C47.4787 83.714 47.2727 82.7292 47.2727 81.6023C47.2727 80.4659 47.4787 79.474 47.8906 78.6264C48.3073 77.7789 48.8849 77.1207 49.6236 76.652C50.367 76.1832 51.2311 75.9489 52.2159 75.9489C53.2008 75.9489 54.0625 76.1832 54.8011 76.652C55.5445 77.1207 56.1222 77.7789 56.5341 78.6264C56.9508 79.474 57.1591 80.4659 57.1591 81.6023C57.1591 82.7292 56.9508 83.714 56.5341 84.5568C56.1222 85.3996 55.5445 86.0554 54.8011 86.5241C54.0625 86.9929 53.2008 87.2273 52.2159 87.2273ZM52.2159 85.7216C52.964 85.7216 53.5795 85.5298 54.0625 85.1463C54.5455 84.7628 54.9029 84.2585 55.1349 83.6335C55.367 83.0085 55.483 82.3314 55.483 81.6023C55.483 80.8731 55.367 80.1937 55.1349 79.5639C54.9029 78.9342 54.5455 78.4252 54.0625 78.0369C53.5795 77.6487 52.964 77.4545 52.2159 77.4545C51.4678 77.4545 50.8523 77.6487 50.3693 78.0369C49.8864 78.4252 49.5289 78.9342 49.2969 79.5639C49.0649 80.1937 48.9489 80.8731 48.9489 81.6023C48.9489 82.3314 49.0649 83.0085 49.2969 83.6335C49.5289 84.2585 49.8864 84.7628 50.3693 85.1463C50.8523 85.5298 51.4678 85.7216 52.2159 85.7216ZM59.7177 91.0909V76.0909H61.337V77.8239H61.5359C61.659 77.6345 61.8294 77.393 62.0472 77.0994C62.2698 76.8011 62.587 76.536 62.9989 76.304C63.4156 76.0672 63.979 75.9489 64.6893 75.9489C65.6078 75.9489 66.4175 76.1785 67.1183 76.6378C67.819 77.0971 68.3659 77.7481 68.7589 78.5909C69.1519 79.4337 69.3484 80.428 69.3484 81.5739C69.3484 82.7292 69.1519 83.7306 68.7589 84.5781C68.3659 85.4209 67.8214 86.0743 67.1254 86.5384C66.4293 86.9976 65.6268 87.2273 64.7177 87.2273C64.0169 87.2273 63.4558 87.1113 63.0344 86.8793C62.613 86.6425 62.2887 86.375 62.0614 86.0767C61.8342 85.7737 61.659 85.5227 61.5359 85.3239H61.3938V91.0909H59.7177ZM61.3654 81.5455C61.3654 82.3693 61.4862 83.0961 61.7276 83.7259C61.9691 84.3509 62.3219 84.8409 62.7859 85.196C63.2499 85.5464 63.8181 85.7216 64.4904 85.7216C65.1912 85.7216 65.7759 85.5369 66.2447 85.1676C66.7182 84.7936 67.0733 84.2917 67.31 83.6619C67.5515 83.0275 67.6722 82.322 67.6722 81.5455C67.6722 80.7784 67.5539 80.0871 67.3171 79.4716C67.0851 78.8513 66.7324 78.3613 66.2589 78.0014C65.7901 77.6368 65.2006 77.4545 64.4904 77.4545C63.8086 77.4545 63.2357 77.6274 62.7717 77.973C62.3076 78.3139 61.9573 78.7921 61.7205 79.4077C61.4838 80.0185 61.3654 80.7311 61.3654 81.5455ZM77.7575 87V72.4545H82.6722C83.8086 72.4545 84.7414 72.6487 85.4705 73.0369C86.1997 73.4205 86.7395 73.9484 87.0898 74.6207C87.4402 75.2931 87.6154 76.0578 87.6154 76.9148C87.6154 77.7718 87.4402 78.5317 87.0898 79.1946C86.7395 79.8575 86.2021 80.3783 85.4776 80.7571C84.7532 81.1312 83.8275 81.3182 82.7006 81.3182H78.7234V79.7273H82.6438C83.4203 79.7273 84.0453 79.6136 84.5188 79.3864C84.997 79.1591 85.3427 78.8371 85.5558 78.4205C85.7736 77.9991 85.8825 77.4972 85.8825 76.9148C85.8825 76.3324 85.7736 75.8234 85.5558 75.3878C85.338 74.9522 84.9899 74.616 84.5117 74.3793C84.0335 74.1378 83.4014 74.017 82.6154 74.017H79.5188V87H77.7575ZM84.604 80.4659L88.1836 87H86.1381L82.6154 80.4659H84.604ZM90.3232 87V76.0909H91.9993V87H90.3232ZM91.1754 74.2727C90.8487 74.2727 90.567 74.1615 90.3303 73.9389C90.0982 73.7164 89.9822 73.4489 89.9822 73.1364C89.9822 72.8239 90.0982 72.5563 90.3303 72.3338C90.567 72.1113 90.8487 72 91.1754 72C91.5021 72 91.7815 72.1113 92.0135 72.3338C92.2502 72.5563 92.3686 72.8239 92.3686 73.1364C92.3686 73.4489 92.2502 73.7164 92.0135 73.9389C91.7815 74.1615 91.5021 74.2727 91.1754 74.2727ZM99.4727 91.3182C98.663 91.3182 97.967 91.214 97.3846 91.0057C96.8022 90.8021 96.3169 90.5322 95.9286 90.196C95.5451 89.8646 95.2397 89.5095 95.0124 89.1307L96.3477 88.1932C96.4992 88.392 96.6909 88.6193 96.9229 88.875C97.1549 89.1354 97.4722 89.3603 97.8746 89.5497C98.2818 89.7438 98.8145 89.8409 99.4727 89.8409C100.353 89.8409 101.08 89.6278 101.653 89.2017C102.226 88.7756 102.512 88.108 102.512 87.1989V84.983H102.37C102.247 85.1818 102.072 85.428 101.845 85.7216C101.622 86.0104 101.3 86.2685 100.879 86.4957C100.462 86.7183 99.8988 86.8295 99.1886 86.8295C98.3079 86.8295 97.5172 86.6212 96.8164 86.2045C96.1204 85.7879 95.5688 85.1818 95.1616 84.3864C94.7591 83.5909 94.5579 82.625 94.5579 81.4886C94.5579 80.3712 94.7544 79.3982 95.1474 78.5696C95.5404 77.7363 96.0872 77.0923 96.788 76.6378C97.4888 76.1785 98.2984 75.9489 99.217 75.9489C99.9272 75.9489 100.491 76.0672 100.907 76.304C101.329 76.536 101.651 76.8011 101.873 77.0994C102.1 77.393 102.276 77.6345 102.399 77.8239H102.569V76.0909H104.189V87.3125C104.189 88.25 103.975 89.0123 103.549 89.5994C103.128 90.1913 102.56 90.6245 101.845 90.8991C101.135 91.1785 100.344 91.3182 99.4727 91.3182ZM99.4158 85.3239C100.088 85.3239 100.656 85.17 101.12 84.8622C101.584 84.5545 101.937 84.1117 102.179 83.5341C102.42 82.9564 102.541 82.2652 102.541 81.4602C102.541 80.6742 102.422 79.9806 102.186 79.3793C101.949 78.7779 101.599 78.3068 101.135 77.9659C100.671 77.625 100.098 77.4545 99.4158 77.4545C98.7056 77.4545 98.1138 77.6345 97.6403 77.9943C97.1715 78.3542 96.8188 78.8371 96.582 79.4432C96.35 80.0492 96.234 80.7216 96.234 81.4602C96.234 82.2178 96.3524 82.8878 96.5891 83.4702C96.8306 84.0478 97.1857 84.5024 97.6545 84.8338C98.128 85.1605 98.7151 85.3239 99.4158 85.3239ZM108.933 80.4375V87H107.257V72.4545H108.933V77.7955H109.075C109.331 77.232 109.714 76.7846 110.225 76.4531C110.742 76.117 111.428 75.9489 112.285 75.9489C113.029 75.9489 113.68 76.098 114.238 76.3963C114.797 76.6899 115.23 77.142 115.538 77.7528C115.85 78.3589 116.007 79.1307 116.007 80.0682V87H114.331V80.1818C114.331 79.3153 114.106 78.6454 113.656 78.1719C113.211 77.6937 112.593 77.4545 111.802 77.4545C111.253 77.4545 110.761 77.5705 110.325 77.8026C109.894 78.0346 109.553 78.3731 109.302 78.8182C109.056 79.2633 108.933 79.803 108.933 80.4375ZM123.817 76.0909V77.5114H118.164V76.0909H123.817ZM119.812 73.4773H121.488V83.875C121.488 84.3485 121.557 84.7036 121.694 84.9403C121.836 85.1723 122.016 85.3286 122.234 85.4091C122.456 85.4848 122.691 85.5227 122.937 85.5227C123.121 85.5227 123.273 85.5133 123.391 85.4943C123.51 85.4706 123.604 85.4517 123.675 85.4375L124.016 86.9432C123.903 86.9858 123.744 87.0284 123.54 87.071C123.337 87.1184 123.079 87.142 122.766 87.142C122.293 87.142 121.829 87.0402 121.374 86.8366C120.924 86.633 120.55 86.3229 120.252 85.9062C119.959 85.4896 119.812 84.964 119.812 84.3295V73.4773Z" fill="black"/>
<path d="M35.9659 74.017H35.4659V74.517H35.9659V74.017ZM35.9659 72.4545V71.9545H35.4659V72.4545H35.9659ZM46.875 72.4545H47.375V71.9545H46.875V72.4545ZM46.875 74.017V74.517H47.375V74.017H46.875ZM42.3011 74.017V73.517H41.8011V74.017H42.3011ZM42.3011 87V87.5H42.8011V87H42.3011ZM40.5398 87H40.0398V87.5H40.5398V87ZM40.5398 74.017H41.0398V73.517H40.5398V74.017ZM36.4659 74.017V72.4545H35.4659V74.017H36.4659ZM35.9659 72.9545H46.875V71.9545H35.9659V72.9545ZM46.375 72.4545V74.017H47.375V72.4545H46.375ZM46.875 73.517H42.3011V74.517H46.875V73.517ZM41.8011 74.017V87H42.8011V74.017H41.8011ZM42.3011 86.5H40.5398V87.5H42.3011V86.5ZM41.0398 87V74.017H40.0398V87H41.0398ZM40.5398 73.517H35.9659V74.517H40.5398V73.517ZM49.6236 86.5241L49.3557 86.9463L49.3569 86.9471L49.6236 86.5241ZM47.8906 84.5568L47.4414 84.7764L47.4424 84.7784L47.8906 84.5568ZM47.8906 78.6264L47.4419 78.4058L47.4409 78.4079L47.8906 78.6264ZM49.6236 76.652L49.3569 76.2291L49.3557 76.2298L49.6236 76.652ZM54.8011 76.652L54.5332 77.0742L54.5344 77.0749L54.8011 76.652ZM56.5341 78.6264L56.0844 78.845L56.0854 78.847L56.5341 78.6264ZM56.5341 84.5568L56.0859 84.3352L56.0849 84.3373L56.5341 84.5568ZM54.8011 86.5241L54.5344 86.1012L54.5332 86.102L54.8011 86.5241ZM54.0625 85.1463L53.7516 84.7548L53.7516 84.7548L54.0625 85.1463ZM55.1349 83.6335L55.6037 83.8075L55.6037 83.8075L55.1349 83.6335ZM55.1349 79.5639L55.6041 79.3911L55.6041 79.3911L55.1349 79.5639ZM54.0625 78.0369L54.3758 77.6472L54.3758 77.6472L54.0625 78.0369ZM50.3693 78.0369L50.056 77.6472L50.056 77.6472L50.3693 78.0369ZM49.2969 79.5639L48.8277 79.3911L48.8277 79.3911L49.2969 79.5639ZM49.2969 83.6335L48.8281 83.8075L48.8281 83.8075L49.2969 83.6335ZM50.3693 85.1463L50.6803 84.7548L50.6803 84.7548L50.3693 85.1463ZM52.2159 86.7273C51.3137 86.7273 50.5444 86.5137 49.8903 86.1012L49.3569 86.9471C50.1895 87.4721 51.1484 87.7273 52.2159 87.7273V86.7273ZM49.8915 86.102C49.236 85.686 48.7181 85.1023 48.3388 84.3352L47.4424 84.7784C47.8965 85.697 48.5339 86.4248 49.3557 86.9463L49.8915 86.102ZM48.3398 84.3373C47.9674 83.5752 47.7727 82.6682 47.7727 81.6023H46.7727C46.7727 82.7901 46.99 83.8528 47.4414 84.7764L48.3398 84.3373ZM47.7727 81.6023C47.7727 80.5263 47.9676 79.6118 48.3403 78.845L47.4409 78.4079C46.9898 79.3361 46.7727 80.4056 46.7727 81.6023H47.7727ZM48.3393 78.847C48.7188 78.0752 49.2367 77.4897 49.8915 77.0742L49.3557 76.2298C48.5332 76.7518 47.8958 77.4826 47.4419 78.4058L48.3393 78.847ZM49.8903 77.0749C50.5444 76.6624 51.3137 76.4489 52.2159 76.4489V75.4489C51.1484 75.4489 50.1895 75.704 49.3569 76.2291L49.8903 77.0749ZM52.2159 76.4489C53.1182 76.4489 53.8845 76.6624 54.5332 77.0742L55.069 76.2298C54.2405 75.704 53.2834 75.4489 52.2159 75.4489V76.4489ZM54.5344 77.0749C55.1932 77.4903 55.7101 78.075 56.0844 78.845L56.9838 78.4079C56.5342 77.4828 55.8958 76.7511 55.0678 76.2291L54.5344 77.0749ZM56.0854 78.847C56.4621 79.6133 56.6591 80.527 56.6591 81.6023H57.6591C57.6591 80.4048 57.4394 79.3346 56.9828 78.4058L56.0854 78.847ZM56.6591 81.6023C56.6591 82.6674 56.4624 83.5737 56.0859 84.3352L56.9823 84.7784C57.4392 83.8543 57.6591 82.7909 57.6591 81.6023H56.6591ZM56.0849 84.3373C55.7109 85.1025 55.1939 85.6854 54.5344 86.1012L55.0678 86.9471C55.8951 86.4254 56.5335 85.6967 56.9833 84.7764L56.0849 84.3373ZM54.5332 86.102C53.8845 86.5137 53.1182 86.7273 52.2159 86.7273V87.7273C53.2834 87.7273 54.2405 87.4721 55.069 86.9463L54.5332 86.102ZM52.2159 86.2216C53.0521 86.2216 53.7844 86.0056 54.3734 85.5379L53.7516 84.7548C53.3747 85.054 52.8759 85.2216 52.2159 85.2216V86.2216ZM54.3734 85.5379C54.9336 85.093 55.3426 84.5109 55.6037 83.8075L54.6662 83.4595C54.4633 84.0061 54.1573 84.4326 53.7516 84.7548L54.3734 85.5379ZM55.6037 83.8075C55.8582 83.1219 55.983 82.3853 55.983 81.6023H54.983C54.983 82.2776 54.8757 82.8952 54.6662 83.4595L55.6037 83.8075ZM55.983 81.6023C55.983 80.8192 55.8582 80.0808 55.6041 79.3911L54.6658 79.7368C54.8757 80.3066 54.983 80.927 54.983 81.6023H55.983ZM55.6041 79.3911C55.3435 78.6836 54.9352 78.097 54.3758 77.6472L53.7492 78.4266C54.1557 78.7534 54.4624 79.1848 54.6658 79.7368L55.6041 79.3911ZM54.3758 77.6472C53.7867 77.1736 53.0535 76.9545 52.2159 76.9545V77.9545C52.8745 77.9545 53.3724 78.1237 53.7492 78.4266L54.3758 77.6472ZM52.2159 76.9545C51.3783 76.9545 50.6452 77.1736 50.056 77.6472L50.6826 78.4266C51.0594 78.1237 51.5573 77.9545 52.2159 77.9545V76.9545ZM50.056 77.6472C49.4966 78.097 49.0884 78.6836 48.8277 79.3911L49.766 79.7368C49.9694 79.1848 50.2761 78.7534 50.6826 78.4266L50.056 77.6472ZM48.8277 79.3911C48.5736 80.0808 48.4489 80.8192 48.4489 81.6023H49.4489C49.4489 80.927 49.5561 80.3066 49.766 79.7368L48.8277 79.3911ZM48.4489 81.6023C48.4489 82.3853 48.5736 83.1219 48.8281 83.8075L49.7656 83.4595C49.5561 82.8952 49.4489 82.2776 49.4489 81.6023H48.4489ZM48.8281 83.8075C49.0892 84.5109 49.4982 85.093 50.0584 85.5379L50.6803 84.7548C50.2745 84.4326 49.9685 84.0061 49.7656 83.4595L48.8281 83.8075ZM50.0584 85.5379C50.6474 86.0056 51.3797 86.2216 52.2159 86.2216V85.2216C51.5559 85.2216 51.0571 85.054 50.6803 84.7548L50.0584 85.5379ZM59.7177 91.0909H59.2177V91.5909H59.7177V91.0909ZM59.7177 76.0909V75.5909H59.2177V76.0909H59.7177ZM61.337 76.0909H61.837V75.5909H61.337V76.0909ZM61.337 77.8239H60.837V78.3239H61.337V77.8239ZM61.5359 77.8239V78.3239H61.8072L61.9551 78.0964L61.5359 77.8239ZM62.0472 77.0994L61.6465 76.8004L61.6457 76.8015L62.0472 77.0994ZM62.9989 76.304L63.2443 76.7396L63.2459 76.7387L62.9989 76.304ZM67.1183 76.6378L67.3923 76.2196L67.3923 76.2196L67.1183 76.6378ZM68.7589 78.5909L69.212 78.3796L69.212 78.3796L68.7589 78.5909ZM68.7589 84.5781L69.212 84.7894L69.2125 84.7885L68.7589 84.5781ZM67.1254 86.5384L67.4007 86.9557L67.4027 86.9544L67.1254 86.5384ZM63.0344 86.8793L62.7895 87.3152L62.7933 87.3173L63.0344 86.8793ZM62.0614 86.0767L61.6614 86.3767L61.6637 86.3797L62.0614 86.0767ZM61.5359 85.3239L61.961 85.0607L61.8144 84.8239H61.5359V85.3239ZM61.3938 85.3239V84.8239H60.8938V85.3239H61.3938ZM61.3938 91.0909V91.5909H61.8938V91.0909H61.3938ZM61.7276 83.7259L61.2608 83.9049L61.2612 83.9061L61.7276 83.7259ZM62.7859 85.196L62.482 85.5931L62.4846 85.595L62.7859 85.196ZM66.2447 85.1676L66.5541 85.5604L66.5546 85.56L66.2447 85.1676ZM67.31 83.6619L66.8427 83.4841L66.842 83.486L67.31 83.6619ZM67.3171 79.4716L66.8488 79.6468L66.8504 79.6511L67.3171 79.4716ZM66.2589 78.0014L65.9519 78.3961L65.9563 78.3995L66.2589 78.0014ZM62.7717 77.973L63.0677 78.376L63.0704 78.374L62.7717 77.973ZM61.7205 79.4077L62.1867 79.5884L62.1872 79.5872L61.7205 79.4077ZM60.2177 91.0909V76.0909H59.2177V91.0909H60.2177ZM59.7177 76.5909H61.337V75.5909H59.7177V76.5909ZM60.837 76.0909V77.8239H61.837V76.0909H60.837ZM61.337 78.3239H61.5359V77.3239H61.337V78.3239ZM61.9551 78.0964C62.0702 77.9192 62.2339 77.687 62.4488 77.3974L61.6457 76.8015C61.425 77.099 61.2477 77.3497 61.1166 77.5514L61.9551 78.0964ZM62.448 77.3984C62.6192 77.1689 62.8773 76.9463 63.2443 76.7396L62.7536 75.8683C62.2967 76.1256 61.9204 76.4333 61.6465 76.8004L62.448 77.3984ZM63.2459 76.7387C63.5596 76.5605 64.0269 76.4489 64.6893 76.4489V75.4489C63.9312 75.4489 63.2716 75.574 62.7519 75.8692L63.2459 76.7387ZM64.6893 76.4489C65.5202 76.4489 66.2327 76.6552 66.8442 77.056L67.3923 76.2196C66.6023 75.7018 65.6955 75.4489 64.6893 75.4489V76.4489ZM66.8442 77.056C67.4588 77.4588 67.9476 78.0341 68.3057 78.8022L69.212 78.3796C68.7842 77.4621 68.1792 76.7353 67.3923 76.2196L66.8442 77.056ZM68.3057 78.8022C68.6616 79.5653 68.8484 80.4845 68.8484 81.5739H69.8484C69.8484 80.3716 69.6422 79.3021 69.212 78.3796L68.3057 78.8022ZM68.8484 81.5739C68.8484 82.6733 68.6614 83.5998 68.3053 84.3678L69.2125 84.7885C69.6424 83.8613 69.8484 82.785 69.8484 81.5739H68.8484ZM68.3057 84.3668C67.947 85.1361 67.4595 85.7147 66.848 86.1223L67.4027 86.9544C68.1833 86.434 68.7848 85.7058 69.212 84.7894L68.3057 84.3668ZM66.85 86.121C66.243 86.5215 65.5381 86.7273 64.7177 86.7273V87.7273C65.7155 87.7273 66.6156 87.4737 67.4007 86.9557L66.85 86.121ZM64.7177 86.7273C64.0653 86.7273 63.597 86.6182 63.2756 86.4413L62.7933 87.3173C63.3147 87.6043 63.9685 87.7273 64.7177 87.7273V86.7273ZM63.2793 86.4433C62.9009 86.2308 62.635 86.0045 62.4592 85.7737L61.6637 86.3797C61.9424 86.7455 62.3251 87.0543 62.7895 87.3152L63.2793 86.4433ZM62.4614 85.7767C62.2384 85.4793 62.073 85.2416 61.961 85.0607L61.1107 85.587C61.2449 85.8038 61.43 86.0681 61.6614 86.3767L62.4614 85.7767ZM61.5359 84.8239H61.3938V85.8239H61.5359V84.8239ZM60.8938 85.3239V91.0909H61.8938V85.3239H60.8938ZM61.3938 90.5909H59.7177V91.5909H61.3938V90.5909ZM60.8654 81.5455C60.8654 82.4174 60.9931 83.2069 61.2608 83.9049L62.1945 83.5468C61.9792 82.9853 61.8654 82.3213 61.8654 81.5455H60.8654ZM61.2612 83.9061C61.5309 84.6041 61.9347 85.1742 62.482 85.5931L63.0897 84.799C62.7091 84.5076 62.4073 84.0976 62.194 83.5457L61.2612 83.9061ZM62.4846 85.595C63.0485 86.0209 63.727 86.2216 64.4904 86.2216V85.2216C63.9091 85.2216 63.4513 85.0719 63.0872 84.797L62.4846 85.595ZM64.4904 86.2216C65.2831 86.2216 65.9824 86.0108 66.5541 85.5604L65.9352 84.7749C65.5694 85.0631 65.0993 85.2216 64.4904 85.2216V86.2216ZM66.5546 85.56C67.1075 85.1232 67.5131 84.5427 67.778 83.8379L66.842 83.486C66.6335 84.0406 66.3288 84.4639 65.9347 84.7753L66.5546 85.56ZM67.7773 83.8398C68.0433 83.141 68.1722 82.3741 68.1722 81.5455H67.1722C67.1722 82.2698 67.0597 82.914 66.8427 83.4841L67.7773 83.8398ZM68.1722 81.5455C68.1722 80.7269 68.0458 79.9734 67.7838 79.2921L66.8504 79.6511C67.0619 80.2008 67.1722 80.8299 67.1722 81.5455H68.1722ZM67.7854 79.2964C67.5242 78.5981 67.1185 78.0267 66.5614 77.6033L65.9563 78.3995C66.3463 78.6958 66.646 79.1046 66.8488 79.6468L67.7854 79.2964ZM66.5658 77.6067C65.9931 77.1612 65.2893 76.9545 64.4904 76.9545V77.9545C65.112 77.9545 65.5872 78.1124 65.9519 78.3961L66.5658 77.6067ZM64.4904 76.9545C63.7208 76.9545 63.038 77.1512 62.473 77.572L63.0704 78.374C63.4334 78.1036 63.8964 77.9545 64.4904 77.9545V76.9545ZM62.4756 77.5701C61.9238 77.9755 61.5198 78.5367 61.2539 79.2282L62.1872 79.5872C62.3947 79.0476 62.6915 78.6523 63.0677 78.376L62.4756 77.5701ZM61.2543 79.227C60.9905 79.9075 60.8654 80.6838 60.8654 81.5455H61.8654C61.8654 80.7784 61.977 80.1294 62.1867 79.5884L61.2543 79.227ZM77.7575 87H77.2575V87.5H77.7575V87ZM77.7575 72.4545V71.9545H77.2575V72.4545H77.7575ZM85.4705 73.0369L85.2355 73.4783L85.2378 73.4795L85.4705 73.0369ZM87.0898 74.6207L86.6464 74.8518L86.6464 74.8518L87.0898 74.6207ZM87.0898 79.1946L86.6478 78.9609L86.6478 78.9609L87.0898 79.1946ZM85.4776 80.7571L85.707 81.2014L85.7093 81.2002L85.4776 80.7571ZM78.7234 81.3182H78.2234V81.8182H78.7234V81.3182ZM78.7234 79.7273V79.2273H78.2234V79.7273H78.7234ZM84.5188 79.3864L84.3042 78.9348L84.3025 78.9356L84.5188 79.3864ZM85.5558 78.4205L85.1116 78.1909L85.1106 78.1928L85.5558 78.4205ZM84.5117 74.3793L84.2863 74.8256L84.2899 74.8274L84.5117 74.3793ZM79.5188 74.017V73.517H79.0188V74.017H79.5188ZM79.5188 87V87.5H80.0188V87H79.5188ZM84.604 80.4659L85.0426 80.2257L84.9002 79.9659H84.604V80.4659ZM88.1836 87V87.5H89.0276L88.6221 86.7598L88.1836 87ZM86.1381 87L85.698 87.2373L85.8397 87.5H86.1381V87ZM82.6154 80.4659V79.9659H81.7778L82.1753 80.7032L82.6154 80.4659ZM78.2575 87V72.4545H77.2575V87H78.2575ZM77.7575 72.9545H82.6722V71.9545H77.7575V72.9545ZM82.6722 72.9545C83.7559 72.9545 84.6007 73.1403 85.2355 73.4783L85.7055 72.5956C84.882 72.1571 83.8613 71.9545 82.6722 71.9545V72.9545ZM85.2378 73.4795C85.885 73.8199 86.3472 74.2776 86.6464 74.8518L87.5332 74.3897C87.1317 73.6192 86.5144 73.021 85.7033 72.5944L85.2378 73.4795ZM86.6464 74.8518C86.955 75.444 87.1154 76.1276 87.1154 76.9148H88.1154C88.1154 75.9879 87.9254 75.1422 87.5332 74.3897L86.6464 74.8518ZM87.1154 76.9148C87.1154 77.7021 86.955 78.3798 86.6478 78.9609L87.5319 79.4283C87.9255 78.6837 88.1154 77.8415 88.1154 76.9148H87.1154ZM86.6478 78.9609C86.349 79.5262 85.8892 79.9777 85.2459 80.314L85.7093 81.2002C86.515 80.7789 87.1299 80.1887 87.5319 79.4283L86.6478 78.9609ZM85.2482 80.3128C84.6166 80.639 83.7766 80.8182 82.7006 80.8182V81.8182C83.8785 81.8182 84.8898 81.6233 85.707 81.2014L85.2482 80.3128ZM82.7006 80.8182H78.7234V81.8182H82.7006V80.8182ZM79.2234 81.3182V79.7273H78.2234V81.3182H79.2234ZM78.7234 80.2273H82.6438V79.2273H78.7234V80.2273ZM82.6438 80.2273C83.4623 80.2273 84.1697 80.1085 84.7352 79.8371L84.3025 78.9356C83.9209 79.1187 83.3783 79.2273 82.6438 79.2273V80.2273ZM84.7334 79.838C85.2974 79.57 85.7312 79.1755 86.0009 78.6481L85.1106 78.1928C84.9541 78.4988 84.6967 78.7482 84.3042 78.9348L84.7334 79.838ZM85.9999 78.65C86.2618 78.1433 86.3825 77.5591 86.3825 76.9148H85.3825C85.3825 77.4352 85.2853 77.8548 85.1116 78.1909L85.9999 78.65ZM86.3825 76.9148C86.3825 76.2698 86.2616 75.6815 86.003 75.1642L85.1085 75.6114C85.2855 75.9652 85.3825 76.3949 85.3825 76.9148H86.3825ZM86.003 75.1642C85.7318 74.6218 85.2995 74.2113 84.7335 73.9312L84.2899 74.8274C84.6804 75.0207 84.9441 75.2826 85.1085 75.6114L86.003 75.1642ZM84.7371 73.9329C84.164 73.6436 83.4459 73.517 82.6154 73.517V74.517C83.3569 74.517 83.903 74.632 84.2863 74.8256L84.7371 73.9329ZM82.6154 73.517H79.5188V74.517H82.6154V73.517ZM79.0188 74.017V87H80.0188V74.017H79.0188ZM79.5188 86.5H77.7575V87.5H79.5188V86.5ZM84.1655 80.7061L87.7451 87.2402L88.6221 86.7598L85.0426 80.2257L84.1655 80.7061ZM88.1836 86.5H86.1381V87.5H88.1836V86.5ZM86.5783 86.7627L83.0555 80.2286L82.1753 80.7032L85.698 87.2373L86.5783 86.7627ZM82.6154 80.9659H84.604V79.9659H82.6154V80.9659ZM90.3232 87H89.8232V87.5H90.3232V87ZM90.3232 76.0909V75.5909H89.8232V76.0909H90.3232ZM91.9993 76.0909H92.4993V75.5909H91.9993V76.0909ZM91.9993 87V87.5H92.4993V87H91.9993ZM90.3303 73.9389L89.9841 74.2998L89.9878 74.3032L90.3303 73.9389ZM90.3303 72.3338L89.9878 71.9695L89.9841 71.973L90.3303 72.3338ZM92.0135 72.3338L91.6674 72.6947L91.671 72.6981L92.0135 72.3338ZM92.0135 73.9389L91.671 73.5746L91.6674 73.5781L92.0135 73.9389ZM90.8232 87V76.0909H89.8232V87H90.8232ZM90.3232 76.5909H91.9993V75.5909H90.3232V76.5909ZM91.4993 76.0909V87H92.4993V76.0909H91.4993ZM91.9993 86.5H90.3232V87.5H91.9993V86.5ZM91.1754 73.7727C90.9752 73.7727 90.8162 73.7094 90.6727 73.5746L89.9878 74.3032C90.3178 74.6135 90.7222 74.7727 91.1754 74.7727V73.7727ZM90.6764 73.5781C90.5395 73.4468 90.4822 73.3083 90.4822 73.1364H89.4822C89.4822 73.5894 89.657 73.986 89.9841 74.2998L90.6764 73.5781ZM90.4822 73.1364C90.4822 72.9644 90.5395 72.8259 90.6764 72.6946L89.9841 71.973C89.657 72.2867 89.4822 72.6833 89.4822 73.1364H90.4822ZM90.6727 72.6981C90.8162 72.5633 90.9752 72.5 91.1754 72.5V71.5C90.7222 71.5 90.3178 71.6593 89.9878 71.9695L90.6727 72.6981ZM91.1754 72.5C91.3755 72.5 91.5301 72.563 91.6674 72.6946L92.3596 71.973C92.0328 71.6595 91.6288 71.5 91.1754 71.5V72.5ZM91.671 72.6981C91.8118 72.8304 91.8686 72.9679 91.8686 73.1364H92.8686C92.8686 72.6798 92.6887 72.2823 92.3559 71.9695L91.671 72.6981ZM91.8686 73.1364C91.8686 73.3048 91.8118 73.4423 91.671 73.5746L92.3559 74.3032C92.6887 73.9904 92.8686 73.5929 92.8686 73.1364H91.8686ZM91.6674 73.5781C91.5301 73.7097 91.3755 73.7727 91.1754 73.7727V74.7727C91.6288 74.7727 92.0328 74.6132 92.3596 74.2998L91.6674 73.5781ZM97.3846 91.0057L97.553 90.5349L97.5496 90.5337L97.3846 91.0057ZM95.9286 90.196L96.2559 89.818L96.2556 89.8177L95.9286 90.196ZM95.0124 89.1307L94.7251 88.7215L94.3443 88.9889L94.5837 89.3879L95.0124 89.1307ZM96.3477 88.1932L96.7454 87.8902L96.4539 87.5076L96.0603 87.784L96.3477 88.1932ZM96.9229 88.875L97.2963 88.5424L97.2932 88.539L96.9229 88.875ZM97.8746 89.5497L98.0898 89.0984L98.0875 89.0973L97.8746 89.5497ZM101.653 89.2017L101.951 89.6029L101.951 89.6029L101.653 89.2017ZM102.512 84.983H103.012V84.483H102.512V84.983ZM102.37 84.983V84.483H102.092L101.945 84.7198L102.37 84.983ZM101.845 85.7216L101.449 85.4155L101.449 85.4164L101.845 85.7216ZM100.879 86.4957L101.114 86.9368L101.116 86.9358L100.879 86.4957ZM96.8164 86.2045L96.5596 86.6336L96.5609 86.6343L96.8164 86.2045ZM95.1616 84.3864L94.7154 84.6121L94.7165 84.6142L95.1616 84.3864ZM95.1474 78.5696L95.5991 78.7839L95.5996 78.7829L95.1474 78.5696ZM96.788 76.6378L97.0601 77.0573L97.0621 77.056L96.788 76.6378ZM100.907 76.304L100.66 76.7387L100.666 76.742L100.907 76.304ZM101.873 77.0994L101.472 77.3985L101.478 77.4055L101.873 77.0994ZM102.399 77.8239L101.98 78.0964L102.127 78.3239H102.399V77.8239ZM102.569 77.8239V78.3239H103.069V77.8239H102.569ZM102.569 76.0909V75.5909H102.069V76.0909H102.569ZM104.189 76.0909H104.689V75.5909H104.189V76.0909ZM103.549 89.5994L103.145 89.3057L103.142 89.3094L103.549 89.5994ZM101.845 90.8991L101.666 90.4324L101.662 90.4338L101.845 90.8991ZM101.12 84.8622L100.844 84.4455L100.844 84.4455L101.12 84.8622ZM102.179 83.5341L102.64 83.7269L102.64 83.7269L102.179 83.5341ZM102.186 79.3793L102.651 79.1961L102.651 79.1961L102.186 79.3793ZM101.135 77.9659L100.839 78.3688L100.839 78.3688L101.135 77.9659ZM97.6403 77.9943L97.3377 77.5962L97.3358 77.5977L97.6403 77.9943ZM96.582 79.4432L96.1163 79.2613L96.1151 79.2644L96.582 79.4432ZM96.5891 83.4702L96.1259 83.6585L96.1278 83.663L96.5891 83.4702ZM97.6545 84.8338L97.3658 85.2421L97.3705 85.2453L97.6545 84.8338ZM99.4727 90.8182C98.7036 90.8182 98.0675 90.719 97.553 90.5349L97.2162 91.4765C97.8664 91.7091 98.6224 91.8182 99.4727 91.8182V90.8182ZM97.5496 90.5337C97.0151 90.3468 96.5879 90.1055 96.2559 89.818L95.6013 90.574C96.0458 90.9589 96.5894 91.2573 97.2196 91.4777L97.5496 90.5337ZM96.2556 89.8177C95.9064 89.5159 95.6375 89.2006 95.4412 88.8734L94.5837 89.3879C94.8419 89.8184 95.1838 90.2132 95.6017 90.5743L96.2556 89.8177ZM95.2997 89.5399L96.635 88.6024L96.0603 87.784L94.7251 88.7215L95.2997 89.5399ZM95.9499 88.4962C96.1127 88.7098 96.3144 88.9484 96.5527 89.211L97.2932 88.539C97.0675 88.2903 96.8857 88.0743 96.7454 87.8902L95.9499 88.4962ZM96.5496 89.2076C96.837 89.5302 97.2144 89.7916 97.6617 90.0021L98.0875 89.0973C97.7299 88.929 97.4729 88.7407 97.2963 88.5424L96.5496 89.2076ZM97.6595 90.001C98.1575 90.2385 98.7716 90.3409 99.4727 90.3409V89.3409C98.8574 89.3409 98.4062 89.2492 98.0898 89.0984L97.6595 90.001ZM99.4727 90.3409C100.435 90.3409 101.274 90.1069 101.951 89.6029L101.355 88.8005C100.886 89.1488 100.271 89.3409 99.4727 89.3409V90.3409ZM101.951 89.6029C102.685 89.0572 103.012 88.2184 103.012 87.1989H102.012C102.012 87.9976 101.767 88.494 101.355 88.8005L101.951 89.6029ZM103.012 87.1989V84.983H102.012V87.1989H103.012ZM102.512 84.483H102.37V85.483H102.512V84.483ZM101.945 84.7198C101.835 84.8979 101.671 85.1287 101.449 85.4155L102.24 86.0277C102.473 85.7273 102.66 85.4658 102.796 85.2461L101.945 84.7198ZM101.449 85.4164C101.28 85.6351 101.02 85.8518 100.642 86.0557L101.116 86.9358C101.581 86.6852 101.964 86.3857 102.241 86.0268L101.449 85.4164ZM100.643 86.0547C100.327 86.2239 99.8547 86.3295 99.1886 86.3295V87.3295C99.9429 87.3295 100.598 87.2127 101.114 86.9368L100.643 86.0547ZM99.1886 86.3295C98.3904 86.3295 97.6892 86.1418 97.0719 85.7748L96.5609 86.6343C97.3451 87.1006 98.2254 87.3295 99.1886 87.3295V86.3295ZM97.0732 85.7755C96.4656 85.4118 95.9757 84.8794 95.6067 84.1585L94.7165 84.6142C95.1619 85.4843 95.7752 86.164 96.5596 86.6335L97.0732 85.7755ZM95.6077 84.1606C95.249 83.4517 95.0579 82.5675 95.0579 81.4886H94.0579C94.0579 82.6825 94.2692 83.7301 94.7154 84.6121L95.6077 84.1606ZM95.0579 81.4886C95.0579 80.4294 95.2441 79.5325 95.5991 78.7839L94.6956 78.3553C94.2647 79.2639 94.0579 80.313 94.0579 81.4886H95.0579ZM95.5996 78.7829C95.9571 78.0247 96.4453 77.456 97.0601 77.0573L96.5159 76.2183C95.7292 76.7286 95.1236 77.4478 94.6951 78.3563L95.5996 78.7829ZM97.0621 77.056C97.6736 76.6552 98.386 76.4489 99.217 76.4489V75.4489C98.2108 75.4489 97.3039 75.7018 96.5139 76.2196L97.0621 77.056ZM99.217 76.4489C99.8794 76.4489 100.347 76.5605 100.66 76.7387L101.154 75.8692C100.635 75.574 99.975 75.4489 99.217 75.4489V76.4489ZM100.666 76.742C101.043 76.9492 101.303 77.1715 101.472 77.3984L102.274 76.8004C101.998 76.4308 101.615 76.1227 101.148 75.866L100.666 76.742ZM101.478 77.4055C101.701 77.6942 101.867 77.9234 101.98 78.0964L102.818 77.5514C102.684 77.3455 102.5 77.0918 102.269 76.7933L101.478 77.4055ZM102.399 78.3239H102.569V77.3239H102.399V78.3239ZM103.069 77.8239V76.0909H102.069V77.8239H103.069ZM102.569 76.5909H104.189V75.5909H102.569V76.5909ZM103.689 76.0909V87.3125H104.689V76.0909H103.689ZM103.689 87.3125C103.689 88.1753 103.493 88.826 103.145 89.3057L103.954 89.8931C104.458 89.1987 104.689 88.3247 104.689 87.3125H103.689ZM103.142 89.3094C102.781 89.8168 102.294 90.191 101.666 90.4324L102.024 91.3659C102.826 91.0581 103.475 90.5658 103.957 89.8894L103.142 89.3094ZM101.662 90.4338C101.018 90.6873 100.29 90.8182 99.4727 90.8182V91.8182C100.398 91.8182 101.252 91.6697 102.028 91.3644L101.662 90.4338ZM99.4158 85.8239C100.166 85.8239 100.835 85.6514 101.397 85.2789L100.844 84.4455C100.478 84.6886 100.011 84.8239 99.4158 84.8239V85.8239ZM101.397 85.2789C101.953 84.9098 102.365 84.3841 102.64 83.7269L101.717 83.3412C101.509 83.8394 101.216 84.1991 100.844 84.4455L101.397 85.2789ZM102.64 83.7269C102.913 83.0735 103.041 82.3133 103.041 81.4602H102.041C102.041 82.217 101.927 82.8394 101.717 83.3412L102.64 83.7269ZM103.041 81.4602C103.041 80.6247 102.915 79.8669 102.651 79.1961L101.72 79.5624C101.93 80.0943 102.041 80.7238 102.041 81.4602H103.041ZM102.651 79.1961C102.384 78.5181 101.98 77.9664 101.431 77.563L100.839 78.3688C101.218 78.6473 101.514 79.0378 101.72 79.5624L102.651 79.1961ZM101.431 77.563C100.866 77.148 100.184 76.9545 99.4158 76.9545V77.9545C100.011 77.9545 100.475 78.102 100.839 78.3688L101.431 77.563ZM99.4158 76.9545C98.6182 76.9545 97.9142 77.1581 97.3377 77.5962L97.9428 78.3924C98.3133 78.1108 98.793 77.9545 99.4158 77.9545V76.9545ZM97.3358 77.5977C96.7875 78.0186 96.3828 78.5791 96.1163 79.2613L97.0478 79.6251C97.2548 79.0951 97.5555 78.6897 97.9447 78.3909L97.3358 77.5977ZM96.1151 79.2644C95.8584 79.9349 95.734 80.6688 95.734 81.4602H96.734C96.734 80.7743 96.8416 80.1636 97.049 79.6219L96.1151 79.2644ZM95.734 81.4602C95.734 82.2694 95.8605 83.0054 96.1259 83.6585L97.0523 83.2819C96.8443 82.7702 96.734 82.1662 96.734 81.4602H95.734ZM96.1278 83.663C96.4021 84.3191 96.8135 84.8516 97.3658 85.2421L97.9431 84.4256C97.5579 84.1532 97.2591 83.7765 97.0504 83.2773L96.1278 83.663ZM97.3705 85.2453C97.9442 85.6412 98.6361 85.8239 99.4158 85.8239V84.8239C98.7941 84.8239 98.3117 84.6798 97.9384 84.4223L97.3705 85.2453ZM108.933 87V87.5H109.433V87H108.933ZM107.257 87H106.757V87.5H107.257V87ZM107.257 72.4545V71.9545H106.757V72.4545H107.257ZM108.933 72.4545H109.433V71.9545H108.933V72.4545ZM108.933 77.7955H108.433V78.2955H108.933V77.7955ZM109.075 77.7955V78.2955H109.397L109.53 78.0021L109.075 77.7955ZM110.225 76.4531L110.497 76.8727L110.498 76.8721L110.225 76.4531ZM114.238 76.3963L114.003 76.8374L114.006 76.8389L114.238 76.3963ZM115.538 77.7528L115.091 77.9778L115.094 77.982L115.538 77.7528ZM116.007 87V87.5H116.507V87H116.007ZM114.331 87H113.831V87.5H114.331V87ZM113.656 78.1719L113.29 78.5125L113.293 78.5162L113.656 78.1719ZM110.325 77.8026L110.09 77.3612L110.088 77.3623L110.325 77.8026ZM109.302 78.8182L108.867 78.5726L108.865 78.5762L109.302 78.8182ZM108.433 80.4375V87H109.433V80.4375H108.433ZM108.933 86.5H107.257V87.5H108.933V86.5ZM107.757 87V72.4545H106.757V87H107.757ZM107.257 72.9545H108.933V71.9545H107.257V72.9545ZM108.433 72.4545V77.7955H109.433V72.4545H108.433ZM108.933 78.2955H109.075V77.2955H108.933V78.2955ZM109.53 78.0021C109.747 77.5243 110.068 77.1513 110.497 76.8727L109.954 76.0335C109.361 76.4178 108.914 76.9398 108.62 77.5888L109.53 78.0021ZM110.498 76.8721C110.907 76.6057 111.489 76.4489 112.285 76.4489V75.4489C111.368 75.4489 110.576 75.6282 109.953 76.0342L110.498 76.8721ZM112.285 76.4489C112.961 76.4489 113.528 76.584 114.003 76.8374L114.474 75.9552C113.831 75.612 113.096 75.4489 112.285 75.4489V76.4489ZM114.006 76.8389C114.464 77.0799 114.826 77.4519 115.091 77.9778L115.985 77.5279C115.634 76.8322 115.13 76.2998 114.471 75.9537L114.006 76.8389ZM115.094 77.982C115.358 78.4957 115.507 79.1821 115.507 80.0682H116.507C116.507 79.0793 116.343 78.2221 115.982 77.5237L115.094 77.982ZM115.507 80.0682V87H116.507V80.0682H115.507ZM116.007 86.5H114.331V87.5H116.007V86.5ZM114.831 87V80.1818H113.831V87H114.831ZM114.831 80.1818C114.831 79.2302 114.582 78.421 114.018 77.8275L113.293 78.5162C113.629 78.8697 113.831 79.4005 113.831 80.1818H114.831ZM114.022 77.8312C113.463 77.2304 112.7 76.9545 111.802 76.9545V77.9545C112.486 77.9545 112.959 78.1569 113.29 78.5125L114.022 77.8312ZM111.802 76.9545C111.18 76.9545 110.606 77.0865 110.09 77.3612L110.56 78.2439C110.915 78.0546 111.326 77.9545 111.802 77.9545V76.9545ZM110.088 77.3623C109.57 77.6412 109.162 78.049 108.867 78.5726L109.738 79.0638C109.944 78.6972 110.218 78.4279 110.562 78.2428L110.088 77.3623ZM108.865 78.5762C108.569 79.1115 108.433 79.739 108.433 80.4375H109.433C109.433 79.8671 109.543 79.415 109.74 79.0602L108.865 78.5762ZM123.817 76.0909H124.317V75.5909H123.817V76.0909ZM123.817 77.5114V78.0114H124.317V77.5114H123.817ZM118.164 77.5114H117.664V78.0114H118.164V77.5114ZM118.164 76.0909V75.5909H117.664V76.0909H118.164ZM119.812 73.4773V72.9773H119.312V73.4773H119.812ZM121.488 73.4773H121.988V72.9773H121.488V73.4773ZM121.694 84.9403L121.261 85.1913L121.267 85.2014L121.694 84.9403ZM122.234 85.4091L122.06 85.8782L122.073 85.8824L122.234 85.4091ZM123.391 85.4943L123.47 85.988L123.48 85.9865L123.489 85.9846L123.391 85.4943ZM123.675 85.4375L124.163 85.3271L124.055 84.8516L123.577 84.9472L123.675 85.4375ZM124.016 86.9432L124.192 87.4113L124.6 87.2582L124.504 86.8328L124.016 86.9432ZM123.54 87.071L123.438 86.5815L123.427 86.584L123.54 87.071ZM121.374 86.8366L121.168 87.2922L121.17 87.293L121.374 86.8366ZM120.252 85.9062L119.843 86.1942L119.846 86.1973L120.252 85.9062ZM123.317 76.0909V77.5114H124.317V76.0909H123.317ZM123.817 77.0114H118.164V78.0114H123.817V77.0114ZM118.664 77.5114V76.0909H117.664V77.5114H118.664ZM118.164 76.5909H123.817V75.5909H118.164V76.5909ZM119.812 73.9773H121.488V72.9773H119.812V73.9773ZM120.988 73.4773V83.875H121.988V73.4773H120.988ZM120.988 83.875C120.988 84.3804 121.058 84.8411 121.261 85.1912L122.126 84.6895C122.055 84.5661 121.988 84.3165 121.988 83.875H120.988ZM121.267 85.2014C121.458 85.5121 121.72 85.7522 122.06 85.8781L122.407 84.9401C122.312 84.905 122.214 84.8326 122.12 84.6793L121.267 85.2014ZM122.073 85.8824C122.349 85.9767 122.638 86.0227 122.937 86.0227V85.0227C122.743 85.0227 122.563 84.993 122.395 84.9358L122.073 85.8824ZM122.937 86.0227C123.135 86.0227 123.316 86.0128 123.47 85.988L123.312 85.0006C123.23 85.0138 123.108 85.0227 122.937 85.0227V86.0227ZM123.489 85.9846C123.608 85.9609 123.702 85.942 123.773 85.9278L123.577 84.9472C123.506 84.9614 123.412 84.9804 123.293 85.004L123.489 85.9846ZM123.188 85.5479L123.529 87.0536L124.504 86.8328L124.163 85.3271L123.188 85.5479ZM123.841 86.475C123.762 86.5046 123.632 86.5411 123.438 86.5816L123.643 87.5604C123.857 87.5157 124.044 87.467 124.192 87.4113L123.841 86.475ZM123.427 86.584C123.274 86.6196 123.057 86.642 122.766 86.642V87.642C123.1 87.642 123.4 87.6171 123.654 87.558L123.427 86.584ZM122.766 86.642C122.367 86.642 121.972 86.5567 121.579 86.3803L121.17 87.293C121.685 87.5238 122.219 87.642 122.766 87.642V86.642ZM121.58 86.3811C121.214 86.2152 120.908 85.9632 120.659 85.6152L119.846 86.1973C120.193 86.6826 120.635 87.0509 121.168 87.2922L121.58 86.3811ZM120.661 85.6183C120.44 85.3046 120.312 84.8864 120.312 84.3295H119.312C119.312 85.0417 119.477 85.6746 119.843 86.1942L120.661 85.6183ZM120.312 84.3295V73.4773H119.312V84.3295H120.312Z" fill="black"/>
</svg>
