<svg width="150" height="151" viewBox="0 0 150 151" fill="none" xmlns="http://www.w3.org/2000/svg">
<g filter="url(#filter0_d_108_7892)">
<circle cx="65" cy="82" r="4" fill="#C83434"/>
<circle cx="85" cy="82" r="4" fill="#C83434"/>
<circle cx="105" cy="82" r="4" fill="#C83434"/>
<circle cx="125" cy="82" r="4" fill="#C83434"/>
<circle cx="45" cy="82" r="4" fill="#C83434"/>
<circle cx="25" cy="82" r="4" fill="#C83434"/>
<circle cx="65" cy="62" r="4" fill="#C83434"/>
<circle cx="85" cy="62" r="4" fill="#C83434"/>
<circle cx="105" cy="62" r="4" fill="#C83434"/>
<circle cx="125" cy="62" r="4" fill="#C83434"/>
<circle cx="45" cy="62" r="4" fill="#C83434"/>
<circle cx="25" cy="62" r="4" fill="#C83434"/>
<circle cx="65" cy="42" r="4" fill="#C83434"/>
<circle cx="85" cy="42" r="4" fill="#C83434"/>
<circle cx="105" cy="42" r="4" fill="#C83434"/>
<circle cx="125" cy="42" r="4" fill="#C83434"/>
<circle cx="45" cy="42" r="4" fill="#C83434"/>
<circle cx="25" cy="42" r="4" fill="#C83434"/>
<circle cx="65" cy="22" r="4" fill="#C83434"/>
<circle cx="85" cy="22" r="4" fill="#C83434"/>
<circle cx="105" cy="22" r="4" fill="#C83434"/>
<circle cx="125" cy="22" r="4" fill="#C83434"/>
<circle cx="45" cy="22" r="4" fill="#C83434"/>
<circle cx="25" cy="22" r="4" fill="#C83434"/>
<circle cx="65" cy="102" r="4" fill="#C83434"/>
<circle cx="85" cy="102" r="4" fill="#C83434"/>
<circle cx="105" cy="102" r="4" fill="#C83434"/>
<circle cx="125" cy="102" r="4" fill="#C83434"/>
<circle cx="45" cy="102" r="4" fill="#C83434"/>
<circle cx="25" cy="102" r="4" fill="#C83434"/>
<circle cx="65" cy="122" r="4" fill="#C83434"/>
<circle cx="85" cy="122" r="4" fill="#C83434"/>
<circle cx="105" cy="122" r="4" fill="#C83434"/>
<circle cx="125" cy="122" r="4" fill="#C83434"/>
<circle cx="45" cy="122" r="4" fill="#C83434"/>
<circle cx="25" cy="122" r="4" fill="#C83434"/>
<rect width="4" height="10" transform="matrix(-0.707107 -0.707107 -0.707107 0.707107 34.9497 14.8787)" fill="#C83434"/>
<rect width="4" height="10" transform="matrix(-0.707107 -0.707107 -0.707107 0.707107 54.9497 14.8787)" fill="#C83434"/>
<rect width="4" height="10" transform="matrix(-0.707107 -0.707107 -0.707107 0.707107 74.9497 14.8787)" fill="#C83434"/>
<rect width="4" height="10" transform="matrix(-0.707107 -0.707107 -0.707107 0.707107 34.9497 34.8787)" fill="#C83434"/>
<rect width="4" height="10" transform="matrix(-0.707107 -0.707107 -0.707107 0.707107 54.9497 34.8787)" fill="#C83434"/>
<rect width="4" height="10" transform="matrix(-0.707107 -0.707107 -0.707107 0.707107 74.9497 34.8787)" fill="#C83434"/>
<rect width="4" height="10" transform="matrix(-0.707107 -0.707107 -0.707107 0.707107 34.9497 54.8787)" fill="#C83434"/>
<rect width="4" height="10" transform="matrix(-0.707107 -0.707107 -0.707107 0.707107 54.9497 54.8787)" fill="#C83434"/>
<rect width="4" height="10" transform="matrix(-0.707107 -0.707107 -0.707107 0.707107 74.9497 54.8787)" fill="#C83434"/>
<rect width="4" height="10" transform="matrix(-0.707107 -0.707107 -0.707107 0.707107 94.9497 14.8787)" fill="#C83434"/>
<rect width="4" height="10" transform="matrix(-0.707107 -0.707107 -0.707107 0.707107 114.95 14.8787)" fill="#C83434"/>
<rect width="4" height="10" transform="matrix(-0.707107 -0.707107 -0.707107 0.707107 134.95 14.8787)" fill="#C83434"/>
<rect width="4" height="10" transform="matrix(-0.707107 -0.707107 -0.707107 0.707107 94.9497 34.8787)" fill="#C83434"/>
<rect width="4" height="10" transform="matrix(-0.707107 -0.707107 -0.707107 0.707107 114.95 34.8787)" fill="#C83434"/>
<rect width="4" height="10" transform="matrix(-0.707107 -0.707107 -0.707107 0.707107 134.95 34.8787)" fill="#C83434"/>
<rect width="4" height="10" transform="matrix(-0.707107 -0.707107 -0.707107 0.707107 94.9497 54.8787)" fill="#C83434"/>
<rect width="4" height="10" transform="matrix(-0.707107 -0.707107 -0.707107 0.707107 114.95 54.8787)" fill="#C83434"/>
<rect width="4" height="10" transform="matrix(-0.707107 -0.707107 -0.707107 0.707107 134.95 54.8787)" fill="#C83434"/>
<rect width="4" height="10" transform="matrix(-0.707107 -0.707107 -0.707107 0.707107 94.9497 74.8787)" fill="#C83434"/>
<rect width="4" height="10" transform="matrix(-0.707107 -0.707107 -0.707107 0.707107 114.95 74.8787)" fill="#C83434"/>
<rect width="4" height="10" transform="matrix(-0.707107 -0.707107 -0.707107 0.707107 134.95 74.8787)" fill="#C83434"/>
<rect width="4" height="10" transform="matrix(-0.707107 -0.707107 -0.707107 0.707107 94.9497 94.8787)" fill="#C83434"/>
<rect width="4" height="10" transform="matrix(-0.707107 -0.707107 -0.707107 0.707107 114.95 94.8787)" fill="#C83434"/>
<rect width="4" height="10" transform="matrix(-0.707107 -0.707107 -0.707107 0.707107 134.95 94.8787)" fill="#C83434"/>
<rect width="4" height="10" transform="matrix(-0.707107 -0.707107 -0.707107 0.707107 94.9497 114.879)" fill="#C83434"/>
<rect width="4" height="10" transform="matrix(-0.707107 -0.707107 -0.707107 0.707107 114.95 114.879)" fill="#C83434"/>
<rect width="4" height="10" transform="matrix(-0.707107 -0.707107 -0.707107 0.707107 134.95 114.879)" fill="#C83434"/>
<rect width="4" height="10" transform="matrix(-0.707107 -0.707107 -0.707107 0.707107 34.9497 74.8787)" fill="#C83434"/>
<rect width="4" height="10" transform="matrix(-0.707107 -0.707107 -0.707107 0.707107 54.9497 74.8787)" fill="#C83434"/>
<rect width="4" height="10" transform="matrix(-0.707107 -0.707107 -0.707107 0.707107 74.9497 74.8787)" fill="#C83434"/>
<rect width="4" height="10" transform="matrix(-0.707107 -0.707107 -0.707107 0.707107 34.9497 94.8787)" fill="#C83434"/>
<rect width="4" height="10" transform="matrix(-0.707107 -0.707107 -0.707107 0.707107 54.9497 94.8787)" fill="#C83434"/>
<rect width="4" height="10" transform="matrix(-0.707107 -0.707107 -0.707107 0.707107 74.9497 94.8787)" fill="#C83434"/>
<rect width="4" height="10" transform="matrix(-0.707107 -0.707107 -0.707107 0.707107 34.9497 114.879)" fill="#C83434"/>
<rect width="4" height="10" transform="matrix(-0.707107 -0.707107 -0.707107 0.707107 54.9497 114.879)" fill="#C83434"/>
<rect width="4" height="10" transform="matrix(-0.707107 -0.707107 -0.707107 0.707107 74.9497 114.879)" fill="#C83434"/>
<circle cx="35" cy="12" r="5" fill="#57ACDC"/>
<circle cx="35" cy="12" r="3" fill="#496989"/>
<circle cx="55" cy="12" r="5" fill="#57ACDC"/>
<circle cx="55" cy="12" r="3" fill="#496989"/>
<circle cx="35" cy="32" r="5" fill="#57ACDC"/>
<circle cx="35" cy="32" r="3" fill="#496989"/>
<circle cx="55" cy="32" r="5" fill="#57ACDC"/>
<circle cx="55" cy="32" r="3" fill="#496989"/>
<circle cx="35" cy="52" r="5" fill="#57ACDC"/>
<circle cx="35" cy="52" r="3" fill="#496989"/>
<circle cx="55" cy="52" r="5" fill="#57ACDC"/>
<circle cx="55" cy="52" r="3" fill="#496989"/>
<circle cx="35" cy="92" r="5" fill="#57ACDC"/>
<circle cx="35" cy="92" r="3" fill="#496989"/>
<circle cx="55" cy="92" r="5" fill="#57ACDC"/>
<circle cx="55" cy="92" r="3" fill="#496989"/>
<circle cx="35" cy="112" r="5" fill="#57ACDC"/>
<circle cx="35" cy="112" r="3" fill="#496989"/>
<circle cx="55" cy="112" r="5" fill="#57ACDC"/>
<circle cx="55" cy="112" r="3" fill="#496989"/>
<circle cx="95" cy="112" r="5" fill="#57ACDC"/>
<circle cx="95" cy="112" r="3" fill="#496989"/>
<circle cx="115" cy="112" r="5" fill="#57ACDC"/>
<circle cx="115" cy="112" r="3" fill="#496989"/>
<circle cx="135" cy="112" r="5" fill="#57ACDC"/>
<circle cx="135" cy="112" r="3" fill="#496989"/>
<circle cx="95" cy="92" r="5" fill="#57ACDC"/>
<circle cx="95" cy="92" r="3" fill="#496989"/>
<circle cx="115" cy="92" r="5" fill="#57ACDC"/>
<circle cx="115" cy="92" r="3" fill="#496989"/>
<circle cx="135" cy="92" r="5" fill="#57ACDC"/>
<circle cx="135" cy="92" r="3" fill="#496989"/>
<circle cx="95" cy="52" r="5" fill="#57ACDC"/>
<circle cx="95" cy="52" r="3" fill="#496989"/>
<circle cx="95" cy="72" r="5" fill="#57ACDC"/>
<circle cx="95" cy="72" r="3" fill="#496989"/>
<circle cx="135" cy="72" r="5" fill="#57ACDC"/>
<circle cx="135" cy="72" r="3" fill="#496989"/>
<circle cx="75" cy="72" r="5" fill="#57ACDC"/>
<circle cx="75" cy="72" r="3" fill="#496989"/>
<circle cx="55" cy="72" r="5" fill="#57ACDC"/>
<circle cx="55" cy="72" r="3" fill="#496989"/>
<circle cx="35" cy="72" r="5" fill="#57ACDC"/>
<circle cx="35" cy="72" r="3" fill="#496989"/>
<circle cx="75" cy="92" r="5" fill="#57ACDC"/>
<circle cx="75" cy="92" r="3" fill="#496989"/>
<circle cx="75" cy="112" r="5" fill="#57ACDC"/>
<circle cx="75" cy="112" r="3" fill="#496989"/>
<circle cx="115" cy="52" r="5" fill="#57ACDC"/>
<circle cx="115" cy="52" r="3" fill="#496989"/>
<circle cx="115" cy="72" r="5" fill="#57ACDC"/>
<circle cx="115" cy="72" r="3" fill="#496989"/>
<circle cx="135" cy="52" r="5" fill="#57ACDC"/>
<circle cx="135" cy="52" r="3" fill="#496989"/>
<circle cx="95" cy="32" r="5" fill="#57ACDC"/>
<circle cx="95" cy="32" r="3" fill="#496989"/>
<circle cx="115" cy="32" r="5" fill="#57ACDC"/>
<circle cx="115" cy="32" r="3" fill="#496989"/>
<circle cx="135" cy="32" r="5" fill="#57ACDC"/>
<circle cx="135" cy="32" r="3" fill="#496989"/>
<circle cx="95" cy="12" r="5" fill="#57ACDC"/>
<circle cx="95" cy="12" r="3" fill="#496989"/>
<circle cx="115" cy="12" r="5" fill="#57ACDC"/>
<circle cx="115" cy="12" r="3" fill="#496989"/>
<circle cx="135" cy="12" r="5" fill="#57ACDC"/>
<circle cx="135" cy="12" r="3" fill="#496989"/>
<circle cx="75" cy="12" r="5" fill="#57ACDC"/>
<circle cx="75" cy="12" r="3" fill="#496989"/>
<circle cx="75" cy="32" r="5" fill="#57ACDC"/>
<circle cx="75" cy="32" r="3" fill="#496989"/>
<circle cx="75" cy="52" r="5" fill="#57ACDC"/>
<circle cx="75" cy="52" r="3" fill="#496989"/>
<rect x="4" y="1" width="4" height="142" fill="#F2EDA1"/>
<rect x="142" y="1" width="4" height="142" fill="#F2EDA1"/>
<rect x="4" y="5" width="4" height="142" transform="rotate(-90 4 5)" fill="#F2EDA1"/>
<rect x="4" y="143" width="4" height="142" transform="rotate(-90 4 143)" fill="#F2EDA1"/>
</g>
<defs>
<filter id="filter0_d_108_7892" x="0" y="1" width="150" height="150" filterUnits="userSpaceOnUse" color-interpolation-filters="sRGB">
<feFlood flood-opacity="0" result="BackgroundImageFix"/>
<feColorMatrix in="SourceAlpha" type="matrix" values="0 0 0 0 0 0 0 0 0 0 0 0 0 0 0 0 0 0 127 0" result="hardAlpha"/>
<feOffset dy="4"/>
<feGaussianBlur stdDeviation="2"/>
<feComposite in2="hardAlpha" operator="out"/>
<feColorMatrix type="matrix" values="0 0 0 0 0 0 0 0 0 0 0 0 0 0 0 0 0 0 0.25 0"/>
<feBlend mode="normal" in2="BackgroundImageFix" result="effect1_dropShadow_108_7892"/>
<feBlend mode="normal" in="SourceGraphic" in2="effect1_dropShadow_108_7892" result="shape"/>
</filter>
</defs>
</svg>
