<svg width="160" height="160" viewBox="0 0 160 160" fill="none" xmlns="http://www.w3.org/2000/svg">
<circle cx="64" cy="96" r="6" fill="#C83434"/>
<circle cx="32" cy="96" r="6" fill="#C83434"/>
<circle cx="32" cy="128" r="6" fill="#C83434"/>
<circle cx="64" cy="128" r="6" fill="#C83434"/>
<circle cx="128" cy="96" r="6" fill="#C83434"/>
<circle cx="96" cy="96" r="6" fill="#C83434"/>
<circle cx="96" cy="128" r="6" fill="#C83434"/>
<circle cx="128" cy="128" r="6" fill="#C83434"/>
<circle cx="128" cy="32" r="6" fill="#C83434"/>
<circle cx="96" cy="32" r="6" fill="#C83434"/>
<circle cx="96" cy="64" r="6" fill="#C83434"/>
<circle cx="128" cy="64" r="6" fill="#C83434"/>
<circle cx="64" cy="32" r="6" fill="#C83434"/>
<circle cx="32" cy="32" r="6" fill="#C83434"/>
<circle cx="32" cy="64" r="6" fill="#C83434"/>
<circle cx="64" cy="64" r="6" fill="#C83434"/>
<rect width="6" height="20" transform="matrix(0.707107 0.707107 0.707107 -0.707107 30.8076 28.9497)" fill="#C83434"/>
<rect width="6" height="20" transform="matrix(0.707107 0.707107 0.707107 -0.707107 62.8076 28.9497)" fill="#C83434"/>
<rect width="6" height="20" transform="matrix(0.707107 0.707107 0.707107 -0.707107 94.8076 28.9497)" fill="#C83434"/>
<rect width="6" height="20" transform="matrix(0.707107 0.707107 0.707107 -0.707107 126.808 28.9497)" fill="#C83434"/>
<rect width="6" height="20" transform="matrix(0.707107 0.707107 0.707107 -0.707107 126.808 60.9497)" fill="#C83434"/>
<rect width="6" height="20" transform="matrix(0.707107 0.707107 0.707107 -0.707107 94.8076 60.9497)" fill="#C83434"/>
<rect width="6" height="20" transform="matrix(0.707107 0.707107 0.707107 -0.707107 62.8076 60.9497)" fill="#C83434"/>
<rect width="6" height="20" transform="matrix(0.707107 0.707107 0.707107 -0.707107 30.8076 60.9497)" fill="#C83434"/>
<rect width="6" height="20" transform="matrix(0.707107 0.707107 0.707107 -0.707107 31 93.1421)" fill="#C83434"/>
<rect width="6" height="20" transform="matrix(0.707107 0.707107 0.707107 -0.707107 31 125.142)" fill="#C83434"/>
<rect width="6" height="20" transform="matrix(0.707107 0.707107 0.707107 -0.707107 62 126.142)" fill="#C83434"/>
<rect width="6" height="20" transform="matrix(0.707107 0.707107 0.707107 -0.707107 63 93.1421)" fill="#C83434"/>
<rect width="6" height="20" transform="matrix(0.707107 0.707107 0.707107 -0.707107 94.8076 92.9497)" fill="#C83434"/>
<rect width="6" height="20" transform="matrix(0.707107 0.707107 0.707107 -0.707107 126.808 125.95)" fill="#C83434"/>
<rect width="6" height="20" transform="matrix(0.707107 0.707107 0.707107 -0.707107 126.808 92.9497)" fill="#C83434"/>
<rect width="6" height="20" transform="matrix(0.707107 0.707107 0.707107 -0.707107 94.8076 124.95)" fill="#C83434"/>
<circle cx="80" cy="16" r="7" fill="#57ACDC"/>
<circle cx="80" cy="16" r="4" fill="#496989"/>
<circle cx="48" cy="16" r="7" fill="#57ACDC"/>
<circle cx="48" cy="16" r="4" fill="#496989"/>
<circle cx="112" cy="16" r="7" fill="#57ACDC"/>
<circle cx="112" cy="16" r="4" fill="#496989"/>
<circle cx="144" cy="16" r="7" fill="#57ACDC"/>
<circle cx="144" cy="16" r="4" fill="#496989"/>
<circle cx="112" cy="48" r="7" fill="#57ACDC"/>
<circle cx="112" cy="48" r="4" fill="#496989"/>
<circle cx="144" cy="48" r="7" fill="#57ACDC"/>
<circle cx="144" cy="48" r="4" fill="#496989"/>
<circle cx="80" cy="48" r="7" fill="#57ACDC"/>
<circle cx="80" cy="48" r="4" fill="#496989"/>
<circle cx="48" cy="48" r="7" fill="#57ACDC"/>
<circle cx="48" cy="48" r="4" fill="#496989"/>
<circle cx="112" cy="112" r="7" fill="#57ACDC"/>
<circle cx="144" cy="112" r="7" fill="#57ACDC"/>
<circle cx="144" cy="80" r="7" fill="#57ACDC"/>
<circle cx="112" cy="80" r="7" fill="#57ACDC"/>
<circle cx="48" cy="112" r="7" fill="#57ACDC"/>
<circle cx="48" cy="80" r="7" fill="#57ACDC"/>
<circle cx="80" cy="80" r="7" fill="#57ACDC"/>
<circle cx="80" cy="112" r="7" fill="#57ACDC"/>
<circle cx="48" cy="80" r="4" fill="#496989"/>
<circle cx="48" cy="112" r="4" fill="#496989"/>
<circle cx="112" cy="112" r="4" fill="#496989"/>
<circle cx="144" cy="112" r="4" fill="#496989"/>
<circle cx="80" cy="80" r="4" fill="#496989"/>
<circle cx="80" cy="112" r="4" fill="#496989"/>
<circle cx="112" cy="80" r="4" fill="#496989"/>
<circle cx="144" cy="80" r="4" fill="#496989"/>
<rect x="1" y="1" width="4" height="158" fill="#F2EDA1"/>
<rect x="155" y="1" width="4" height="158" fill="#F2EDA1"/>
<rect x="1" y="5" width="4" height="158" transform="rotate(-90 1 5)" fill="#F2EDA1"/>
<rect x="1" y="159" width="4" height="158" transform="rotate(-90 1 159)" fill="#F2EDA1"/>
<rect x="3.82837" y="10.8995" width="4" height="10" rx="2" transform="rotate(-135 3.82837 10.8995)" fill="#F2EDA1"/>
</svg>
