<svg width="160" height="160" viewBox="0 0 160 160" fill="none" xmlns="http://www.w3.org/2000/svg">
<rect width="160" height="160" fill="#D9D9D9"/>
<path d="M55.4545 76.0909L51.4205 87H49.7159L45.6818 76.0909H47.5L50.5114 84.7841H50.625L53.6364 76.0909H55.4545ZM61.8501 87.2273C60.799 87.2273 59.8923 86.9953 59.13 86.5312C58.3724 86.0625 57.7876 85.4091 57.3757 84.571C56.9685 83.7282 56.7649 82.7481 56.7649 81.6307C56.7649 80.5133 56.9685 79.5284 57.3757 78.6761C57.7876 77.8191 58.3606 77.1515 59.0945 76.6733C59.8331 76.1903 60.6948 75.9489 61.6797 75.9489C62.2479 75.9489 62.8089 76.0436 63.3629 76.233C63.9169 76.4223 64.4212 76.7301 64.8757 77.1562C65.3303 77.5777 65.6925 78.1364 65.9624 78.8324C66.2322 79.5284 66.3672 80.3854 66.3672 81.4034V82.1136H57.9581V80.6648H64.6626C64.6626 80.0492 64.5395 79.5 64.2933 79.017C64.0518 78.5341 63.7062 78.1529 63.2564 77.8736C62.8113 77.5942 62.2857 77.4545 61.6797 77.4545C61.0121 77.4545 60.4344 77.6203 59.9467 77.9517C59.4638 78.2784 59.0921 78.7045 58.8317 79.2301C58.5713 79.7557 58.4411 80.3191 58.4411 80.9205V81.8864C58.4411 82.7102 58.5831 83.4086 58.8672 83.9815C59.156 84.5497 59.5561 84.983 60.0675 85.2812C60.5788 85.5748 61.1731 85.7216 61.8501 85.7216C62.2905 85.7216 62.6882 85.66 63.0433 85.5369C63.4032 85.4091 63.7133 85.2197 63.9737 84.9688C64.2341 84.7131 64.4354 84.3958 64.5774 84.017L66.1967 84.4716C66.0263 85.0208 65.7398 85.5038 65.3374 85.9205C64.9349 86.3324 64.4377 86.6544 63.8459 86.8864C63.254 87.1136 62.5888 87.2273 61.8501 87.2273ZM68.9169 87V76.0909H70.5362V77.7386H70.6499C70.8487 77.1989 71.2086 76.7609 71.7294 76.4247C72.2502 76.0885 72.8374 75.9205 73.4908 75.9205C73.6139 75.9205 73.7678 75.9228 73.9524 75.9276C74.1371 75.9323 74.2768 75.9394 74.3714 75.9489V77.6534C74.3146 77.6392 74.1844 77.6179 73.9808 77.5895C73.782 77.5563 73.5713 77.5398 73.3487 77.5398C72.8184 77.5398 72.3449 77.651 71.9283 77.8736C71.5163 78.0914 71.1896 78.3944 70.9482 78.7827C70.7114 79.1662 70.593 79.6042 70.593 80.0966V87H68.9169ZM81.7862 76.0909V77.5114H76.1328V76.0909H81.7862ZM77.7805 73.4773H79.4567V83.875C79.4567 84.3485 79.5253 84.7036 79.6626 84.9403C79.8047 85.1723 79.9846 85.3286 80.2024 85.4091C80.425 85.4848 80.6593 85.5227 80.9055 85.5227C81.0902 85.5227 81.2417 85.5133 81.3601 85.4943C81.4785 85.4706 81.5732 85.4517 81.6442 85.4375L81.9851 86.9432C81.8714 86.9858 81.7128 87.0284 81.5092 87.071C81.3056 87.1184 81.0476 87.142 80.7351 87.142C80.2616 87.142 79.7976 87.0402 79.343 86.8366C78.8932 86.633 78.5192 86.3229 78.2209 85.9062C77.9273 85.4896 77.7805 84.964 77.7805 84.3295V73.4773ZM84.3075 87V76.0909H85.9837V87H84.3075ZM85.1598 74.2727C84.8331 74.2727 84.5514 74.1615 84.3146 73.9389C84.0826 73.7164 83.9666 73.4489 83.9666 73.1364C83.9666 72.8239 84.0826 72.5563 84.3146 72.3338C84.5514 72.1113 84.8331 72 85.1598 72C85.4865 72 85.7659 72.1113 85.9979 72.3338C86.2346 72.5563 86.353 72.8239 86.353 73.1364C86.353 73.4489 86.2346 73.7164 85.9979 73.9389C85.7659 74.1615 85.4865 74.2727 85.1598 74.2727ZM93.4854 87.2273C92.4627 87.2273 91.582 86.9858 90.8434 86.5028C90.1048 86.0199 89.5366 85.3546 89.1388 84.5071C88.7411 83.6596 88.5423 82.6913 88.5423 81.6023C88.5423 80.4943 88.7459 79.5166 89.1531 78.669C89.565 77.8168 90.1379 77.1515 90.8718 76.6733C91.6104 76.1903 92.4722 75.9489 93.457 75.9489C94.2241 75.9489 94.9154 76.0909 95.5309 76.375C96.1464 76.6591 96.6507 77.0568 97.0437 77.5682C97.4367 78.0795 97.6805 78.6761 97.7752 79.358H96.0991C95.9712 78.8608 95.6871 78.4205 95.2468 78.0369C94.8112 77.6487 94.2241 77.4545 93.4854 77.4545C92.832 77.4545 92.2591 77.625 91.7667 77.9659C91.279 78.3021 90.8978 78.7779 90.6232 79.3935C90.3533 80.0043 90.2184 80.7216 90.2184 81.5455C90.2184 82.3883 90.351 83.1222 90.6161 83.7472C90.886 84.3722 91.2648 84.8575 91.7525 85.2031C92.2449 85.5488 92.8226 85.7216 93.4854 85.7216C93.921 85.7216 94.3164 85.6458 94.6715 85.4943C95.0266 85.3428 95.3273 85.125 95.5735 84.8409C95.8197 84.5568 95.9949 84.2159 96.0991 83.8182H97.7752C97.6805 84.4621 97.4461 85.0421 97.0721 85.5582C96.7028 86.0696 96.2127 86.4768 95.6019 86.7798C94.9959 87.0781 94.2904 87.2273 93.4854 87.2273ZM103.436 87.2557C102.744 87.2557 102.117 87.1255 101.554 86.8651C100.99 86.5999 100.543 86.2188 100.211 85.7216C99.8799 85.2197 99.7141 84.6136 99.7141 83.9034C99.7141 83.2784 99.8372 82.7718 100.083 82.3835C100.33 81.9905 100.659 81.6828 101.071 81.4602C101.483 81.2377 101.937 81.072 102.434 80.9631C102.936 80.8494 103.44 80.7595 103.947 80.6932C104.61 80.608 105.147 80.544 105.559 80.5014C105.976 80.4541 106.279 80.3759 106.468 80.267C106.663 80.1581 106.76 79.9687 106.76 79.6989V79.642C106.76 78.9413 106.568 78.3968 106.184 78.0085C105.806 77.6203 105.23 77.4261 104.458 77.4261C103.658 77.4261 103.031 77.6013 102.576 77.9517C102.122 78.3021 101.802 78.6761 101.618 79.0739L100.027 78.5057C100.311 77.8428 100.69 77.3267 101.163 76.9574C101.641 76.5833 102.162 76.3229 102.725 76.1761C103.294 76.0246 103.852 75.9489 104.402 75.9489C104.752 75.9489 105.154 75.9915 105.609 76.0767C106.068 76.1572 106.511 76.3253 106.937 76.581C107.368 76.8366 107.725 77.2225 108.01 77.7386C108.294 78.2547 108.436 78.946 108.436 79.8125V87H106.76V85.5227H106.674C106.561 85.7595 106.371 86.0128 106.106 86.2827C105.841 86.5526 105.488 86.7822 105.048 86.9716C104.608 87.161 104.07 87.2557 103.436 87.2557ZM103.691 85.75C104.354 85.75 104.913 85.6198 105.368 85.3594C105.827 85.099 106.172 84.7628 106.404 84.3509C106.641 83.9389 106.76 83.5057 106.76 83.0511V81.517C106.689 81.6023 106.532 81.6804 106.291 81.7514C106.054 81.8177 105.779 81.8769 105.467 81.929C105.159 81.9763 104.859 82.0189 104.565 82.0568C104.276 82.09 104.042 82.1184 103.862 82.142C103.426 82.1989 103.019 82.2912 102.64 82.419C102.266 82.5421 101.963 82.7292 101.731 82.9801C101.504 83.2263 101.39 83.5625 101.39 83.9886C101.39 84.571 101.606 85.0114 102.037 85.3097C102.472 85.6032 103.024 85.75 103.691 85.75ZM113.171 72.4545V87H111.495V72.4545H113.171Z" fill="black"/>
<path d="M55.4545 76.0909L55.9235 76.2643L56.1725 75.5909H55.4545V76.0909ZM51.4205 87V87.5H51.7687L51.8894 87.1734L51.4205 87ZM49.7159 87L49.2469 87.1734L49.3677 87.5H49.7159V87ZM45.6818 76.0909V75.5909H44.9638L45.2129 76.2643L45.6818 76.0909ZM47.5 76.0909L47.9725 75.9272L47.8559 75.5909H47.5V76.0909ZM50.5114 84.7841L50.0389 84.9478L50.1554 85.2841H50.5114V84.7841ZM50.625 84.7841V85.2841H50.9809L51.0975 84.9478L50.625 84.7841ZM53.6364 76.0909V75.5909H53.2804L53.1639 75.9272L53.6364 76.0909ZM54.9856 75.9175L50.9515 86.8266L51.8894 87.1734L55.9235 76.2643L54.9856 75.9175ZM51.4205 86.5H49.7159V87.5H51.4205V86.5ZM50.1849 86.8266L46.1508 75.9175L45.2129 76.2643L49.2469 87.1734L50.1849 86.8266ZM45.6818 76.5909H47.5V75.5909H45.6818V76.5909ZM47.0275 76.2546L50.0389 84.9478L50.9838 84.6204L47.9725 75.9272L47.0275 76.2546ZM50.5114 85.2841H50.625V84.2841H50.5114V85.2841ZM51.0975 84.9478L54.1088 76.2546L53.1639 75.9272L50.1525 84.6204L51.0975 84.9478ZM53.6364 76.5909H55.4545V75.5909H53.6364V76.5909ZM59.13 86.5312L58.8669 86.9565L58.87 86.9583L59.13 86.5312ZM57.3757 84.571L56.9255 84.7885L56.927 84.7916L57.3757 84.571ZM57.3757 78.6761L56.9251 78.4595L56.9246 78.4606L57.3757 78.6761ZM59.0945 76.6733L59.3674 77.0922L59.3681 77.0918L59.0945 76.6733ZM63.3629 76.233L63.5247 75.7598L63.5247 75.7598L63.3629 76.233ZM64.8757 77.1562L64.5337 77.521L64.5358 77.5229L64.8757 77.1562ZM65.9624 78.8324L66.4285 78.6516L66.4285 78.6516L65.9624 78.8324ZM66.3672 82.1136V82.6136H66.8672V82.1136H66.3672ZM57.9581 82.1136H57.4581V82.6136H57.9581V82.1136ZM57.9581 80.6648V80.1648H57.4581V80.6648H57.9581ZM64.6626 80.6648V81.1648H65.1626V80.6648H64.6626ZM64.2933 79.017L63.8461 79.2407L63.8479 79.2441L64.2933 79.017ZM63.2564 77.8736L62.9906 78.2971L62.9926 78.2983L63.2564 77.8736ZM59.9467 77.9517L60.2269 78.3658L60.2278 78.3652L59.9467 77.9517ZM58.8317 79.2301L58.3837 79.0081L58.3837 79.0081L58.8317 79.2301ZM58.8672 83.9815L58.4192 84.2037L58.4215 84.2081L58.8672 83.9815ZM60.0675 85.2812L59.8155 85.7131L59.8185 85.7149L60.0675 85.2812ZM63.0433 85.5369L63.2071 86.0094L63.2107 86.0081L63.0433 85.5369ZM63.9737 84.9688L64.3207 85.3288L64.324 85.3255L63.9737 84.9688ZM64.5774 84.017L64.7125 83.5357L64.2705 83.4116L64.1093 83.8415L64.5774 84.017ZM66.1967 84.4716L66.6743 84.6198L66.8266 84.1291L66.3319 83.9902L66.1967 84.4716ZM65.3374 85.9205L65.695 86.2699L65.697 86.2678L65.3374 85.9205ZM63.8459 86.8864L64.0251 87.3531L64.0284 87.3519L63.8459 86.8864ZM61.8501 86.7273C60.8742 86.7273 60.0609 86.5126 59.3899 86.1042L58.87 86.9583C59.7236 87.478 60.7238 87.7273 61.8501 87.7273V86.7273ZM59.3931 86.1061C58.7193 85.6892 58.197 85.1085 57.8244 84.3505L56.927 84.7916C57.3783 85.7097 58.0255 86.4358 58.8669 86.9564L59.3931 86.1061ZM57.8259 84.3535C57.4572 83.5904 57.2649 82.6872 57.2649 81.6307H56.2649C56.2649 82.809 56.4798 83.866 56.9255 84.7885L57.8259 84.3535ZM57.2649 81.6307C57.2649 80.5743 57.4572 79.6654 57.8269 78.8917L56.9246 78.4606C56.4798 79.3914 56.2649 80.4522 56.2649 81.6307H57.2649ZM57.8264 78.8927C58.2022 78.1109 58.7166 77.5163 59.3674 77.0922L58.8215 76.2544C58.0045 76.7868 57.3731 77.5274 56.9251 78.4595L57.8264 78.8927ZM59.3681 77.0918C60.0161 76.6681 60.7804 76.4489 61.6797 76.4489V75.4489C60.6093 75.4489 59.6501 75.7126 58.8208 76.2548L59.3681 77.0918ZM61.6797 76.4489C62.1912 76.4489 62.6977 76.5339 63.2012 76.7061L63.5247 75.7598C62.9202 75.5532 62.3046 75.4489 61.6797 75.4489V76.4489ZM63.2012 76.7061C63.6838 76.8711 64.1275 77.1402 64.5337 77.521L65.2177 76.7915C64.7148 76.32 64.15 75.9736 63.5247 75.7598L63.2012 76.7061ZM64.5358 77.5229C64.9245 77.8833 65.2482 78.3736 65.4962 79.0132L66.4285 78.6516C66.1368 77.8991 65.7361 77.2721 65.2156 76.7896L64.5358 77.5229ZM65.4962 79.0131C65.7372 79.6347 65.8672 80.4262 65.8672 81.4034H66.8672C66.8672 80.3446 66.7273 79.4221 66.4285 78.6516L65.4962 79.0131ZM65.8672 81.4034V82.1136H66.8672V81.4034H65.8672ZM66.3672 81.6136H57.9581V82.6136H66.3672V81.6136ZM58.4581 82.1136V80.6648H57.4581V82.1136H58.4581ZM57.9581 81.1648H64.6626V80.1648H57.9581V81.1648ZM65.1626 80.6648C65.1626 79.9811 65.0254 79.3522 64.7388 78.79L63.8479 79.2441C64.0536 79.6478 64.1626 80.1174 64.1626 80.6648H65.1626ZM64.7405 78.7934C64.4586 78.2295 64.0502 77.778 63.5202 77.4488L62.9926 78.2983C63.3622 78.5279 63.6451 78.8387 63.8461 79.2407L64.7405 78.7934ZM63.5222 77.4501C62.9859 77.1135 62.3651 76.9545 61.6797 76.9545V77.9545C62.2064 77.9545 62.6368 78.075 62.9906 78.2971L63.5222 77.4501ZM61.6797 76.9545C60.9256 76.9545 60.2469 77.1431 59.6657 77.5382L60.2278 78.3652C60.6219 78.0974 61.0986 77.9545 61.6797 77.9545V76.9545ZM59.6666 77.5376C59.1115 77.913 58.6822 78.4055 58.3837 79.0081L59.2797 79.4521C59.502 79.0035 59.816 78.6438 60.2269 78.3658L59.6666 77.5376ZM58.3837 79.0081C58.0882 79.6045 57.9411 80.2441 57.9411 80.9205H58.9411C58.9411 80.3941 59.0543 79.9069 59.2797 79.4521L58.3837 79.0081ZM57.9411 80.9205V81.8864H58.9411V80.9205H57.9411ZM57.9411 81.8864C57.9411 82.7658 58.0925 83.5447 58.4192 84.2037L59.3151 83.7594C59.0737 83.2725 58.9411 82.6546 58.9411 81.8864H57.9411ZM58.4215 84.2081C58.7503 84.8551 59.2148 85.3627 59.8155 85.7131L60.3194 84.8494C59.8974 84.6032 59.5617 84.2444 59.3129 83.755L58.4215 84.2081ZM59.8185 85.7149C60.4163 86.058 61.0988 86.2216 61.8501 86.2216V85.2216C61.2473 85.2216 60.7414 85.0916 60.3164 84.8476L59.8185 85.7149ZM61.8501 86.2216C62.3369 86.2216 62.7911 86.1535 63.2071 86.0093L62.8796 85.0645C62.5853 85.1665 62.2441 85.2216 61.8501 85.2216V86.2216ZM63.2107 86.0081C63.6338 85.8578 64.0061 85.6319 64.3207 85.3288L63.6268 84.6087C63.4205 84.8075 63.1725 84.9604 62.8759 85.0658L63.2107 86.0081ZM64.324 85.3255C64.6419 85.0135 64.8807 84.6322 65.0456 84.1926L64.1093 83.8415C63.99 84.1595 63.8264 84.4127 63.6234 84.612L64.324 85.3255ZM64.4423 84.4984L66.0616 84.953L66.3319 83.9902L64.7125 83.5357L64.4423 84.4984ZM65.7192 84.3234C65.5721 84.7974 65.3263 85.2122 64.9777 85.5731L65.697 86.2678C66.1534 85.7953 66.4805 85.2443 66.6743 84.6198L65.7192 84.3234ZM64.9797 85.571C64.6317 85.9273 64.1962 86.212 63.6634 86.4209L64.0284 87.3519C64.6793 87.0967 65.2381 86.7375 65.695 86.2699L64.9797 85.571ZM63.6666 86.4196C63.1406 86.6216 62.5374 86.7273 61.8501 86.7273V87.7273C62.6401 87.7273 63.3675 87.6057 64.0251 87.3531L63.6666 86.4196ZM68.9169 87H68.4169V87.5H68.9169V87ZM68.9169 76.0909V75.5909H68.4169V76.0909H68.9169ZM70.5362 76.0909H71.0362V75.5909H70.5362V76.0909ZM70.5362 77.7386H70.0362V78.2386H70.5362V77.7386ZM70.6499 77.7386V78.2386H70.9985L71.119 77.9115L70.6499 77.7386ZM71.7294 76.4247L71.4583 76.0046L71.4583 76.0046L71.7294 76.4247ZM74.3714 75.9489H74.8714V75.4964L74.4212 75.4513L74.3714 75.9489ZM74.3714 77.6534L74.2502 78.1385L74.8714 78.2938V77.6534H74.3714ZM73.9808 77.5895L73.8986 78.0829L73.9117 78.0847L73.9808 77.5895ZM71.9283 77.8736L72.162 78.3156L72.1638 78.3146L71.9283 77.8736ZM70.9482 78.7827L70.5236 78.5186L70.5227 78.52L70.9482 78.7827ZM70.593 87V87.5H71.093V87H70.593ZM69.4169 87V76.0909H68.4169V87H69.4169ZM68.9169 76.5909H70.5362V75.5909H68.9169V76.5909ZM70.0362 76.0909V77.7386H71.0362V76.0909H70.0362ZM70.5362 78.2386H70.6499V77.2386H70.5362V78.2386ZM71.119 77.9115C71.2775 77.4815 71.5633 77.1271 72.0006 76.8448L71.4583 76.0046C70.8539 76.3947 70.42 76.9162 70.1807 77.5658L71.119 77.9115ZM72.0006 76.8448C72.4361 76.5637 72.9281 76.4205 73.4908 76.4205V75.4205C72.7466 75.4205 72.0644 75.6134 71.4583 76.0046L72.0006 76.8448ZM73.4908 76.4205C73.6081 76.4205 73.7573 76.4227 73.9396 76.4274L73.9652 75.4277C73.7782 75.4229 73.6197 75.4205 73.4908 75.4205V76.4205ZM73.9396 76.4274C74.1211 76.432 74.2459 76.4388 74.3217 76.4464L74.4212 75.4513C74.3076 75.44 74.1531 75.4325 73.9652 75.4277L73.9396 76.4274ZM73.8714 75.9489V77.6534H74.8714V75.9489H73.8714ZM74.4927 77.1683C74.4049 77.1464 74.2461 77.1217 74.0499 77.0943L73.9117 78.0847C74.0115 78.0986 74.0907 78.1104 74.1504 78.1202C74.1803 78.1251 74.2038 78.1292 74.2218 78.1326C74.2307 78.1343 74.2376 78.1357 74.2427 78.1368C74.248 78.1379 74.2503 78.1385 74.2502 78.1385L74.4927 77.1683ZM74.063 77.0963C73.8344 77.0582 73.596 77.0398 73.3487 77.0398V78.0398C73.5465 78.0398 73.7296 78.0545 73.8986 78.0827L74.063 77.0963ZM73.3487 77.0398C72.7465 77.0398 72.1904 77.1667 71.6927 77.4325L72.1638 78.3146C72.4995 78.1353 72.8904 78.0398 73.3487 78.0398V77.0398ZM71.6946 77.4316C71.2059 77.6899 70.8127 78.0537 70.5236 78.5186L71.3727 79.0467C71.5665 78.7351 71.8267 78.4929 72.162 78.3156L71.6946 77.4316ZM70.5227 78.52C70.2327 78.9897 70.093 79.5203 70.093 80.0966H71.093C71.093 79.688 71.1901 79.3427 71.3736 79.0453L70.5227 78.52ZM70.093 80.0966V87H71.093V80.0966H70.093ZM70.593 86.5H68.9169V87.5H70.593V86.5ZM81.7862 76.0909H82.2862V75.5909H81.7862V76.0909ZM81.7862 77.5114V78.0114H82.2862V77.5114H81.7862ZM76.1328 77.5114H75.6328V78.0114H76.1328V77.5114ZM76.1328 76.0909V75.5909H75.6328V76.0909H76.1328ZM77.7805 73.4773V72.9773H77.2805V73.4773H77.7805ZM79.4567 73.4773H79.9567V72.9773H79.4567V73.4773ZM79.6626 84.9403L79.23 85.1913L79.2362 85.2014L79.6626 84.9403ZM80.2024 85.4091L80.029 85.8782L80.0413 85.8824L80.2024 85.4091ZM81.3601 85.4943L81.4391 85.988L81.4486 85.9865L81.4581 85.9846L81.3601 85.4943ZM81.6442 85.4375L82.1318 85.3271L82.0242 84.8516L81.5461 84.9472L81.6442 85.4375ZM81.9851 86.9432L82.1606 87.4113L82.5691 87.2582L82.4727 86.8328L81.9851 86.9432ZM81.5092 87.071L81.4068 86.5815L81.396 86.584L81.5092 87.071ZM79.343 86.8366L79.1369 87.2922L79.1386 87.293L79.343 86.8366ZM78.2209 85.9062L77.8121 86.1942L77.8143 86.1973L78.2209 85.9062ZM81.2862 76.0909V77.5114H82.2862V76.0909H81.2862ZM81.7862 77.0114H76.1328V78.0114H81.7862V77.0114ZM76.6328 77.5114V76.0909H75.6328V77.5114H76.6328ZM76.1328 76.5909H81.7862V75.5909H76.1328V76.5909ZM77.7805 73.9773H79.4567V72.9773H77.7805V73.9773ZM78.9567 73.4773V83.875H79.9567V73.4773H78.9567ZM78.9567 83.875C78.9567 84.3804 79.0271 84.8411 79.2301 85.1912L80.0952 84.6895C80.0236 84.5661 79.9567 84.3165 79.9567 83.875H78.9567ZM79.2362 85.2014C79.4264 85.5121 79.6886 85.7522 80.0291 85.8781L80.3757 84.9401C80.2807 84.905 80.183 84.8326 80.0891 84.6793L79.2362 85.2014ZM80.0413 85.8824C80.3181 85.9767 80.6071 86.0227 80.9055 86.0227V85.0227C80.7115 85.0227 80.5318 84.993 80.3635 84.9358L80.0413 85.8824ZM80.9055 86.0227C81.1041 86.0227 81.2846 86.0128 81.4391 85.988L81.2811 85.0006C81.1988 85.0138 81.0763 85.0227 80.9055 85.0227V86.0227ZM81.4581 85.9846C81.5765 85.9609 81.6712 85.942 81.7422 85.9278L81.5461 84.9472C81.4751 84.9614 81.3804 84.9804 81.262 85.004L81.4581 85.9846ZM81.1565 85.5479L81.4974 87.0536L82.4727 86.8328L82.1318 85.3271L81.1565 85.5479ZM81.8095 86.475C81.7306 86.5046 81.6004 86.5411 81.4068 86.5816L81.6117 87.5604C81.8253 87.5157 82.0123 87.467 82.1606 87.4113L81.8095 86.475ZM81.396 86.584C81.2429 86.6196 81.0262 86.642 80.7351 86.642V87.642C81.0689 87.642 81.3684 87.6171 81.6225 87.558L81.396 86.584ZM80.7351 86.642C80.3357 86.642 79.9411 86.5567 79.5474 86.3803L79.1386 87.293C79.6541 87.5238 80.1875 87.642 80.7351 87.642V86.642ZM79.5492 86.3811C79.1826 86.2152 78.8766 85.9632 78.6274 85.6152L77.8143 86.1973C78.1618 86.6826 78.6039 87.0509 79.1369 87.2922L79.5492 86.3811ZM78.6296 85.6183C78.4086 85.3046 78.2805 84.8864 78.2805 84.3295H77.2805C77.2805 85.0417 77.446 85.6746 77.8121 86.1942L78.6296 85.6183ZM78.2805 84.3295V73.4773H77.2805V84.3295H78.2805ZM84.3075 87H83.8075V87.5H84.3075V87ZM84.3075 76.0909V75.5909H83.8075V76.0909H84.3075ZM85.9837 76.0909H86.4837V75.5909H85.9837V76.0909ZM85.9837 87V87.5H86.4837V87H85.9837ZM84.3146 73.9389L83.9685 74.2998L83.9722 74.3032L84.3146 73.9389ZM84.3146 72.3338L83.9722 71.9695L83.9685 71.973L84.3146 72.3338ZM85.9979 72.3338L85.6517 72.6947L85.6554 72.6981L85.9979 72.3338ZM85.9979 73.9389L85.6554 73.5746L85.6518 73.5781L85.9979 73.9389ZM84.8075 87V76.0909H83.8075V87H84.8075ZM84.3075 76.5909H85.9837V75.5909H84.3075V76.5909ZM85.4837 76.0909V87H86.4837V76.0909H85.4837ZM85.9837 86.5H84.3075V87.5H85.9837V86.5ZM85.1598 73.7727C84.9596 73.7727 84.8005 73.7094 84.6571 73.5746L83.9722 74.3032C84.3022 74.6135 84.7066 74.7727 85.1598 74.7727V73.7727ZM84.6607 73.5781C84.5239 73.4468 84.4666 73.3083 84.4666 73.1364H83.4666C83.4666 73.5894 83.6414 73.986 83.9685 74.2998L84.6607 73.5781ZM84.4666 73.1364C84.4666 72.9644 84.5239 72.8259 84.6607 72.6946L83.9685 71.973C83.6414 72.2867 83.4666 72.6833 83.4666 73.1364H84.4666ZM84.6571 72.6981C84.8005 72.5633 84.9596 72.5 85.1598 72.5V71.5C84.7066 71.5 84.3022 71.6593 83.9722 71.9695L84.6571 72.6981ZM85.1598 72.5C85.3598 72.5 85.5145 72.563 85.6518 72.6946L86.344 71.973C86.0172 71.6595 85.6132 71.5 85.1598 71.5V72.5ZM85.6554 72.6981C85.7961 72.8304 85.853 72.9679 85.853 73.1364H86.853C86.853 72.6798 86.6731 72.2823 86.3403 71.9695L85.6554 72.6981ZM85.853 73.1364C85.853 73.3048 85.7961 73.4423 85.6554 73.5746L86.3403 74.3032C86.6731 73.9904 86.853 73.5929 86.853 73.1364H85.853ZM85.6518 73.5781C85.5145 73.7097 85.3598 73.7727 85.1598 73.7727V74.7727C85.6132 74.7727 86.0172 74.6132 86.344 74.2998L85.6518 73.5781ZM90.8434 86.5028L90.5698 86.9213L90.5698 86.9213L90.8434 86.5028ZM89.1531 78.669L88.7029 78.4514L88.7024 78.4525L89.1531 78.669ZM90.8718 76.6733L91.1448 77.0922L91.1454 77.0918L90.8718 76.6733ZM97.0437 77.5682L97.4401 77.2635L97.4401 77.2635L97.0437 77.5682ZM97.7752 79.358V79.858H98.3495L98.2705 79.2892L97.7752 79.358ZM96.0991 79.358L95.6148 79.4825L95.7114 79.858H96.0991V79.358ZM95.2468 78.0369L94.9141 78.4102L94.9184 78.414L95.2468 78.0369ZM91.7667 77.9659L92.0505 78.3776L92.0513 78.377L91.7667 77.9659ZM90.6232 79.3935L90.1666 79.1897L90.1659 79.1914L90.6232 79.3935ZM90.6161 83.7472L90.1558 83.9424L90.1571 83.9454L90.6161 83.7472ZM91.7525 85.2031L91.4634 85.6111L91.4652 85.6124L91.7525 85.2031ZM94.6715 85.4943L94.4753 85.0344L94.4753 85.0344L94.6715 85.4943ZM95.5735 84.8409L95.9514 85.1684L95.9514 85.1684L95.5735 84.8409ZM96.0991 83.8182V83.3182H95.7132L95.6154 83.6915L96.0991 83.8182ZM97.7752 83.8182L98.2699 83.8909L98.3541 83.3182H97.7752V83.8182ZM97.0721 85.5582L96.6672 85.2648L96.6667 85.2655L97.0721 85.5582ZM95.6019 86.7798L95.8227 87.2284L95.8241 87.2277L95.6019 86.7798ZM93.4854 86.7273C92.5441 86.7273 91.762 86.5061 91.117 86.0844L90.5698 86.9213C91.402 87.4655 92.3813 87.7273 93.4854 87.7273V86.7273ZM91.117 86.0844C90.4608 85.6553 89.9523 85.0636 89.5915 84.2947L88.6862 84.7195C89.1208 85.6457 89.7487 86.3845 90.5698 86.9213L91.117 86.0844ZM89.5915 84.2947C89.2296 83.5236 89.0423 82.6298 89.0423 81.6023H88.0423C88.0423 82.7528 88.2526 83.7955 88.6862 84.7195L89.5915 84.2947ZM89.0423 81.6023C89.0423 80.556 89.2343 79.6545 89.6037 78.8856L88.7024 78.4525C88.2574 79.3786 88.0423 80.4326 88.0423 81.6023H89.0423ZM89.6032 78.8866C89.9788 78.1095 90.4933 77.5167 91.1448 77.0922L90.5988 76.2544C89.7825 76.7863 89.1511 77.524 88.7029 78.4514L89.6032 78.8866ZM91.1454 77.0918C91.7935 76.6681 92.5577 76.4489 93.457 76.4489V75.4489C92.3867 75.4489 91.4274 75.7126 90.5982 76.2548L91.1454 77.0918ZM93.457 76.4489C94.1613 76.4489 94.7797 76.579 95.3214 76.829L95.7404 75.921C95.0511 75.6029 94.2869 75.4489 93.457 75.4489V76.4489ZM95.3214 76.829C95.8673 77.081 96.3061 77.429 96.6472 77.8729L97.4401 77.2635C96.9953 76.6847 96.4255 76.2372 95.7404 75.921L95.3214 76.829ZM96.6472 77.8729C96.9838 78.3109 97.1964 78.8248 97.28 79.4267L98.2705 79.2892C98.1647 78.5275 97.8895 77.8482 97.4401 77.2635L96.6472 77.8729ZM97.7752 78.858H96.0991V79.858H97.7752V78.858ZM96.5833 79.2334C96.4269 78.6252 96.081 78.1004 95.5752 77.6599L94.9184 78.414C95.2933 78.7405 95.5156 79.0964 95.6148 79.4825L96.5833 79.2334ZM95.5795 77.6637C95.0299 77.1738 94.313 76.9545 93.4854 76.9545V77.9545C94.1351 77.9545 94.5925 78.1235 94.9141 78.4102L95.5795 77.6637ZM93.4854 76.9545C92.74 76.9545 92.0658 77.1507 91.4821 77.5548L92.0513 78.377C92.4525 78.0993 92.924 77.9545 93.4854 77.9545V76.9545ZM91.4829 77.5542C90.9096 77.9494 90.4734 78.5022 90.1666 79.1897L91.0798 79.5972C91.3223 79.0537 91.6484 78.6547 92.0505 78.3776L91.4829 77.5542ZM90.1659 79.1914C89.8621 79.8789 89.7184 80.6678 89.7184 81.5455H90.7184C90.7184 80.7754 90.8446 80.1296 91.0806 79.5955L90.1659 79.1914ZM89.7184 81.5455C89.7184 82.4397 89.859 83.2427 90.1558 83.9424L91.0764 83.5519C90.843 83.0016 90.7184 82.3369 90.7184 81.5455H89.7184ZM90.1571 83.9454C90.4582 84.6426 90.8909 85.2054 91.4634 85.6111L92.0416 84.7952C91.6387 84.5096 91.3139 84.1017 91.0752 83.5489L90.1571 83.9454ZM91.4652 85.6124C92.0503 86.0231 92.7307 86.2216 93.4854 86.2216V85.2216C92.9144 85.2216 92.4395 85.0745 92.0397 84.7939L91.4652 85.6124ZM93.4854 86.2216C93.9799 86.2216 94.4431 86.1354 94.8677 85.9542L94.4753 85.0344C94.1897 85.1563 93.8622 85.2216 93.4854 85.2216V86.2216ZM94.8677 85.9542C95.2907 85.7737 95.6541 85.5114 95.9514 85.1684L95.1957 84.5134C95.0005 84.7386 94.7626 84.9119 94.4753 85.0344L94.8677 85.9542ZM95.9514 85.1684C96.2523 84.8211 96.461 84.4097 96.5828 83.9449L95.6154 83.6915C95.5288 84.0221 95.3871 84.2926 95.1957 84.5134L95.9514 85.1684ZM96.0991 84.3182H97.7752V83.3182H96.0991V84.3182ZM97.2805 83.7454C97.1973 84.3114 96.993 84.8154 96.6672 85.2648L97.4769 85.8517C97.8993 85.2689 98.1637 84.6128 98.2699 83.8909L97.2805 83.7454ZM96.6667 85.2655C96.3488 85.7058 95.9238 86.062 95.3797 86.3319L95.8241 87.2277C96.5016 86.8916 97.0568 86.4334 97.4774 85.851L96.6667 85.2655ZM95.3811 86.3312C94.8557 86.5898 94.2283 86.7273 93.4854 86.7273V87.7273C94.3524 87.7273 95.136 87.5664 95.8227 87.2284L95.3811 86.3312ZM101.554 86.8651L101.341 87.3175L101.344 87.3189L101.554 86.8651ZM100.211 85.7216L99.7941 85.9971L99.7953 85.9989L100.211 85.7216ZM100.083 82.3835L100.506 82.6513L100.507 82.649L100.083 82.3835ZM102.434 80.9631L102.541 81.4515L102.545 81.4507L102.434 80.9631ZM103.947 80.6932L103.883 80.1973L103.882 80.1974L103.947 80.6932ZM105.559 80.5014L105.611 80.9988L105.616 80.9982L105.559 80.5014ZM106.468 80.267L106.224 79.8309L106.219 79.8336L106.468 80.267ZM106.184 78.0085L105.826 78.3577L105.829 78.3599L106.184 78.0085ZM102.576 77.9517L102.882 78.3477L102.882 78.3477L102.576 77.9517ZM101.618 79.0739L101.449 79.5447L101.879 79.6982L102.071 79.2844L101.618 79.0739ZM100.027 78.5057L99.5671 78.3087L99.3575 78.7976L99.8585 78.9766L100.027 78.5057ZM101.163 76.9574L101.471 77.3516L101.471 77.3512L101.163 76.9574ZM102.725 76.1761L102.852 76.66L102.854 76.6593L102.725 76.1761ZM105.609 76.0767L105.517 76.5682L105.523 76.5692L105.609 76.0767ZM106.937 76.581L106.68 77.0097L106.682 77.011L106.937 76.581ZM108.01 77.7386L107.572 77.9797L107.572 77.9798L108.01 77.7386ZM108.436 87V87.5H108.936V87H108.436ZM106.76 87H106.26V87.5H106.76V87ZM106.76 85.5227H107.26V85.0227H106.76V85.5227ZM106.674 85.5227V85.0227H106.36L106.224 85.3064L106.674 85.5227ZM106.106 86.2827L106.463 86.6331L106.463 86.6331L106.106 86.2827ZM105.048 86.9716L104.85 86.5123L104.85 86.5123L105.048 86.9716ZM105.368 85.3594L105.121 84.9244L105.119 84.9255L105.368 85.3594ZM106.404 84.3509L105.971 84.1017L105.969 84.1055L106.404 84.3509ZM106.76 81.517H107.26V80.136L106.375 81.197L106.76 81.517ZM106.291 81.7514L106.426 82.2329L106.432 82.2311L106.291 81.7514ZM105.467 81.929L105.543 82.4232L105.549 82.4222L105.467 81.929ZM104.565 82.0568L104.622 82.5536L104.629 82.5527L104.565 82.0568ZM103.862 82.142L103.927 82.6378L103.927 82.6378L103.862 82.142ZM102.64 82.419L102.797 82.894L102.8 82.8928L102.64 82.419ZM101.731 82.9801L101.364 82.6407L101.364 82.641L101.731 82.9801ZM102.037 85.3097L101.752 85.7208L101.757 85.7243L102.037 85.3097ZM103.436 86.7557C102.809 86.7557 102.254 86.6379 101.763 86.4112L101.344 87.3189C101.98 87.613 102.68 87.7557 103.436 87.7557V86.7557ZM101.767 86.4126C101.282 86.1846 100.906 85.8624 100.627 85.4442L99.7953 85.9989C100.179 86.5751 100.699 87.0153 101.341 87.3175L101.767 86.4126ZM100.629 85.4461C100.36 85.0398 100.214 84.5337 100.214 83.9034H99.2141C99.2141 84.6936 99.3995 85.3996 99.7941 85.9971L100.629 85.4461ZM100.214 83.9034C100.214 83.3402 100.325 82.9355 100.506 82.6513L99.6612 82.1158C99.349 82.608 99.2141 83.2166 99.2141 83.9034H100.214ZM100.507 82.649C100.707 82.33 100.972 82.082 101.308 81.9001L100.833 81.0203C100.346 81.2835 99.9523 81.6511 99.6597 82.1181L100.507 82.649ZM101.308 81.9001C101.676 81.7016 102.086 81.5513 102.541 81.4515L102.327 80.4746C101.788 80.5927 101.289 80.7737 100.833 81.0203L101.308 81.9001ZM102.545 81.4507C103.032 81.3405 103.521 81.2532 104.012 81.189L103.882 80.1974C103.36 80.2657 102.841 80.3584 102.324 80.4754L102.545 81.4507ZM104.011 81.1891C104.672 81.1041 105.205 81.0408 105.611 80.9988L105.508 80.0041C105.09 80.0473 104.548 80.1118 103.883 80.1973L104.011 81.1891ZM105.616 80.9982C106.049 80.949 106.437 80.8621 106.718 80.7005L106.219 79.8336C106.121 79.8898 105.903 79.9592 105.503 80.0046L105.616 80.9982ZM106.713 80.7031C107.101 80.4855 107.26 80.1041 107.26 79.6989H106.26C106.26 79.7752 106.246 79.8075 106.242 79.8153C106.24 79.819 106.239 79.8203 106.238 79.821C106.237 79.8219 106.233 79.8255 106.224 79.831L106.713 80.7031ZM107.26 79.6989V79.642H106.26V79.6989H107.26ZM107.26 79.642C107.26 78.8488 107.04 78.1635 106.54 77.6571L105.829 78.3599C106.095 78.63 106.26 79.0338 106.26 79.642H107.26ZM106.542 77.6594C106.035 77.14 105.307 76.9261 104.458 76.9261V77.9261C105.153 77.9261 105.576 78.1006 105.826 78.3577L106.542 77.6594ZM104.458 76.9261C103.591 76.9261 102.842 77.1158 102.271 77.5557L102.882 78.3477C103.22 78.0869 103.726 77.9261 104.458 77.9261V76.9261ZM102.271 77.5557C101.772 77.9405 101.391 78.3738 101.164 78.8633L102.071 79.2844C102.213 78.9785 102.472 78.6637 102.882 78.3477L102.271 77.5557ZM101.786 78.603L100.195 78.0348L99.8585 78.9766L101.449 79.5447L101.786 78.603ZM100.486 78.7026C100.744 78.1018 101.076 77.6596 101.471 77.3516L100.855 76.5631C100.303 76.9938 99.8777 77.5838 99.5671 78.3087L100.486 78.7026ZM101.471 77.3512C101.898 77.0175 102.357 76.7888 102.852 76.66L102.599 75.6923C101.967 75.857 101.385 76.1492 100.855 76.5636L101.471 77.3512ZM102.854 76.6593C103.383 76.5182 103.899 76.4489 104.402 76.4489V75.4489C103.806 75.4489 103.204 75.5311 102.597 75.693L102.854 76.6593ZM104.402 76.4489C104.713 76.4489 105.084 76.4869 105.517 76.5681L105.701 75.5853C105.225 75.496 104.791 75.4489 104.402 75.4489V76.4489ZM105.523 76.5692C105.918 76.6384 106.303 76.7835 106.68 77.0097L107.194 76.1522C106.719 75.8671 106.219 75.676 105.695 75.5842L105.523 76.5692ZM106.682 77.011C107.024 77.2137 107.323 77.5279 107.572 77.9797L108.448 77.4975C108.128 76.9171 107.712 76.4596 107.192 76.151L106.682 77.011ZM107.572 77.9798C107.8 78.3953 107.936 78.9935 107.936 79.8125H108.936C108.936 78.8986 108.787 78.1142 108.448 77.4975L107.572 77.9798ZM107.936 79.8125V87H108.936V79.8125H107.936ZM108.436 86.5H106.76V87.5H108.436V86.5ZM107.26 87V85.5227H106.26V87H107.26ZM106.76 85.0227H106.674V86.0227H106.76V85.0227ZM106.224 85.3064C106.142 85.4769 105.992 85.6858 105.75 85.9323L106.463 86.6331C106.751 86.3397 106.98 86.042 107.125 85.7391L106.224 85.3064ZM105.75 85.9323C105.54 86.1453 105.246 86.3419 104.85 86.5123L105.245 87.4309C105.73 87.2225 106.142 86.9598 106.463 86.6331L105.75 85.9323ZM104.85 86.5123C104.489 86.6677 104.023 86.7557 103.436 86.7557V87.7557C104.117 87.7557 104.726 87.6543 105.245 87.4309L104.85 86.5123ZM103.691 86.25C104.419 86.25 105.068 86.107 105.616 85.7932L105.119 84.9255C104.758 85.1325 104.29 85.25 103.691 85.25V86.25ZM105.614 85.7943C106.143 85.4944 106.558 85.0963 106.84 84.5962L105.969 84.1055C105.786 84.4292 105.511 84.7035 105.121 84.9244L105.614 85.7943ZM106.838 84.6C107.116 84.1158 107.26 83.5971 107.26 83.0511H106.26C106.26 83.4142 106.166 83.762 105.971 84.1017L106.838 84.6ZM107.26 83.0511V81.517H106.26V83.0511H107.26ZM106.375 81.197C106.402 81.1649 106.414 81.1683 106.366 81.1923C106.323 81.2138 106.253 81.2413 106.15 81.2717L106.432 82.2311C106.57 82.1905 106.699 82.1435 106.813 82.0868C106.921 82.0327 107.046 81.9544 107.144 81.8371L106.375 81.197ZM106.156 81.2699C105.941 81.3302 105.684 81.3859 105.385 81.4358L105.549 82.4222C105.875 82.3679 106.167 82.3052 106.426 82.2329L106.156 81.2699ZM105.391 81.4348C105.087 81.4816 104.79 81.5236 104.501 81.5609L104.629 82.5527C104.927 82.5143 105.231 82.4711 105.543 82.4232L105.391 81.4348ZM104.508 81.5601C104.218 81.5934 103.98 81.6221 103.797 81.6463L103.927 82.6378C104.103 82.6146 104.334 82.5865 104.622 82.5536L104.508 81.5601ZM103.797 81.6462C103.332 81.7069 102.893 81.806 102.48 81.9453L102.8 82.8928C103.145 82.7764 103.52 82.6908 103.927 82.6378L103.797 81.6462ZM102.484 81.9441C102.042 82.0897 101.662 82.3185 101.364 82.6407L102.098 83.3195C102.264 83.1399 102.491 82.9946 102.797 82.894L102.484 81.9441ZM101.364 82.641C101.03 83.0027 100.89 83.4722 100.89 83.9886H101.89C101.89 83.6528 101.978 83.45 102.099 83.3193L101.364 82.641ZM100.89 83.9886C100.89 84.7138 101.17 85.3175 101.752 85.7208L102.321 84.8986C102.042 84.7052 101.89 84.4283 101.89 83.9886H100.89ZM101.757 85.7243C102.295 86.0868 102.951 86.25 103.691 86.25V85.25C103.096 85.25 102.649 85.1196 102.316 84.895L101.757 85.7243ZM113.171 72.4545H113.671V71.9545H113.171V72.4545ZM113.171 87V87.5H113.671V87H113.171ZM111.495 87H110.995V87.5H111.495V87ZM111.495 72.4545V71.9545H110.995V72.4545H111.495ZM112.671 72.4545V87H113.671V72.4545H112.671ZM113.171 86.5H111.495V87.5H113.171V86.5ZM111.995 87V72.4545H110.995V87H111.995ZM111.495 72.9545H113.171V71.9545H111.495V72.9545Z" fill="black"/>
</svg>
